<?xml version="1.0" encoding="utf-8" ?>
<svg baseProfile="full" height="98mm" version="1.1" viewBox="0,0,200,98" width="200mm" xmlns="http://www.w3.org/2000/svg" xmlns:ev="http://www.w3.org/2001/xml-events" xmlns:xlink="http://www.w3.org/1999/xlink"><defs /><rect fill="#222222" height="98" width="200" x="0" y="0" /><text fill="#FFFFFF" style="font-size:12px; font-family:Arial; font-weight:bold;" x="10" y="20">2024 Running</text><text fill="#FFFFFF" style="font-size:4px; font-family:Arial" x="10" y="78">ATHLETE</text><text fill="#FFFFFF" style="font-size:9px; font-family:Arial" x="10" y="88">Bob</text><text fill="#FFFFFF" style="font-size:4px; font-family:Arial" x="120" y="78">STATISTICS</text><text fill="#FFFFFF" style="font-size:3px; font-family:Arial" x="120" y="83">Number: 578</text><text fill="#FFFFFF" style="font-size:3px; font-family:Arial" x="120" y="88">Weekly: 11.1</text><text fill="#FFFFFF" style="font-size:3px; font-family:Arial" x="141" y="83">Total: 4291.5 km</text><text fill="#FFFFFF" style="font-size:3px; font-family:Arial" x="141" y="88">Avg: 7.4 km</text><text fill="#FFFFFF" style="font-size:3px; font-family:Arial" x="167" y="83">Min: 0.6 km</text><text fill="#FFFFFF" style="font-size:3px; font-family:Arial" x="167" y="88">Max: 54.2 km</text><text dominant-baseline="hanging" fill="#FFFFFF" style="font-size:10.0px; font-family:Arial;" x="10" y="30">2024</text><text dominant-baseline="hanging" fill="#FFFFFF" style="font-size:4.125px; font-family:Arial;" x="175" y="35">4291.5 km</text><text fill="#FFFFFF" style="font-size:2.5px; font-family:Arial" x="10.0" y="44">Jan</text><text fill="#FFFFFF" style="font-size:2.5px; font-family:Arial" x="25.5" y="44">Feb</text><text fill="#FFFFFF" style="font-size:2.5px; font-family:Arial" x="41.0" y="44">Mar</text><text fill="#FFFFFF" style="font-size:2.5px; font-family:Arial" x="56.5" y="44">Apr</text><text fill="#FFFFFF" style="font-size:2.5px; font-family:Arial" x="72.0" y="44">May</text><text fill="#FFFFFF" style="font-size:2.5px; font-family:Arial" x="87.5" y="44">Jun</text><text fill="#FFFFFF" style="font-size:2.5px; font-family:Arial" x="103.0" y="44">Jul</text><text fill="#FFFFFF" style="font-size:2.5px; font-family:Arial" x="118.5" y="44">Aug</text><text fill="#FFFFFF" style="font-size:2.5px; font-family:Arial" x="134.0" y="44">Sep</text><text fill="#FFFFFF" style="font-size:2.5px; font-family:Arial" x="149.5" y="44">Oct</text><text fill="#FFFFFF" style="font-size:2.5px; font-family:Arial" x="165.0" y="44">Nov</text><text fill="#FFFFFF" style="font-size:2.5px; font-family:Arial" x="180.5" y="44">Dec</text><rect fill="#ffd100" height="2.6" width="2.6" x="10.0" y="45.5"><title>2024-01-01 12.8 km</title></rect><rect fill="#444444" height="2.6" width="2.6" x="10.0" y="49.0"><title>2024-01-02</title></rect><rect fill="red" height="2.6" width="2.6" x="10.0" y="52.5"><title>2024-01-03 28.6 km</title></rect><rect fill="#ffcb00" height="2.6" width="2.6" x="10.0" y="56.0"><title>2024-01-04 14.2 km</title></rect><rect fill="#ffd300" height="2.6" width="2.6" x="10.0" y="59.5"><title>2024-01-05 12.3 km</title></rect><rect fill="#4dd2ff" height="2.6" width="2.6" x="10.0" y="63.0"><title>2024-01-06 4.3 km</title></rect><rect fill="#444444" height="2.6" width="2.6" x="10.0" y="66.5"><title>2024-01-07</title></rect><rect fill="#444444" height="2.6" width="2.6" x="13.5" y="45.5"><title>2024-01-08</title></rect><rect fill="red" height="2.6" width="2.6" x="13.5" y="49.0"><title>2024-01-09 28.4 km</title></rect><rect fill="#444444" height="2.6" width="2.6" x="13.5" y="52.5"><title>2024-01-10</title></rect><rect fill="red" height="2.6" width="2.6" x="13.5" y="56.0"><title>2024-01-11 23.6 km</title></rect><rect fill="#444444" height="2.6" width="2.6" x="13.5" y="59.5"><title>2024-01-12</title></rect><rect fill="red" height="2.6" width="2.6" x="13.5" y="63.0"><title>2024-01-13 34.9 km</title></rect><rect fill="#444444" height="2.6" width="2.6" x="13.5" y="66.5"><title>2024-01-14</title></rect><rect fill="#444444" height="2.6" width="2.6" x="17.0" y="45.5"><title>2024-01-15</title></rect><rect fill="red" height="2.6" width="2.6" x="17.0" y="49.0"><title>2024-01-16 41.8 km</title></rect><rect fill="#444444" height="2.6" width="2.6" x="17.0" y="52.5"><title>2024-01-17</title></rect><rect fill="#444444" height="2.6" width="2.6" x="17.0" y="56.0"><title>2024-01-18</title></rect><rect fill="#444444" height="2.6" width="2.6" x="17.0" y="59.5"><title>2024-01-19</title></rect><rect fill="#444444" height="2.6" width="2.6" x="17.0" y="63.0"><title>2024-01-20</title></rect><rect fill="#4dd2ff" height="2.6" width="2.6" x="17.0" y="66.5"><title>2024-01-21 2.0 km</title></rect><rect fill="#444444" height="2.6" width="2.6" x="20.5" y="45.5"><title>2024-01-22</title></rect><rect fill="#444444" height="2.6" width="2.6" x="20.5" y="49.0"><title>2024-01-23</title></rect><rect fill="#444444" height="2.6" width="2.6" x="20.5" y="52.5"><title>2024-01-24</title></rect><rect fill="#444444" height="2.6" width="2.6" x="20.5" y="56.0"><title>2024-01-25</title></rect><rect fill="#444444" height="2.6" width="2.6" x="20.5" y="59.5"><title>2024-01-26</title></rect><rect fill="#4dd2ff" height="2.6" width="2.6" x="20.5" y="63.0"><title>2024-01-27 5.2 km</title></rect><rect fill="#444444" height="2.6" width="2.6" x="20.5" y="66.5"><title>2024-01-28</title></rect><rect fill="#444444" height="2.6" width="2.6" x="24.0" y="45.5"><title>2024-01-29</title></rect><rect fill="#444444" height="2.6" width="2.6" x="24.0" y="49.0"><title>2024-01-30</title></rect><rect fill="#444444" height="2.6" width="2.6" x="24.0" y="52.5"><title>2024-01-31</title></rect><rect fill="#444444" height="2.6" width="2.6" x="24.0" y="56.0"><title>2024-02-01</title></rect><rect fill="#4dd2ff" height="2.6" width="2.6" x="24.0" y="59.5"><title>2024-02-02 4.0 km</title></rect><rect fill="#ffd300" height="2.6" width="2.6" x="24.0" y="63.0"><title>2024-02-03 12.4 km</title></rect><rect fill="#444444" height="2.6" width="2.6" x="24.0" y="66.5"><title>2024-02-04</title></rect><rect fill="#444444" height="2.6" width="2.6" x="27.5" y="45.5"><title>2024-02-05</title></rect><rect fill="#444444" height="2.6" width="2.6" x="27.5" y="49.0"><title>2024-02-06</title></rect><rect fill="#444444" height="2.6" width="2.6" x="27.5" y="52.5"><title>2024-02-07</title></rect><rect fill="#444444" height="2.6" width="2.6" x="27.5" y="56.0"><title>2024-02-08</title></rect><rect fill="#444444" height="2.6" width="2.6" x="27.5" y="59.5"><title>2024-02-09</title></rect><rect fill="#4dd2ff" height="2.6" width="2.6" x="27.5" y="63.0"><title>2024-02-10 6.1 km</title></rect><rect fill="#444444" height="2.6" width="2.6" x="27.5" y="66.5"><title>2024-02-11</title></rect><rect fill="#4dd2ff" height="2.6" width="2.6" x="31.0" y="45.5"><title>2024-02-12 2.9 km</title></rect><rect fill="#444444" height="2.6" width="2.6" x="31.0" y="49.0"><title>2024-02-13</title></rect><rect fill="#444444" height="2.6" width="2.6" x="31.0" y="52.5"><title>2024-02-14</title></rect><rect fill="#444444" height="2.6" width="2.6" x="31.0" y="56.0"><title>2024-02-15</title></rect><rect fill="#444444" height="2.6" width="2.6" x="31.0" y="59.5"><title>2024-02-16</title></rect><rect fill="#444444" height="2.6" width="2.6" x="31.0" y="63.0"><title>2024-02-17</title></rect><rect fill="#444444" height="2.6" width="2.6" x="31.0" y="66.5"><title>2024-02-18</title></rect><rect fill="#ffcf00" height="2.6" width="2.6" x="34.5" y="45.5"><title>2024-02-19 13.2 km</title></rect><rect fill="#444444" height="2.6" width="2.6" x="34.5" y="49.0"><title>2024-02-20</title></rect><rect fill="#444444" height="2.6" width="2.6" x="34.5" y="52.5"><title>2024-02-21</title></rect><rect fill="#444444" height="2.6" width="2.6" x="34.5" y="56.0"><title>2024-02-22</title></rect><rect fill="#444444" height="2.6" width="2.6" x="34.5" y="59.5"><title>2024-02-23</title></rect><rect fill="#4dd2ff" height="2.6" width="2.6" x="34.5" y="63.0"><title>2024-02-24 6.5 km</title></rect><rect fill="#ffd000" height="2.6" width="2.6" x="34.5" y="66.5"><title>2024-02-25 12.9 km</title></rect><rect fill="#444444" height="2.6" width="2.6" x="38.0" y="45.5"><title>2024-02-26</title></rect><rect fill="#ffcd00" height="2.6" width="2.6" x="38.0" y="49.0"><title>2024-02-27 13.8 km</title></rect><rect fill="#444444" height="2.6" width="2.6" x="38.0" y="52.5"><title>2024-02-28</title></rect><rect fill="#444444" height="2.6" width="2.6" x="38.0" y="56.0"><title>2024-02-29</title></rect><rect fill="#444444" height="2.6" width="2.6" x="38.0" y="59.5"><title>2024-03-01</title></rect><rect fill="red" height="2.6" width="2.6" x="38.0" y="63.0"><title>2024-03-02 20.5 km</title></rect><rect fill="red" height="2.6" width="2.6" x="38.0" y="66.5"><title>2024-03-03 35.0 km</title></rect><rect fill="#444444" height="2.6" width="2.6" x="41.5" y="45.5"><title>2024-03-04</title></rect><rect fill="#ffcc00" height="2.6" width="2.6" x="41.5" y="49.0"><title>2024-03-05 14.1 km</title></rect><rect fill="#444444" height="2.6" width="2.6" x="41.5" y="52.5"><title>2024-03-06</title></rect><rect fill="#ffd200" height="2.6" width="2.6" x="41.5" y="56.0"><title>2024-03-07 12.5 km</title></rect><rect fill="#ffbb00" height="2.6" width="2.6" x="41.5" y="59.5"><title>2024-03-08 18.3 km</title></rect><rect fill="red" height="2.6" width="2.6" x="41.5" y="63.0"><title>2024-03-09 42.4 km</title></rect><rect fill="#444444" height="2.6" width="2.6" x="41.5" y="66.5"><title>2024-03-10</title></rect><rect fill="#444444" height="2.6" width="2.6" x="45.0" y="45.5"><title>2024-03-11</title></rect><rect fill="#ffcd00" height="2.6" width="2.6" x="45.0" y="49.0"><title>2024-03-12 13.7 km</title></rect><rect fill="#444444" height="2.6" width="2.6" x="45.0" y="52.5"><title>2024-03-13</title></rect><rect fill="#444444" height="2.6" width="2.6" x="45.0" y="56.0"><title>2024-03-14</title></rect><rect fill="red" height="2.6" width="2.6" x="45.0" y="59.5"><title>2024-03-15 23.0 km</title></rect><rect fill="red" height="2.6" width="2.6" x="45.0" y="63.0"><title>2024-03-16 54.0 km</title></rect><rect fill="#ffc800" height="2.6" width="2.6" x="45.0" y="66.5"><title>2024-03-17 15.0 km</title></rect><rect fill="#444444" height="2.6" width="2.6" x="48.5" y="45.5"><title>2024-03-18</title></rect><rect fill="#ffb600" height="2.6" width="2.6" x="48.5" y="49.0"><title>2024-03-19 19.5 km</title></rect><rect fill="#ffcd00" height="2.6" width="2.6" x="48.5" y="52.5"><title>2024-03-20 13.7 km</title></rect><rect fill="#4dd2ff" height="2.6" width="2.6" x="48.5" y="56.0"><title>2024-03-21 6.0 km</title></rect><rect fill="#ffcd00" height="2.6" width="2.6" x="48.5" y="59.5"><title>2024-03-22 13.7 km</title></rect><rect fill="#444444" height="2.6" width="2.6" x="48.5" y="63.0"><title>2024-03-23</title></rect><rect fill="red" height="2.6" width="2.6" x="48.5" y="66.5"><title>2024-03-24 42.8 km</title></rect><rect fill="#444444" height="2.6" width="2.6" x="52.0" y="45.5"><title>2024-03-25</title></rect><rect fill="#ffce00" height="2.6" width="2.6" x="52.0" y="49.0"><title>2024-03-26 13.6 km</title></rect><rect fill="#ffce00" height="2.6" width="2.6" x="52.0" y="52.5"><title>2024-03-27 13.6 km</title></rect><rect fill="#444444" height="2.6" width="2.6" x="52.0" y="56.0"><title>2024-03-28</title></rect><rect fill="#444444" height="2.6" width="2.6" x="52.0" y="59.5"><title>2024-03-29</title></rect><rect fill="#444444" height="2.6" width="2.6" x="52.0" y="63.0"><title>2024-03-30</title></rect><rect fill="#4dd2ff" height="2.6" width="2.6" x="52.0" y="66.5"><title>2024-03-31 4.8 km</title></rect><rect fill="#444444" height="2.6" width="2.6" x="55.5" y="45.5"><title>2024-04-01</title></rect><rect fill="#444444" height="2.6" width="2.6" x="55.5" y="49.0"><title>2024-04-02</title></rect><rect fill="#444444" height="2.6" width="2.6" x="55.5" y="52.5"><title>2024-04-03</title></rect><rect fill="#ffc100" height="2.6" width="2.6" x="55.5" y="56.0"><title>2024-04-04 16.7 km</title></rect><rect fill="#444444" height="2.6" width="2.6" x="55.5" y="59.5"><title>2024-04-05</title></rect><rect fill="#ffd200" height="2.6" width="2.6" x="55.5" y="63.0"><title>2024-04-06 12.4 km</title></rect><rect fill="#444444" height="2.6" width="2.6" x="55.5" y="66.5"><title>2024-04-07</title></rect><rect fill="#444444" height="2.6" width="2.6" x="59.0" y="45.5"><title>2024-04-08</title></rect><rect fill="red" height="2.6" width="2.6" x="59.0" y="49.0"><title>2024-04-09 27.9 km</title></rect><rect fill="#ffcc00" height="2.6" width="2.6" x="59.0" y="52.5"><title>2024-04-10 13.9 km</title></rect><rect fill="#444444" height="2.6" width="2.6" x="59.0" y="56.0"><title>2024-04-11</title></rect><rect fill="#444444" height="2.6" width="2.6" x="59.0" y="59.5"><title>2024-04-12</title></rect><rect fill="#444444" height="2.6" width="2.6" x="59.0" y="63.0"><title>2024-04-13</title></rect><rect fill="red" height="2.6" width="2.6" x="59.0" y="66.5"><title>2024-04-14 22.6 km</title></rect><rect fill="#444444" height="2.6" width="2.6" x="62.5" y="45.5"><title>2024-04-15</title></rect><rect fill="#ffc400" height="2.6" width="2.6" x="62.5" y="49.0"><title>2024-04-16 16.0 km</title></rect><rect fill="#444444" height="2.6" width="2.6" x="62.5" y="52.5"><title>2024-04-17</title></rect><rect fill="red" height="2.6" width="2.6" x="62.5" y="56.0"><title>2024-04-18 53.8 km</title></rect><rect fill="#ffce00" height="2.6" width="2.6" x="62.5" y="59.5"><title>2024-04-19 13.5 km</title></rect><rect fill="red" height="2.6" width="2.6" x="62.5" y="63.0"><title>2024-04-20 25.3 km</title></rect><rect fill="red" height="2.6" width="2.6" x="62.5" y="66.5"><title>2024-04-21 53.7 km</title></rect><rect fill="#444444" height="2.6" width="2.6" x="66.0" y="45.5"><title>2024-04-22</title></rect><rect fill="#444444" height="2.6" width="2.6" x="66.0" y="49.0"><title>2024-04-23</title></rect><rect fill="red" height="2.6" width="2.6" x="66.0" y="52.5"><title>2024-04-24 53.0 km</title></rect><rect fill="#444444" height="2.6" width="2.6" x="66.0" y="56.0"><title>2024-04-25</title></rect><rect fill="red" height="2.6" width="2.6" x="66.0" y="59.5"><title>2024-04-26 21.6 km</title></rect><rect fill="red" height="2.6" width="2.6" x="66.0" y="63.0"><title>2024-04-27 21.8 km</title></rect><rect fill="#444444" height="2.6" width="2.6" x="66.0" y="66.5"><title>2024-04-28</title></rect><rect fill="red" height="2.6" width="2.6" x="69.5" y="45.5"><title>2024-04-29 53.8 km</title></rect><rect fill="red" height="2.6" width="2.6" x="69.5" y="49.0"><title>2024-04-30 21.8 km</title></rect><rect fill="#444444" height="2.6" width="2.6" x="69.5" y="52.5"><title>2024-05-01</title></rect><rect fill="red" height="2.6" width="2.6" x="69.5" y="56.0"><title>2024-05-02 23.6 km</title></rect><rect fill="#4dd2ff" height="2.6" width="2.6" x="69.5" y="59.5"><title>2024-05-03 1.7 km</title></rect><rect fill="#4dd2ff" height="2.6" width="2.6" x="69.5" y="63.0"><title>2024-05-04 7.9 km</title></rect><rect fill="#ffdc00" height="2.6" width="2.6" x="69.5" y="66.5"><title>2024-05-05 10.0 km</title></rect><rect fill="red" height="2.6" width="2.6" x="73.0" y="45.5"><title>2024-05-06 36.5 km</title></rect><rect fill="#444444" height="2.6" width="2.6" x="73.0" y="49.0"><title>2024-05-07</title></rect><rect fill="#444444" height="2.6" width="2.6" x="73.0" y="52.5"><title>2024-05-08</title></rect><rect fill="red" height="2.6" width="2.6" x="73.0" y="56.0"><title>2024-05-09 34.0 km</title></rect><rect fill="#444444" height="2.6" width="2.6" x="73.0" y="59.5"><title>2024-05-10</title></rect><rect fill="#444444" height="2.6" width="2.6" x="73.0" y="63.0"><title>2024-05-11</title></rect><rect fill="#ffcd00" height="2.6" width="2.6" x="73.0" y="66.5"><title>2024-05-12 13.7 km</title></rect><rect fill="#4dd2ff" height="2.6" width="2.6" x="76.5" y="45.5"><title>2024-05-13 4.1 km</title></rect><rect fill="#ffc600" height="2.6" width="2.6" x="76.5" y="49.0"><title>2024-05-14 15.6 km</title></rect><rect fill="#4dd2ff" height="2.6" width="2.6" x="76.5" y="52.5"><title>2024-05-15 7.6 km</title></rect><rect fill="red" height="2.6" width="2.6" x="76.5" y="56.0"><title>2024-05-16 51.5 km</title></rect><rect fill="#444444" height="2.6" width="2.6" x="76.5" y="59.5"><title>2024-05-17</title></rect><rect fill="#ffda00" height="2.6" width="2.6" x="76.5" y="63.0"><title>2024-05-18 10.6 km</title></rect><rect fill="#4dd2ff" height="2.6" width="2.6" x="76.5" y="66.5"><title>2024-05-19 5.1 km</title></rect><rect fill="#4dd2ff" height="2.6" width="2.6" x="80.0" y="45.5"><title>2024-05-20 5.2 km</title></rect><rect fill="#ffd400" height="2.6" width="2.6" x="80.0" y="49.0"><title>2024-05-21 12.0 km</title></rect><rect fill="#444444" height="2.6" width="2.6" x="80.0" y="52.5"><title>2024-05-22</title></rect><rect fill="#ffdc00" height="2.6" width="2.6" x="80.0" y="56.0"><title>2024-05-23 10.0 km</title></rect><rect fill="red" height="2.6" width="2.6" x="80.0" y="59.5"><title>2024-05-24 54.0 km</title></rect><rect fill="red" height="2.6" width="2.6" x="80.0" y="63.0"><title>2024-05-25 31.1 km</title></rect><rect fill="#444444" height="2.6" width="2.6" x="80.0" y="66.5"><title>2024-05-26</title></rect><rect fill="#444444" height="2.6" width="2.6" x="83.5" y="45.5"><title>2024-05-27</title></rect><rect fill="#ffbb00" height="2.6" width="2.6" x="83.5" y="49.0"><title>2024-05-28 18.2 km</title></rect><rect fill="#4dd2ff" height="2.6" width="2.6" x="83.5" y="52.5"><title>2024-05-29 6.1 km</title></rect><rect fill="red" height="2.6" width="2.6" x="83.5" y="56.0"><title>2024-05-30 53.9 km</title></rect><rect fill="#4dd2ff" height="2.6" width="2.6" x="83.5" y="59.5"><title>2024-05-31 3.0 km</title></rect><rect fill="red" height="2.6" width="2.6" x="83.5" y="63.0"><title>2024-06-01 43.7 km</title></rect><rect fill="#444444" height="2.6" width="2.6" x="83.5" y="66.5"><title>2024-06-02</title></rect><rect fill="#444444" height="2.6" width="2.6" x="87.0" y="45.5"><title>2024-06-03</title></rect><rect fill="red" height="2.6" width="2.6" x="87.0" y="49.0"><title>2024-06-04 33.8 km</title></rect><rect fill="#ffcc00" height="2.6" width="2.6" x="87.0" y="52.5"><title>2024-06-05 14.0 km</title></rect><rect fill="red" height="2.6" width="2.6" x="87.0" y="56.0"><title>2024-06-06 25.2 km</title></rect><rect fill="#444444" height="2.6" width="2.6" x="87.0" y="59.5"><title>2024-06-07</title></rect><rect fill="red" height="2.6" width="2.6" x="87.0" y="63.0"><title>2024-06-08 34.6 km</title></rect><rect fill="#4dd2ff" height="2.6" width="2.6" x="87.0" y="66.5"><title>2024-06-09 9.5 km</title></rect><rect fill="red" height="2.6" width="2.6" x="90.5" y="45.5"><title>2024-06-10 34.8 km</title></rect><rect fill="red" height="2.6" width="2.6" x="90.5" y="49.0"><title>2024-06-11 20.3 km</title></rect><rect fill="#444444" height="2.6" width="2.6" x="90.5" y="52.5"><title>2024-06-12</title></rect><rect fill="red" height="2.6" width="2.6" x="90.5" y="56.0"><title>2024-06-13 65.9 km</title></rect><rect fill="red" height="2.6" width="2.6" x="90.5" y="59.5"><title>2024-06-14 56.6 km</title></rect><rect fill="red" height="2.6" width="2.6" x="90.5" y="63.0"><title>2024-06-15 28.6 km</title></rect><rect fill="#4dd2ff" height="2.6" width="2.6" x="90.5" y="66.5"><title>2024-06-16 7.3 km</title></rect><rect fill="#444444" height="2.6" width="2.6" x="94.0" y="45.5"><title>2024-06-17</title></rect><rect fill="#ffcd00" height="2.6" width="2.6" x="94.0" y="49.0"><title>2024-06-18 13.8 km</title></rect><rect fill="#444444" height="2.6" width="2.6" x="94.0" y="52.5"><title>2024-06-19</title></rect><rect fill="#ffd000" height="2.6" width="2.6" x="94.0" y="56.0"><title>2024-06-20 12.9 km</title></rect><rect fill="red" height="2.6" width="2.6" x="94.0" y="59.5"><title>2024-06-21 38.2 km</title></rect><rect fill="#4dd2ff" height="2.6" width="2.6" x="94.0" y="63.0"><title>2024-06-22 2.9 km</title></rect><rect fill="#ffbb00" height="2.6" width="2.6" x="94.0" y="66.5"><title>2024-06-23 18.3 km</title></rect><rect fill="#444444" height="2.6" width="2.6" x="97.5" y="45.5"><title>2024-06-24</title></rect><rect fill="#ffcf00" height="2.6" width="2.6" x="97.5" y="49.0"><title>2024-06-25 13.2 km</title></rect><rect fill="#444444" height="2.6" width="2.6" x="97.5" y="52.5"><title>2024-06-26</title></rect><rect fill="#444444" height="2.6" width="2.6" x="97.5" y="56.0"><title>2024-06-27</title></rect><rect fill="#444444" height="2.6" width="2.6" x="97.5" y="59.5"><title>2024-06-28</title></rect><rect fill="red" height="2.6" width="2.6" x="97.5" y="63.0"><title>2024-06-29 23.9 km</title></rect><rect fill="#444444" height="2.6" width="2.6" x="97.5" y="66.5"><title>2024-06-30</title></rect><rect fill="red" height="2.6" width="2.6" x="101.0" y="45.5"><title>2024-07-01 39.7 km</title></rect><rect fill="red" height="2.6" width="2.6" x="101.0" y="49.0"><title>2024-07-02 21.1 km</title></rect><rect fill="#444444" height="2.6" width="2.6" x="101.0" y="52.5"><title>2024-07-03</title></rect><rect fill="red" height="2.6" width="2.6" x="101.0" y="56.0"><title>2024-07-04 43.8 km</title></rect><rect fill="#4dd2ff" height="2.6" width="2.6" x="101.0" y="59.5"><title>2024-07-05 6.9 km</title></rect><rect fill="red" height="2.6" width="2.6" x="101.0" y="63.0"><title>2024-07-06 36.9 km</title></rect><rect fill="red" height="2.6" width="2.6" x="101.0" y="66.5"><title>2024-07-07 34.9 km</title></rect><rect fill="red" height="2.6" width="2.6" x="104.5" y="45.5"><title>2024-07-08 39.1 km</title></rect><rect fill="#ffd000" height="2.6" width="2.6" x="104.5" y="49.0"><title>2024-07-09 13.0 km</title></rect><rect fill="#444444" height="2.6" width="2.6" x="104.5" y="52.5"><title>2024-07-10</title></rect><rect fill="#ffcc00" height="2.6" width="2.6" x="104.5" y="56.0"><title>2024-07-11 14.0 km</title></rect><rect fill="#4dd2ff" height="2.6" width="2.6" x="104.5" y="59.5"><title>2024-07-12 7.6 km</title></rect><rect fill="red" height="2.6" width="2.6" x="104.5" y="63.0"><title>2024-07-13 22.6 km</title></rect><rect fill="#ffd000" height="2.6" width="2.6" x="104.5" y="66.5"><title>2024-07-14 13.0 km</title></rect><rect fill="#ffd000" height="2.6" width="2.6" x="108.0" y="45.5"><title>2024-07-15 12.9 km</title></rect><rect fill="#ffd100" height="2.6" width="2.6" x="108.0" y="49.0"><title>2024-07-16 12.8 km</title></rect><rect fill="#444444" height="2.6" width="2.6" x="108.0" y="52.5"><title>2024-07-17</title></rect><rect fill="red" height="2.6" width="2.6" x="108.0" y="56.0"><title>2024-07-18 40.5 km</title></rect><rect fill="#444444" height="2.6" width="2.6" x="108.0" y="59.5"><title>2024-07-19</title></rect><rect fill="red" height="2.6" width="2.6" x="108.0" y="63.0"><title>2024-07-20 34.4 km</title></rect><rect fill="#4dd2ff" height="2.6" width="2.6" x="108.0" y="66.5"><title>2024-07-21 6.6 km</title></rect><rect fill="#ffd000" height="2.6" width="2.6" x="111.5" y="45.5"><title>2024-07-22 13.0 km</title></rect><rect fill="#ffd800" height="2.6" width="2.6" x="111.5" y="49.0"><title>2024-07-23 10.9 km</title></rect><rect fill="#ffcf00" height="2.6" width="2.6" x="111.5" y="52.5"><title>2024-07-24 13.2 km</title></rect><rect fill="#ffd700" height="2.6" width="2.6" x="111.5" y="56.0"><title>2024-07-25 11.3 km</title></rect><rect fill="#444444" height="2.6" width="2.6" x="111.5" y="59.5"><title>2024-07-26</title></rect><rect fill="red" height="2.6" width="2.6" x="111.5" y="63.0"><title>2024-07-27 24.4 km</title></rect><rect fill="#ffda00" height="2.6" width="2.6" x="111.5" y="66.5"><title>2024-07-28 10.5 km</title></rect><rect fill="#444444" height="2.6" width="2.6" x="115.0" y="45.5"><title>2024-07-29</title></rect><rect fill="#444444" height="2.6" width="2.6" x="115.0" y="49.0"><title>2024-07-30</title></rect><rect fill="#444444" height="2.6" width="2.6" x="115.0" y="52.5"><title>2024-07-31</title></rect><rect fill="#4dd2ff" height="2.6" width="2.6" x="115.0" y="56.0"><title>2024-08-01 8.5 km</title></rect><rect fill="#444444" height="2.6" width="2.6" x="115.0" y="59.5"><title>2024-08-02</title></rect><rect fill="#ffdb00" height="2.6" width="2.6" x="115.0" y="63.0"><title>2024-08-03 10.2 km</title></rect><rect fill="#ffd100" height="2.6" width="2.6" x="115.0" y="66.5"><title>2024-08-04 12.6 km</title></rect><rect fill="#444444" height="2.6" width="2.6" x="118.5" y="45.5"><title>2024-08-05</title></rect><rect fill="#ffd700" height="2.6" width="2.6" x="118.5" y="49.0"><title>2024-08-06 11.1 km</title></rect><rect fill="#444444" height="2.6" width="2.6" x="118.5" y="52.5"><title>2024-08-07</title></rect><rect fill="#ffcf00" height="2.6" width="2.6" x="118.5" y="56.0"><title>2024-08-08 13.1 km</title></rect><rect fill="#ffdb00" height="2.6" width="2.6" x="118.5" y="59.5"><title>2024-08-09 10.2 km</title></rect><rect fill="red" height="2.6" width="2.6" x="118.5" y="63.0"><title>2024-08-10 32.6 km</title></rect><rect fill="#ffd000" height="2.6" width="2.6" x="118.5" y="66.5"><title>2024-08-11 13.1 km</title></rect><rect fill="#444444" height="2.6" width="2.6" x="122.0" y="45.5"><title>2024-08-12</title></rect><rect fill="#444444" height="2.6" width="2.6" x="122.0" y="49.0"><title>2024-08-13</title></rect><rect fill="#4dd2ff" height="2.6" width="2.6" x="122.0" y="52.5"><title>2024-08-14 5.2 km</title></rect><rect fill="#444444" height="2.6" width="2.6" x="122.0" y="56.0"><title>2024-08-15</title></rect><rect fill="#444444" height="2.6" width="2.6" x="122.0" y="59.5"><title>2024-08-16</title></rect><rect fill="#ffdc00" height="2.6" width="2.6" x="122.0" y="63.0"><title>2024-08-17 10.1 km</title></rect><rect fill="#444444" height="2.6" width="2.6" x="122.0" y="66.5"><title>2024-08-18</title></rect><rect fill="#ffd300" height="2.6" width="2.6" x="125.5" y="45.5"><title>2024-08-19 12.2 km</title></rect><rect fill="#4dd2ff" height="2.6" width="2.6" x="125.5" y="49.0"><title>2024-08-20 6.6 km</title></rect><rect fill="#ffbe00" height="2.6" width="2.6" x="125.5" y="52.5"><title>2024-08-21 17.7 km</title></rect><rect fill="#4dd2ff" height="2.6" width="2.6" x="125.5" y="56.0"><title>2024-08-22 3.8 km</title></rect><rect fill="#4dd2ff" height="2.6" width="2.6" x="125.5" y="59.5"><title>2024-08-23 10.0 km</title></rect><rect fill="#ffc300" height="2.6" width="2.6" x="125.5" y="63.0"><title>2024-08-24 16.2 km</title></rect><rect fill="#444444" height="2.6" width="2.6" x="125.5" y="66.5"><title>2024-08-25</title></rect><rect fill="#4dd2ff" height="2.6" width="2.6" x="129.0" y="45.5"><title>2024-08-26 6.9 km</title></rect><rect fill="#4dd2ff" height="2.6" width="2.6" x="129.0" y="49.0"><title>2024-08-27 7.5 km</title></rect><rect fill="#ffcb00" height="2.6" width="2.6" x="129.0" y="52.5"><title>2024-08-28 14.2 km</title></rect><rect fill="#ffc600" height="2.6" width="2.6" x="129.0" y="56.0"><title>2024-08-29 15.5 km</title></rect><rect fill="#4dd2ff" height="2.6" width="2.6" x="129.0" y="59.5"><title>2024-08-30 7.1 km</title></rect><rect fill="#ffc100" height="2.6" width="2.6" x="129.0" y="63.0"><title>2024-08-31 16.7 km</title></rect><rect fill="#ffd400" height="2.6" width="2.6" x="129.0" y="66.5"><title>2024-09-01 11.9 km</title></rect><rect fill="#ffbd00" height="2.6" width="2.6" x="132.5" y="45.5"><title>2024-09-02 17.8 km</title></rect><rect fill="#4dd2ff" height="2.6" width="2.6" x="132.5" y="49.0"><title>2024-09-03 7.4 km</title></rect><rect fill="red" height="2.6" width="2.6" x="132.5" y="52.5"><title>2024-09-04 22.4 km</title></rect><rect fill="red" height="2.6" width="2.6" x="132.5" y="56.0"><title>2024-09-05 21.6 km</title></rect><rect fill="#4dd2ff" height="2.6" width="2.6" x="132.5" y="59.5"><title>2024-09-06 7.2 km</title></rect><rect fill="red" height="2.6" width="2.6" x="132.5" y="63.0"><title>2024-09-07 20.9 km</title></rect><rect fill="red" height="2.6" width="2.6" x="132.5" y="66.5"><title>2024-09-08 20.0 km</title></rect><rect fill="#4dd2ff" height="2.6" width="2.6" x="136.0" y="45.5"><title>2024-09-09 7.1 km</title></rect><rect fill="#ffbe00" height="2.6" width="2.6" x="136.0" y="49.0"><title>2024-09-10 17.7 km</title></rect><rect fill="#ffc000" height="2.6" width="2.6" x="136.0" y="52.5"><title>2024-09-11 17.1 km</title></rect><rect fill="#4dd2ff" height="2.6" width="2.6" x="136.0" y="56.0"><title>2024-09-12 6.7 km</title></rect><rect fill="red" height="2.6" width="2.6" x="136.0" y="59.5"><title>2024-09-13 22.7 km</title></rect><rect fill="#4dd2ff" height="2.6" width="2.6" x="136.0" y="63.0"><title>2024-09-14 9.1 km</title></rect><rect fill="#ffcc00" height="2.6" width="2.6" x="136.0" y="66.5"><title>2024-09-15 13.9 km</title></rect><rect fill="#444444" height="2.6" width="2.6" x="139.5" y="45.5"><title>2024-09-16</title></rect><rect fill="#4dd2ff" height="2.6" width="2.6" x="139.5" y="49.0"><title>2024-09-17 1.0 km</title></rect><rect fill="#ffcd00" height="2.6" width="2.6" x="139.5" y="52.5"><title>2024-09-18 13.8 km</title></rect><rect fill="#4dd2ff" height="2.6" width="2.6" x="139.5" y="56.0"><title>2024-09-19 7.7 km</title></rect><rect fill="#4dd2ff" height="2.6" width="2.6" x="139.5" y="59.5"><title>2024-09-20 3.7 km</title></rect><rect fill="#4dd2ff" height="2.6" width="2.6" x="139.5" y="63.0"><title>2024-09-21 3.5 km</title></rect><rect fill="#444444" height="2.6" width="2.6" x="139.5" y="66.5"><title>2024-09-22</title></rect><rect fill="#4dd2ff" height="2.6" width="2.6" x="143.0" y="45.5"><title>2024-09-23 7.2 km</title></rect><rect fill="#ffc300" height="2.6" width="2.6" x="143.0" y="49.0"><title>2024-09-24 16.3 km</title></rect><rect fill="#4dd2ff" height="2.6" width="2.6" x="143.0" y="52.5"><title>2024-09-25 8.9 km</title></rect><rect fill="#4dd2ff" height="2.6" width="2.6" x="143.0" y="56.0"><title>2024-09-26 3.6 km</title></rect><rect fill="#4dd2ff" height="2.6" width="2.6" x="143.0" y="59.5"><title>2024-09-27 9.1 km</title></rect><rect fill="red" height="2.6" width="2.6" x="143.0" y="63.0"><title>2024-09-28 23.7 km</title></rect><rect fill="#4dd2ff" height="2.6" width="2.6" x="143.0" y="66.5"><title>2024-09-29 7.2 km</title></rect><rect fill="#ffc600" height="2.6" width="2.6" x="146.5" y="45.5"><title>2024-09-30 15.5 km</title></rect><rect fill="#ffd100" height="2.6" width="2.6" x="146.5" y="49.0"><title>2024-10-01 12.6 km</title></rect><rect fill="#ffc400" height="2.6" width="2.6" x="146.5" y="52.5"><title>2024-10-02 16.0 km</title></rect><rect fill="#444444" height="2.6" width="2.6" x="146.5" y="56.0"><title>2024-10-03</title></rect><rect fill="red" height="2.6" width="2.6" x="146.5" y="59.5"><title>2024-10-04 23.2 km</title></rect><rect fill="#ffd800" height="2.6" width="2.6" x="146.5" y="63.0"><title>2024-10-05 11.0 km</title></rect><rect fill="#444444" height="2.6" width="2.6" x="146.5" y="66.5"><title>2024-10-06</title></rect><rect fill="#4dd2ff" height="2.6" width="2.6" x="150.0" y="45.5"><title>2024-10-07 7.4 km</title></rect><rect fill="#4dd2ff" height="2.6" width="2.6" x="150.0" y="49.0"><title>2024-10-08 3.7 km</title></rect><rect fill="#ffd400" height="2.6" width="2.6" x="150.0" y="52.5"><title>2024-10-09 11.9 km</title></rect><rect fill="#ffd700" height="2.6" width="2.6" x="150.0" y="56.0"><title>2024-10-10 11.3 km</title></rect><rect fill="#ffb500" height="2.6" width="2.6" x="150.0" y="59.5"><title>2024-10-11 19.9 km</title></rect><rect fill="red" height="2.6" width="2.6" x="150.0" y="63.0"><title>2024-10-12 20.5 km</title></rect><rect fill="red" height="2.6" width="2.6" x="150.0" y="66.5"><title>2024-10-13 24.5 km</title></rect><rect fill="#4dd2ff" height="2.6" width="2.6" x="153.5" y="45.5"><title>2024-10-14 7.5 km</title></rect><rect fill="red" height="2.6" width="2.6" x="153.5" y="49.0"><title>2024-10-15 38.4 km</title></rect><rect fill="red" height="2.6" width="2.6" x="153.5" y="52.5"><title>2024-10-16 21.2 km</title></rect><rect fill="#4dd2ff" height="2.6" width="2.6" x="153.5" y="56.0"><title>2024-10-17 7.2 km</title></rect><rect fill="red" height="2.6" width="2.6" x="153.5" y="59.5"><title>2024-10-18 20.5 km</title></rect><rect fill="#444444" height="2.6" width="2.6" x="153.5" y="63.0"><title>2024-10-19</title></rect><rect fill="#ffc000" height="2.6" width="2.6" x="153.5" y="66.5"><title>2024-10-20 17.1 km</title></rect><rect fill="red" height="2.6" width="2.6" x="157.0" y="45.5"><title>2024-10-21 21.4 km</title></rect><rect fill="red" height="2.6" width="2.6" x="157.0" y="49.0"><title>2024-10-22 29.7 km</title></rect><rect fill="#4dd2ff" height="2.6" width="2.6" x="157.0" y="52.5"><title>2024-10-23 7.1 km</title></rect><rect fill="red" height="2.6" width="2.6" x="157.0" y="56.0"><title>2024-10-24 21.0 km</title></rect><rect fill="#4dd2ff" height="2.6" width="2.6" x="157.0" y="59.5"><title>2024-10-25 3.7 km</title></rect><rect fill="#444444" height="2.6" width="2.6" x="157.0" y="63.0"><title>2024-10-26</title></rect><rect fill="#ffcd00" height="2.6" width="2.6" x="157.0" y="66.5"><title>2024-10-27 13.8 km</title></rect><rect fill="#4dd2ff" height="2.6" width="2.6" x="160.5" y="45.5"><title>2024-10-28 7.3 km</title></rect><rect fill="red" height="2.6" width="2.6" x="160.5" y="49.0"><title>2024-10-29 21.3 km</title></rect><rect fill="#4dd2ff" height="2.6" width="2.6" x="160.5" y="52.5"><title>2024-10-30 3.7 km</title></rect><rect fill="#444444" height="2.6" width="2.6" x="160.5" y="56.0"><title>2024-10-31</title></rect><rect fill="#444444" height="2.6" width="2.6" x="160.5" y="59.5"><title>2024-11-01</title></rect><rect fill="#444444" height="2.6" width="2.6" x="160.5" y="63.0"><title>2024-11-02</title></rect><rect fill="#4dd2ff" height="2.6" width="2.6" x="160.5" y="66.5"><title>2024-11-03 3.6 km</title></rect><rect fill="#ffc200" height="2.6" width="2.6" x="164.0" y="45.5"><title>2024-11-04 16.6 km</title></rect><rect fill="#4dd2ff" height="2.6" width="2.6" x="164.0" y="49.0"><title>2024-11-05 7.4 km</title></rect><rect fill="red" height="2.6" width="2.6" x="164.0" y="52.5"><title>2024-11-06 25.1 km</title></rect><rect fill="#4dd2ff" height="2.6" width="2.6" x="164.0" y="56.0"><title>2024-11-07 3.7 km</title></rect><rect fill="#4dd2ff" height="2.6" width="2.6" x="164.0" y="59.5"><title>2024-11-08 4.1 km</title></rect><rect fill="#4dd2ff" height="2.6" width="2.6" x="164.0" y="63.0"><title>2024-11-09 8.0 km</title></rect><rect fill="#ffbe00" height="2.6" width="2.6" x="164.0" y="66.5"><title>2024-11-10 17.6 km</title></rect><rect fill="#4dd2ff" height="2.6" width="2.6" x="167.5" y="45.5"><title>2024-11-11 7.4 km</title></rect><rect fill="#4dd2ff" height="2.6" width="2.6" x="167.5" y="49.0"><title>2024-11-12 7.4 km</title></rect><rect fill="#444444" height="2.6" width="2.6" x="167.5" y="52.5"><title>2024-11-13</title></rect><rect fill="#4dd2ff" height="2.6" width="2.6" x="167.5" y="56.0"><title>2024-11-14 3.6 km</title></rect><rect fill="#4dd2ff" height="2.6" width="2.6" x="167.5" y="59.5"><title>2024-11-15 7.1 km</title></rect><rect fill="red" height="2.6" width="2.6" x="167.5" y="63.0"><title>2024-11-16 37.5 km</title></rect><rect fill="red" height="2.6" width="2.6" x="167.5" y="66.5"><title>2024-11-17 22.1 km</title></rect><rect fill="#4dd2ff" height="2.6" width="2.6" x="171.0" y="45.5"><title>2024-11-18 7.3 km</title></rect><rect fill="#4dd2ff" height="2.6" width="2.6" x="171.0" y="49.0"><title>2024-11-19 7.3 km</title></rect><rect fill="#4dd2ff" height="2.6" width="2.6" x="171.0" y="52.5"><title>2024-11-20 8.0 km</title></rect><rect fill="#4dd2ff" height="2.6" width="2.6" x="171.0" y="56.0"><title>2024-11-21 7.4 km</title></rect><rect fill="red" height="2.6" width="2.6" x="171.0" y="59.5"><title>2024-11-22 21.3 km</title></rect><rect fill="#ffdc00" height="2.6" width="2.6" x="171.0" y="63.0"><title>2024-11-23 10.0 km</title></rect><rect fill="red" height="2.6" width="2.6" x="171.0" y="66.5"><title>2024-11-24 21.1 km</title></rect><rect fill="#4dd2ff" height="2.6" width="2.6" x="174.5" y="45.5"><title>2024-11-25 7.2 km</title></rect><rect fill="#4dd2ff" height="2.6" width="2.6" x="174.5" y="49.0"><title>2024-11-26 7.1 km</title></rect><rect fill="#4dd2ff" height="2.6" width="2.6" x="174.5" y="52.5"><title>2024-11-27 7.2 km</title></rect><rect fill="red" height="2.6" width="2.6" x="174.5" y="56.0"><title>2024-11-28 24.6 km</title></rect><rect fill="#4dd2ff" height="2.6" width="2.6" x="174.5" y="59.5"><title>2024-11-29 7.3 km</title></rect><rect fill="#4dd2ff" height="2.6" width="2.6" x="174.5" y="63.0"><title>2024-11-30 9.8 km</title></rect><rect fill="red" height="2.6" width="2.6" x="174.5" y="66.5"><title>2024-12-01 50.1 km</title></rect><rect fill="#4dd2ff" height="2.6" width="2.6" x="178.0" y="45.5"><title>2024-12-02 7.2 km</title></rect><rect fill="#4dd2ff" height="2.6" width="2.6" x="178.0" y="49.0"><title>2024-12-03 7.4 km</title></rect><rect fill="red" height="2.6" width="2.6" x="178.0" y="52.5"><title>2024-12-04 20.3 km</title></rect><rect fill="#4dd2ff" height="2.6" width="2.6" x="178.0" y="56.0"><title>2024-12-05 7.3 km</title></rect><rect fill="#ffb600" height="2.6" width="2.6" x="178.0" y="59.5"><title>2024-12-06 19.6 km</title></rect><rect fill="#ffb600" height="2.6" width="2.6" x="178.0" y="63.0"><title>2024-12-07 19.7 km</title></rect><rect fill="#4dd2ff" height="2.6" width="2.6" x="178.0" y="66.5"><title>2024-12-08 7.6 km</title></rect><rect fill="#4dd2ff" height="2.6" width="2.6" x="181.5" y="45.5"><title>2024-12-09 7.1 km</title></rect><rect fill="red" height="2.6" width="2.6" x="181.5" y="49.0"><title>2024-12-10 21.2 km</title></rect><rect fill="#4dd2ff" height="2.6" width="2.6" x="181.5" y="52.5"><title>2024-12-11 6.5 km</title></rect><rect fill="red" height="2.6" width="2.6" x="181.5" y="56.0"><title>2024-12-12 24.6 km</title></rect><rect fill="#ffbf00" height="2.6" width="2.6" x="181.5" y="59.5"><title>2024-12-13 17.3 km</title></rect><rect fill="#444444" height="2.6" width="2.6" x="181.5" y="63.0"><title>2024-12-14</title></rect><rect fill="red" height="2.6" width="2.6" x="181.5" y="66.5"><title>2024-12-15 22.1 km</title></rect><rect fill="#ffc100" height="2.6" width="2.6" x="185.0" y="45.5"><title>2024-12-16 16.9 km</title></rect><rect fill="#ffbc00" height="2.6" width="2.6" x="185.0" y="49.0"><title>2024-12-17 18.0 km</title></rect><rect fill="#4dd2ff" height="2.6" width="2.6" x="185.0" y="52.5"><title>2024-12-18 5.9 km</title></rect><rect fill="red" height="2.6" width="2.6" x="185.0" y="56.0"><title>2024-12-19 25.6 km</title></rect><rect fill="#ffda00" height="2.6" width="2.6" x="185.0" y="59.5"><title>2024-12-20 10.4 km</title></rect><rect fill="red" height="2.6" width="2.6" x="185.0" y="63.0"><title>2024-12-21 20.9 km</title></rect><rect fill="red" height="2.6" width="2.6" x="185.0" y="66.5"><title>2024-12-22 24.7 km</title></rect><rect fill="#4dd2ff" height="2.6" width="2.6" x="188.5" y="45.5"><title>2024-12-23 3.7 km</title></rect><rect fill="#4dd2ff" height="2.6" width="2.6" x="188.5" y="49.0"><title>2024-12-24 3.6 km</title></rect><rect fill="red" height="2.6" width="2.6" x="188.5" y="52.5"><title>2024-12-25 26.8 km</title></rect><rect fill="red" height="2.6" width="2.6" x="188.5" y="56.0"><title>2024-12-26 25.0 km</title></rect><rect fill="#ffd000" height="2.6" width="2.6" x="188.5" y="59.5"><title>2024-12-27 13.0 km</title></rect><rect fill="red" height="2.6" width="2.6" x="188.5" y="63.0"><title>2024-12-28 42.7 km</title></rect><rect fill="#4dd2ff" height="2.6" width="2.6" x="188.5" y="66.5"><title>2024-12-29 7.4 km</title></rect><rect fill="#4dd2ff" height="2.6" width="2.6" x="192.0" y="45.5"><title>2024-12-30 3.5 km</title></rect><rect fill="#444444" height="2.6" width="2.6" x="192.0" y="49.0"><title>2024-12-31</title></rect></svg>