<?xml version="1.0" encoding="utf-8" ?>
<svg baseProfile="full" height="200mm" version="1.1" viewBox="0,0,200,200" width="200mm" xmlns="http://www.w3.org/2000/svg" xmlns:ev="http://www.w3.org/2001/xml-events" xmlns:xlink="http://www.w3.org/1999/xlink"><defs /><rect fill="#1a1a1a" height="200" width="200" x="0" y="0" /><text alignment-baseline="middle" fill="#e1ed5e" style="dominant-baseline: central; font-size:9.0px; font-family:Arial;" text-anchor="middle" x="100.0" y="100.0">2024</text><line stroke="#e1ed5e" stroke-width="0.3" x1="100.0" x2="100.0" y1="15.0" y2="10.0" /><path d="M 100.0 14.0 a86.0,86.0 0 0,1 42.35913384403234,11.155469271406648" fill="none" id="id109" stroke="none" /><text fill="#e1ed5e" style="font-size:6.75px; font-family:Arial;" text-anchor="middle"><textPath startOffset="22.145653131862478" xlink:href="#id109">January</textPath></text><path d="M 100.0 79.0 l 0.0 -19.25327708301944 a40.25327708301944,40.25327708301944 0 0,0 0.691001028114717,0.0059314127583706446 l -0.33050810326586216 19.250440068455504" fill="#ffe315" stroke="none" /><path d="M 100.72087961077811 79.0123766808444 l 1.479138394210922 -43.063500465897825 a64.08889558535483,64.08889558535483 0 0,0 1.0991985343517905,0.04720431462526393 l -2.218162689163549 43.03176358284673" fill="#33ff57" stroke="none" /><path d="M 101.08105385017728 79.02784411241856 l 1.1005455046503645 -21.350288777121985 a42.37863492541811,42.37863492541811 0 0,0 0.7261995774680091,0.04368636326784497 l -1.466889434250836 21.32825043602945" fill="#fffe18" stroke="none" /><path d="M 101.44090949804482 79.04949213459386 l 1.2690676756745463 -18.451965482238315 a39.49555522073226,39.49555522073226 0 0,0 0.6759965292808605,0.05232640666718753 l -1.58563319973064 18.427461308576074" fill="#ffd914" stroke="none" /><path d="M 101.80034050326958 79.07731436759882 l 0.5611944115962478 -6.521929730050884 a27.546029832755764,27.546029832755764 0 0,0 0.47077533971359536,0.0445829141341527 l -0.6730693146948562 6.511335060411548" fill="#ff3404" stroke="none" /><path d="M 102.87502721639298 79.19773525538626 l 5.863609932088165 -42.42616051456953 a63.829441012505654,63.829441012505654 0 0,0 1.084112339631245,0.1593271804670401 l -6.591047377327092 42.31925226080361" fill="#33ff53" stroke="none" /><path d="M 103.58742460773223 79.30868818359171 l 6.071649935009209 -35.019663346951084 a56.54211240018081,56.54211240018081 0 0,0 0.9549296838093524,0.17401999877150678 l -6.671914352369615 34.91027517424821" fill="#5cff2a" stroke="none" /><path d="M 104.29559338865022 79.4440306129975 l 10.743899255043821 -51.41344727069638 a73.52403194214253,73.52403194214253 0 0,0 1.2332346348437084,0.2687777487775318 l -11.624896306506665 51.22143806378513" fill="#40ffc3" stroke="none" /><path d="M 105.3480935250658 79.69241777938227 l 16.04428057519741 -60.92274666185318 a84.0,84.0 0 0,0 1.3912743962612288,0.3791980234234318 l -17.08773637239333 60.63834814428561" fill="#4dd2ff" stroke="none" /><path d="M 107.06938296918511 80.22567764915836 l 1.0246210304462606 -2.866047380911857 a24.043694440259152,24.043694440259152 0 0,0 0.38745938251890977,0.14228045213260565 l -1.073669564619295 2.8480360797705297" fill="#ff0000" stroke="none" /><path d="M 109.06512990194946 81.05736502329252 l 3.367204346153422 -7.036162030888335 a28.800361609160767,28.800361609160767 0 0,0 0.44412866307966453,0.2172455846833866 l -3.4874932584951535 6.977322696107727" fill="#ff4606" stroke="none" /><line stroke="#e1ed5e" stroke-width="0.3" x1="143.13028292997686" x2="145.6673583964461" y1="26.7553504044142" y2="22.446841604673864" /><path d="M 143.63769802327073 25.89364864446614 a86.0,86.0 0 0,1 29.32050498858742,28.57503671076993" fill="none" id="id110" stroke="none" /><text fill="#e1ed5e" style="font-size:6.75px; font-family:Arial;" text-anchor="middle"><textPath startOffset="20.669276256404974" xlink:href="#id110">February</textPath></text><path d="M 110.96478420261332 82.08984904055464 l 3.1519122888116593 -5.148411848369372 a27.036612927527496,27.036612927527496 0 0,0 0.3937507652031282,0.24572959916743378 l -3.2398271828045 5.093546452360393" fill="#ff2d04" stroke="none" /><path d="M 111.27062007382361 82.28071324371311 l 9.987142299070758 -15.70144651438339 a39.60855808347145,39.60855808347145 0 0,0 0.570578947896808,0.3698423804874317 l -10.255206879224573 15.527690292192064" fill="#ffda14" stroke="none" /><path d="M 113.31354834802062 83.75963576809568 l 5.858545866827385 -7.146473371296239 a30.24092210335995,30.24092210335995 0 0,0 0.3986411141343312,0.33256059557339046 l -5.980361315123608 7.044850591810978" fill="#ff5b08" stroke="none" /><path d="M 113.86319453409587 84.22622945171908 l 2.8393404304175047 -3.2306481992812803 a25.3010396263372,25.3010396263372 0 0,0 0.32377496215830665,0.28952156765744713 l -2.894380419399187 3.181431101740446" fill="#ff1302" stroke="none" /><path d="M 115.6541949942343 86.00192230759917 l 14.80879635800593 -13.242117018898734 a40.86590326954949,40.86590326954949 0 0,0 0.4631253733091073,0.5269516600735783 l -15.033932795273627 12.985953081013857" fill="#ffeb16" stroke="none" /><path d="M 116.7966241395341 87.39550010848427 l 7.778578256888643 -5.837190138959617 a30.72517703781829,30.72517703781829 0 0,0 0.3129549198247021,0.42458345347484305 l -7.877635196297171 5.702800376215898" fill="#ff6209" stroke="none" /><path d="M 117.01052211995028 87.68569379921539 l 15.745140505052234 -11.398267495045962 a40.43784842549344,40.43784842549344 0 0,0 0.4022312373342659,0.5657886081085334 l -15.938486840916461 11.126301660227925" fill="#ffe515" stroke="none" /><path d="M 117.42321728460499 88.27688183743584 l 17.205078609202058 -11.576344726533293 a41.73708000602682,41.73708000602682 0 0,0 0.394863704190857,0.5978739754850204 l -17.40126675231364 11.279290872709213" fill="#fff617" stroke="none" /><line stroke="#e1ed5e" stroke-width="0.3" x1="172.87174338648825" x2="177.1583165268699" y1="56.24261187166439" y2="53.66864786411523" /><path d="M 173.72905801456457 55.72781907015455 a86.0,86.0 0 0,1 12.242430191666344,42.057860355516425" fill="none" id="id111" stroke="none" /><text fill="#e1ed5e" style="font-size:6.75px; font-family:Arial;" text-anchor="middle"><textPath startOffset="22.145653131862474" xlink:href="#id111">March</textPath></text><line stroke="#e1ed5e" stroke-width="0.3" x1="184.99686870605535" x2="189.99668451229388" y1="99.2704041080226" y2="99.22748670261217" /><path d="M 185.99683186730306 99.26182062694052 a86.0,86.0 0 0,1 -10.086455211305974,41.156179273409016" fill="none" id="id112" stroke="none" /><text fill="#e1ed5e" style="font-size:6.75px; font-family:Arial;" text-anchor="middle"><textPath startOffset="21.40746469413373" xlink:href="#id112">April</textPath></text><line stroke="#e1ed5e" stroke-width="0.3" x1="174.33088141563837" x2="178.70328620479359" y1="141.23008692659167" y2="143.65538615756765" /><path d="M 175.20536237346943 141.71514677278685 a86.0,86.0 0 0,1 -30.301960400862466,31.631185727798858" fill="none" id="id113" stroke="none" /><text fill="#e1ed5e" style="font-size:6.75px; font-family:Arial;" text-anchor="middle"><textPath startOffset="22.145653131862474" xlink:href="#id113">May</textPath></text><line stroke="#e1ed5e" stroke-width="0.3" x1="143.1302829299769" x2="145.66735839644613" y1="173.24464959558577" y2="177.55315839532614" /><path d="M 143.63769802327073 174.10635135553383 a86.0,86.0 0 0,1 -40.68552437913181,11.842963189579606" fill="none" id="id114" stroke="none" /><text fill="#e1ed5e" style="font-size:6.75px; font-family:Arial;" text-anchor="middle"><textPath startOffset="21.407464694133747" xlink:href="#id114">June</textPath></text><line stroke="#e1ed5e" stroke-width="0.3" x1="101.45913802915013" x2="101.54496967792366" y1="184.9874750549273" y2="189.98673829345242" /><path d="M 101.47630435890484 185.9873277026323 a86.0,86.0 0 0,1 -42.54439059252881,-10.42667462771756" fill="none" id="id115" stroke="none" /><text fill="#e1ed5e" style="font-size:6.75px; font-family:Arial;" text-anchor="middle"><textPath startOffset="22.145653131862474" xlink:href="#id115">July</textPath></text><line stroke="#e1ed5e" stroke-width="0.3" x1="58.13341422392154" x2="55.67067388415222" y1="173.97424548756322" y2="178.32567169271397" /><path d="M 57.64086615596768 174.84453072859336 a86.0,86.0 0 0,1 -31.369924170532247,-30.572349798747897" fill="none" id="id116" stroke="none" /><text fill="#e1ed5e" style="font-size:6.75px; font-family:Arial;" text-anchor="middle"><textPath startOffset="22.145653131862474" xlink:href="#id116">August</textPath></text><line stroke="#e1ed5e" stroke-width="0.3" x1="26.387840678322732" x2="22.057713659400548" y1="142.50000000000003" y2="145.00000000000006" /><path d="M 25.521815274538298 143.00000000000003 a86.0,86.0 0 0,1 -11.493303480769221,-40.785679425670985" fill="none" id="id117" stroke="none" /><text fill="#e1ed5e" style="font-size:6.75px; font-family:Arial;" text-anchor="middle"><textPath startOffset="21.40746469413373" xlink:href="#id117">September</textPath></text><line stroke="#e1ed5e" stroke-width="0.3" x1="15.003131293944662" x2="10.003315487706104" y1="100.72959589197737" y2="100.7725132973878" /><path d="M 14.003168132696942 100.73817937305945 a86.0,86.0 0 0,1 10.791469493833604,-42.45332614584628" fill="none" id="id118" stroke="none" /><text fill="#e1ed5e" style="font-size:6.75px; font-family:Arial;" text-anchor="middle"><textPath startOffset="22.145653131862435" xlink:href="#id118">October</textPath></text><line stroke="#e1ed5e" stroke-width="0.3" x1="26.387840678322718" x2="22.05771365940052" y1="57.49999999999999" y2="54.99999999999999" /><path d="M 25.521815274538284 56.99999999999999 a86.0,86.0 0 0,1 29.574782752854787,-30.34633250058573" fill="none" id="id119" stroke="none" /><text fill="#e1ed5e" style="font-size:6.75px; font-family:Arial;" text-anchor="middle"><textPath startOffset="21.40746469413373" xlink:href="#id119">November</textPath></text><line stroke="#e1ed5e" stroke-width="0.3" x1="56.869717070023135" x2="54.33264160355391" y1="26.7553504044142" y2="22.446841604673864" /><path d="M 56.362301976729285 25.89364864446614 a86.0,86.0 0 0,1 42.16139366436587,-11.88097634709845" fill="none" id="id120" stroke="none" /><text fill="#e1ed5e" style="font-size:6.75px; font-family:Arial;" text-anchor="middle"><textPath startOffset="22.145653131862474" xlink:href="#id120">December</textPath></text></svg>