<?xml version="1.0" encoding="utf-8" ?>
<svg baseProfile="full" height="200mm" version="1.1" viewBox="0,0,200,200" width="200mm" xmlns="http://www.w3.org/2000/svg" xmlns:ev="http://www.w3.org/2001/xml-events" xmlns:xlink="http://www.w3.org/1999/xlink"><defs /><rect fill="#1a1a1a" height="200" width="200" x="0" y="0" /><text alignment-baseline="middle" fill="#e1ed5e" style="dominant-baseline: central; font-size:9.0px; font-family:Arial;" text-anchor="middle" x="100.0" y="100.0">2025</text><line stroke="#e1ed5e" stroke-width="0.3" x1="100.0" x2="100.0" y1="15.0" y2="10.0" /><path d="M 100.0 14.0 a86.0,86.0 0 0,1 42.46469731375804,11.215312516191453" fill="none" id="id121" stroke="none" /><text fill="#e1ed5e" style="font-size:6.75px; font-family:Arial;" text-anchor="middle"><textPath startOffset="22.20632615414155" xlink:href="#id121">January</textPath></text><path d="M 100.0 79.0 l 0.0 -0.9240464206302335 a21.924046420630233,21.924046420630233 0 0,0 0.37738641941536083,0.003248284057052748 l -0.015905940142832434 0.9239095131817395" fill="#ff0a01" stroke="none" /><path d="M 100.36148047927253 79.00311137660856 l 0.022338253121722995 -1.2975356616264986 a22.297727934023555,22.297727934023555 0 0,0 0.38370499862035623,0.009909968074350264 l -0.04466988693694703 1.2969589014097886" fill="#ff0f01" stroke="none" /><path d="M 100.72285384407766 79.0124445844662 l 0.05132750758617485 -1.4902582570901317 a22.491141906681026,22.491141906681026 0 0,0 0.38680390903001627,0.0166565899864689 l -0.07697224900552269 1.489153940579468" fill="#ff1202" stroke="none" /><path d="M 101.44485096284872 79.0497635885617 l 0.15599770921649225 -2.2619557115321074 a23.26732858805545,23.26732858805545 0 0,0 0.3993225471650119,0.030995115086937863 l -0.19491044574384533 2.2589353342567047" fill="#ff1d02" stroke="none" /><path d="M 101.80526077348638 79.07773832637324 l 0.041811295865094786 -0.48457645889769496 a21.486376941250043,21.486376941250043 0 0,0 0.36820986528683175,0.03496596344327861 l -0.050146288242170746 0.4837849509392381" fill="#ff0300" stroke="none" /><path d="M 102.16513564639614 79.11191278185805 l 0.18732432712481495 -1.8072063473601852 a22.816888875377828,22.816888875377828 0 0,0 0.3903136288740121,0.043856284010565766 l -0.2184046595085523 1.8037141098790186" fill="#ff1702" stroke="none" /><path d="M 102.52436894288641 79.15227682838746 l 0.060864014770510295 -0.5026508247236162 a21.506322308306988,21.506322308306988 0 0,0 0.3671285614995808,0.0476638239429115 l -0.06950730477793718 0.501528677616568" fill="#ff0400" stroke="none" /><path d="M 102.88285421437855 79.19881850522331 l 0.16007225055001148 -1.154998376040294 a22.16603789563284,22.16603789563284 0 0,0 0.3774887015462965,0.055632021971278055 l -0.17992993252496373 1.152071869908047" fill="#ff0d01" stroke="none" /><path d="M 103.2404852339499 79.25152402106235 l 0.2677522977865557 -1.7143889627165616 a22.735171694229233,22.735171694229233 0 0,0 0.3861415112737959,0.06371665794831692 l -0.29722301519922684 1.70952604182862" fill="#ff1502" stroke="none" /><path d="M 103.59715602781102 79.31037775812273 l 0.17396405751225333 -1.0005822949478727 a22.01559264583261,22.01559264583261 0 0,0 0.3728024836509129,0.06812727099369775 l -0.1911616622660671 0.9974395426034364" fill="#ff0b01" stroke="none" /><path d="M 103.95276090670814 79.375362276772 l 0.40604746027238603 -2.1186664117079514 a23.15722551071813,23.15722551071813 0 0,0 0.39084278974015757,0.0783993867638099 l -0.44245665947966895 2.1113630688669334" fill="#ff1b02" stroke="none" /><path d="M 104.307194497241 79.44645832069477 l 0.050800761280397615 -0.2424166275718252 a21.24768233419032,21.24768233419032 0 0,0 0.3573225529139934,0.0780968701403009 l -0.05496603834791897 0.24150625933565376" fill="#ff0000" stroke="none" /><path d="M 104.66035177308747 79.52364482259891 l 0.28834287223373295 -1.266902446897988 a22.29930112827016,22.29930112827016 0 0,0 0.3735412349626341,0.08840514168239194 l -0.31010779415889056 1.2617513930747273" fill="#ff0f01" stroke="none" /><path d="M 105.01212808612495 79.60689891045804 l 0.11898427786012973 -0.48411739779454704 a21.49852473682382,21.49852473682382 0 0,0 0.35860676769973787,0.09141684979942125 l -0.12729993424489267 0.481997551826258" fill="#ff0400" stroke="none" /><path d="M 105.36241919743992 79.69619591428918 l 0.42067804130699876 -1.5928192517913564 a22.647435335093633,22.647435335093633 0 0,0 0.37605754785793644,0.10279073348574295 l -0.44803347838864604 1.5853419774793198" fill="#ff1402" stroke="none" /><path d="M 105.71112130821622 79.79150937346287 l 0.06725692097544562 -0.23798493916539734 a21.247306135566134,21.247306135566134 0 0,0 0.3510963369555474,0.10249464845279685 l -0.07134347565442013 0.23679196179389703" fill="#ff0000" stroke="none" /><path d="M 106.0581310904928 79.89281104454417 l 0.4584364890693474 -1.5215697666659957 a22.589131388319494,22.589131388319494 0 0,0 0.37133802728606335,0.11537653265867474 l -0.48455988906612896 1.5134530991248003" fill="#ff1302" stroke="none" /><path d="M 106.40334571778207 80.00007090966166 l 0.8161433472652438 -2.549106325389846 a23.676571131397004,23.676571131397004 0 0,0 0.38707493237180346,0.12761251946067184 l -0.8599011018794647 2.5346800816699377" fill="#ff2303" stroke="none" /><path d="M 106.74666289553966 80.11325718540242 l 0.07858835026312759 -0.23165027423255002 a21.244618025396935,21.244618025396935 0 0,0 0.3452938308985588,0.12046623757840998 l -0.08256418522496002 0.23026318348193256" fill="#ff0000" stroke="none" /><path d="M 107.08798089147638 80.2323363322302 l 0.517774381498005 -1.4440205166958577 a22.534042229788415,22.534042229788415 0 0,0 0.3639973998157796,0.13406331425257356 l -0.5425541070863611 1.4348939346369594" fill="#ff1302" stroke="none" /><path d="M 107.4271985657038 80.35727306442388 l 0.6590113058732914 -1.742888521723512 a22.863318625577598,22.863318625577598 0 0,0 0.3669201562283964,0.1423593201699727 l -0.6889146271013549 1.7312864976629925" fill="#ff1702" stroke="none" /><path d="M 108.09893153111575 80.62456947434976 l 0.7918769838296816 -1.894442177478161 a23.05328525084251,23.05328525084251 0 0,0 0.3648086250070444,0.1561920146427764 l -0.8243693666270413 1.8805306348725936" fill="#ff1a02" stroke="none" /><path d="M 108.43124777332544 80.76684994638697 l 0.23562668983651508 -0.5375056698724431 a21.58688353368308,21.58688353368308 0 0,0 0.33903524742779517,0.1521152328805979 l -0.24484405573109047 0.5333701064753139" fill="#ff0500" stroke="none" /><path d="M 109.08828744355905 81.06846463323043 l 0.5923900663602562 -1.2339897435979779 a22.368815794045098,22.368815794045098 0 0,0 0.34568206895802367,0.16962468995695965 l -0.6135434023287116 1.223609893506186" fill="#ff1001" stroke="none" /><path d="M 109.41281617654863 81.2277094730956 l 0.43492538004372916 -0.8673860658244436 a21.970318851405345,21.970318851405345 0 0,0 0.3366056987986061,0.17242251276091802 l -0.4497915664310908 0.859771027751025" fill="#ff0a01" stroke="none" /><path d="M 110.05341064243156 81.56283822128135 l 30.16023192729467 -55.311485336155954 a84.0,84.0 0 0,0 1.2635036437118596,0.7031384097592803 l -31.107859660078564 54.7841315288365" fill="#4dd2ff" stroke="none" /><path d="M 110.36928655335952 81.73862282372117 l 0.36538873914129705 -0.6434870467787751 a21.739989533752563,21.739989533752563 0 0,0 0.3238257029679698,0.18758074866189525 l -0.37641117457459516 0.6371021407268304" fill="#ff0701" stroke="none" /><line stroke="#e1ed5e" stroke-width="0.3" x1="143.23703022742887" x2="145.7803849466894" y1="26.81831364943548" y2="22.513508569990506" /><path d="M 143.74570117128098 25.957352633546492 a86.0,86.0 0 0,1 28.547481713284135,27.462654790039103" fill="none" id="id122" stroke="none" /><text fill="#e1ed5e" style="font-size:6.75px; font-family:Arial;" text-anchor="middle"><textPath startOffset="19.985693538727396" xlink:href="#id122">February</textPath></text><path d="M 110.68208982089419 81.91981866633111 l 0.9047319150181672 -1.5313218065148857 a22.77861921533544,22.77861921533544 0 0,0 0.33586307563103257,0.2023537450700942 l -0.9309570568668374 1.5155214519861768" fill="#ff1602" stroke="none" /><path d="M 110.99172775467656 82.1063720568725 l 0.285158920519487 -0.4642152482596411 a21.544804007573916,21.544804007573916 0 0,0 0.31432930065780745,0.19683297923529355 l -0.2931073735495576 0.4592379277014033" fill="#ff0400" stroke="none" /><path d="M 111.2981086023043 82.29822771554956 l 0.4195391379317571 -0.6573300492586811 a21.779805028141613,21.779805028141613 0 0,0 0.3142856712150592,0.204420142982973 l -0.43079183493109646 0.65001098211618" fill="#ff0801" stroke="none" /><path d="M 111.60114157652 82.49532879139004 l 1.5415279359584917 -2.325972793268412 a23.79042251502623,23.79042251502623 0 0,0 0.3394047096946081,0.2291675750557771 l -1.5813373400596415 2.2990933059139644" fill="#ff2403" stroke="none" /><path d="M 112.19680574252982 82.90503203632743 l 0.6394034937286923 -0.8961840068533492 a22.10090081384845,22.10090081384845 0 0,0 0.3077862836100163,0.2236198245793949 l -0.6547350936924974 0.8850449474572795" fill="#ff0c01" stroke="none" /><line stroke="#e1ed5e" stroke-width="0.3" x1="172.23445277983987" x2="176.4835382374775" y1="55.19839476539836" y2="52.563006222186495" /><path d="M 173.08426987136738 54.67131705675599 a86.0,86.0 0 0,1 12.851231095245387,41.99856678651699" fill="none" id="id123" stroke="none" /><text fill="#e1ed5e" style="font-size:6.75px; font-family:Arial;" text-anchor="middle"><textPath startOffset="22.20632615414155" xlink:href="#id123">March</textPath></text><line stroke="#e1ed5e" stroke-width="0.3" x1="184.98032266829074" x2="189.97916517819016" y1="98.17113171792111" y2="98.06355123074" /><path d="M 185.9800911702706 98.14961562048488 a86.0,86.0 0 0,1 -9.607161424134198,41.387399972396054" fill="none" id="id124" stroke="none" /><text fill="#e1ed5e" style="font-size:6.75px; font-family:Arial;" text-anchor="middle"><textPath startOffset="21.466115282336823" xlink:href="#id124">April</textPath></text><line stroke="#e1ed5e" stroke-width="0.3" x1="174.80103733775053" x2="179.2010983576182" y1="140.37084112569926" y2="142.7455964860345" /><path d="M 175.68104954172406 140.8457921977663 a86.0,86.0 0 0,1 -30.038265399797805,32.042727171017184" fill="none" id="id125" stroke="none" /><text fill="#e1ed5e" style="font-size:6.75px; font-family:Arial;" text-anchor="middle"><textPath startOffset="22.206326154141568" xlink:href="#id125">May</textPath></text><line stroke="#e1ed5e" stroke-width="0.3" x1="143.8653032363475" x2="146.44561519142675" y1="172.8068346515853" y2="177.08958963109032" /><path d="M 144.38136562736335 173.6633856474863 a86.0,86.0 0 0,1 -40.68145358897372,12.25698825130547" fill="none" id="id126" stroke="none" /><text fill="#e1ed5e" style="font-size:6.75px; font-family:Arial;" text-anchor="middle"><textPath startOffset="21.466115282336833" xlink:href="#id126">June</textPath></text><line stroke="#e1ed5e" stroke-width="0.3" x1="102.19456741930631" x2="102.32365962044197" y1="184.97166512339345" y2="189.96999836594603" /><path d="M 102.22038585953345 185.97133177190398 a86.0,86.0 0 0,1 -42.740103519485714,-10.115201625700543" fill="none" id="id127" stroke="none" /><text fill="#e1ed5e" style="font-size:6.75px; font-family:Arial;" text-anchor="middle"><textPath startOffset="22.20632615414155" xlink:href="#id127">July</textPath></text><line stroke="#e1ed5e" stroke-width="0.3" x1="58.666819895761336" x2="56.23545636021788" y1="174.27360380694188" y2="178.64263932499728" /><path d="M 58.180547188652646 175.14741091055294 a86.0,86.0 0 0,1 -31.652253787137756,-30.449443065178592" fill="none" id="id128" stroke="none" /><text fill="#e1ed5e" style="font-size:6.75px; font-family:Arial;" text-anchor="middle"><textPath startOffset="22.20632615414155" xlink:href="#id128">August</textPath></text><line stroke="#e1ed5e" stroke-width="0.3" x1="26.63291911575756" x2="22.317208475507996" y1="142.92168965132927" y2="145.44649492493687" /><path d="M 25.769776987707644 143.4266507060508 a86.0,86.0 0 0,1 -11.730757126820373,-40.83630448921669" fill="none" id="id129" stroke="none" /><text fill="#e1ed5e" style="font-size:6.75px; font-family:Arial;" text-anchor="middle"><textPath startOffset="21.46611528233685" xlink:href="#id129">September</textPath></text><line stroke="#e1ed5e" stroke-width="0.3" x1="15.007084014347285" x2="10.007500721073583" y1="101.09737516637583" y2="101.16192664675087" /><path d="M 14.007167355692545 101.11028546245083 a86.0,86.0 0 0,1 10.666146001902534,-42.60595125391555" fill="none" id="id130" stroke="none" /><text fill="#e1ed5e" style="font-size:6.75px; font-family:Arial;" text-anchor="middle"><textPath startOffset="22.20632615414155" xlink:href="#id130">October</textPath></text><line stroke="#e1ed5e" stroke-width="0.3" x1="26.266209847984243" x2="21.928928074336255" y1="57.711370442889674" y2="55.22380399835377" /><path d="M 25.398753493254645 57.213857153982495 a86.0,86.0 0 0,1 29.58750427330803,-30.492523968695096" fill="none" id="id131" stroke="none" /><text fill="#e1ed5e" style="font-size:6.75px; font-family:Arial;" text-anchor="middle"><textPath startOffset="21.46611528233685" xlink:href="#id131">November</textPath></text><line stroke="#e1ed5e" stroke-width="0.3" x1="56.762969772571076" x2="54.21961505331055" y1="26.818313649435495" y2="22.513508569990535" /><path d="M 56.25429882871897 25.957352633546506 a86.0,86.0 0 0,1 42.265352541879196,-11.944610805530505" fill="none" id="id132" stroke="none" /><text fill="#e1ed5e" style="font-size:6.75px; font-family:Arial;" text-anchor="middle"><textPath startOffset="22.20632615414155" xlink:href="#id132">December</textPath></text></svg>