<?xml version="1.0" encoding="utf-8" ?>
<svg baseProfile="full" height="200mm" version="1.1" viewBox="0,0,200,200" width="200mm" xmlns="http://www.w3.org/2000/svg" xmlns:ev="http://www.w3.org/2001/xml-events" xmlns:xlink="http://www.w3.org/1999/xlink"><defs /><rect fill="#1a1a1a" height="200" width="200" x="0" y="0" /><text alignment-baseline="middle" fill="#e1ed5e" style="dominant-baseline: central; font-size:9.0px; font-family:Arial;" text-anchor="middle" x="100.0" y="100.0">2015</text><line stroke="#e1ed5e" stroke-width="0.3" x1="100.0" x2="100.0" y1="15.0" y2="10.0" /><path d="M 100.0 14.0 a86.0,86.0 0 0,1 42.46469731375804,11.215312516191453" fill="none" id="id1" stroke="none" /><text fill="#e1ed5e" style="font-size:6.75px; font-family:Arial;" text-anchor="middle"><textPath startOffset="22.20632615414155" xlink:href="#id1">January</textPath></text><line stroke="#e1ed5e" stroke-width="0.3" x1="143.23703022742887" x2="145.7803849466894" y1="26.81831364943548" y2="22.513508569990506" /><path d="M 143.74570117128098 25.957352633546492 a86.0,86.0 0 0,1 28.547481713284135,27.462654790039103" fill="none" id="id2" stroke="none" /><text fill="#e1ed5e" style="font-size:6.75px; font-family:Arial;" text-anchor="middle"><textPath startOffset="19.985693538727396" xlink:href="#id2">February</textPath></text><line stroke="#e1ed5e" stroke-width="0.3" x1="172.23445277983987" x2="176.4835382374775" y1="55.19839476539836" y2="52.563006222186495" /><path d="M 173.08426987136738 54.67131705675599 a86.0,86.0 0 0,1 12.851231095245387,41.99856678651699" fill="none" id="id3" stroke="none" /><text fill="#e1ed5e" style="font-size:6.75px; font-family:Arial;" text-anchor="middle"><textPath startOffset="22.20632615414155" xlink:href="#id3">March</textPath></text><line stroke="#e1ed5e" stroke-width="0.3" x1="184.98032266829074" x2="189.97916517819016" y1="98.17113171792111" y2="98.06355123074" /><path d="M 185.9800911702706 98.14961562048488 a86.0,86.0 0 0,1 -9.607161424134198,41.387399972396054" fill="none" id="id4" stroke="none" /><text fill="#e1ed5e" style="font-size:6.75px; font-family:Arial;" text-anchor="middle"><textPath startOffset="21.466115282336823" xlink:href="#id4">April</textPath></text><path d="M 120.32669344350535 105.2749913415812 l 6.334632275089775 1.6439038890447775 a27.54446224353274,27.54446224353274 0 0,0 -0.1230475709141473,0.45790578619147904 l -6.305396627833851 -1.7527006084118049" fill="#ff3204" stroke="none" /><path d="M 120.23288151984713 105.62410040840565 l 6.096852277975045 1.6947318825009112 a27.32801105032336,27.32801105032336 0 0,0 -0.12988270105144342,0.45213872136966804 l -6.066776940037502 -1.7994280793751611" fill="#ff2f04" stroke="none" /><path d="M 120.13307415673323 105.97154293290107 l 13.95236687215809 4.1383226994579205 a35.55315278900566,35.55315278900566 0 0,0 -0.17907484371789134,0.5852269504711838 l -13.879065255934064 -4.377876622481161" fill="#ffa40f" stroke="none" /><path d="M 120.02730092923936 106.31721596034902 l 7.856303780043166 2.478115638447341 a29.237873888439772,29.237873888439772 0 0,0 -0.1555284322451646,0.47866729548362336 l -7.8124830967817545 -2.61298183390876" fill="#ff4b07" stroke="none" /><path d="M 119.9155931802556 106.66101706037122 l 8.041906866239026 2.689715458088461 a29.47978981406629,29.47978981406629 0 0,0 -0.16509969447621645,0.4798569936018027 l -7.994416340819579 -2.8277451547795645" fill="#ff4f07" stroke="none" /><path d="M 119.79798401119884 107.00284435728193 l 7.3942349338511395 2.615451974991308 a28.843168957154404,28.843168957154404 0 0,0 -0.16959198104455922,0.46664429497702764 l -7.3481186918013535 -2.7423440669744665" fill="#ff4506" stroke="none" /><path d="M 119.67450827220406 107.3425965602758 l 3.626344289460409 1.353364604480906 a24.870654810024252,24.870654810024252 0 0,0 -0.15313894939006678,0.399797473394862 l -3.6025110604768353 -1.4155856447089117" fill="#ff0b01" stroke="none" /><path d="M 119.54520255179757 107.68017299344265 l 7.264273947606251 2.854453948047904 a28.804971705739693,28.804971705739693 0 0,0 -0.1853083987540577,0.45992024867639947 l -7.2140629345948 -2.979073564567117" fill="#ff4506" stroke="none" /><path d="M 119.41010516605496 108.01547362559984 l 11.862602672221138 4.89870498056061 a33.83427647534357,33.83427647534357 0 0,0 -0.22692974493429935,0.5363948830617107 l -11.776521946094531 -5.102174389288484" fill="#ff8c0c" stroke="none" /><path d="M 119.26925614724726 108.34839909993367 l 7.675768768436613 3.3255243787326725 a29.36519805982215,29.36519805982215 0 0,0 -0.20493959877613638,0.4620846927661871 l -7.617388084929203 -3.4571574079915472" fill="#ff4d07" stroke="none" /><path d="M 119.12269723197855 108.67885076344098 l 7.153620164994398 3.2466759828474654 a28.855901374292642,28.855901374292642 0 0,0 -0.2091714591968445,0.45053671434341763 l -7.096674088957721 -3.3693327644697137" fill="#ff4606" stroke="none" /><path d="M 118.97047184881838 109.00673069616215 l 7.349715952745518 3.489471047805749 a29.136014551333872,29.136014551333872 0 0,0 -0.21900119105496896,0.4512073195833436 l -7.288561505075835 -3.6154673233543684" fill="#ff4a06" stroke="none" /><path d="M 118.81262510543309 109.33194174019688 l 3.729827249076364 1.8501687241578684 a25.163500404203717,25.163500404203717 0 0,0 -0.1958215575661299,0.3863745106739542 l -3.6974270217239655 -1.9140974465345169" fill="#ff0f01" stroke="none" /><path d="M 118.64920377521936 109.65438752849418 l 15.976955295706318 8.271008232273008 a38.99090541632983,38.99090541632983 0 0,0 -0.31368646057758837,0.5933765675836062 l -15.832216326903836 -8.544799814942749" fill="#ffd113" stroke="none" /><line stroke="#e1ed5e" stroke-width="0.3" x1="174.80103733775053" x2="179.2010983576182" y1="140.37084112569926" y2="142.7455964860345" /><path d="M 175.68104954172406 140.8457921977663 a86.0,86.0 0 0,1 -30.038265399797805,32.042727171017184" fill="none" id="id5" stroke="none" /><text fill="#e1ed5e" style="font-size:6.75px; font-family:Arial;" text-anchor="middle"><textPath startOffset="22.206326154141568" xlink:href="#id5">May</textPath></text><path d="M 118.48025628344425 109.97397251340804 l 16.627748782112732 8.97415635199932 a39.894907033144705,39.894907033144705 0 0,0 -0.3313625204437773,0.6015192253558271 l -16.470809852217446 -9.259046095752952" fill="#ffdd14" stroke="none" /><path d="M 118.30583269289576 110.29060199501025 l 6.714851725466006 3.7747458813548076 a28.70311236863379,28.70311236863379 0 0,0 -0.24581892684346343,0.42860601909058504 l -6.648880802470162 -3.889771746303708" fill="#ff4306" stroke="none" /><path d="M 118.12598468904814 110.60418214915192 l 3.670621798388487 2.147411178951138 a25.25262732417138,25.25262732417138 0 0,0 -0.22272711996676395,0.37330346430430084 l -3.6331138027234955 -2.210276737141543" fill="#ff1101" stroke="none" /><path d="M 117.94076556474637 110.91462005526583 l 7.200962088032799 4.3808479041547965 a29.42886014551334,29.42886014551334 0 0,0 -0.26701135580888147,0.43050732383047563 l -7.124486092555955 -4.504151559350546" fill="#ff4e07" stroke="none" /><path d="M 117.75023020441432 111.22182372390056 l 6.78010005787047 4.286428221134204 a29.021422797089734,29.021422797089734 0 0,0 -0.2705834972165986,0.41995159655155717 l -6.705311697276821 -4.402501417607215" fill="#ff4806" stroke="none" /><path d="M 117.35343817320211 111.8261652097733 l 11.61572094374401 7.915978006218501 a35.05658852061439,35.05658852061439 0 0,0 -0.34412063598236764,0.4957314418624128 l -11.477739400599507 -8.114750710267934" fill="#ff9d0e" stroke="none" /><path d="M 117.14729908036423 112.12312394758627 l 3.2333124579587387 2.285948796099029 a24.959781729991917,24.959781729991917 0 0,0 -0.2510481085365966,0.34868386546925983 l -3.1934845570465393 -2.34126626701942" fill="#ff0c01" stroke="none" /><path d="M 116.93607887273984 112.41649034213515 l 6.859317312241438 5.028829152311807 a29.505254648342763,29.505254648342763 0 0,0 -0.3038180424283993,0.40701391706775303 l -6.771738003117947 -5.146155948888874" fill="#ff4f07" stroke="none" /><path d="M 116.71984013943494 112.70617746262583 l 6.680502012057975 5.076821512451749 a29.390662894098625,29.390662894098625 0 0,0 -0.30957210807697577,0.40016368042961303 l -6.592123086762931 -5.191063186994615" fill="#ff4d07" stroke="none" /><path d="M 116.498646956653 112.99209946851258 l 3.0309761688758234 2.3867862604846253 a24.857922392886014,24.857922392886014 0 0,0 -0.267615761741051,0.33389181057643247 l -2.9894424950799188 -2.4386059046393083" fill="#ff0b01" stroke="none" /><path d="M 116.27256486870786 113.27417163493432 l 4.6469551656192785 3.7907042280036762 a26.99696847210994,26.99696847210994 0 0,0 -0.2968432386170514,0.3575668034558015 l -4.581015927108684 -3.8701322885732483" fill="#ff2a04" stroke="none" /><path d="M 116.0416608686014 113.55231037782055 l 14.443330470820378 12.202009444864705 a39.90763945028294,39.90763945028294 0 0,0 -0.4478349600860888,0.5209332329394002 l -14.231153001163511 -12.448819776965633" fill="#ffdd14" stroke="none" /><path d="M 115.80600337817218 113.82643327865902 l 6.267457281320495 5.482510528037389 a29.327000808407437,29.327000808407437 0 0,0 -0.3356421481265122,0.37709751153811893 l -6.172156283545645 -5.589582209316375" fill="#ff4c07" stroke="none" /><path d="M 115.56566222782051 114.09645910891815 l 6.247656666218988 5.65795630361994 a29.42886014551334,29.42886014551334 0 0,0 -0.34327166672547776,0.37255359725293946 l -6.149338591497788 -5.764661155674215" fill="#ff4e07" stroke="none" /><path d="M 115.32070863581623 114.36230785411682 l 12.428723618465312 11.651233574459361 a38.035974130962,38.035974130962 0 0,0 -0.4518917313140097,0.4738066736434056 l -12.226325335772339 -11.863447364685275" fill="#ffc512" stroke="none" /><path d="M 115.07121518719521 114.62390073753431 l 3.472349497454027 3.369289983991333 a25.838318512530314,25.838318512530314 0 0,0 -0.31247062947896104,0.3165310979477998 l -3.4138382429195304 -3.428561575919798" fill="#ff1902" stroke="none" /><path d="M 114.81725581225074 114.88116024355365 l 3.916930194507674 3.933823281844823 a26.551333872271627,26.551333872271627 0 0,0 -0.32664468430416965,0.31969057318439564 l -3.84863555782771 -4.00066395795179" fill="#ff2403" stroke="none" /><path d="M 114.55890576462653 115.13401014063108 l 5.914187669138911 6.147809293182795 a29.53071948261924,29.53071948261924 0 0,0 -0.3693648472733954,0.34925751768833435 l -5.807486987474707 -6.248701447617051" fill="#ff4f07" stroke="none" /><path d="M 114.29624159901734 115.38237550388516 l 11.285594115958313 12.142998932533434 a37.57760711398545,37.57760711398545 0 0,0 -0.47759429850856644,0.43627106803605387 l -11.074900267982883 -12.335462767156072" fill="#ffbf11" stroke="none" /><path d="M 114.0293411484842 115.62618273729858 l 4.355106710604637 4.850811779403924 a27.51899757477769,27.51899757477769 0 0,0 -0.35520165395183617,0.3134241610243491 l -4.270962703746212 -4.925059082200562" fill="#ff3204" stroke="none" /><path d="M 113.75828350139079 115.86535959552629 l 2.6610099658106274 3.068542670355427 a25.061641067097817,25.061641067097817 0 0,0 -0.3283486986282409,0.2798258843438761 l -2.6077957906053393 -3.11389294492225" fill="#ff0e01" stroke="none" /><path d="M 113.48314897796784 116.09983520530334 l 4.54524908958172 5.427349458861352 a28.079223928860145,28.079223928860145 0 0,0 -0.3732261983727412,0.30713975215054723 l -4.451152762664288 -5.504784329869077" fill="#ff3a05" stroke="none" /><path d="M 113.20401910651253 116.32954008644616 l 20.294374556392032 25.098252295356314 a53.2766774454325,53.2766774454325 0 0,0 -0.7180744935163887,0.5704818062840852 l -19.859342570158294 -25.443868015645528" fill="#80ff25" stroke="none" /><path d="M 112.92097659922987 116.55440617244103 l 2.3972224167528364 3.071330813722893 a24.89611964430073,24.89611964430073 0 0,0 -0.34009435704469804,0.26076985061451885 l -2.3439993312146443 -3.1121400061647835" fill="#ff0b01" stroke="none" /><path d="M 112.63410532772338 116.77436683061366 l 3.071711695088426 4.078327466388488 a26.105699527081647,26.105699527081647 0 0,0 -0.36127184001461454,0.26726027045292716 l -3.001054884655247 -4.130597685581185" fill="#ff1d03" stroke="none" /><path d="M 112.34349029814194 116.9893568818739 l 3.973965247562673 5.469693919326013 a27.760913500404204,27.760913500404204 0 0,0 -0.38901324748190097,0.2775506231360068 l -3.8792246722318877 -5.53728880430624" fill="#ff3605" stroke="none" /><path d="M 111.45004920935366 117.60387380957326 l 3.089291773340168 4.749630463981469 a26.665925626515765,26.665925626515765 0 0,0 -0.3869329906505934,0.24695894173403576 l -3.0070769806426445 -4.802103834539314" fill="#ff2603" stroke="none" /><path d="M 111.1453310114006 117.79835938074945 l 3.040864362447618 4.856060057399306 a26.729587712206953,26.729587712206953 0 0,0 -0.3920604282187388,0.2408355367653344 l -2.9568247342965703 -4.907684060993018" fill="#ff2603" stroke="none" /><line stroke="#e1ed5e" stroke-width="0.3" x1="143.8653032363475" x2="146.44561519142675" y1="172.8068346515853" y2="177.08958963109032" /><path d="M 144.38136562736335 173.6633856474863 a86.0,86.0 0 0,1 -40.68145358897372,12.25698825130547" fill="none" id="id6" stroke="none" /><text fill="#e1ed5e" style="font-size:6.75px; font-family:Arial;" text-anchor="middle"><textPath startOffset="21.466115282336833" xlink:href="#id6">June</textPath></text><path d="M 110.8373102113329 117.98757091392108 l 8.42366513192934 13.981446591540111 a37.3229587712207,37.3229587712207 0 0,0 -0.5531478056136637,0.3268094735749327 l -8.181749455287294 -14.124374637408792" fill="#ffbb11" stroke="none" /><path d="M 109.89434966115114 118.52300852407294 l 2.801532715293604 5.244691782988315 a26.946038803556995,26.946038803556995 0 0,0 -0.41100292236444613,0.21501730378334544 l -2.710838890402662 -5.292138505716377" fill="#ff2a04" stroke="none" /><path d="M 109.57404056367764 118.69057910512821 l 2.914006687327913 5.688765588585908 a27.39167340339531,27.39167340339531 0 0,0 -0.4215005820160597,0.2113491420313994 l -2.8156521976290927 -5.7380825715266095" fill="#ff3004" stroke="none" /><path d="M 109.2508944713604 118.85261126421891 l 1.834100136702616 3.7377549818509985 a25.163500404203717,25.163500404203717 0 0,0 -0.39049838145242927,0.18746295364472684 l -1.769489087249954 -3.768772211995285" fill="#ff0f01" stroke="none" /><path d="M 108.59647513512805 119.15986991738527 l 10.241758472429234 22.82688624959301 a46.01919967663703,46.01919967663703 0 0,0 -0.7255240753205286,0.31804843343335276 l -9.847313722450952 -22.999799236320815" fill="#d4ff1c" stroke="none" /><path d="M 106.2309692047433 120.05430185196036 l 2.531173828119249 8.146553500897395 a29.53071948261924,29.53071948261924 0 0,0 -0.4867295731295007,0.1466476276803479 l -2.3905692805495025 -8.18891649768347" fill="#ff4f07" stroke="none" /><path d="M 105.88484417918355 120.15858648285463 l 2.28352886500251 7.8222485948021205 a29.14874696847211,29.14874696847211 0 0,0 -0.482854312339848,0.13645945176860375 l -2.148543384558056 -7.860396839909243" fill="#ff4a06" stroke="none" /><path d="M 105.53697534728816 120.25689768951611 l 2.2156853653254953 8.106034241156408 a29.403395311236864,29.403395311236864 0 0,0 -0.4893698892889947,0.12924703557493336 l -2.0758250332250032 -8.142972626034924" fill="#ff4e07" stroke="none" /><path d="M 105.18746579009965 120.34920634021253 l 2.0946961698906854 8.21699964990797 a29.47978981406629,29.47978981406629 0 0,0 -0.49279920860421494,0.12111805572973888 l -1.9529436765432593 -8.251838963951739" fill="#ff4f07" stroke="none" /><path d="M 104.83641907484287 120.43548508189849 l 1.56587375866982 6.616339349474815 a27.799110751818915,27.799110751818915 0 0,0 -0.4666012573720197,0.10619692705460126 l -1.4517523519049382 -6.6423130101071015" fill="#ff3605" stroke="none" /><path d="M 104.48393922423573 120.51570834832081 l 4.646151253568426 21.257889390024413 a42.75970088924818,42.75970088924818 0 0,0 -0.7204165372067535,0.15097028985046435 l -4.279543254932295 -21.33471566060142" fill="#fcff18" stroke="none" /><path d="M 104.13013068566511 120.58985236759428 l 1.252060636317231 6.241871170450972 a27.366208569118836,27.366208569118836 0 0,0 -0.46266144325821545,0.0886701667439526 l -1.1444315784873111 -6.262498535543393" fill="#ff3004" stroke="none" /><path d="M 103.41894727170886 120.7198165907248 l 1.3246002263269776 8.02746329919552 a29.136014551333872,29.136014551333872 0 0,0 -0.49553997500556385,0.07739315280156 l -1.1862243877128966 -8.049074759344187" fill="#ff4a06" stroke="none" /><path d="M 103.06178313531738 120.77559828337769 l 1.0042995207397136 6.81463136902223 a27.88823767178658,27.88823767178658 0 0,0 -0.475522883450149,0.06590313867180851 l -0.8868480461027343 -6.830909073186641" fill="#ff3805" stroke="none" /><path d="M 102.34483914955558 120.86867818915974 l 0.7222180404047529 6.427620363839824 a27.46806790622474,27.46806790622474 0 0,0 -0.47031532634772427,0.04875010657929095 l -0.611470117451426 -6.439099838874874" fill="#ff3104" stroke="none" /><path d="M 101.98527174616119 120.90594882070398 l 0.7438750641436637 7.833393111072186 a28.86863379143088,28.86863379143088 0 0,0 -0.49510488090582727,0.04271973241724565 l -0.6089258654962947 -7.845037095768095" fill="#ff4606" stroke="none" /><path d="M 101.62511606390274 120.93702456842531 l 0.32811053917518807 4.227180182671161 a25.239894907033147,25.239894907033147 0 0,0 -0.4334498103572557,0.029893236693947486 l -0.25529796803900195 -4.232201763881394" fill="#ff1001" stroke="none" /><line stroke="#e1ed5e" stroke-width="0.3" x1="102.19456741930631" x2="102.32365962044197" y1="184.97166512339345" y2="189.96999836594603" /><path d="M 102.22038585953345 185.97133177190398 a86.0,86.0 0 0,1 -42.740103519485714,-10.115201625700543" fill="none" id="id7" stroke="none" /><text fill="#e1ed5e" style="font-size:6.75px; font-family:Arial;" text-anchor="middle"><textPath startOffset="22.20632615414155" xlink:href="#id7">July</textPath></text><path d="M 100.18074693466247 120.99922214144158 l 0.06794448231046495 7.893806221317974 a28.894098625707358,28.894098625707358 0 0,0 -0.4973828339458354,0.0 l 0.06794448231045952 -7.893806221317974" fill="#ff4606" stroke="none" /><path d="M 99.81925306533755 120.99922214144158 l -0.05950621595899922 6.913446416412356 a27.913702506063057,27.913702506063057 0 0,0 -0.4804351090492973,-0.008271126098416919 l 0.17850101490096446 -6.911397813034779" fill="#ff3805" stroke="none" /><path d="M 98.73552117531835 120.96189622390904 l -0.3158641526488515 5.236237617775174 a26.24575586095392,26.24575586095392 0 0,0 -0.45072366356974464,-0.031084542746825497 l 0.4059505769975262 -5.2300247305120635" fill="#ff1f03" stroke="none" /><path d="M 98.01472825383883 120.90594882070398 l -0.7378566574758293 7.770016144154127 a28.804971705739693,28.804971705739693 0 0,0 -0.49320613719438927,-0.05112283271842196 l 0.8714953912758119 -7.756163942979944" fill="#ff4506" stroke="none" /><path d="M 97.65516085044442 120.86867818915974 l -0.8558568116607483 7.616983187070026 a28.664915117219078,28.664915117219078 0 0,0 -0.48985961695855224,-0.05931517764531035 l 0.9868438516706899 -7.601122480699367" fill="#ff4306" stroke="none" /><path d="M 97.2962882734958 120.8252237178851 l -1.1999496668155234 9.24256089015272 a30.320129345189976,30.320129345189976 0 0,0 -0.516989115715699,-0.07164998062264158 l 1.3588673737180534 -9.220536344037473" fill="#ff5b08" stroke="none" /><path d="M 96.58105272829116 120.7198165907248 l -1.0489009616924068 6.356645429409913 a27.442603071948263,27.442603071948263 0 0,0 -0.4654148242646979,-0.08091833291899234 l 1.1581647574291545 -6.337648517969915" fill="#ff3104" stroke="none" /><path d="M 96.22490169976321 120.6578951692458 l -1.5564269467427372 8.516998008339014 a29.658043654001617,29.658043654001617 0 0,0 -0.5014079040769998,-0.09609601817722407 l 1.702802465391432 -8.488944791813323" fill="#ff5107" stroke="none" /><path d="M 95.86986931433489 120.58985236759428 l -1.262077121407767 6.29180613981458 a27.417138237671786,27.417138237671786 0 0,0 -0.46192464817424445,-0.09680080123414389 l 1.3701932310113982 -6.269149357853895" fill="#ff3104" stroke="none" /><path d="M 94.81253420990036 120.34920634021253 l -8.139750281797415 31.93032296390665 a53.951495553759095,53.951495553759095 0 0,0 -0.897931586697726,-0.2371518932200627 l 8.68817231130663 -31.785479721383005" fill="#79ff26" stroke="none" /><path d="M 91.40352486487194 119.15986991738527 l -1.6782932458637232 3.740588993571985 a25.099838318512532,25.099838318512532 0 0,0 -0.39267143755688794,-0.18025619766456835 l 1.7424326791880305 -3.7111457255733424" fill="#ff0e01" stroke="none" /><path d="M 91.07499286063937 119.00905698771935 l -1.812779340149037 3.860974590270401 a25.26535974130962,25.26535974130962 0 0,0 -0.39207907990997554,-0.18822178496323871 l 1.8789710880592547 -3.8291985288076" fill="#ff1101" stroke="none" /><path d="M 90.7491055286396 118.85261126421891 l -1.8565356123809356 3.783476755329301 a25.21443007275667,25.21443007275667 0 0,0 -0.3879973594294099,-0.19454993071096124 l 1.921386879493106 -3.7509589837090376" fill="#ff1001" stroke="none" /><line stroke="#e1ed5e" stroke-width="0.3" x1="58.666819895761336" x2="56.23545636021788" y1="174.27360380694188" y2="178.64263932499728" /><path d="M 58.180547188652646 175.14741091055294 a86.0,86.0 0 0,1 -31.652253787137756,-30.449443065178592" fill="none" id="id8" stroke="none" /><text fill="#e1ed5e" style="font-size:6.75px; font-family:Arial;" text-anchor="middle"><textPath startOffset="22.20632615414155" xlink:href="#id8">August</textPath></text><path d="M 89.7882731507175 118.34994917583269 l -2.061745174299357 3.7048502883300065 a25.239894907033147,25.239894907033147 0 0,0 -0.3778186708002386,-0.21453530174198 l 2.1252126120208024 -3.6688118207933935" fill="#ff1001" stroke="none" /><path d="M 89.4739219176387 118.17145234162733 l -9.528355644886055 16.449057202536135 a40.00949878738884,40.00949878738884 0 0,0 -0.5929638803183997,-0.3503335123255504 l 9.810087396232836 -16.282605117916834" fill="#ffdf14" stroke="none" /><path d="M 87.65650970185807 116.9893568818739 l -2.5220834057036154 3.471350001530821 a25.290824575586093,25.290824575586093 0 0,0 -0.34999493962727873,-0.25891788913899155 l 2.5814633157494584 -3.427422163652063" fill="#ff1101" stroke="none" /><path d="M 87.36589467227662 116.77436683061367 l -2.5584829301493155 3.396910987121037 a25.25262732417138,25.25262732417138 0 0,0 -0.34496444330310305,-0.26450402508633136 l 2.6165761019459053 -3.3523676202073385" fill="#ff1101" stroke="none" /><path d="M 87.07902340077011 116.55440617244103 l -1.9428469259957628 2.4891831431479647 a24.157639450282943,24.157639450282943 0 0,0 -0.32560184952562604,-0.2586778014314463 l 1.9854062682387468 -2.4553714277113876" fill="#ff0000" stroke="none" /><path d="M 86.51685102203217 116.09983520530335 l -2.599620882170839 3.104131525032212 a25.04890864995958,25.04890864995958 0 0,0 -0.32818188303197493,-0.2796837204737551 l 2.6526682417798706 -3.0589234143355055" fill="#ff0d01" stroke="none" /><path d="M 85.97065885151581 115.62618273729859 l -5.554462269579737 6.186679867091337 a29.314268391269202,29.314268391269202 0 0,0 -0.3725710209847282,-0.34033479409590134 l 5.66013284003132 -6.09015230640886" fill="#ff4c07" stroke="none" /><path d="M 85.70375840098266 115.38237550388516 l -7.688419340134425 8.272534603039292 a32.293654001616815,32.293654001616815 0 0,0 -0.40392312775268263,-0.38193452890060886 l 7.829678302277925 -8.138965437392752" fill="#ff770a" stroke="none" /><path d="M 85.44109423537348 115.13401014063109 l -43.67671729387956 45.40203042189327 a84.0,84.0 0 0,0 -1.033400190496823,-1.0113995883097213 l 44.45176743675218 -44.64348073066098" fill="#4dd2ff" stroke="none" /><path d="M 84.9287848128048 114.62390073753433 l -3.253043213404298 3.156492721844515 a25.53274050121261,25.53274050121261 0 0,0 -0.30334530859017617,-0.3180563432982375 l 3.3068950733734317 -3.1000292619637775" fill="#ff1502" stroke="none" /><path d="M 84.43433777217949 114.09645910891817 l -4.001520281687083 3.6238269980889077 a26.398544866612774,26.398544866612774 0 0,0 -0.3021265067072223,-0.33944233310667443 l 4.063305638042643 -3.554410495241369" fill="#ff2203" stroke="none" /><path d="M 84.19399662182784 113.82643327865904 l -3.842890665380217 3.361600659622637 a26.105699527081647,26.105699527081647 0 0,0 -0.2929525541167318,-0.34077000394195656 l 3.9001857290677275 -3.29495355651915" fill="#ff1d03" stroke="none" /><line stroke="#e1ed5e" stroke-width="0.3" x1="26.63291911575756" x2="22.317208475507996" y1="142.92168965132927" y2="145.44649492493687" /><path d="M 25.769776987707644 143.4266507060508 a86.0,86.0 0 0,1 -11.730757126820373,-40.83630448921669" fill="none" id="id9" stroke="none" /><text fill="#e1ed5e" style="font-size:6.75px; font-family:Arial;" text-anchor="middle"><textPath startOffset="21.46611528233685" xlink:href="#id9">September</textPath></text><line stroke="#e1ed5e" stroke-width="0.3" x1="15.007084014347285" x2="10.007500721073583" y1="101.09737516637583" y2="101.16192664675087" /><path d="M 14.007167355692545 101.11028546245083 a86.0,86.0 0 0,1 10.666146001902534,-42.60595125391555" fill="none" id="id10" stroke="none" /><text fill="#e1ed5e" style="font-size:6.75px; font-family:Arial;" text-anchor="middle"><textPath startOffset="22.20632615414155" xlink:href="#id10">October</textPath></text><line stroke="#e1ed5e" stroke-width="0.3" x1="26.266209847984243" x2="21.928928074336255" y1="57.711370442889674" y2="55.22380399835377" /><path d="M 25.398753493254645 57.213857153982495 a86.0,86.0 0 0,1 29.58750427330803,-30.492523968695096" fill="none" id="id11" stroke="none" /><text fill="#e1ed5e" style="font-size:6.75px; font-family:Arial;" text-anchor="middle"><textPath startOffset="21.46611528233685" xlink:href="#id11">November</textPath></text><line stroke="#e1ed5e" stroke-width="0.3" x1="56.762969772571076" x2="54.21961505331055" y1="26.818313649435495" y2="22.513508569990535" /><path d="M 56.25429882871897 25.957352633546506 a86.0,86.0 0 0,1 42.265352541879196,-11.944610805530505" fill="none" id="id12" stroke="none" /><text fill="#e1ed5e" style="font-size:6.75px; font-family:Arial;" text-anchor="middle"><textPath startOffset="22.20632615414155" xlink:href="#id12">December</textPath></text></svg>