<?xml version="1.0" encoding="utf-8" ?>
<svg baseProfile="full" height="200mm" version="1.1" viewBox="0,0,200,200" width="200mm" xmlns="http://www.w3.org/2000/svg" xmlns:ev="http://www.w3.org/2001/xml-events" xmlns:xlink="http://www.w3.org/1999/xlink"><defs /><rect fill="#1a1a1a" height="200" width="200" x="0" y="0" /><text alignment-baseline="middle" fill="#e1ed5e" style="dominant-baseline: central; font-size:9.0px; font-family:Arial;" text-anchor="middle" x="100.0" y="100.0">2021</text><line stroke="#e1ed5e" stroke-width="0.3" x1="100.0" x2="100.0" y1="15.0" y2="10.0" /><path d="M 100.0 14.0 a86.0,86.0 0 0,1 42.46469731375804,11.215312516191453" fill="none" id="id73" stroke="none" /><text fill="#e1ed5e" style="font-size:6.75px; font-family:Arial;" text-anchor="middle"><textPath startOffset="22.20632615414155" xlink:href="#id73">January</textPath></text><path d="M 100.36148047927253 79.00311137660856 l 0.14556221641634462 -8.455100126067208 a29.456353026019535,29.456353026019535 0 0,0 0.5068924479952627,0.013091536453327326 l -0.29108129960647516 8.451341797471521" fill="#ff6509" stroke="none" /><path d="M 101.44485096284872 79.0497635885617 l 0.4057015571673369 -5.8826437838172385 a26.896616965750074,26.896616965750074 0 0,0 0.46160974416283934,0.0358298003635312 l -0.5069014906925173 5.874788721265243" fill="#ff4106" stroke="none" /><path d="M 102.16513564639614 79.11191278185805 l 0.5949982699268089 -5.740229614510194 a26.77098422875299,26.77098422875299 0 0,0 0.4579537578468615,0.051456440621295105 l -0.6937187312833957 5.7291372204182975" fill="#ff3f05" stroke="none" /><path d="M 103.2404852339499 79.25152402106235 l 0.9520592838417962 -6.095932477753567 a27.169830601668096,27.169830601668096 0 0,0 0.4614611928461544,0.07614505077169112 l -1.056849682826826 6.078641164042251" fill="#ff4506" stroke="none" /><path d="M 103.95276090670814 79.375362276772 l 0.8361896756711152 -4.363053960423549 a25.44246024577222,25.44246024577222 0 0,0 0.42941250175709395,0.08613610814939537 l -0.9111685868953345 4.348013896196946" fill="#ff2c04" stroke="none" /><path d="M 104.66035177308747 79.52364482259891 l 1.302714997637771 -5.723785732356031 a26.87016094114913,26.87016094114913 0 0,0 0.45010886412385953,0.10652622570397283 l -1.401047548724154 5.7005135945111896" fill="#ff4106" stroke="none" /><path d="M 105.36241919743992 79.69619591428918 l 3.7372766766236927 -14.150503842088705 a35.63570961527328,35.63570961527328 0 0,0 0.5917260553265092,0.16174108350197167 l -3.980300621173913 14.08407621776044" fill="#ffb711" stroke="none" /><path d="M 105.71112130821622 79.79150937346287 l 1.460735774440247 -5.1687337061385366 a26.371178374221262,26.371178374221262 0 0,0 0.43576461266738986,0.12721163989007436 l -1.549490604831064 5.142823737329759" fill="#ff3a05" stroke="none" /><path d="M 106.74666289553966 80.11325718540242 l 1.5341733311462822 -4.522192814716015 a25.775344559659505,25.775344559659505 0 0,0 0.4189328071276945,0.14615743044555415 l -1.6117881423372502 4.495114531098253" fill="#ff3104" stroke="none" /><path d="M 108.09893153111575 80.62456947434976 l 2.8148657066433436 -6.734127178204441 a28.2987627580754,28.2987627580754 0 0,0 0.4478161189974758,0.1917314915851411 l -2.9303655834311346 6.68467615865651" fill="#ff5507" stroke="none" /><path d="M 108.76106565485865 80.91482961587045 l 2.996284535284342 -6.527128448526245 a28.182000194927923,28.182000194927923 0 0,0 0.43913164347330447,0.20617819472319965 l -3.1081943900572444 6.474585271163042" fill="#ff5307" stroke="none" /><path d="M 109.41281617654863 81.2277094730956 l 2.6196272426002705 -5.224409225456387 a26.8443903570182,26.8443903570182 0 0,0 0.4112810030687689,0.2106741040126491 l -2.709168733257795 5.178542596131238" fill="#ff4006" stroke="none" /><path d="M 110.05341064243156 81.56283822128135 l 4.958170046344903 -9.092892603534203 a31.35684054660874,31.35684054660874 0 0,0 0.4716605034039515,0.26247855948830706 l -5.11395463882089 9.006198646485716" fill="#ff7f0b" stroke="none" /><line stroke="#e1ed5e" stroke-width="0.3" x1="143.23703022742887" x2="145.7803849466894" y1="26.81831364943548" y2="22.513508569990506" /><path d="M 143.74570117128098 25.957352633546492 a86.0,86.0 0 0,1 28.547481713284135,27.462654790039103" fill="none" id="id74" stroke="none" /><text fill="#e1ed5e" style="font-size:6.75px; font-family:Arial;" text-anchor="middle"><textPath startOffset="19.985693538727396" xlink:href="#id74">February</textPath></text><path d="M 110.99172775467656 82.1063720568725 l 2.773278305672117 -4.514668784744124 a26.29842493545531,26.29842493545531 0 0,0 0.3836825582380574,0.24026198276956603 l -2.8505800162824375 4.466262460651614" fill="#ff3905" stroke="none" /><path d="M 112.48926042617603 83.11751280151076 l 2.912086280762722 -3.9364428059192655 a25.896511867736052,25.896511867736052 0 0,0 0.35608178124049844,0.268193415280835 l -2.979414215761603 3.8857328011325833" fill="#ff3304" stroke="none" /><path d="M 113.89432698308785 84.25364557470407 l 0.9155681683028103 -1.0376077154484156 a22.38379725464659,22.38379725464659 0 0,0 0.2867140722561417,0.25741472497639195 l -0.933293228154942 1.0216939817027262" fill="#ff0000" stroke="none" /><path d="M 114.42810811169701 84.74124197986012 l 7.355351494899532 -7.7788111750255915 a31.70565733200086,31.70565733200086 0 0,0 0.3933264289175721,0.3783797129865831 l -7.4881611674295225 7.651048375276707" fill="#ff830c" stroke="none" /><path d="M 116.15771136456269 86.58626213691792 l 3.7345177187665897 -3.1003055194089404 a25.853711662785415,25.853711662785415 0 0,0 0.2813148619222953,0.34485875767304114 l -3.787331072765294 3.0355625921277984" fill="#ff3204" stroke="none" /><path d="M 116.60985879189232 87.15038557335679 l 4.729048449414127 -3.6584566997973553 a26.978980235892934,26.978980235892934 0 0,0 0.28099771837180504,0.3697600591949853 l -4.791322108010045 3.5765118647213368" fill="#ff4206" stroke="none" /><path d="M 117.04232023915458 87.72973835380427 l 5.563113743625278 -4.0053736958305075 a27.85501662782545,27.85501662782545 0 0,0 0.2768090688276273,0.39152679720720623 l -5.631235432256789 3.9090203982915077" fill="#ff4f07" stroke="none" /><path d="M 117.65298651832404 88.62581576622439 l 8.599670510237525 -5.540945529623342 a31.2301715648811,31.2301715648811 0 0,0 0.28727653861139457,0.4544024944732538 l -8.693774645094875 5.392095387435882" fill="#ff7d0b" stroke="none" /><line stroke="#e1ed5e" stroke-width="0.3" x1="172.23445277983987" x2="176.4835382374775" y1="55.19839476539836" y2="52.563006222186495" /><path d="M 173.08426987136738 54.67131705675599 a86.0,86.0 0 0,1 12.851231095245387,41.99856678651699" fill="none" id="id75" stroke="none" /><text fill="#e1ed5e" style="font-size:6.75px; font-family:Arial;" text-anchor="middle"><textPath startOffset="22.20632615414155" xlink:href="#id75">March</textPath></text><path d="M 119.7369772167798 92.82701384747503 l 59.21093165033941 -21.518958457574904 a84.0,84.0 0 0,0 0.4821876767607618,1.3632094942935418 l -59.57257240790998 20.496551336854747" fill="#4dd2ff" stroke="none" /><path d="M 120.53481517161879 95.60439243477599 l 14.523938077508621 -3.1089411595278236 a35.85295567934918,35.85295567934918 0 0,0 0.12398413737917847,0.6045906859310384 l -14.575301510802797 2.858474817433373" fill="#ffba11" stroke="none" /><line stroke="#e1ed5e" stroke-width="0.3" x1="184.98032266829074" x2="189.97916517819016" y1="98.17113171792111" y2="98.06355123074" /><path d="M 185.9800911702706 98.14961562048488 a86.0,86.0 0 0,1 -9.607161424134198,41.387399972396054" fill="none" id="id76" stroke="none" /><text fill="#e1ed5e" style="font-size:6.75px; font-family:Arial;" text-anchor="middle"><textPath startOffset="21.466115282336823" xlink:href="#id76">April</textPath></text><path d="M 120.9904718944345 100.63252640178507 l 8.149305020406425 0.24557097179760926 a29.153004195866146,29.153004195866146 0 0,0 -0.019432375224859532,0.5014632587353809 l -8.143870512330361 -0.3858114775469963" fill="#ff6108" stroke="none" /><line stroke="#e1ed5e" stroke-width="0.3" x1="174.80103733775053" x2="179.2010983576182" y1="140.37084112569926" y2="142.7455964860345" /><path d="M 175.68104954172406 140.8457921977663 a86.0,86.0 0 0,1 -30.038265399797805,32.042727171017184" fill="none" id="id77" stroke="none" /><text fill="#e1ed5e" style="font-size:6.75px; font-family:Arial;" text-anchor="middle"><textPath startOffset="22.206326154141568" xlink:href="#id77">May</textPath></text><path d="M 117.75023020441432 111.22182372390056 l 2.9025948974698377 1.8350414561496355 a24.434011398438525,24.434011398438525 0 0,0 -0.22781240952399906,0.35356991863135623 l -2.8705776245687886 -1.8847329747024446" fill="#ff1e03" stroke="none" /><path d="M 114.55890576462653 115.13401014063108 l 4.029522667168983 4.188696451007115 a26.81224835015747,26.81224835015747 0 0,0 -0.33536270671431223,0.31710637148311566 l -3.956824126063864 -4.257437459236153" fill="#ff4006" stroke="none" /><path d="M 113.75828350139079 115.86535959552629 l 3.793891223551105 4.374924279025423 a26.79081799604721,26.79081799604721 0 0,0 -0.35100375911683407,0.29913301838329615 l -3.718021987857224 -4.439581687631667" fill="#ff4006" stroke="none" /><path d="M 112.92097659922987 116.55440617244103 l 5.994226026092628 7.679826022691573 a30.742200644140773,30.742200644140773 0 0,0 -0.41995496131870474,0.32200355654096235 l -5.86114233628043 -7.781868921059907" fill="#ff760a" stroke="none" /><path d="M 112.04921762599082 117.19931262002967 l 2.907498493054199 4.150225938025765 a26.067338830567213,26.067338830567213 0 0,0 -0.3697132098517631,0.25429211696107756 l -2.8356283985795527 -4.199658844351937" fill="#ff3505" stroke="none" /><path d="M 111.45004920935366 117.60387380957326 l 3.9645325826011417 6.095269113868869 a28.271163879943146,28.271163879943146 0 0,0 -0.4102256243586755,0.2618254026193546 l -3.859025156195536 -6.162608945312032" fill="#ff5407" stroke="none" /><line stroke="#e1ed5e" stroke-width="0.3" x1="143.8653032363475" x2="146.44561519142675" y1="172.8068346515853" y2="177.08958963109032" /><path d="M 144.38136562736335 173.6633856474863 a86.0,86.0 0 0,1 -40.68145358897372,12.25698825130547" fill="none" id="id78" stroke="none" /><text fill="#e1ed5e" style="font-size:6.75px; font-family:Arial;" text-anchor="middle"><textPath startOffset="21.466115282336833" xlink:href="#id78">June</textPath></text><path d="M 110.8373102113329 117.98757091392108 l 2.4766480442871734 4.110695500702134 a25.79912523641176,25.79912523641176 0 0,0 -0.38235793680637276,0.2259038086687501 l -2.405522236452419 -4.152717881664633" fill="#ff3104" stroke="none" /><path d="M 110.21172684928248 118.3499491758327 l 2.8104818584860127 5.050291691501893 a26.77964137694823,26.77964137694823 0 0,0 -0.4047260609229437,0.22068891822865444 l -2.7231329856944204 -5.097921261490318" fill="#ff3f05" stroke="none" /><path d="M 109.57404056367764 118.69057910512821 l 2.2192951226562334 4.332539722570179 a25.867871330375756,25.867871330375756 0 0,0 -0.39805245414171797,0.19959176394005465 l -2.144388760831755 -4.3700993274195366" fill="#ff3204" stroke="none" /><path d="M 107.2578585660854 119.70592522655815 l 1.6587374890783493 4.503664081166684 a25.79941665347622,25.79941665347622 0 0,0 -0.4180493730638774,0.14989763169643985 l -1.580968555384737 -4.5315492539030835" fill="#ff3104" stroke="none" /><path d="M 106.91757812671514 119.82793768551818 l 0.7930738929375725 2.273197272387677 a23.407569737068883,23.407569737068883 0 0,0 -0.3815771237800607,0.1294516777731937 l -0.7538270362202848 -2.2865119370589935" fill="#ff0f01" stroke="none" /><path d="M 105.88484417918355 120.15858648285463 l 1.3483218688610683 4.618688647068128 a25.81147136337784,25.81147136337784 0 0,0 -0.4275717329847461,0.12083604264009222 l -1.2686189677717163 -4.641213483046739" fill="#ff3204" stroke="none" /><path d="M 104.83641907484287 120.43548508189849 l 1.1323446641825363 4.784534204828269 a25.91670336665477,25.91670336665477 0 0,0 -0.4350055109956182,0.09900583804625089 l -1.049819003794056 -4.8033167764522045" fill="#ff3304" stroke="none" /><path d="M 104.48393922423573 120.51570834832081 l 0.6545754791906461 2.994929001368562 a24.065626980112903,24.065626980112903 0 0,0 -0.4054583005533084,0.08496772907816007 l -0.6029257172079596 -3.005752711173263" fill="#ff1902" stroke="none" /><path d="M 104.13013068566511 120.58985236759428 l 0.2859746096699451 1.4256631187050077 a22.454062173846623,22.454062173846623 0 0,0 -0.3796152026731442,0.07275415708410525 l -0.2613917924250965 -1.430374474137581" fill="#ff0100" stroke="none" /><path d="M 103.41894727170886 120.7198165907248 l 0.47135015180612566 2.85651924972561 a23.89514648846317,23.89514648846317 0 0,0 -0.40640425521428203,0.06347198653882559 l -0.4221100329833265 -2.8642095436115413" fill="#ff1602" stroke="none" /><path d="M 101.98527174616119 120.90594882070398 l 1.5566274805681641 16.392100731089116 a37.46584511925921,37.46584511925921 0 0,0 -0.6425493814436443,0.0554418643377509 l -1.274233781382978 -16.41646684770553" fill="#ffcf13" stroke="none" /><path d="M 101.26447882468166 120.96189622390904 l 0.2933643150181365 4.863246586004702 a25.872086819588958,25.872086819588958 0 0,0 -0.4447681922339983,0.02298943521517235 l -0.20960805437065855 -4.867575827982076" fill="#ff3304" stroke="none" /><path d="M 100.90346689309514 120.98055641714683 l 0.0820458508747042 1.9052912909430462 a22.907057006224296,22.907057006224296 0 0,0 -0.3940882618751146,0.013573196561590931 l -0.04923723732493734 -1.9064212859307308" fill="#ff0801" stroke="none" /><line stroke="#e1ed5e" stroke-width="0.3" x1="102.19456741930631" x2="102.32365962044197" y1="184.97166512339345" y2="189.96999836594603" /><path d="M 102.22038585953345 185.97133177190398 a86.0,86.0 0 0,1 -42.740103519485714,-10.115201625700543" fill="none" id="id79" stroke="none" /><text fill="#e1ed5e" style="font-size:6.75px; font-family:Arial;" text-anchor="middle"><textPath startOffset="22.20632615414155" xlink:href="#id79">July</textPath></text><path d="M 100.54218724476979 120.99299961872073 l 0.08785629372686433 3.401716212437593 a24.402850557739523,24.402850557739523 0 0,0 -0.42000827967105975,0.007230823430895502 l -0.029288324163136675 -3.402724513147648" fill="#ff1d03" stroke="none" /><path d="M 99.09653310690486 120.98055641714683 l -0.1653970253948851 3.8408951662163915 a24.84445468875287,24.84445468875287 0 0,0 -0.427102122685725,-0.02207630120856418 l 0.231487216494099 -3.8374790582456253" fill="#ff2403" stroke="none" /><path d="M 96.58105272829116 120.7198165907248 l -0.836937185332735 5.072083188163447 a26.140670357049064,26.140670357049064 0 0,0 -0.4433346016225295,-0.077079403186775 l 0.9241207584273144 -5.056925206455666" fill="#ff3605" stroke="none" /><path d="M 95.51606077576429 120.51570834832081 l -2.6048963261018043 11.918380386394748 a33.19972441920463,33.19972441920463 0 0,0 -0.557249233499018,-0.1268281112966301 l 2.809665708993685 -11.871775541520432" fill="#ff970e" stroke="none" /><path d="M 90.10565033884886 118.52300852407294 l -4.31850142694132 8.084577711714783 a30.16568880942669,30.16568880942669 0 0,0 -0.4559000710657838,-0.2485930687893861 l 4.457024309875744 -8.009043991165631" fill="#ff6e0a" stroke="none" /><line stroke="#e1ed5e" stroke-width="0.3" x1="58.666819895761336" x2="56.23545636021788" y1="174.27360380694188" y2="178.64263932499728" /><path d="M 58.180547188652646 175.14741091055294 a86.0,86.0 0 0,1 -31.652253787137756,-30.449443065178592" fill="none" id="id80" stroke="none" /><text fill="#e1ed5e" style="font-size:6.75px; font-family:Arial;" text-anchor="middle"><textPath startOffset="22.20632615414155" xlink:href="#id80">August</textPath></text><path d="M 89.7882731507175 118.34994917583269 l -1.8922883144695732 3.4003450061904616 a24.89141378244495,24.89141378244495 0 0,0 -0.3726022197898108,-0.2115732647172505 l 1.9505393011805914 -3.3672685756785783" fill="#ff2403" stroke="none" /><path d="M 87.65650970185807 116.9893568818739 l -3.2489033378573247 4.471731815585272 a26.52736450121195,26.52736450121195 0 0,0 -0.3671071818684399,-0.27157711685306907 l 3.325395490144329 -4.415144749992436" fill="#ff3c05" stroke="none" /><path d="M 85.18274418774928 114.88116024355367 l -1.5056452999495484 1.51213890496362 a23.133900615578135,23.133900615578135 0 0,0 -0.27976528287426844,-0.2834007545078109 l 1.5314512078793503 -1.4859976564751445" fill="#ff0b01" stroke="none" /><path d="M 84.19399662182784 113.82643327865904 l -1.9872005161276938 1.7383202249279608 a23.64021269894904,23.64021269894904 0 0,0 -0.26528539037368276,-0.30858684197496855 l 2.0168284160721552 -1.703856283791462" fill="#ff1202" stroke="none" /><path d="M 82.6465618267979 111.8261652097733 l -7.004065618242034 4.7731888237187885 a29.475863774950263,29.475863774950263 0 0,0 -0.28212176590958804,-0.4217337612509723 l 7.085190489562352 -4.651918148261995" fill="#ff6509" stroke="none" /><line stroke="#e1ed5e" stroke-width="0.3" x1="26.63291911575756" x2="22.317208475507996" y1="142.92168965132927" y2="145.44649492493687" /><path d="M 25.769776987707644 143.4266507060508 a86.0,86.0 0 0,1 -11.730757126820373,-40.83630448921669" fill="none" id="id81" stroke="none" /><text fill="#e1ed5e" style="font-size:6.75px; font-family:Arial;" text-anchor="middle"><textPath startOffset="21.46611528233685" xlink:href="#id81">September</textPath></text><path d="M 80.45479744820244 107.68017299344265 l -4.593286905754583 1.804905216572733 a25.935176535787548,25.935176535787548 0 0,0 -0.159693651706168,-0.4169097327858828 l 4.623674837054261 -1.7255719169536925" fill="#ff3304" stroke="none" /><path d="M 79.4281124754447 104.21870165774334 l -4.980634608985554 1.0213847152557494 a26.084284398495303,26.084284398495303 0 0,0 -0.08641359113738553,-0.44062103950579606 l 4.997478133098605 -0.9354999486819986" fill="#ff3605" stroke="none" /><path d="M 79.1416061653843 102.43462659150553 l -7.6784658728934145 0.8962433706228116 a28.730594436430756,28.730594436430756 0 0,0 -0.053107407263282155,-0.49170863404237286 l 7.692755581657749 -0.7639384146956566" fill="#ff5b08" stroke="none" /><line stroke="#e1ed5e" stroke-width="0.3" x1="15.007084014347285" x2="10.007500721073583" y1="101.09737516637583" y2="101.16192664675087" /><path d="M 14.007167355692545 101.11028546245083 a86.0,86.0 0 0,1 10.666146001902534,-42.60595125391555" fill="none" id="id82" stroke="none" /><text fill="#e1ed5e" style="font-size:6.75px; font-family:Arial;" text-anchor="middle"><textPath startOffset="22.20632615414155" xlink:href="#id82">October</textPath></text><path d="M 79.46518482838121 95.60439243477599 l -3.4855934249718237 -0.7461134030208758 a24.56455421257332,24.56455421257332 0 0,0 0.09206515701534586,-0.4127100467366371 l 3.47223388095444 0.8060016193074722" fill="#ff2003" stroke="none" /><path d="M 80.14247586403 93.16781622104843 l -2.8496504996112195 -0.9804513284643666 a24.01360129702355,24.01360129702355 0 0,0 0.13784598357227382,-0.38970915809860174 l 2.832351435229136 1.0293581129895795" fill="#ff1802" stroke="none" /><path d="M 80.2630227832202 92.82701384747504 l -2.2692999862696874 -0.8247289946506475 a23.41451865644088,23.41451865644088 0 0,0 0.14092798669605539,-0.37761693935863605 l 2.254767411072004 0.8636690710386249" fill="#ff0f01" stroke="none" /><path d="M 80.52162464483688 92.15188598940014 l -4.453422720438959 -1.7943472497122954 a25.80131815020334,25.80131815020334 0 0,0 0.16952487402273972,-0.4105179290384508 l 4.42187615953002 1.8707397492040574" fill="#ff3204" stroke="none" /><path d="M 81.10775173730289 90.83032412892265 l -3.397489839568317 -1.6490298121708253 a24.776537638022173,24.776537638022173 0 0,0 0.18952869929672203,-0.38207829258419373 l 3.3686011273181817 1.7072676932539805" fill="#ff2303" stroke="none" /><path d="M 81.43458229118936 90.18545643968196 l -4.749215065197216 -2.5106560415592636 a26.37200497901056,26.37200497901056 0 0,0 0.21561236486982133,-0.39949696626066533 l 4.705294601108923 2.5920339911524017" fill="#ff3a05" stroke="none" /><path d="M 81.6062741919709 89.86733742301443 l -6.399674432490427 -3.525427219246743 a28.306467677344333,28.306467677344333 0 0,0 0.2387749738592546,-0.42475403526805794 l 6.338041817338741 3.6350647644495857" fill="#ff5507" stroke="none" /><line stroke="#e1ed5e" stroke-width="0.3" x1="26.266209847984243" x2="21.928928074336255" y1="57.711370442889674" y2="55.22380399835377" /><path d="M 25.398753493254645 57.213857153982495 a86.0,86.0 0 0,1 29.58750427330803,-30.492523968695096" fill="none" id="id83" stroke="none" /><text fill="#e1ed5e" style="font-size:6.75px; font-family:Arial;" text-anchor="middle"><textPath startOffset="21.46611528233685" xlink:href="#id83">November</textPath></text><path d="M 81.96595687620814 89.24020034530311 l -4.12544855599143 -2.4614003439786103 a25.803937701664104,25.803937701664104 0 0,0 0.23086439219758811,-0.37948035906813576 l 4.082468365507625 2.5320484762538205" fill="#ff3204" stroke="none" /><path d="M 82.34701348167596 88.62581576622439 l -6.143212419994962 -3.9581987886135277 a28.30796801356998,28.30796801356998 0 0,0 0.26744743333679305,-0.40734078948565966 l 6.074168351300249 4.063357642076855" fill="#ff5507" stroke="none" /><path d="M 82.7489923806493 88.02491185347247 l -8.610953701881181 -5.97744386188937 a31.48228785990826,31.48228785990826 0 0,0 0.3128550560030678,-0.4425112897700592 l 8.506786026074236 6.124781651991215" fill="#ff800b" stroke="none" /><path d="M 83.39014120810768 87.1503855733568 l -3.7946391888641857 -2.935584888231301 a25.79759785826989,25.79759785826989 0 0,0 0.27473940435617966,-0.3488911433090102 l 3.743545703914035 3.000468425493359" fill="#ff3104" stroke="none" /><path d="M 83.84228863543731 86.58626213691792 l -6.206381330936943 -5.152386397624439 a29.06636565098731,29.06636565098731 0 0,0 0.32289879099417884,-0.3822103210156106 l 6.116771926455639 5.258455668269165" fill="#ff5f08" stroke="none" /><path d="M 84.31358615837235 86.03803664274999 l -7.597130850110613 -6.761957425093148 a31.170568586488898,31.170568586488898 0 0,0 0.36017793776786994,-0.3977174748558493 l 7.479609271726698 6.8917276872185536" fill="#ff7c0b" stroke="none" /><path d="M 84.5562425177563 85.77008943001954 l -4.361436781556859 -4.018637007835277 a26.93056272205769,26.93056272205769 0 0,0 0.31705310202937764,-0.3382101433566914 l 4.291616357557025 4.09311656807002" fill="#ff4206" stroke="none" /><path d="M 85.57189188830299 84.74124197986013 l -2.766570381834675 -2.9258463878488397 a25.026721838286445,25.026721838286445 0 0,0 0.31556564939225507,-0.29328387952322676 l 2.715796848647564 2.973034853446714" fill="#ff2603" stroke="none" /><path d="M 86.10567301691215 84.25364557470407 l -3.2342473026886385 -3.6653523692930006 a25.888267955629125,25.888267955629125 0 0,0 0.33667840576077757,-0.2919641957916427 l 3.1706750982810874 3.7204815585043236" fill="#ff3304" stroke="none" /><path d="M 86.37877921826538 84.01681056812374 l -2.9287916724938765 -3.4366546771448805 a25.51535336721405,25.51535336721405 0 0,0 0.3367327560737314,-0.28200399929610825 l 2.869201379461035 3.4865598338348014" fill="#ff2d04" stroke="none" /><line stroke="#e1ed5e" stroke-width="0.3" x1="56.762969772571076" x2="54.21961505331055" y1="26.818313649435495" y2="22.513508569990535" /><path d="M 56.25429882871897 25.957352633546506 a86.0,86.0 0 0,1 42.265352541879196,-11.944610805530505" fill="none" id="id84" stroke="none" /><text fill="#e1ed5e" style="font-size:6.75px; font-family:Arial;" text-anchor="middle"><textPath startOffset="22.20632615414155" xlink:href="#id84">December</textPath></text><path d="M 99.27714615592234 79.0124445844662 l -0.09595198999217211 -2.7858988697237925 a23.787550770248277,23.787550770248277 0 0,0 0.40934225058653656,-0.010572102655376198 l 0.047983104210756564 2.7871377645215287" fill="#ff1502" stroke="none" /><path d="M 99.63851952072746 79.00311137660856 l -0.048644968008563064 -2.8255826633286927 a23.826001365926107,23.826001365926107 0 0,0 0.4101254472810981,-0.003530079205973055 l 6.921707054334909e-16 2.826001365926107" fill="#ff1502" stroke="none" /></svg>