<?xml version="1.0" encoding="utf-8" ?>
<svg baseProfile="full" height="200mm" version="1.1" viewBox="0,0,200,200" width="200mm" xmlns="http://www.w3.org/2000/svg" xmlns:ev="http://www.w3.org/2001/xml-events" xmlns:xlink="http://www.w3.org/1999/xlink"><defs /><rect fill="#1a1a1a" height="200" width="200" x="0" y="0" /><text alignment-baseline="middle" fill="#e1ed5e" style="dominant-baseline: central; font-size:9.0px; font-family:Arial;" text-anchor="middle" x="100.0" y="100.0">2024</text><line stroke="#e1ed5e" stroke-width="0.3" x1="100.0" x2="100.0" y1="15.0" y2="10.0" /><path d="M 100.0 14.0 a86.0,86.0 0 0,1 42.35913384403234,11.155469271406648" fill="none" id="id109" stroke="none" /><text fill="#e1ed5e" style="font-size:6.75px; font-family:Arial;" text-anchor="middle"><textPath startOffset="22.145653131862478" xlink:href="#id109">January</textPath></text><path d="M 100.0 79.0 l 0.0 -12.212588821398448 a33.21258882139845,33.21258882139845 0 0,0 0.5701382517156336,0.004893951184830689 l -0.2096453268667788 12.210789268408053" fill="#ff950d" stroke="none" /><path d="M 100.72087961077811 79.0123766808444 l 0.9382355502676123 -27.31570434125973 a48.331812775718,48.331812775718 0 0,0 0.8289463764417626,0.03559852414114138 l -1.4070076873102113 27.295573248692758" fill="#afff20" stroke="none" /><path d="M 101.08105385017728 79.02784411241856 l 0.6980894561262666 -13.542748952752158 a34.56072926084819,34.56072926084819 0 0,0 0.5922320770922425,0.03562721111588889 l -0.9304658853509714 13.528769763811578" fill="#ffa60f" stroke="none" /><path d="M 101.44090949804482 79.04949213459386 l 0.8049851276077138 -11.704307085465434 a32.731956589015574,32.731956589015574 0 0,0 0.5602323837982518,0.043365529663208585 l -1.005786506181199 11.68876378880717" fill="#ff8e0d" stroke="none" /><path d="M 101.80034050326958 79.07731436759882 l 0.3559724699405188 -4.1369396893692025 a25.152226678883718,25.152226678883718 0 0,0 0.4298640541376425,0.040708572854806724 l -0.42693608746317424 4.130219361009212" fill="#ff2403" stroke="none" /><path d="M 102.87502721639298 79.19773525538626 l 3.7193594005260358 -26.91143182539347 a48.16723757107229,48.16723757107229 0 0,0 0.8180973511348525,0.12023213788730264 l -4.18078185726857 26.843618614207287" fill="#b0ff20" stroke="none" /><path d="M 103.58742460773223 79.30868818359171 l 3.8513217154671127 -22.21340020589574 a43.54479602177224,43.54479602177224 0 0,0 0.7354203182631843,0.1340180801273015 l -4.232076767281351 22.144013951837074" fill="#e6ff1a" stroke="none" /><path d="M 104.29559338865022 79.4440306129975 l 6.81498652798705 -32.612177589312225 a54.31663501155967,54.31663501155967 0 0,0 0.911064773992967,0.1985623270914493 l -7.373813718599151 32.49038380408705" fill="#6dff28" stroke="none" /><path d="M 105.3480935250658 79.69241777938227 l 10.177083140451385 -38.64404234371277 a60.961669508546876,60.961669508546876 0 0,0 1.0096953564354776,0.27519695931230315 l -10.838959897821557 38.463644890256326" fill="#30ff37" stroke="none" /><path d="M 107.06938296918511 80.22567764915836 l 0.6499296347650824 -1.8179688608227926 a22.93065256042282,22.93065256042282 0 0,0 0.3695229326712955,0.13569393930284387 l -0.6810417190905025 1.8065440725112267" fill="#ff0400" stroke="none" /><path d="M 109.06512990194946 81.05736502329252 l 2.135858845217868 -4.463123518840406 a25.947864645594276,25.947864645594276 0 0,0 0.40014047709575584,0.195728758642547 l -2.212159571575691 4.4258010101006375" fill="#ff3004" stroke="none" /><line stroke="#e1ed5e" stroke-width="0.3" x1="143.13028292997686" x2="145.6673583964461" y1="26.7553504044142" y2="22.446841604673864" /><path d="M 143.63769802327073 25.89364864446614 a86.0,86.0 0 0,1 29.32050498858742,28.57503671076993" fill="none" id="id110" stroke="none" /><text fill="#e1ed5e" style="font-size:6.75px; font-family:Arial;" text-anchor="middle"><textPath startOffset="20.669276256404974" xlink:href="#id110">February</textPath></text><path d="M 110.96478420261332 82.08984904055464 l 1.9992964635780808 -3.2657005202924414 a24.82909731366469,24.82909731366469 0 0,0 0.361601362299507,0.22566599399601608 l -2.0550619546673 3.23089872945488" fill="#ff2003" stroke="none" /><path d="M 111.27062007382361 82.28071324371311 l 6.3349663474649915 -9.959619308157366 a32.80363568511562,32.80363568511562 0 0,0 0.4725510051882964,0.3063018523637786 l -6.505002984910295 9.849403614089693" fill="#ff8f0d" stroke="none" /><path d="M 113.31354834802062 83.75963576809568 l 3.716147202076497 -4.533095349450337 a26.86162976267772,26.86162976267772 0 0,0 0.3540946925976181,0.295398386379081 l -3.793416228836008 4.468634779159386" fill="#ff3d05" stroke="none" /><path d="M 113.86319453409587 84.22622945171908 l 1.8010283159142801 -2.049239613302551 a23.72820196969605,23.72820196969605 0 0,0 0.3036475104693236,0.27152347624513257 l -1.8359408532069792 2.0180206071740314" fill="#ff1001" stroke="none" /><path d="M 115.6541949942343 86.00192230759917 l 9.393400410761995 -8.399636569884686 a33.60118509438885,33.60118509438885 0 0,0 0.38079572811162293,0.4332756368833585 l -9.536207202832207 8.23714865519003" fill="#ff9a0e" stroke="none" /><path d="M 116.7966241395341 87.39550010848427 l 4.934047199177026 -3.7026010030421115 a27.168798582498468,27.168798582498468 0 0,0 0.2767310070062019,0.37543875873265653 l -4.996880225767054 3.61735593504058" fill="#ff4106" stroke="none" /><path d="M 117.01052211995028 87.68569379921539 l 9.987334940135437 -7.2300602953498325 a33.329664678361866,33.329664678361866 0 0,0 0.3315268439223366,0.4663340242208843 l -10.109976882587734 7.057549044419444" fill="#ff960d" stroke="none" /><path d="M 117.42321728460499 88.27688183743584 l 10.913391511896856 -7.343016858392586 a34.15378313925618,34.15378313925618 0 0,0 0.3231200965796012,0.48924500948249755 l -11.037836047397182 7.15459197057103" fill="#ffa10e" stroke="none" /><line stroke="#e1ed5e" stroke-width="0.3" x1="172.87174338648825" x2="177.1583165268699" y1="56.24261187166439" y2="53.66864786411523" /><path d="M 173.72905801456457 55.72781907015455 a86.0,86.0 0 0,1 12.242430191666344,42.057860355516425" fill="none" id="id111" stroke="none" /><text fill="#e1ed5e" style="font-size:6.75px; font-family:Arial;" text-anchor="middle"><textPath startOffset="22.145653131862474" xlink:href="#id111">March</textPath></text><path d="M 118.18653347947321 89.5 l 16.933317254706385 -9.77645527527807 a40.552910550556135,40.552910550556135 0 0,0 0.34289732690720914,0.6058667208577635 l -17.098647946634973 9.484331784321189" fill="#fff316" stroke="none" /><path d="M 118.36410011445183 89.81374322990088 l 29.273833370852863 -16.237701902198786 a54.47566703277365,54.47566703277365 0 0,0 0.4465828291665822,0.8216621059941882 l -29.548261549634784 15.732784962729996" fill="#6bff28" stroke="none" /><path d="M 118.70294669586156 90.45014215332178 l 11.995951322025839 -6.1252182195636244 a34.46926673422453,34.46926673422453 0 0,0 0.2645599716071475,0.529297164913427 l -12.099331206844722 5.918389198486446" fill="#ffa50f" stroke="none" /><path d="M 119.0197475246899 91.09779779509293 l 10.835134573458824 -5.071390078396042 a32.96324113909841,32.96324113909841 0 0,0 0.2354761075997063,0.5145577917766972 l -10.920595145913582 4.88464330440466" fill="#ff910d" stroke="none" /><path d="M 119.16976305983485 91.42560881287824 l 16.008235861145028 -7.160280284150313 a38.53662536332579,38.53662536332579 0 0,0 0.2649230001842717,0.6061956695402166 l -16.12879274334627 6.884422544834248" fill="#ffda14" stroke="none" /><path d="M 119.31412917781788 91.75594674310238 l 37.255295287219205 -15.90207022131877 a61.50719521593233,61.50719521593233 0 0,0 0.40616468340471795,0.9746473811100592 l -37.522785815160404 15.260190330767433" fill="#31ff3d" stroke="none" /><path d="M 119.71291397450082 92.76114493625339 l 12.327225061740899 -4.526727792530066 a34.132088266169895,34.132088266169895 0 0,0 0.1972506870489285,0.5517452777183696 l -12.403115918833771 4.314447558430779" fill="#ffa10e" stroke="none" /><path d="M 120.05942366710727 93.78553927170692 l 20.955236870491287 -6.491985948593646 a42.93781743599702,42.93781743599702 0 0,0 0.21207944930828693,0.705943511644588 l -21.0635926398032 6.131304833358334" fill="#eeff19" stroke="none" /><path d="M 120.16314734710363 94.1308016681162 l 49.55755657036269 -14.425482458064323 a72.61439680333986,72.61439680333986 0 0,0 0.3381116769773915,1.199839061967681 l -49.797886739414665 13.57263547219363" fill="#3fffbc" stroke="none" /><path d="M 120.26092885502905 94.47779374421319 l 13.83368377035651 -3.7704320272699396 a35.33830409534154,35.33830409534154 0 0,0 0.15449657364160158,0.5866486547637445 l -13.896369824802841 3.5324028681333965" fill="#ffb110" stroke="none" /><path d="M 120.43855184770803 95.1765574152323 l 18.183045900752806 -4.291149322710558 a39.68253517964526,39.68253517964526 0 0,0 0.1507731091995947,0.6643341386390479 l -18.254029871510067 3.9783808501324835" fill="#ffe815" stroke="none" /><path d="M 120.51834098615036 95.52812308129327 l 12.761414031391476 -2.781290792250681 a34.06098260283864,34.06098260283864 0 0,0 0.11960642041451136,0.5723600196950382 l -12.807278162630356 2.5618143212702384" fill="#ffa00e" stroke="none" /><path d="M 120.592083275326 95.88100663000786 l 5.6326870627811525 -1.1266951651577732 a26.744267189329904,26.744267189329904 0 0,0 0.08618493909041014,0.4509560196097812 l -5.651198294153719 1.0298365805146774" fill="#ff3b05" stroke="none" /><path d="M 120.65975698304385 96.23510406497455 l 12.918381299501698 -2.3541594066919687 a34.13113254488856,34.13113254488856 0 0,0 0.1000939060463668,0.5773150511550056 l -12.9568900230403 2.13205132261637" fill="#ffa10e" stroke="none" /><path d="M 120.77682067341334 96.94652285012252 l 40.448497346523446 -5.944536189434159 a61.88298482375286,61.88298482375286 0 0,0 0.1454411729991794,1.0523398763828005 l -40.54458303607784 5.249308004851273" fill="#31ff42" stroke="none" /><path d="M 120.86939407059847 97.66154086499901 l 12.903674877720047 -1.4458836845387064 a33.98442932820379,33.98442932820379 0 0,0 0.059986737527257854,0.5803172699947236 l -12.926594007728971 1.2241618922610515" fill="#ff9f0e" stroke="none" /><path d="M 120.9064616781168 98.02013634271609 l 12.953425301046945 -1.226702843634654 a34.01138066833741,34.01138066833741 0 0,0 0.05005564588125718,0.5817224802743375 l -12.972574569625943 1.0041593159846545" fill="#ff9f0e" stroke="none" /><path d="M 120.99303781780057 99.45929381324524 l 4.543999003254368 -0.11703729564969281 a25.545505986152662,25.545505986152662 0 0,0 0.007528100530571056,0.4384741150399716 l -4.545338535383605 0.03901626464065484" fill="#ff2a04" stroke="none" /><line stroke="#e1ed5e" stroke-width="0.3" x1="184.99686870605535" x2="189.99668451229388" y1="99.2704041080226" y2="99.22748670261217" /><path d="M 185.99683186730306 99.26182062694052 a86.0,86.0 0 0,1 -10.086455211305974,41.156179273409016" fill="none" id="id112" stroke="none" /><text fill="#e1ed5e" style="font-size:6.75px; font-family:Arial;" text-anchor="middle"><textPath startOffset="21.40746469413373" xlink:href="#id112">April</textPath></text><path d="M 120.98066250479742 100.90099992219065 l 15.97993623131208 0.6862472192063247 a36.994664648021505,36.994664648021505 0 0,0 -0.03269343687878098,0.6342439413264974 l -15.965801204976724 -0.9604629539095527" fill="#ffc612" stroke="none" /><path d="M 120.93736805541906 101.62068470465957 l 11.788156080838862 0.9124778341664807 a32.82341911563924,32.82341911563924 0 0,0 -0.04830728454943493,0.5614038714050061 l -11.770755173591686 -1.114702752947144" fill="#ff8f0d" stroke="none" /><path d="M 120.82617615685814 102.69636545807757 l 26.409790792673487 3.4192761605432813 a47.630217783090714,47.630217783090714 0 0,0 -0.111943448822146,0.8099670311103772 l -26.34720282729613 -3.8721314998537437" fill="#b7ff1f" stroke="none" /><path d="M 120.77682067341334 103.0534771498775 l 13.129159892944537 1.9295343768112692 a34.27018999132265,34.27018999132265 0 0,0 -0.09053614308841235,0.5813069848744594 l -13.094102257717859 -2.154629543617179" fill="#ffa30f" stroke="none" /><path d="M 120.51834098615036 104.47187691870673 l 21.102215450215564 4.599129640602604 a42.59758065984211,42.59758065984211 0 0,0 -0.16184877431317682,0.7131355627268495 l -21.020155814344722 -4.960699537268471" fill="#f2ff19" stroke="none" /><path d="M 120.35273937422433 105.17358676015961 l 14.82967353452458 3.769645021488894 a36.301288858413685,36.301288858413685 0 0,0 -0.15870667512135336,0.6026350958303504 l -14.762777378598498 -4.023660621692048" fill="#ffbd11" stroke="none" /><path d="M 120.16314734710363 105.8691983318838 l 49.325670037175826 14.357983667804167 a72.37288603554677,72.37288603554677 0 0,0 -0.3574658129316587,1.189887431794683 l -49.07192790424054 -15.202608703189574" fill="#3effb9" stroke="none" /><path d="M 120.05942366710727 106.21446072829308 l 12.321524449439918 3.8172397709165873 a33.89927456203693,33.89927456203693 0 0,0 -0.1769788857882759,0.5543838390476878 l -12.254180847874387 -4.028192643655658" fill="#ff9e0e" stroke="none" /><path d="M 119.94978838288452 106.5578916946017 l 22.989765359837957 7.557192508541491 a45.2000097089146,45.2000097089146 0 0,0 -0.2486314317357276,0.7350346490164774 l -22.856648506529865 -7.950728832032129" fill="#d3ff1c" stroke="none" /><path d="M 119.83427380445688 106.89939002012753 l 48.49143971990408 16.867839910022006 a72.34144280539087,72.34144280539087 0 0,0 -0.41806405703038296,1.1693995732094804 l -48.19473549282975 -17.697774439612406" fill="#3effb9" stroke="none" /><path d="M 119.4528033332814 107.91128576633889 l 46.94980598545084 19.094077365681883 a71.68400213596121,71.68400213596121 0 0,0 -0.47336754554519944,1.1359097859042806 l -46.61511259536915 -19.897219661027442" fill="#3effb2" stroke="none" /><path d="M 119.16976305983485 108.57439118712176 l 18.847983190879294 8.430463144612641 a41.64749813406797,41.64749813406797 0 0,0 -0.29751293904906,0.6501194643590794 l -18.700485786975175 -8.75277159118641" fill="#fdff18" stroke="none" /><path d="M 119.0197475246899 108.90220220490707 l 18.880097564406185 8.836838972154426 a41.84581029994477,41.84581029994477 0 0,0 -0.3100988595307697,0.6479873500236839 l -18.725619446915502 -9.159638824243213" fill="#fbff18" stroke="none" /><path d="M 118.70294669586154 109.54985784667822 l 45.77090453050911 23.370949983884728 a72.39238274968598,72.39238274968598 0 0,0 -0.574629812954749,1.1019284341216145 l -45.36296664857941 -24.153224661110844" fill="#3effb9" stroke="none" /><path d="M 118.5362547648365 109.86951160357373 l 18.381089540663165 9.786894861417432 a41.82421099898663,41.82421099898663 0 0,0 -0.3428682105783256,0.6308388894127308 l -18.2103759804695 -10.100988584304766" fill="#fbff18" stroke="none" /><line stroke="#e1ed5e" stroke-width="0.3" x1="174.33088141563837" x2="178.70328620479359" y1="141.23008692659167" y2="143.65538615756765" /><path d="M 175.20536237346943 141.71514677278685 a86.0,86.0 0 0,1 -30.301960400862466,31.631185727798858" fill="none" id="id113" stroke="none" /><text fill="#e1ed5e" style="font-size:6.75px; font-family:Arial;" text-anchor="middle"><textPath startOffset="22.145653131862474" xlink:href="#id113">May</textPath></text><path d="M 118.18653347947321 110.5 l 19.496638834555927 11.256389679423771 a43.51277935884755,43.51277935884755 0 0,0 -0.3790300614312433,0.6436759081965022 l -19.30053506299492 -11.589416755913824" fill="#e7ff1a" stroke="none" /><path d="M 118.00360718960297 110.81064883170644 l 1.4246924480397858 0.8554868803090095 a22.66180816398357,22.66180816398357 0 0,0 -0.20312753713465503,0.33179356628240214 l -1.4097969464497262 -0.8798175627159688" fill="#ff0000" stroke="none" /><path d="M 117.81537515405839 111.11811171558189 l 6.4256514607794815 4.010081750653664 a28.574282298828255,28.574282298828255 0 0,0 -0.26326752853860774,0.413900282436897 l -6.355866240614984 -4.119795707769232" fill="#ff5507" stroke="none" /><path d="M 117.62189284568427 111.42229804090321 l 8.030003268990772 5.2049511032126645 a30.569350473612992,30.569350473612992 0 0,0 -0.2892087074844767,0.4378988442175306 l -7.939470122585568 -5.342029825769256" fill="#ff710a" stroke="none" /><path d="M 117.423217284605 111.72311816256416 l 28.916062901446722 19.4560176029787 a55.85219239427902,55.85219239427902 0 0,0 -0.5420595253009224,0.7908810470592216 l -28.57781363933048 -19.94953338510797" fill="#5dff2a" stroke="none" /><path d="M 116.79662413953412 112.60449989151573 l 25.988254801205528 19.502070898370658 a53.49184754576843,53.49184754576843 0 0,0 -0.5574564315741155,0.729728363522379 l -25.64964639227711 -19.945320175133915" fill="#76ff27" stroke="none" /><path d="M 116.1254893667686 113.45245675266167 l 7.0512627778624335 5.882414196143919 a30.182761215313384,30.182761215313384 0 0,0 -0.3353239180904392,0.3950107323505384 l -6.9492442962648795 -6.002591710944014" fill="#ff6b09" stroke="none" /><path d="M 115.89218393027572 113.72728997021213 l 2.969857718336717 2.5652923631354785 a24.92438272541369,24.92438272541369 0 0,0 -0.2824632060147721,0.3213912773892536 l -2.9253834483633594 -2.615895918336025" fill="#ff2103" stroke="none" /><path d="M 115.6541949942343 113.99807769240083 l 11.084568700111012 9.911889682481748 a35.86987627201951,35.86987627201951 0 0,0 -0.4143864025766301,0.4554832462449079 l -10.912784596692502 -10.100710504284327" fill="#ffb811" stroke="none" /><path d="M 115.41159269507618 114.26474011684316 l 5.322146278614206 4.926099140454886 a28.252013082762428,28.252013082762428 0 0,0 -0.3324914389815046,0.35309438606337107 l -5.236799005896442 -5.016734986462755" fill="#ff5107" stroke="none" /><path d="M 115.16444852881244 114.52719865689866 l 35.5656500540414 34.071088224219075 a70.25194936801034,70.25194936801034 0 0,0 -0.8417294145655532,0.8636885316584063 l -34.975533838325035 -34.67659944794522" fill="#3cffa2" stroke="none" /><path d="M 114.65682725009322 115.03919595460226 l 7.0375396800025225 7.221135685089943 a31.083241806586283,31.083241806586283 0 0,0 -0.3853249081312387,0.3691325455876706 l -6.912542286005971 -7.340880360983194" fill="#ff780b" stroke="none" /><path d="M 114.39649973595853 115.28858382429668 l 3.3562887771358625 3.5642623727226006 a25.895777835761574,25.895777835761574 0 0,0 -0.32625008876238754,0.3019722115274507 l -3.2946089170595076 -3.6213523303824307" fill="#ff2f04" stroke="none" /><path d="M 114.13192950727249 115.5334660781643 l 3.3440672830693203 3.675715738457705 a25.969272802296157,25.969272802296157 0 0,0 -0.332326277616259,0.2971682066699785 l -3.2804759786296835 -3.7325794750110703" fill="#ff3004" stroke="none" /><path d="M 113.86319453409587 115.77377054828091 l 7.574653419873915 8.61856513186661 a32.47410298731167,32.47410298731167 0 0,0 -0.4218857938682369,0.3644149005669064 l -7.425588146242823 -8.747324164898234" fill="#ff8b0c" stroke="none" /><path d="M 113.31354834802062 116.24036423190432 l 6.078092845971137 7.414284988012148 a30.587222461573937,30.587222461573937 0 0,0 -0.4089209115742571,0.32939774037169883 l -5.949921164041628 -7.51753102217725" fill="#ff710a" stroke="none" /><path d="M 113.03279911837588 116.46651593811092 l 32.03665458871784 40.47726651790953 a72.62127799656548,72.62127799656548 0 0,0 -0.9841568345572798,0.7652863071711415 l -31.337087809525325 -41.021253876701465" fill="#3fffbc" stroke="none" /><path d="M 112.7482090630111 116.68781488649013 l 18.028330253987992 23.599663019646155 a50.6978919519166,50.6978919519166 0 0,0 -0.6961231244219079,0.5223837702961708 l -17.620554140655315 -23.90566581720634" fill="#94ff23" stroke="none" /><path d="M 111.8722381534696 117.32195027204791 l 9.853668780597875 14.376797231351503 a38.42948900768825,38.42948900768825 0 0,0 -0.5473525147016649,0.3682831994578828 l -9.605419977799206 -14.543830104866506" fill="#ffd814" stroke="none" /><path d="M 111.5731344415666 117.5232005979908 l 3.2100231724897217 4.8603842165443565 a26.824738921218227,26.824738921218227 0 0,0 -0.38642233022014844,0.2504742858265569 l -3.1261152100125633 -4.914772344074808" fill="#ff3c05" stroke="none" /><path d="M 111.27062007382361 117.71928675628689 l 27.623233366247586 43.42831094885095 a72.46903159644896,72.46903159644896 0 0,0 -1.0554109244793164,0.6586544747295683 l -26.873658312978556 -43.89610122042207" fill="#3fffba" stroke="none" /><path d="M 110.96478420261333 117.91015095944535 l 1.4924487366203245 2.437802849392397 a23.858371208213743,23.858371208213743 0 0,0 -0.35113528677866873,0.21084665077434744 l -1.4503806932842194 -2.4630635007026678" fill="#ff1202" stroke="none" /><line stroke="#e1ed5e" stroke-width="0.3" x1="143.1302829299769" x2="145.66735839644613" y1="173.24464959558577" y2="177.55315839532614" /><path d="M 143.63769802327073 174.10635135553383 a86.0,86.0 0 0,1 -40.68552437913181,11.842963189579606" fill="none" id="id114" stroke="none" /><text fill="#e1ed5e" style="font-size:6.75px; font-family:Arial;" text-anchor="middle"><textPath startOffset="21.407464694133747" xlink:href="#id114">June</textPath></text><path d="M 110.65571695917076 118.09573695890943 l 21.21513952899315 36.027944992741 a62.81022561090312,62.81022561090312 0 0,0 -0.9338012157672216,0.5391303832928073 l -20.593545845365526 -36.38682227330998" fill="#32ff4d" stroke="none" /><path d="M 109.71004243097381 118.62028667847754 l 14.957965158262148 28.683870472601768 a53.34973179123406,53.34973179123406 0 0,0 -0.8156736479546068,0.4164887765504628 l -14.46336428859396 -28.936417200825066" fill="#77ff27" stroke="none" /><path d="M 109.3889696526874 118.78422872680471 l 5.974980147429488 11.953962775383754 a34.364041821149655,34.364041821149655 0 0,0 -0.529925844652806,0.2592132855424046 l -5.768894053514613 -12.054769811023382" fill="#ffa40f" stroke="none" /><path d="M 109.06512990194946 118.94263497670748 l 10.410594593883978 21.75413870682864 a45.116861957438545,45.116861957438545 0 0,0 -0.7014840297049987,0.3283299459070377 l -10.035621850307473 -21.929644884306214" fill="#d4ff1c" stroke="none" /><path d="M 108.4095320186766 119.2426549942271 l 13.24693802268435 30.311586606044987 a54.07980727804511,54.07980727804511 0 0,0 -0.8538555826163141,0.3644601748274882 l -12.724647364897606 -30.53452143053188" fill="#6fff27" stroke="none" /><path d="M 108.07796709384702 119.3841803445677 l 3.48181179947674 8.35508080966429 a30.051540683386225,30.051540683386225 0 0,0 -0.47788466407479996,0.19435153258236773 l -3.337872674211499 -8.41361959882595" fill="#ff6a09" stroke="none" /><path d="M 107.74402155503746 119.51999308798841 l 12.28135833477103 30.95704578067635 a54.304210634902326,54.304210634902326 0 0,0 -0.8694562799451443,0.3363243671309906 l -11.748129792332355 -31.16331003594538" fill="#6dff28" stroke="none" /><path d="M 107.407793817531 119.65005319985036 l 6.837354091729419 18.136894054845296 a40.382887734606825,40.382887734606825 0 0,0 -0.6507622522344974,0.23896891301693754 l -6.525002687840795 -18.251593816870955" fill="#fff116" stroke="none" /><path d="M 106.72888874123015 119.89276391827305 l 20.186666223690434 59.678291754819156 a84.0,84.0 0 0,0 -1.369909049409063,0.4503163143919231 l -19.159234436633636 -60.016028990613094" fill="#4dd2ff" stroke="none" /><path d="M 106.38641147887787 120.00534299687104 l 16.44227648851857 51.50519691537277 a75.06601303421786,75.06601303421786 0 0,0 -1.230937368633984,0.38134754334482246 l -15.55569848701296 -51.77986104652424" fill="#42ffd5" stroke="none" /><path d="M 106.0420521117495 120.11202640906438 l 7.861428514034746 26.16813873216618 a48.323498000570396,48.323498000570396 0 0,0 -0.7965092856949946,0.23185224461510084 l -7.411059215958145 -26.299234671083802" fill="#afff20" stroke="none" /><path d="M 105.69591212413111 120.21278271476187 l 1.8942017636903663 6.72185381954653 a27.98364654696384,27.98364654696384 0 0,0 -0.4634872732716009,0.1263255173665313 l -1.7785330894840703 -6.753379831057203" fill="#ff4d07" stroke="none" /><path d="M 104.9986988182912 120.39639698878246 l 2.9850100489288796 12.179859636806704 a33.54030564876788,33.54030564876788 0 0,0 -0.5603911812328262,0.1322507929048704 l -2.775486713956174 -12.2293065733578" fill="#ff990e" stroke="none" /><path d="M 104.29559338865022 120.5559693870025 l 2.5226057699378233 12.071581802720816 a33.3323406979496,33.3323406979496 0 0,0 -0.5610999801049829,0.11223571054243205 l -2.315009304301882 -12.11310690992611" fill="#ff960d" stroke="none" /><path d="M 103.94208987418118 120.62667999033965 l 6.856777792646643 35.877558809631964 a57.526902795560595,57.526902795560595 0 0,0 -0.971561633712854,0.1770508940833345 l -6.239881425382731 -35.98997787764666" fill="#4cff2c" stroke="none" /><path d="M 103.58742460773223 120.69131181640829 l 0.4721805027407534 2.723411662722975 a23.764041517746076,23.764041517746076 0 0,0 -0.4025430564877663,0.06623830675946156 l -0.4253599431999148 -2.731115967978108" fill="#ff1001" stroke="none" /><path d="M 103.2317021107853 120.74984581791261 l 2.6891761258102704 17.266439812491033 a38.474599052167214,38.474599052167214 0 0,0 -0.653472550177066,0.09603796131287816 l -2.392378470025519 -17.31005884710279" fill="#ffd914" stroke="none" /><path d="M 102.51750503828377 120.84855314841334 l 1.5085369501750807 12.492849985917484 a33.58359982281231,33.58359982281231 0 0,0 -0.57294276721521,0.06419943211071565 l -1.2938582813590715 -12.51690517853517" fill="#ff990e" stroke="none" /><path d="M 101.08105385017728 120.97215588758144 l 1.1757068232545094 22.80839827853462 a43.83868031578244,43.83868031578244 0 0,0 -0.751883968523825,0.03228913276601132 l -0.7839970941298547 -22.825219979726466" fill="#e3ff1b" stroke="none" /><line stroke="#e1ed5e" stroke-width="0.3" x1="101.45913802915013" x2="101.54496967792366" y1="184.9874750549273" y2="189.98673829345242" /><path d="M 101.47630435890484 185.9873277026323 a86.0,86.0 0 0,1 -42.54439059252881,-10.42667462771756" fill="none" id="id115" stroke="none" /><text fill="#e1ed5e" style="font-size:6.75px; font-family:Arial;" text-anchor="middle"><textPath startOffset="22.145653131862474" xlink:href="#id115">July</textPath></text><path d="M 100.36049292484886 120.99690560180557 l 0.6515454015728454 37.94925322834389 a58.95484596200174,58.95484596200174 0 0,0 -1.012038326421693,0.008687131852286024 l -4.6481280619496275e-15 -37.95484596200174" fill="#3dff2e" stroke="none" /><path d="M 100.0 121.0 l 2.3868512659523364e-15 19.490119662372493 a40.49011966237249,40.49011966237249 0 0,0 -0.6950667459318418,-0.005966312055985663 l 0.3345738210829873 -19.487247748510942" fill="#fff216" stroke="none" /><path d="M 99.27912038922189 120.98762331915562 l -1.4362650390702603 41.815289509911686 a62.8399485427526,62.8399485427526 0 0,0 -1.0777776509651595,-0.046284409724260865 l 2.1538684506362586 -41.784472531761594" fill="#32ff4d" stroke="none" /><path d="M 98.91894614982273 120.97215588758144 l -0.3377042798541581 6.551372810747115 a27.560070875076608,27.560070875076608 0 0,0 -0.472268912382209,-0.02841052502174884 l 0.45011754436881346 -6.544610307900675" fill="#ff4706" stroke="none" /><path d="M 98.55909050195518 120.95050786540614 l -2.419578530678338 35.18014081156924 a56.263248117380776,56.263248117380776 0 0,0 -0.9629883727638322,-0.07454139041604177 l 3.0231358982174066 -35.13342165415814" fill="#59ff2a" stroke="none" /><path d="M 98.19965949673042 120.92268563240118 l -2.860119089720961 33.238919235991 a54.36174505603864,54.36174505603864 0 0,0 -0.9290692397983218,-0.08798382295854822 l 3.430287892904298 -33.18492365752727" fill="#6cff28" stroke="none" /><path d="M 97.84075906011543 120.88869738790638 l -3.837639125091633 37.12567730969121 a58.32349648355249,58.32349648355249 0 0,0 -0.9950102325318517,-0.1114929719479321 l 4.474385259224284 -37.05432857723631" fill="#44ff2d" stroke="none" /><path d="M 97.48249496171623 120.84855314841334 l -1.4873638585346933 12.31750641374262 a33.406982530021786,33.406982530021786 0 0,0 -0.5687493884852182,-0.07363599509885384 l 1.6985910689107055 -12.290158822443368" fill="#ff970d" stroke="none" /><path d="M 96.76829788921471 120.74984581791261 l -2.0547910620143366 13.19323262578242 a34.35228644938925,34.35228644938925 0 0,0 -0.5818991005530073,-0.09575127555741816 l 2.2809676656204076 -13.156015351729334" fill="#ffa40f" stroke="none" /><path d="M 96.41257539226777 120.69131181640829 l -1.2453575045143368 7.1828911451603705 a28.290050789759523,28.290050789759523 0 0,0 -0.4777856381525803,-0.08706845914840765 l 1.3684778762179741 -7.160454512080597" fill="#ff5107" stroke="none" /><path d="M 96.05791012581884 120.62667999033965 l -3.9356073146934167 20.592760499830828 a41.96546660436779,41.96546660436779 0 0,0 -0.7064257109989155,-0.14130492680568496 l 4.28852951122329 -20.52216617636228" fill="#faff18" stroke="none" /><line stroke="#e1ed5e" stroke-width="0.3" x1="58.13341422392154" x2="55.67067388415222" y1="173.97424548756322" y2="178.32567169271397" /><path d="M 57.64086615596768 174.84453072859336 a86.0,86.0 0 0,1 -31.369924170532247,-30.572349798747897" fill="none" id="id116" stroke="none" /><text fill="#e1ed5e" style="font-size:6.75px; font-family:Arial;" text-anchor="middle"><textPath startOffset="22.145653131862474" xlink:href="#id116">August</textPath></text><line stroke="#e1ed5e" stroke-width="0.3" x1="26.387840678322732" x2="22.057713659400548" y1="142.50000000000003" y2="145.00000000000006" /><path d="M 25.521815274538298 143.00000000000003 a86.0,86.0 0 0,1 -11.493303480769221,-40.785679425670985" fill="none" id="id117" stroke="none" /><text fill="#e1ed5e" style="font-size:6.75px; font-family:Arial;" text-anchor="middle"><textPath startOffset="21.40746469413373" xlink:href="#id117">September</textPath></text><line stroke="#e1ed5e" stroke-width="0.3" x1="15.003131293944662" x2="10.003315487706104" y1="100.72959589197737" y2="100.7725132973878" /><path d="M 14.003168132696942 100.73817937305945 a86.0,86.0 0 0,1 10.791469493833604,-42.45332614584628" fill="none" id="id118" stroke="none" /><text fill="#e1ed5e" style="font-size:6.75px; font-family:Arial;" text-anchor="middle"><textPath startOffset="22.145653131862435" xlink:href="#id118">October</textPath></text><line stroke="#e1ed5e" stroke-width="0.3" x1="26.387840678322718" x2="22.05771365940052" y1="57.49999999999999" y2="54.99999999999999" /><path d="M 25.521815274538284 56.99999999999999 a86.0,86.0 0 0,1 29.574782752854787,-30.34633250058573" fill="none" id="id119" stroke="none" /><text fill="#e1ed5e" style="font-size:6.75px; font-family:Arial;" text-anchor="middle"><textPath startOffset="21.40746469413373" xlink:href="#id119">November</textPath></text><line stroke="#e1ed5e" stroke-width="0.3" x1="56.869717070023135" x2="54.33264160355391" y1="26.7553504044142" y2="22.446841604673864" /><path d="M 56.362301976729285 25.89364864446614 a86.0,86.0 0 0,1 42.16139366436587,-11.88097634709845" fill="none" id="id120" stroke="none" /><text fill="#e1ed5e" style="font-size:6.75px; font-family:Arial;" text-anchor="middle"><textPath startOffset="22.145653131862474" xlink:href="#id120">December</textPath></text></svg>