<?xml version="1.0" encoding="utf-8" ?>
<svg baseProfile="full" height="200mm" version="1.1" viewBox="0,0,200,200" width="200mm" xmlns="http://www.w3.org/2000/svg" xmlns:ev="http://www.w3.org/2001/xml-events" xmlns:xlink="http://www.w3.org/1999/xlink"><defs /><rect fill="#1a1a1a" height="200" width="200" x="0" y="0" /><text alignment-baseline="middle" fill="#e1ed5e" style="dominant-baseline: central; font-size:9.0px; font-family:Arial;" text-anchor="middle" x="100.0" y="100.0">2025</text><line stroke="#e1ed5e" stroke-width="0.3" x1="100.0" x2="100.0" y1="15.0" y2="10.0" /><path d="M 100.0 14.0 a86.0,86.0 0 0,1 42.46469731375804,11.215312516191453" fill="none" id="id121" stroke="none" /><text fill="#e1ed5e" style="font-size:6.75px; font-family:Arial;" text-anchor="middle"><textPath startOffset="22.20632615414155" xlink:href="#id121">January</textPath></text><path d="M 100.0 79.0 l 0.0 -21.749814087444065 a42.749814087444065,42.749814087444065 0 0,0 0.7358677754828936,0.006333846265329232 l -0.37438729621036526 21.746591617787296" fill="#ffea16" stroke="none" /><path d="M 100.36148047927253 79.00311137660856 l 0.5257883603990077 -30.540845981479173 a51.54537160789444,51.54537160789444 0 0,0 0.8870059227655115,0.02290874606265679 l -1.051420918359387 30.52727044327416" fill="#a4ff21" stroke="none" /><path d="M 100.72285384407766 79.0124445844662 l 1.2081251792629402 -35.07706897655864 a56.097867947142056,56.097867947142056 0 0,0 0.9647742520249059,0.04154520874874105 l -1.8117402636771776 35.051076041285704" fill="#6fff27" stroke="none" /><path d="M 101.44485096284872 79.0497635885617 l 3.6718081448892708 -53.24095749031893 a74.36742198700273,74.36742198700273 0 0,0 1.2763213559974533,0.09906710151458191 l -4.587719690249066 53.16986512661588" fill="#40ffc7" stroke="none" /><path d="M 101.80526077348638 79.07773832637324 l 0.9841366099342662 -11.40575587640777 a32.44813486901789,32.44813486901789 0 0,0 0.5560604005784014,0.05280463526889265 l -1.1803221376029118 11.3871256966237" fill="#ff5808" stroke="none" /><path d="M 102.16513564639614 79.11191278185805 l 4.4091608365751584 -42.53725916272095 a63.765162414742164,63.765162414742164 0 0,0 1.090789023594552,0.12256285631730231 l -5.140716563679436 42.45506035293305" fill="#32ff47" stroke="none" /><path d="M 102.52436894288641 79.15227682838746 l 1.4325914546275482 -11.83118265983072 a32.91760048861141,32.91760048861141 0 0,0 0.5619273784776248,0.07295430115014324 l -1.636033561613019 11.804770035516439" fill="#ff5f08" stroke="none" /><path d="M 102.88285421437855 79.19881850522331 l 3.767712976634847 -27.18586359876027 a48.445707144919794,48.445707144919794 0 0,0 0.8250327447663057,0.12158838025045857 l -4.235114701829809 27.116980734348846" fill="#cbff1d" stroke="none" /><path d="M 103.2404852339499 79.25152402106235 l 6.30224041598653 -40.35256279356587 a61.84173794379435,61.84173794379435 0 0,0 1.0503400841030845,0.173315113538129 l -6.99590970622849 40.238101417088124" fill="#31ff2f" stroke="none" /><path d="M 103.59715602781102 79.31037775812273 l 4.094692457342489 -23.551283148157836 a44.90459044294465,44.90459044294465 0 0,0 0.7603948307803413,0.13895729500366596 l -4.499482409225732 23.477310371803433" fill="#f8ff18" stroke="none" /><path d="M 103.95276090670814 79.375362276772 l 9.557373498162415 -49.86827451431667 a71.77586228926715,71.77586228926715 0 0,0 1.2114179326084815,0.24299904085304685 l -10.414357840238022 49.69637151738641" fill="#3dffa9" stroke="none" /><path d="M 104.307194497241 79.44645832069477 l 1.1957268473543727 -5.7059001189532745 a26.82984209571366,26.82984209571366 0 0,0 0.45119780694824935,0.09861436466706167 l -1.29376737845615 5.684472256190343" fill="#ff0100" stroke="none" /><path d="M 104.66035177308747 79.52364482259891 l 6.786892654425313 -29.81981432076301 a51.582400789138106,51.582400789138106 0 0,0 0.8640698460583057,0.2044974155849443 l -7.299186187446142 29.6985709930372" fill="#a4ff21" stroke="none" /><path d="M 105.01212808612495 79.60689891045804 l 2.800601641875922 -11.394950690190532 a32.73406454679502,32.73406454679502 0 0,0 0.5460215165691881,0.13919304224969914 l -2.996332047130135 11.345054651771965" fill="#ff5c08" stroke="none" /><path d="M 105.36241919743992 79.69619591428918 l 9.901741930732147 -37.491106320974225 a59.7766366054795,59.7766366054795 0 0,0 0.9925828266398997,0.27131038155418347 l -10.545622646595756 37.31510939859375" fill="#46ff2c" stroke="none" /><path d="M 105.71112130821622 79.79150937346287 l 1.5830649788266595 -5.601588910358789 a26.820987291503222,26.820987291503222 0 0,0 0.44319737906986956,0.129381468222833 l -1.6792525756199561 5.573509113217252" fill="#ff0100" stroke="none" /><path d="M 106.0581310904928 79.89281104454417 l 10.790484315017821 -35.81406605470085 a58.40430294930145,58.40430294930145 0 0,0 0.9600961749873048,0.29830655507726095 l -11.405365862715843 35.62301936474107" fill="#55ff2b" stroke="none" /><path d="M 106.40334571778207 80.00007090966166 l 19.21003715334621 -59.99978727101504 a84.0,84.0 0 0,0 1.37326871103033,0.45274510296305515 l -20.239988686618958 59.66022844379275" fill="#4dd2ff" stroke="none" /><path d="M 106.74666289553966 80.11325718540242 l 1.8497793720105233 -5.452486244605623 a26.757715690508622,26.757715690508622 0 0,0 0.4348995188251953,0.15172790264220973 l -1.9433608948989924 5.419837488791206" fill="#ff0000" stroke="none" /><path d="M 107.08798089147638 80.2323363322302 l 12.187154547000146 -33.98874458619624 a57.10763762001262,57.10763762001262 0 0,0 0.9224723816230094,0.33975436321642727 l -12.770409254395732 33.773926955173486" fill="#64ff29" stroke="none" /><path d="M 107.4271985657038 80.35727306442388 l 15.51152957715256 -41.023373367727885 a64.85800625075066,64.85800625075066 0 0,0 1.0408685710028476,0.40384083468562715 l -16.215381313155074 40.75028982915171" fill="#33ff55" stroke="none" /><path d="M 108.09893153111575 80.62456947434976 l 18.638865747323283 -44.59057926057468 a69.32936038414262,69.32936038414262 0 0,0 1.0971082151266314,0.4697244819758858 l -19.40365772024023 44.263135250636005" fill="#39ff8c" stroke="none" /><line stroke="#e1ed5e" stroke-width="0.3" x1="143.23703022742887" x2="145.7803849466894" y1="26.81831364943548" y2="22.513508569990506" /><path d="M 143.74570117128098 25.957352633546492 a86.0,86.0 0 0,1 28.547481713284135,27.462654790039103" fill="none" id="id122" stroke="none" /><text fill="#e1ed5e" style="font-size:6.75px; font-family:Arial;" text-anchor="middle"><textPath startOffset="19.985693538727396" xlink:href="#id122">February</textPath></text><line stroke="#e1ed5e" stroke-width="0.3" x1="172.23445277983987" x2="176.4835382374775" y1="55.19839476539836" y2="52.563006222186495" /><path d="M 173.08426987136738 54.67131705675599 a86.0,86.0 0 0,1 12.851231095245387,41.99856678651699" fill="none" id="id123" stroke="none" /><text fill="#e1ed5e" style="font-size:6.75px; font-family:Arial;" text-anchor="middle"><textPath startOffset="22.20632615414155" xlink:href="#id123">March</textPath></text><line stroke="#e1ed5e" stroke-width="0.3" x1="184.98032266829074" x2="189.97916517819016" y1="98.17113171792111" y2="98.06355123074" /><path d="M 185.9800911702706 98.14961562048488 a86.0,86.0 0 0,1 -9.607161424134198,41.387399972396054" fill="none" id="id124" stroke="none" /><text fill="#e1ed5e" style="font-size:6.75px; font-family:Arial;" text-anchor="middle"><textPath startOffset="21.466115282336823" xlink:href="#id124">April</textPath></text><line stroke="#e1ed5e" stroke-width="0.3" x1="174.80103733775053" x2="179.2010983576182" y1="140.37084112569926" y2="142.7455964860345" /><path d="M 175.68104954172406 140.8457921977663 a86.0,86.0 0 0,1 -30.038265399797805,32.042727171017184" fill="none" id="id125" stroke="none" /><text fill="#e1ed5e" style="font-size:6.75px; font-family:Arial;" text-anchor="middle"><textPath startOffset="22.206326154141568" xlink:href="#id125">May</textPath></text><line stroke="#e1ed5e" stroke-width="0.3" x1="143.8653032363475" x2="146.44561519142675" y1="172.8068346515853" y2="177.08958963109032" /><path d="M 144.38136562736335 173.6633856474863 a86.0,86.0 0 0,1 -40.68145358897372,12.25698825130547" fill="none" id="id126" stroke="none" /><text fill="#e1ed5e" style="font-size:6.75px; font-family:Arial;" text-anchor="middle"><textPath startOffset="21.466115282336833" xlink:href="#id126">June</textPath></text><line stroke="#e1ed5e" stroke-width="0.3" x1="102.19456741930631" x2="102.32365962044197" y1="184.97166512339345" y2="189.96999836594603" /><path d="M 102.22038585953345 185.97133177190398 a86.0,86.0 0 0,1 -42.740103519485714,-10.115201625700543" fill="none" id="id127" stroke="none" /><text fill="#e1ed5e" style="font-size:6.75px; font-family:Arial;" text-anchor="middle"><textPath startOffset="22.20632615414155" xlink:href="#id127">July</textPath></text><line stroke="#e1ed5e" stroke-width="0.3" x1="58.666819895761336" x2="56.23545636021788" y1="174.27360380694188" y2="178.64263932499728" /><path d="M 58.180547188652646 175.14741091055294 a86.0,86.0 0 0,1 -31.652253787137756,-30.449443065178592" fill="none" id="id128" stroke="none" /><text fill="#e1ed5e" style="font-size:6.75px; font-family:Arial;" text-anchor="middle"><textPath startOffset="22.20632615414155" xlink:href="#id128">August</textPath></text><line stroke="#e1ed5e" stroke-width="0.3" x1="26.63291911575756" x2="22.317208475507996" y1="142.92168965132927" y2="145.44649492493687" /><path d="M 25.769776987707644 143.4266507060508 a86.0,86.0 0 0,1 -11.730757126820373,-40.83630448921669" fill="none" id="id129" stroke="none" /><text fill="#e1ed5e" style="font-size:6.75px; font-family:Arial;" text-anchor="middle"><textPath startOffset="21.46611528233685" xlink:href="#id129">September</textPath></text><line stroke="#e1ed5e" stroke-width="0.3" x1="15.007084014347285" x2="10.007500721073583" y1="101.09737516637583" y2="101.16192664675087" /><path d="M 14.007167355692545 101.11028546245083 a86.0,86.0 0 0,1 10.666146001902534,-42.60595125391555" fill="none" id="id130" stroke="none" /><text fill="#e1ed5e" style="font-size:6.75px; font-family:Arial;" text-anchor="middle"><textPath startOffset="22.20632615414155" xlink:href="#id130">October</textPath></text><line stroke="#e1ed5e" stroke-width="0.3" x1="26.266209847984243" x2="21.928928074336255" y1="57.711370442889674" y2="55.22380399835377" /><path d="M 25.398753493254645 57.213857153982495 a86.0,86.0 0 0,1 29.58750427330803,-30.492523968695096" fill="none" id="id131" stroke="none" /><text fill="#e1ed5e" style="font-size:6.75px; font-family:Arial;" text-anchor="middle"><textPath startOffset="21.46611528233685" xlink:href="#id131">November</textPath></text><line stroke="#e1ed5e" stroke-width="0.3" x1="56.762969772571076" x2="54.21961505331055" y1="26.818313649435495" y2="22.513508569990535" /><path d="M 56.25429882871897 25.957352633546506 a86.0,86.0 0 0,1 42.265352541879196,-11.944610805530505" fill="none" id="id132" stroke="none" /><text fill="#e1ed5e" style="font-size:6.75px; font-family:Arial;" text-anchor="middle"><textPath startOffset="22.20632615414155" xlink:href="#id132">December</textPath></text></svg>