<?xml version="1.0" encoding="utf-8" ?>
<svg baseProfile="full" height="200mm" version="1.1" viewBox="0,0,200,200" width="200mm" xmlns="http://www.w3.org/2000/svg" xmlns:ev="http://www.w3.org/2001/xml-events" xmlns:xlink="http://www.w3.org/1999/xlink"><defs /><rect fill="#1a1a1a" height="200" width="200" x="0" y="0" /><text alignment-baseline="middle" fill="#e1ed5e" style="dominant-baseline: central; font-size:9.0px; font-family:Arial;" text-anchor="middle" x="100.0" y="100.0">2024</text><line stroke="#e1ed5e" stroke-width="0.3" x1="100.0" x2="100.0" y1="15.0" y2="10.0" /><path d="M 100.0 14.0 a86.0,86.0 0 0,1 42.35913384403234,11.155469271406648" fill="none" id="id109" stroke="none" /><text fill="#e1ed5e" style="font-size:6.75px; font-family:Arial;" text-anchor="middle"><textPath startOffset="22.145653131862478" xlink:href="#id109">January</textPath></text><path d="M 100.0 79.0 l 0.0 -14.904572796498613 a35.90457279649861,35.90457279649861 0 0,0 0.616349736326591,0.005290621201592482 l -0.2558568114777362 14.902376573491456" fill="#ffb410" stroke="none" /><path d="M 100.72087961077811 79.0123766808444 l 1.1450479717064013 -33.33682233930472 a54.3564815071955,54.3564815071955 0 0,0 0.9322763992032784,0.04003595992024444 l -1.717150131510516 33.312253810958644" fill="#6eff28" stroke="none" /><path d="M 101.08105385017728 79.02784411241856 l 0.8519672011777957 -16.527936097981765 a37.549879750948385,37.549879750948385 0 0,0 0.6434541097678887,0.03870860140612806 l -1.1355656630781468 16.510875518750943" fill="#ffca12" stroke="none" /><path d="M 101.44090949804482 79.04949213459386 l 0.982425561851842 -14.284252056552765 a35.317996256449845,35.317996256449845 0 0,0 0.6044944236657289,0.04679169148165574 l -1.2274889802928046 14.265282598076055" fill="#ffad10" stroke="none" /><path d="M 101.80034050326958 79.07731436759882 l 0.43443840363163394 -5.048832778754533 a26.067489433079878,26.067489433079878 0 0,0 0.4455063494756633,0.04218991448655044 l -0.5210443164923102 5.040631108762799" fill="#ff2d04" stroke="none" /><path d="M 102.87502721639298 79.19773525538626 l 4.539206531243382 -32.843437256872846 a54.15562948851108,54.15562948851108 0 0,0 0.9198073061221044,0.13517999869576877 l -5.1023389429731685 32.76067618487819" fill="#71ff27" stroke="none" /><path d="M 103.58742460773223 79.30868818359171 l 4.700256899694952 -27.109832752775727 a48.51427714490427,48.51427714490427 0 0,0 0.8193490014369286,0.14931268201309336 l -5.164940634682934 27.025151896831265" fill="#afff20" stroke="none" /><path d="M 104.29559338865022 79.4440306129975 l 8.317193373084445 -39.80078114810267 a61.66051998689201,61.66051998689201 0 0,0 1.0342453595328773,0.22540896238620906 l -8.999201149236455 39.65214072758274" fill="#31ff3d" stroke="none" /><path d="M 105.3480935250658 79.69241777938227 l 12.420386761658543 -47.16223158628277 a69.77029931738528,69.77029931738528 0 0,0 1.155590845949529,0.31496142374778224 l -13.228159008542764 46.94206966839085" fill="#3bff9c" stroke="none" /><path d="M 107.06938296918511 80.22567764915836 l 0.7931916562182844 -2.2186982321409454 a23.35622045844604,23.35622045844604 0 0,0 0.37638087521409586,0.13821227079696236 l -0.831161683086505 2.204755112335261" fill="#ff0500" stroke="none" /><path d="M 109.06512990194946 81.05736502329252 l 2.6066597432492546 -5.446916322095963 a27.038507467660505,27.038507467660505 0 0,0 0.41695921517394835,0.2039556462343039 l -2.6997792076852702 5.401366925764439" fill="#ff3b05" stroke="none" /><line stroke="#e1ed5e" stroke-width="0.3" x1="143.13028292997686" x2="145.6673583964461" y1="26.7553504044142" y2="22.446841604673864" /><path d="M 143.63769802327073 25.89364864446614 a86.0,86.0 0 0,1 29.32050498858742,28.57503671076993" fill="none" id="id110" stroke="none" /><text fill="#e1ed5e" style="font-size:6.75px; font-family:Arial;" text-anchor="middle"><textPath startOffset="20.669276256404974" xlink:href="#id110">February</textPath></text><path d="M 110.96478420261332 82.08984904055464 l 2.4399953293252308 -3.9855489976848744 a25.67313364029704,25.67313364029704 0 0,0 0.3738935806465897,0.23333724737313383 l -2.508053038761533 3.943075953470195" fill="#ff2703" stroke="none" /><path d="M 111.27062007382361 82.28071324371311 l 7.731363797634924 -12.15498803527609 a35.40547535866432,35.40547535866432 0 0,0 0.5100316663222115,0.3305963640822813 l -7.938881096214144 12.020477829489915" fill="#ffae10" stroke="none" /><path d="M 113.31354834802062 83.75963576809568 l 4.535286277615906 -5.532311831457798 a28.15369106269058,28.15369106269058 0 0,0 0.3711268702014138,0.30960723470655527 l -4.629587481979214 5.453642412839372" fill="#ff4a06" stroke="none" /><path d="M 113.86319453409587 84.22622945171908 l 2.1980235342129415 -2.5009472963193633 a24.32957126908572,24.32957126908572 0 0,0 0.3113431753522154,0.2784049872372389 l -2.2406317363885324 2.4628467791987374" fill="#ff1302" stroke="none" /><path d="M 115.6541949942343 86.00192230759917 l 11.463959220796102 -10.251143025516399 a36.378826169304,36.378826169304 0 0,0 0.4122741968794312,0.46909235591831333 l -11.638244481634123 10.052838391786787" fill="#ffba11" stroke="none" /><path d="M 116.7966241395341 87.39550010848427 l 6.021644283367686 -4.5187541309452435 a28.528568175380325,28.528568175380325 0 0,0 0.29058110080376154,0.3942290709565778 l -6.098327403755274 4.414718750719791" fill="#ff5007" stroke="none" /><path d="M 117.01052211995028 87.68569379921539 l 12.188812940090232 -8.823760594174843 a36.04745533011558,36.04745533011558 0 0,0 0.3585604359465161,0.504360156912373 l -12.338488474566708 8.613223210552967" fill="#ffb610" stroke="none" /><path d="M 117.42321728460499 88.27688183743584 l 13.318997357935356 -8.961615830385135 a37.0532317279761,37.0532317279761 0 0,0 0.3505510287312414,0.5307789369686104 l -13.470872825587321 8.731657015077465" fill="#ffc312" stroke="none" /><line stroke="#e1ed5e" stroke-width="0.3" x1="172.87174338648825" x2="177.1583165268699" y1="56.24261187166439" y2="53.66864786411523" /><path d="M 173.72905801456457 55.72781907015455 a86.0,86.0 0 0,1 12.242430191666344,42.057860355516425" fill="none" id="id111" stroke="none" /><text fill="#e1ed5e" style="font-size:6.75px; font-family:Arial;" text-anchor="middle"><textPath startOffset="22.145653131862474" xlink:href="#id111">March</textPath></text><path d="M 118.18653347947321 89.5 l 20.665877104349878 -11.931449709236128 a44.86289941847225,44.86289941847225 0 0,0 0.3793406707201232,0.670258617441423 l -20.867651140091375 11.574934321695588" fill="#daff1c" stroke="none" /><path d="M 118.36410011445183 89.81374322990088 l 35.726575821823594 -19.81692936596001 a61.85460695500519,61.85460695500519 0 0,0 0.5070742016675903,0.9329594181107657 l -36.061495373106524 19.200715114374642" fill="#31ff40" stroke="none" /><path d="M 118.70294669586156 90.45014215332178 l 14.640182549101358 -7.475381525001815 a37.43825641652272,37.43825641652272 0 0,0 0.28734768659125604,0.5748878597667448 l -14.76635014890435 7.22296180907132" fill="#ffc812" stroke="none" /><path d="M 119.0197475246899 91.09779779509293 l 13.223490479513547 -6.189261237589037 a35.600262159595204,35.600262159595204 0 0,0 0.25431392281772086,0.555721817712427 l -13.32778886718632 5.961350437661925" fill="#ffb010" stroke="none" /><path d="M 119.16976305983485 91.42560881287824 l 19.53688282028269 -8.738599186395243 a42.40217059258066,42.40217059258066 0 0,0 0.2914969886907167,0.667002155741164 l -19.684013690990376 8.40193496087823" fill="#f7ff18" stroke="none" /><path d="M 119.31412917781788 91.75594674310238 l 45.46736722114801 -19.407315409931105 a70.43607360463889,70.43607360463889 0 0,0 0.46512681053759075,1.1161350218202444 l -45.79381987622209 18.623947878669583" fill="#3cffa3" stroke="none" /><path d="M 119.71291397450082 92.76114493625339 l 15.044477956189835 -5.524540693246075 a37.02675471970585,37.02675471970585 0 0,0 0.21397907888610115,0.5985375669522877 l -15.13709720511988 5.265468169912871" fill="#ffc312" stroke="none" /><path d="M 120.05942366710727 93.78553927170692 l 25.574336282972048 -7.922994753996821 a47.77350410735214,47.77350410735214 0 0,0 0.2359639834445899,0.7854473577606103 l -25.706576586420265 7.482809792645487" fill="#b7ff1f" stroke="none" /><path d="M 120.16314734710363 94.1308016681162 l 60.48137870861265 -17.605247877019206 a83.9916020061874,83.9916020061874 0 0,0 0.3910869284398364,1.3878295407066101 l -60.774684129127074 16.564410412409583" fill="#4dd2ff" stroke="none" /><path d="M 120.26092885502905 94.47779374421319 l 16.883000796501886 -4.60153694245637 a38.498853051770965,38.498853051770965 0 0,0 0.16831427081454697,0.6391167015778161 l -16.959504548121163 4.311039736505756" fill="#ffd614" stroke="none" /><path d="M 120.43855184770803 95.1765574152323 l 22.19107965175993 -5.237034374638147 a43.80066983998267,43.80066983998267 0 0,0 0.16641989093949155,0.7332767460100148 l -22.27771040425709 4.855323294689105" fill="#e6ff1a" stroke="none" /><path d="M 120.51834098615036 95.52812308129327 l 15.574373885728937 -3.3943623000471037 a36.93997545030909,36.93997545030909 0 0,0 0.12971611199035638,0.6207385536350054 l -15.630347708543662 3.126507295126694" fill="#ffc212" stroke="none" /><path d="M 120.592083275326 95.88100663000786 l 6.874283216677093 -1.3750491688652566 a28.010458612664753,28.010458612664753 0 0,0 0.09026531377124834,0.47230626414214727 l -6.896874822730499 1.2568403396897947" fill="#ff4806" stroke="none" /><path d="M 120.65975698304385 96.23510406497455 l 15.765940973463607 -2.8730796364914033 a37.02558833167632,37.02558833167632 0 0,0 0.10858226737446121,0.6262736636012113 l -15.812938058330301 2.6020129399695993" fill="#ffc312" stroke="none" /><path d="M 120.77682067341334 96.94652285012252 l 49.36443714160894 -7.254872302062515 a70.89469737784862,70.89469737784862 0 0,0 0.1666210506074107,1.2055869200117368 l -49.48170270877156 6.406397073850693" fill="#3cffa8" stroke="none" /><path d="M 120.86939407059847 97.66154086499901 l 15.74799285965857 -1.7645954470944922 a36.84654776914404,36.84654776914404 0 0,0 0.06503873195772257,0.6291907333095712 l -15.775963984097958 1.4940001915019896" fill="#ffc111" stroke="none" /><path d="M 120.9064616781168 98.02013634271609 l 15.808709618158874 -1.4971012370930656 a36.87943991157668,36.87943991157668 0 0,0 0.054276661171580275,0.6307770762291581 l -15.832079902028195 1.2255031134882455" fill="#ffc111" stroke="none" /><path d="M 120.99303781780057 99.45929381324524 l 5.5456189446544055 -0.1428354723496233 a26.54745810722994,26.54745810722994 0 0,0 0.007823369541816217,0.45567205466347827 l -5.547253745794888 0.047616501717078645" fill="#ff3304" stroke="none" /><line stroke="#e1ed5e" stroke-width="0.3" x1="184.99686870605535" x2="189.99668451229388" y1="99.2704041080226" y2="99.22748670261217" /><path d="M 185.99683186730306 99.26182062694052 a86.0,86.0 0 0,1 -10.086455211305974,41.156179273409016" fill="none" id="id112" stroke="none" /><text fill="#e1ed5e" style="font-size:6.75px; font-family:Arial;" text-anchor="middle"><textPath startOffset="21.40746469413373" xlink:href="#id112">April</textPath></text><path d="M 120.98066250479742 100.90099992219065 l 19.502345188734818 0.8375146158309937 a40.520320145742964,40.520320145742964 0 0,0 -0.03580917793408605,0.6946884854225034 l -19.485094421344158 -1.172174894630228" fill="#ffef16" stroke="none" /><path d="M 120.93736805541906 101.62068470465957 l 14.38658363208791 1.1136125602375253 a35.42961959087552,35.42961959087552 0 0,0 -0.0521429138452911,0.6059796979299791 l -14.365347095544879 -1.3604133055431618" fill="#ffae10" stroke="none" /><path d="M 120.82617615685814 102.69636545807757 l 32.23122101024172 4.1729768513007155 a53.50023605472026,53.50023605472026 0 0,0 -0.1257395245186234,0.9097885623426647 l -32.15483696916788 -4.725653721843465" fill="#78ff26" stroke="none" /><path d="M 120.77682067341334 103.0534771498775 l 16.023180854037324 2.3548557970067656 a37.19529778997239,37.19529778997239 0 0,0 -0.0982637914695459,0.6309240309222459 l -15.980395570429511 -2.629568009860462" fill="#ffc512" stroke="none" /><path d="M 120.51834098615036 104.47187691870673 l 25.753712905984855 5.61290186146189 a47.35826996884077,47.35826996884077 0 0,0 -0.17993693137777889,0.7928353202424456 l -25.653565113049414 -6.054171515643352" fill="#bcff1f" stroke="none" /><path d="M 120.35273937422433 105.17358676015961 l 18.09853356860341 4.600576459374004 a39.67410563032165,39.67410563032165 0 0,0 -0.17345239221560974,0.6586269854429934 l -18.01689169558307 -4.9105839491898005" fill="#ffe515" stroke="none" /><path d="M 120.16314734710363 105.8691983318838 l 60.19837812905038 17.52287053280326 a83.69685575112612,83.69685575112612 0 0,0 -0.41339742298248444,1.3760655708835878 l -59.88870438606427 -18.55367370727757" fill="#4dd5ff" stroke="none" /><path d="M 120.05942366710727 106.21446072829308 l 15.037520775180374 4.658662375304719 a36.74262259571324,36.74262259571324 0 0,0 -0.1918232319700038,0.600883542036124 l -14.955332827433116 -4.9161149510322275" fill="#ffbf11" stroke="none" /><path d="M 119.94978838288452 106.5578916946017 l 28.057329726826115 9.223001570588597 a50.53434457324083,50.53434457324083 0 0,0 -0.2779739766426076,0.8217806692051209 l -27.89487032861114 -9.703283914267878" fill="#98ff23" stroke="none" /><path d="M 119.83427380445688 106.89939002012753 l 59.1802609489291 20.585966786837194 a83.6584815849547,83.6584815849547 0 0,0 -0.4834656714062861,1.3523395285877393 l -58.81815510747887 -21.598841271805853" fill="#4dd5ff" stroke="none" /><path d="M 119.4528033332814 107.91128576633889 l 57.298809558341375 23.302927023968554 a82.85612325944358,82.85612325944358 0 0,0 -0.5471429960944856,1.3129440102128196 l -56.8903407177104 -24.28310354362265" fill="#4cddff" stroke="none" /><path d="M 119.16976305983485 108.57439118712176 l 23.002587055368878 10.288764608771084 a46.198763628688695,46.198763628688695 0 0,0 -0.3300253451805955,0.7211649393115931 l -22.822577245333225 -10.682118530297366" fill="#caff1d" stroke="none" /><path d="M 119.0197475246899 108.90220220490707 l 23.0417803030124 10.784716629502455 a46.4407891448154,46.4407891448154 0 0,0 -0.34415000322111605,0.7191411440059343 l -22.85325104183137 -11.178670275573493" fill="#c7ff1e" stroke="none" /><path d="M 118.70294669586154 109.54985784667822 l 55.8600464253118 28.522537723353135 a83.72065006692846,83.72065006692846 0 0,0 -0.6645503250632785,1.2743628725536635 l -55.362188031273575 -29.4772468390113" fill="#4dd5ff" stroke="none" /><path d="M 118.5362547648365 109.86951160357373 l 22.432777451554486 11.944190461737909 a46.414428775348114,46.414428775348114 0 0,0 -0.38049808374399074,0.7000736176966096 l -22.224434018195158 -12.327518912909122" fill="#c7ff1e" stroke="none" /><line stroke="#e1ed5e" stroke-width="0.3" x1="174.33088141563837" x2="178.70328620479359" y1="141.23008692659167" y2="143.65538615756765" /><path d="M 175.20536237346943 141.71514677278685 a86.0,86.0 0 0,1 -30.301960400862466,31.631185727798858" fill="none" id="id113" stroke="none" /><text fill="#e1ed5e" style="font-size:6.75px; font-family:Arial;" text-anchor="middle"><textPath startOffset="22.145653131862474" xlink:href="#id113">May</textPath></text><path d="M 118.18653347947321 110.5 l 23.794223898500643 13.737601572957567 a48.475203145915145,48.475203145915145 0 0,0 -0.42225662200896114,0.7170840582862569 l -23.55489356636192 -14.144036799537373" fill="#afff20" stroke="none" /><path d="M 118.00360718960297 110.81064883170644 l 1.7387330904995841 1.044059262985574 a23.028115505740296,23.028115505740296 0 0,0 -0.20641090744769305,0.3371567049338912 l -1.7205542185964864 -1.0737530840440221" fill="#ff0000" stroke="none" /><path d="M 117.81537515405839 111.11811171558189 l 7.84203835588962 4.894011928724225 a30.24385841160167,30.24385841160167 0 0,0 -0.2786500733150684,0.43808419779826907 l -7.756870590948661 -5.027909801201166" fill="#ff6809" stroke="none" /><path d="M 117.62189284568427 111.42229804090321 l 9.800032575328277 6.352262714693247 a32.67869342323778,32.67869342323778 0 0,0 -0.30916465481901545,0.46811469196661504 l -9.689543481588535 -6.519557284998924" fill="#ff890c" stroke="none" /><path d="M 117.423217284605 111.72311816256416 l 35.28994309114834 23.744648651844884 a63.534555633931895,63.534555633931895 0 0,0 -0.6166187859558729,0.8996652365852945 l -34.877134568377144 -24.34694862350022" fill="#33ff54" stroke="none" /><path d="M 116.79662413953412 112.60449989151573 l 31.716767116553765 23.80085333569417 a60.65392711741084,60.65392711741084 0 0,0 -0.6320948578734046,0.8274324594738212 l -31.303520281326055 -24.341806708408868" fill="#30ff31" stroke="none" /><path d="M 116.1254893667686 113.45245675266167 l 8.60555128129314 7.179056945892033 a32.2068894652944,32.2068894652944 0 0,0 -0.3578115430846965,0.42150109804944463 l -8.481045174701329 -7.325724826391035" fill="#ff830c" stroke="none" /><path d="M 115.89218393027572 113.72728997021213 l 3.6244944626838107 3.13075199122904 a25.78942252684081,25.78942252684081 0 0,0 -0.2922665346802539,0.3325456658383499 l -3.5702168640449714 -3.1925099348786827" fill="#ff2903" stroke="none" /><path d="M 115.6541949942343 113.99807769240083 l 13.527906615435905 12.096737512734512 a39.14759807379348,39.14759807379348 0 0,0 -0.45225225234382355,0.4971044482595995 l -13.318256662250201 -12.327179536551784" fill="#ffde14" stroke="none" /><path d="M 115.41159269507618 114.26474011684316 l 6.495290867750376 6.011944258127552 a29.850552368045413,29.850552368045413 0 0,0 -0.3513042798815569,0.3730729711603587 l -6.3911307541325595 -6.122558689232408" fill="#ff6209" stroke="none" /><path d="M 115.16444852881244 114.52719865689866 l 43.405278605339525 41.581275036790316 a81.10840743600139,81.10840743600139 0 0,0 -0.9718069451683795,0.9971595372619025 l -42.68508485902034 -42.32025726611996" fill="#49edff" stroke="none" /><path d="M 114.65682725009322 115.03919595460226 l 8.588803242524477 8.81286875909842 a33.30586026671406,33.30586026671406 0 0,0 -0.4128777052071879,0.39552750191694486 l -8.436253051451978 -8.959008391320944" fill="#ff920d" stroke="none" /><path d="M 114.39649973595853 115.28858382429668 l 4.096105349689859 4.349921935223372 a26.97493932005132,26.97493932005132 0 0,0 -0.33984599355703976,0.3145563780303078 l -4.020829584818852 -4.419596059386059" fill="#ff3a05" stroke="none" /><path d="M 114.13192950727249 115.5334660781643 l 4.081189908691997 4.485942628895057 a27.064634559521892,27.064634559521892 0 0,0 -0.34634351630419974,0.30970250793931814 l -4.003581365564419 -4.555340666717762" fill="#ff3b05" stroke="none" /><path d="M 113.86319453409587 115.77377054828091 l 9.244311337735697 10.518329347516769 a35.00330476608366,35.00330476608366 0 0,0 -0.4547438007762981,0.39279686434539657 l -9.062388057196543 -10.675470344326884" fill="#ffa80f" stroke="none" /><path d="M 113.31354834802062 116.24036423190432 l 7.417868448000426 9.048593378022199 a32.700504879389925,32.700504879389925 0 0,0 -0.4371734073277632,0.35215595106148395 l -7.261444270317411 -9.174597622877085" fill="#ff890c" stroke="none" /><path d="M 113.03279911837588 116.46651593811092 l 39.098397355127624 49.39954781433276 a84.0,84.0 0 0,0 -1.1383602214590773,0.8851957935168273 l -38.24462718903332 -50.063444659470385" fill="#4dd2ff" stroke="none" /><path d="M 112.7482090630111 116.68781488649013 l 22.00226050344609 28.801665281061577 a57.244108351893715,57.244108351893715 0 0,0 -0.7860079783684186,0.5898350404088996 l -21.504599536166907 -29.17511934873449" fill="#50ff2b" stroke="none" /><path d="M 111.8722381534696 117.32195027204791 l 12.025683153736889 17.54583111319728 a42.271418494470765,42.271418494470765 0 0,0 -0.6020732466238662,0.40510175000381327 l -11.72271361901602 -17.749682537258217" fill="#f9ff18" stroke="none" /><path d="M 111.5731344415666 117.5232005979908 l 3.9175988606928236 5.931743992519269 a28.108668484750865,28.108668484750865 0 0,0 -0.404917908321987,0.26246289609493356 l -3.815195320113827 -5.998120730318098" fill="#ff4a06" stroke="none" /><path d="M 111.27062007382361 117.71928675628689 l 33.712139056095886 53.001082033645964 a83.81419438689646,83.81419438689646 0 0,0 -1.220637483814508,0.76176806785822 l -32.797337443491664 -53.57198589834573" fill="#4dd4ff" stroke="none" /><line stroke="#e1ed5e" stroke-width="0.3" x1="143.1302829299769" x2="145.66735839644613" y1="173.24464959558577" y2="177.55315839532614" /><path d="M 143.63769802327073 174.10635135553383 a86.0,86.0 0 0,1 -40.68552437913181,11.842963189579606" fill="none" id="id114" stroke="none" /><text fill="#e1ed5e" style="font-size:6.75px; font-family:Arial;" text-anchor="middle"><textPath startOffset="21.407464694133747" xlink:href="#id114">June</textPath></text><line stroke="#e1ed5e" stroke-width="0.3" x1="101.45913802915013" x2="101.54496967792366" y1="184.9874750549273" y2="189.98673829345242" /><path d="M 101.47630435890484 185.9873277026323 a86.0,86.0 0 0,1 -42.54439059252881,-10.42667462771756" fill="none" id="id115" stroke="none" /><text fill="#e1ed5e" style="font-size:6.75px; font-family:Arial;" text-anchor="middle"><textPath startOffset="22.145653131862474" xlink:href="#id115">July</textPath></text><line stroke="#e1ed5e" stroke-width="0.3" x1="58.13341422392154" x2="55.67067388415222" y1="173.97424548756322" y2="178.32567169271397" /><path d="M 57.64086615596768 174.84453072859336 a86.0,86.0 0 0,1 -31.369924170532247,-30.572349798747897" fill="none" id="id116" stroke="none" /><text fill="#e1ed5e" style="font-size:6.75px; font-family:Arial;" text-anchor="middle"><textPath startOffset="22.145653131862474" xlink:href="#id116">August</textPath></text><line stroke="#e1ed5e" stroke-width="0.3" x1="26.387840678322732" x2="22.057713659400548" y1="142.50000000000003" y2="145.00000000000006" /><path d="M 25.521815274538298 143.00000000000003 a86.0,86.0 0 0,1 -11.493303480769221,-40.785679425670985" fill="none" id="id117" stroke="none" /><text fill="#e1ed5e" style="font-size:6.75px; font-family:Arial;" text-anchor="middle"><textPath startOffset="21.40746469413373" xlink:href="#id117">September</textPath></text><line stroke="#e1ed5e" stroke-width="0.3" x1="15.003131293944662" x2="10.003315487706104" y1="100.72959589197737" y2="100.7725132973878" /><path d="M 14.003168132696942 100.73817937305945 a86.0,86.0 0 0,1 10.791469493833604,-42.45332614584628" fill="none" id="id118" stroke="none" /><text fill="#e1ed5e" style="font-size:6.75px; font-family:Arial;" text-anchor="middle"><textPath startOffset="22.145653131862435" xlink:href="#id118">October</textPath></text><line stroke="#e1ed5e" stroke-width="0.3" x1="26.387840678322718" x2="22.05771365940052" y1="57.49999999999999" y2="54.99999999999999" /><path d="M 25.521815274538284 56.99999999999999 a86.0,86.0 0 0,1 29.574782752854787,-30.34633250058573" fill="none" id="id119" stroke="none" /><text fill="#e1ed5e" style="font-size:6.75px; font-family:Arial;" text-anchor="middle"><textPath startOffset="21.40746469413373" xlink:href="#id119">November</textPath></text><line stroke="#e1ed5e" stroke-width="0.3" x1="56.869717070023135" x2="54.33264160355391" y1="26.7553504044142" y2="22.446841604673864" /><path d="M 56.362301976729285 25.89364864446614 a86.0,86.0 0 0,1 42.16139366436587,-11.88097634709845" fill="none" id="id120" stroke="none" /><text fill="#e1ed5e" style="font-size:6.75px; font-family:Arial;" text-anchor="middle"><textPath startOffset="22.145653131862474" xlink:href="#id120">December</textPath></text></svg>