<?xml version="1.0" encoding="utf-8" ?>
<svg baseProfile="full" height="200mm" version="1.1" viewBox="0,0,200,200" width="200mm" xmlns="http://www.w3.org/2000/svg" xmlns:ev="http://www.w3.org/2001/xml-events" xmlns:xlink="http://www.w3.org/1999/xlink"><defs /><rect fill="#1a1a1a" height="200" width="200" x="0" y="0" /><text alignment-baseline="middle" fill="#e1ed5e" style="dominant-baseline: central; font-size:9.0px; font-family:Arial;" text-anchor="middle" x="100.0" y="100.0">2025</text><line stroke="#e1ed5e" stroke-width="0.3" x1="100.0" x2="100.0" y1="15.0" y2="10.0" /><path d="M 100.0 14.0 a86.0,86.0 0 0,1 42.46469731375804,11.215312516191453" fill="none" id="id121" stroke="none" /><text fill="#e1ed5e" style="font-size:6.75px; font-family:Arial;" text-anchor="middle"><textPath startOffset="22.20632615414155" xlink:href="#id121">January</textPath></text><path d="M 100.0 79.0 l 0.0 -0.8116831654840908 a21.81168316548409,21.81168316548409 0 0,0 0.3754522706857013,0.0032316362283040224 l -0.013971791413172957 0.8115629058643457" fill="#ff0901" stroke="none" /><path d="M 100.36148047927253 79.00311137660856 l 0.019621940630275496 -1.1397564339237194 a22.139925326161592,22.139925326161592 0 0,0 0.3809894910309228,0.009839834524842958 l -0.03923806685606608 1.1392498072565167" fill="#ff0d01" stroke="none" /><path d="M 100.72285384407766 79.0124445844662 l 0.045086126523319524 -1.3090441264614423 a22.309820325017167,22.309820325017167 0 0,0 0.3836855303869892,0.01652230604241643 l -0.06761248929964025 1.3080740938948312" fill="#ff1001" stroke="none" /><path d="M 101.44485096284872 79.0497635885617 l 0.13702852107662458 -1.9869038298627797 a22.991623369192034,22.991623369192034 0 0,0 0.3945907916544225,0.0306278397911771 l -0.17120950209338825 1.984250727883138" fill="#ff1a02" stroke="none" /><path d="M 101.80526077348638 79.07773832637324 l 0.036727078015870114 -0.4256523755688521 a21.427233920805676,21.427233920805676 0 0,0 0.3671963373360739,0.03486971675187795 l -0.044048542442188185 0.42495711430179595" fill="#ff0300" stroke="none" /><path d="M 102.16513564639614 79.11191278185805 l 0.16454584901605376 -1.5874515997884535 a22.59595674067292,22.59595674067292 0 0,0 0.3865342870144561,0.043431630916991086 l -0.1918468395402351 1.5843840154008615" fill="#ff1402" stroke="none" /><path d="M 102.52436894288641 79.15227682838746 l 0.05346300258303492 -0.44152891395498095 a21.444753948271916,21.444753948271916 0 0,0 0.36607754482041416,0.047527371813575005 l -0.06105527591129518 0.4405432189772692" fill="#ff0300" stroke="none" /><path d="M 102.88285421437855 79.19881850522331 l 0.1406076016657048 -1.0145515604659434 a22.024248683909363,22.024248683909363 0 0,0 0.3750740243866353,0.0552761613263116 l -0.1580506064809959 1.0119809149786627" fill="#ff0c01" stroke="none" /><path d="M 103.2404852339499 79.25152402106235 l 0.2351938471714482 -1.5059207298045552 a22.52417629892424,22.52417629892424 0 0,0 0.38255789721929717,0.06312533092373453 l -0.26108095052962055 1.501649135941196" fill="#ff1302" stroke="none" /><path d="M 103.59715602781102 79.31037775812273 l 0.15281017677195985 -0.8789123428850129 a21.892097447928588,21.892097447928588 0 0,0 0.3707112696082923,0.0677451149941126 l -0.16791656748315303 0.8761517465401617" fill="#ff0a01" stroke="none" /><path d="M 103.95276090670814 79.375362276772 l 0.3566724360729411 -1.8610383864557878 a22.89490873197528,22.89490873197528 0 0,0 0.386415462228403,0.07751130651508673 l -0.3886543077684695 1.854623123863493" fill="#ff1802" stroke="none" /><path d="M 104.307194497241 79.44645832069477 l 0.04462343211821762 -0.21293897280536808 a21.217564373998627,21.217564373998627 0 0,0 0.35681605878183387,0.07798617014069688 l -0.048282215053579436 0.21213930456880067" fill="#ff0000" stroke="none" /><path d="M 104.66035177308747 79.52364482259891 l 0.2532806253606025 -1.1128481919299553 a22.141307221332113,22.141307221332113 0 0,0 0.3708946390547745,0.08777877793908587 l -0.2723989513779005 1.1083235018500008" fill="#ff0d01" stroke="none" /><path d="M 105.01212808612495 79.60689891045804 l 0.10451589134502497 -0.42524913590357555 a21.437904554818036,21.437904554818036 0 0,0 0.3575955909891225,0.09115907834109674 l -0.11182037101917255 0.42338706139361093" fill="#ff0300" stroke="none" /><path d="M 105.36241919743992 79.69619591428918 l 0.36952395095565227 -1.3991337918459013 a22.44710860608835,22.44710860608835 0 0,0 0.37273115008417207,0.10188150331876927 l -0.39355299026353513 1.3925657477008384" fill="#ff1202" stroke="none" /><path d="M 105.71112130821622 79.79150937346287 l 0.059078536856221296 -0.20904617392225716 a21.217233920805675,21.217233920805675 0 0,0 0.35059941539856637,0.10234958342382779 l -0.06266816997821481 0.2079982615797259" fill="#ff0000" stroke="none" /><path d="M 106.0581310904928 79.89281104454417 l 0.40269100373489025 -1.3365481832287274 a22.39589436942092,22.39589436942092 0 0,0 0.3681614441690365,0.11438955282140022 l -0.425637820614645 1.3294184955248065" fill="#ff1101" stroke="none" /><path d="M 106.40334571778207 80.00007090966166 l 0.7169010136365463 -2.23913717444712 a23.35110236896315,23.35110236896315 0 0,0 0.3817540268019442,0.1258583005516317 l -0.755337862680908 2.226465149636252" fill="#ff1f03" stroke="none" /><path d="M 106.74666289553966 80.11325718540242 l 0.06903207402528777 -0.20348179883224332 a21.21487268253605,21.21487268253605 0 0,0 0.3448103727645717,0.1202975685284112 l -0.07252445085313317 0.20226337713162465" fill="#ff0000" stroke="none" /><path d="M 107.08798089147638 80.2323363322302 l 0.4548134591487635 -1.2684288557887222 a22.34750400549325,22.34750400549325 0 0,0 0.3609842063586406,0.13295352967292362 l -0.47657999127998046 1.2604120583094738" fill="#ff1001" stroke="none" /><path d="M 107.4271985657038 80.35727306442388 l 0.578876094207704 -1.530954766789283 a22.636740672922866,22.636740672922866 0 0,0 0.36328393791960817,0.1409485239582037 l -0.6051431971269792 1.5207635389405325" fill="#ff1502" stroke="none" /><path d="M 108.09893153111575 80.62456947434976 l 0.6955854192590144 -1.6640796275075602 a22.80360751888304,22.80360751888304 0 0,0 0.36085757902379645,0.1545003829494253 l -0.724126756073126 1.651859716595344" fill="#ff1702" stroke="none" /><path d="M 108.43124777332544 80.76684994638697 l 0.20697468569663183 -0.4721454397173559 a21.51551899748226,21.51551899748226 0 0,0 0.3379144236113021,0.1516123519053675 l -0.21507122777471413 0.46851275729545716" fill="#ff0400" stroke="none" /><path d="M 109.08828744355905 81.06846463323043 l 0.5203559404912553 -1.0839376452271459 a22.20236896314946,22.20236896314946 0 0,0 0.3431098413798956,0.16836250905543393 l -0.5389370488815828 1.07481997603688" fill="#ff0e01" stroke="none" /><path d="M 109.41281617654863 81.2277094730956 l 0.38203882547642093 -0.7619126614061156 a21.852328908216982,21.852328908216982 0 0,0 0.33479798323713683,0.17149653063828013 l -0.3950972963023133 0.7552236054553348" fill="#ff0901" stroke="none" /><path d="M 110.05341064243156 81.56283822128135 l 26.49277349701144 -48.58565598323268 a76.33925383382925,76.33925383382925 0 0,0 1.1482729211581881,0.6390126374158184 l -27.325170507241666 48.12242794825668" fill="#44ffe4" stroke="none" /><path d="M 110.36928655335952 81.73862282372117 l 0.32095778068830116 -0.565239571753518 a21.650007438773173,21.650007438773173 0 0,0 0.3224853842380094,0.18680434954191433 l -0.33063989739163885 0.5596310648215542" fill="#ff0601" stroke="none" /><line stroke="#e1ed5e" stroke-width="0.3" x1="143.23703022742887" x2="145.7803849466894" y1="26.81831364943548" y2="22.513508569990506" /><path d="M 143.74570117128098 25.957352633546492 a86.0,86.0 0 0,1 28.547481713284135,27.462654790039103" fill="none" id="id122" stroke="none" /><text fill="#e1ed5e" style="font-size:6.75px; font-family:Arial;" text-anchor="middle"><textPath startOffset="19.985693538727396" xlink:href="#id122">February</textPath></text><path d="M 110.68208982089419 81.91981866633111 l 0.794717287250108 -1.3451143833651626 a22.562340638590065,22.562340638590065 0 0,0 0.33267412079175507,0.20043243546088876 l -0.8177534742595006 1.3312353384456592" fill="#ff1302" stroke="none" /><path d="M 110.99172775467656 82.1063720568725 l 0.2504838394541056 -0.407767070745625 a21.4785563057908,21.4785563057908 0 0,0 0.3133627755613455,0.19622774130855827 l -0.2574657673877143 0.4033949881141225" fill="#ff0400" stroke="none" /><path d="M 111.2981086023043 82.29822771554956 l 0.3685235372576403 -0.5773992769607862 a21.684981403067063,21.684981403067063 0 0,0 0.3129173528754279,0.20353015067262598 l -0.3784079159173484 0.5709702021286321" fill="#ff0701" stroke="none" /><path d="M 111.60114157652 82.49532879139004 l 1.3540794561896181 -2.0431364891628827 a23.451109521629665,23.451109521629665 0 0,0 0.33456392017325215,0.22589905236213875 l -1.3890480707694122 2.019525524502074" fill="#ff2003" stroke="none" /><path d="M 112.19680574252982 82.90503203632743 l 0.561652575264911 -0.7872087974139003 a21.96703221560998,21.96703221560998 0 0,0 0.30592197415534994,0.22226532447521727 l -0.5751198657740496 0.7774242381220081" fill="#ff0b01" stroke="none" /><path d="M 112.48926042617603 83.11751280151076 l 0.5039476612739989 -0.6812164731816578 a21.847360093842983,21.847360093842983 0 0,0 0.30040520272965604,0.22625897064299158 l -0.515599017762038 0.6724409130328188" fill="#ff0901" stroke="none" /><path d="M 112.77801427241765 83.33499621200491 l 38.33404281725294 -49.995011363985284 a84.0,84.0 0 0,0 1.1398697793622787,0.8896864431071037 l -39.188945151774654 49.32774653165496" fill="#4dd2ff" stroke="none" /><path d="M 113.06298171725822 83.55741782278167 l 1.1415234126417981 -1.4368536162600558 a22.835108720531014,22.835108720531014 0 0,0 0.30566054546436283,0.24715623716606674 l -1.166087356670652 1.4169912818298593" fill="#ff1702" stroke="none" /><path d="M 113.34407831869373 83.78471172551755 l 0.13679665548097755 -0.16623082918373142 a21.215281242847333,21.215281242847333 0 0,0 0.27998358560703557,0.2344782010490228 l -0.1396377780471305 0.1638514707408892" fill="#ff0000" stroke="none" /><path d="M 113.6212207817346 84.01681056812373 l 0.29841821931235607 -0.3501650113173766 a21.460074959945068,21.460074959945068 0 0,0 0.2790895025269663,0.24202366639775896 l -0.30440152048608654 0.3449763514999463" fill="#ff0400" stroke="none" /><path d="M 113.89432698308785 84.25364557470407 l 0.14549449747682858 -0.16488800983229202 a21.219901579308765,21.219901579308765 0 0,0 0.27180573186326457,0.2440298697724294 l -0.14831121693608318 0.16235913129056517" fill="#ff0000" stroke="none" /><path d="M 114.16331599549186 84.49514656593476 l 0.2603631778846258 -0.28502456020987676 a21.38604142824445,21.38604142824445 0 0,0 0.26965976985885354,0.25061936750041447 l -0.2652308315383262 0.2805006066348218" fill="#ff0300" stroke="none" /><path d="M 114.42810811169701 84.74124197986012 l 1.2306286227257393 -1.3014779360855129 a22.791170462348365,22.791170462348365 0 0,0 0.28273722872035517,0.2719929900165689 l -1.2528490950585127 1.280101859306642" fill="#ff1702" stroke="none" /><path d="M 114.94478906791727 85.2469230424477 l 0.9457949494896135 -0.9336622693350014 a22.3290046349279,22.3290046349279 0 0,0 0.2676670677404889,0.27585444190608316 l -0.9617262809332114 0.917243631878804" fill="#ff1001" stroke="none" /><path d="M 115.19652480421416 85.50635884689758 l 0.31129136713416156 -0.29689323232967324 a21.430171950103,21.430171950103 0 0,0 0.25229708580273486,0.26913294022877227 l -0.31635577490735933 0.29149087522284617" fill="#ff0300" stroke="none" /><path d="M 115.4437574822437 85.77008943001954 l 0.9426957584914201 -0.8686018511658171 a22.281851968413825,22.281851968413825 0 0,0 0.25746824185655803,0.28430286330519033 l -0.9575076409640138 0.8522462005910778" fill="#ff0f01" stroke="none" /><path d="M 115.68641384162765 86.03803664274999 l 0.313759692744915 -0.2792672294199765 a21.4200420576791,21.4200420576791 0 0,0 0.2427687758205865,0.27752667758919447 l -0.3185203321433497 0.27382499562783424" fill="#ff0300" stroke="none" /><path d="M 116.15771136456269 86.58626213691792 l 0.16163721042055895 -0.1341872695075152 a21.210078107118335,21.210078107118335 0 0,0 0.2307873728882708,0.2829180305548806 l -0.16392307538523862 0.13138506934453376" fill="#ff0000" stroke="none" /><path d="M 116.38621287248628 86.86637796730983 l 14.634924651227701 -11.729956783904557 a39.75560997940032,39.75560997940032 0 0,0 0.4233895212090839,0.5376616960564848 l -14.834668253030749 11.476302693895033" fill="#fff617" stroke="none" /><path d="M 116.60985879189232 87.15038557335679 l 1.0976753871960594 -0.8491767249683367 a22.387801270313574,22.387801270313574 0 0,0 0.23317860872851112,0.30683571619743727 l -1.112129936148684 0.8301562328898658" fill="#ff1101" stroke="none" /><path d="M 117.04232023915458 87.72973835380427 l 1.0350118211162014 -0.7451958227391772 a22.275369077592128,22.275369077592128 0 0,0 0.22136135312877614,0.3130999355730393 l -1.0476857940488604 0.7272693868343447" fill="#ff0f01" stroke="none" /><path d="M 117.45458315368197 88.32363383020206 l 0.9290900026922383 -0.6215212921796248 a22.117808995193407,22.117808995193407 0 0,0 0.20896417729319647,0.3182667782256934 l -0.9396508153433597 0.6054364499762575" fill="#ff0d01" stroke="none" /><path d="M 117.65298651832404 88.62581576622439 l 0.36698433663536845 -0.23645559642091085 a21.43656471732662,21.43656471732662 0 0,0 0.19718822546071993,0.31190441782408573 l -0.3710001583420441 0.2301035308826189" fill="#ff0300" stroke="none" /><line stroke="#e1ed5e" stroke-width="0.3" x1="172.23445277983987" x2="176.4835382374775" y1="55.19839476539836" y2="52.563006222186495" /><path d="M 173.08426987136738 54.67131705675599 a86.0,86.0 0 0,1 12.851231095245387,41.99856678651699" fill="none" id="id123" stroke="none" /><text fill="#e1ed5e" style="font-size:6.75px; font-family:Arial;" text-anchor="middle"><textPath startOffset="22.20632615414155" xlink:href="#id123">March</textPath></text><path d="M 117.84615892207809 88.93136811851018 l 0.17297274141772553 -0.10728199881243633 a21.203541142137787,21.203541142137787 0 0,0 0.18970525719027456,0.31182556318198457 l -0.17479379689422403 0.10428866242337029" fill="#ff0000" stroke="none" /><line stroke="#e1ed5e" stroke-width="0.3" x1="184.98032266829074" x2="189.97916517819016" y1="98.17113171792111" y2="98.06355123074" /><path d="M 185.9800911702706 98.14961562048488 a86.0,86.0 0 0,1 -9.607161424134198,41.387399972396054" fill="none" id="id124" stroke="none" /><text fill="#e1ed5e" style="font-size:6.75px; font-family:Arial;" text-anchor="middle"><textPath startOffset="21.466115282336823" xlink:href="#id124">April</textPath></text><line stroke="#e1ed5e" stroke-width="0.3" x1="174.80103733775053" x2="179.2010983576182" y1="140.37084112569926" y2="142.7455964860345" /><path d="M 175.68104954172406 140.8457921977663 a86.0,86.0 0 0,1 -30.038265399797805,32.042727171017184" fill="none" id="id125" stroke="none" /><text fill="#e1ed5e" style="font-size:6.75px; font-family:Arial;" text-anchor="middle"><textPath startOffset="22.206326154141568" xlink:href="#id125">May</textPath></text><line stroke="#e1ed5e" stroke-width="0.3" x1="143.8653032363475" x2="146.44561519142675" y1="172.8068346515853" y2="177.08958963109032" /><path d="M 144.38136562736335 173.6633856474863 a86.0,86.0 0 0,1 -40.68145358897372,12.25698825130547" fill="none" id="id126" stroke="none" /><text fill="#e1ed5e" style="font-size:6.75px; font-family:Arial;" text-anchor="middle"><textPath startOffset="21.466115282336833" xlink:href="#id126">June</textPath></text><line stroke="#e1ed5e" stroke-width="0.3" x1="102.19456741930631" x2="102.32365962044197" y1="184.97166512339345" y2="189.96999836594603" /><path d="M 102.22038585953345 185.97133177190398 a86.0,86.0 0 0,1 -42.740103519485714,-10.115201625700543" fill="none" id="id127" stroke="none" /><text fill="#e1ed5e" style="font-size:6.75px; font-family:Arial;" text-anchor="middle"><textPath startOffset="22.20632615414155" xlink:href="#id127">July</textPath></text><line stroke="#e1ed5e" stroke-width="0.3" x1="58.666819895761336" x2="56.23545636021788" y1="174.27360380694188" y2="178.64263932499728" /><path d="M 58.180547188652646 175.14741091055294 a86.0,86.0 0 0,1 -31.652253787137756,-30.449443065178592" fill="none" id="id128" stroke="none" /><text fill="#e1ed5e" style="font-size:6.75px; font-family:Arial;" text-anchor="middle"><textPath startOffset="22.20632615414155" xlink:href="#id128">August</textPath></text><line stroke="#e1ed5e" stroke-width="0.3" x1="26.63291911575756" x2="22.317208475507996" y1="142.92168965132927" y2="145.44649492493687" /><path d="M 25.769776987707644 143.4266507060508 a86.0,86.0 0 0,1 -11.730757126820373,-40.83630448921669" fill="none" id="id129" stroke="none" /><text fill="#e1ed5e" style="font-size:6.75px; font-family:Arial;" text-anchor="middle"><textPath startOffset="21.46611528233685" xlink:href="#id129">September</textPath></text><line stroke="#e1ed5e" stroke-width="0.3" x1="15.007084014347285" x2="10.007500721073583" y1="101.09737516637583" y2="101.16192664675087" /><path d="M 14.007167355692545 101.11028546245083 a86.0,86.0 0 0,1 10.666146001902534,-42.60595125391555" fill="none" id="id130" stroke="none" /><text fill="#e1ed5e" style="font-size:6.75px; font-family:Arial;" text-anchor="middle"><textPath startOffset="22.20632615414155" xlink:href="#id130">October</textPath></text><line stroke="#e1ed5e" stroke-width="0.3" x1="26.266209847984243" x2="21.928928074336255" y1="57.711370442889674" y2="55.22380399835377" /><path d="M 25.398753493254645 57.213857153982495 a86.0,86.0 0 0,1 29.58750427330803,-30.492523968695096" fill="none" id="id131" stroke="none" /><text fill="#e1ed5e" style="font-size:6.75px; font-family:Arial;" text-anchor="middle"><textPath startOffset="21.46611528233685" xlink:href="#id131">November</textPath></text><line stroke="#e1ed5e" stroke-width="0.3" x1="56.762969772571076" x2="54.21961505331055" y1="26.818313649435495" y2="22.513508569990535" /><path d="M 56.25429882871897 25.957352633546506 a86.0,86.0 0 0,1 42.265352541879196,-11.944610805530505" fill="none" id="id132" stroke="none" /><text fill="#e1ed5e" style="font-size:6.75px; font-family:Arial;" text-anchor="middle"><textPath startOffset="22.20632615414155" xlink:href="#id132">December</textPath></text></svg>