<?xml version="1.0" encoding="utf-8" ?>
<svg baseProfile="full" height="200mm" version="1.1" viewBox="0,0,200,200" width="200mm" xmlns="http://www.w3.org/2000/svg" xmlns:ev="http://www.w3.org/2001/xml-events" xmlns:xlink="http://www.w3.org/1999/xlink"><defs /><rect fill="#1a1a1a" height="200" width="200" x="0" y="0" /><rect fill="#1a1a1a" height="200" width="180" x="10" y="0" /><text alignment-baseline="middle" fill="#e1ed5e" style="dominant-baseline: central; font-size:9.0px; font-family:Arial;" text-anchor="middle" x="100.0" y="100.0">2018</text><line stroke="#e1ed5e" stroke-width="0.3" x1="100.0" x2="100.0" y1="15.0" y2="10.0" /><path d="M 100.0 14.0 a86.0,86.0 0 0,1 42.46469731375804,11.215312516191453" fill="none" id="id37" stroke="none" /><text fill="#e1ed5e" style="font-size:6.75px; font-family:Arial;" text-anchor="middle"><textPath startOffset="22.20632615414155" xlink:href="#id37">January</textPath></text><path d="M 102.88285421437855 79.19881850522331 l 4.309489440140514 -31.095041694125374 a52.392249317213285,52.392249317213285 0 0,0 0.8922425495690977,0.13149335839194515 l -4.844100970138268 31.016253851572458" fill="#83ff25" stroke="none" /><path d="M 103.2404852339499 79.25152402106235 l 4.8196699665364395 -30.859824781609994 a52.233923931168235,52.233923931168235 0 0,0 0.8871578626195895,0.14638864879412486 l -5.350157035294904 30.772289869876246" fill="#85ff25" stroke="none" /><path d="M 103.59715602781102 79.31037775812273 l 5.340531490632433 -30.716926999486653 a52.177730528282986,52.177730528282986 0 0,0 0.8835550259826449,0.16146403345673072 l -5.868481637717979 30.620447484679186" fill="#85ff25" stroke="none" /><path d="M 103.95276090670814 79.375362276772 l 5.894985823230485 -30.758740499927583 a52.31854043530723,52.31854043530723 0 0,0 0.883021339901206,0.17712577375071215 l -6.423573572598817 30.652710770099663" fill="#84ff25" stroke="none" /><path d="M 104.66035177308747 79.52364482259891 l 0.6392946879628344 -2.808892060326256 a23.880724267371207,23.880724267371207 0 0,0 0.4000320540685921,0.09467466268073393 l -0.68755042899395 2.797471485504653" fill="#ff0e01" stroke="none" /><path d="M 105.01212808612495 79.60689891045804 l 7.496714213518172 -30.502263343768586 a52.41001103297759,52.41001103297759 0 0,0 0.87422671470342,0.22285985504768943 l -8.020649816906616 30.36870049255203" fill="#83ff25" stroke="none" /><path d="M 105.36241919743992 79.69619591428918 l 7.480724211003841 -28.324372490678865 a50.2955851914896,50.2955851914896 0 0,0 0.8351512723333855,0.22827839075079595 l -7.9671733725609375 28.191407559101776" fill="#9aff23" stroke="none" /><path d="M 105.71112130821622 79.79150937346287 l 8.561556828366193 -30.294600933392204 a52.48115469672025,52.48115469672025 0 0,0 0.8672130507110493,0.2531632700501807 l -9.081760096800668 30.14273933442332" fill="#82ff25" stroke="none" /><path d="M 106.0581310904928 79.89281104454417 l 9.079404947045383 -30.134922494470445 a52.47299076891443,52.47299076891443 0 0,0 0.8625925690973675,0.268011710104024 l -9.596782888853468 29.9741706494839" fill="#82ff25" stroke="none" /><path d="M 106.40334571778207 80.00007090966166 l 9.486481629896938 -29.629660536344208 a52.11125386758569,52.11125386758569 0 0,0 0.8519375527251631,0.2808704166406427 l -9.995102004864519 29.461976395444328" fill="#86ff25" stroke="none" /><path d="M 107.76421540070413 80.48803036053334 l 11.532848844149447 -28.982786397604883 a52.193084326997706,52.193084326997706 0 0,0 0.831898439056174,0.33935226101685634 l -12.03003115279401 28.77997325040445" fill="#85ff25" stroke="none" /><path d="M 108.09893153111575 80.62456947434976 l 12.091059727861222 -28.925974597835438 a52.35132743246015,52.35132743246015 0 0,0 0.8284379241449497,0.35469388470785373 l -12.587181409796488 28.713561185164792" fill="#83ff25" stroke="none" /><path d="M 110.05341064243156 81.56283822128135 l 15.084139285764572 -27.66312112335069 a52.5084040896634,52.5084040896634 0 0,0 0.7898161891998146,0.43953185417385254 l -15.558079564036422 27.399373871616657" fill="#82ff25" stroke="none" /><path d="M 110.36928655335952 81.73862282372117 l 15.480745094605181 -27.263179938915112 a52.35178542070301,52.35178542070301 0 0,0 0.7798004543271375,0.4517107557828382 l -15.947742281397646 26.992665025742223" fill="#83ff25" stroke="none" /><line stroke="#e1ed5e" stroke-width="0.3" x1="143.23703022742887" x2="145.7803849466894" y1="26.81831364943548" y2="22.513508569990506" /><path d="M 143.74570117128098 25.957352633546492 a86.0,86.0 0 0,1 28.547481713284135,27.462654790039103" fill="none" id="id38" stroke="none" /><text fill="#e1ed5e" style="font-size:6.75px; font-family:Arial;" text-anchor="middle"><textPath startOffset="19.985693538727396" xlink:href="#id38">February</textPath></text><path d="M 110.68208982089419 81.91981866633111 l 15.940883807239171 -26.981056580340933 a52.338302295233845,52.338302295233845 0 0,0 0.7717106562082328,0.46494703563599277 l -16.40295652966504 26.702662935246327" fill="#83ff25" stroke="none" /><path d="M 117.2510076193507 88.02491185347247 l 25.6577865810389 -17.810800547562256 a52.233741824878805,52.233741824878805 0 0,0 0.5063577096248159,0.7430174576148116 l -25.960568756332446 17.366505066677036" fill="#85ff25" stroke="none" /><path d="M 117.45458315368197 88.32363383020206 l 25.152927464778873 -16.826227744039358 a51.2620504946824,51.2620504946824 0 0,0 0.4843125379331875,0.7376412220455887 l -25.438836638069986 16.390768458016094" fill="#8fff24" stroke="none" /><line stroke="#e1ed5e" stroke-width="0.3" x1="172.23445277983987" x2="176.4835382374775" y1="55.19839476539836" y2="52.563006222186495" /><path d="M 173.08426987136738 54.67131705675599 a86.0,86.0 0 0,1 12.851231095245387,41.99856678651699" fill="none" id="id39" stroke="none" /><text fill="#e1ed5e" style="font-size:6.75px; font-family:Arial;" text-anchor="middle"><textPath startOffset="22.20632615414155" xlink:href="#id39">March</textPath></text><path d="M 117.84615892207809 88.93136811851018 l 26.561451075301246 -16.47407296294977 a52.25549172888205,52.25549172888205 0 0,0 0.4675229213638967,0.7684847558471228 l -26.841089794951365 16.014420433895562" fill="#84ff25" stroke="none" /><path d="M 118.3937258080291 89.86733742301442 l 3.8962041008537183 -2.1463254316743807 a25.448271490608633,25.448271490608633 0 0,0 0.20806010018224513,0.3855037667848116 l -3.9325723002544284 2.07894068155711" fill="#ff2503" stroke="none" /><path d="M 118.73160827565052 90.50648371742162 l 28.06560365190482 -14.22415317087859 a52.46433920765584,52.46433920765584 0 0,0 0.40132717955837316,0.8090511046732355 l -28.3062908444166 13.738942477706406" fill="#82ff25" stroke="none" /><path d="M 119.04729006885535 91.15688171328212 l 27.924954217178044 -12.964766767398048 a51.787793772281226,51.787793772281226 0 0,0 0.3684274475789916,0.8117810438314793 l -28.143983981720382 12.482163714724507" fill="#89ff24" stroke="none" /><path d="M 119.61058180528143 92.48833698450437 l 29.406842680925408 -11.264035649840622 a52.490330191688635,52.490330191688635 0 0,0 0.31593032782209757,0.8465362078864563 l -29.59637759724913 10.756176304924834" fill="#82ff25" stroke="none" /><path d="M 119.7369772167798 92.82701384747503 l 28.983895270708487 -10.533582581545184 a51.83865345740034,51.83865345740034 0 0,0 0.297570950917025,0.8412731495776296 l -29.16091930243532 10.03311180554094" fill="#89ff24" stroke="none" /><path d="M 119.85752413597 93.16781622104841 l 29.22590642275756 -10.05547128733062 a51.907379524024876,51.907379524024876 0 0,0 0.2834209814019287,0.8473926598883458 l -29.39466469793126 9.550905524519962" fill="#88ff25" stroke="none" /><path d="M 120.28053869075195 94.5502522615342 l 40.73855960718773 -10.947188162652974 a63.183778488145386,63.183778488145386 0 0,0 0.27320565966751725,1.0527728543015107 l -40.920961598725555 10.244318882802613" fill="#33ff50" stroke="none" /><path d="M 120.67395015179393 96.31383870115 l 30.70705763751252 -5.475062415932778 a52.19134009964746,52.19134009964746 0 0,0 0.15008275587536418,0.8857969208740881 l -30.79675225490811 4.945679706742852" fill="#85ff25" stroke="none" /><path d="M 120.83666639777658 97.38593545837742 l 31.109765108530674 -3.9028764158308458 a52.35362705374294,52.35362705374294 0 0,0 0.10448200137162496,0.895137981669133 l -31.172337462905887 3.36679469583686" fill="#83ff25" stroke="none" /><path d="M 120.87857604477298 97.74499172005257 l 30.55216423010557 -3.29981236083626 a51.72984706698148,51.72984706698148 0 0,0 0.0879970869167291,0.8861186563290787 l -30.604438442704527 2.7734181738027464" fill="#8aff24" stroke="none" /><path d="M 120.91429891909075 98.10471618934814 l 40.09631737104899 -3.633585877016435 a61.26062112096059,61.26062112096059 0 0,0 0.08613102191117732,1.051016629194758 l -40.15292287677966 2.942855330613908" fill="#30ff39" stroke="none" /><path d="M 120.94382443527127 98.46500227214037 l 15.25548065479778 -1.1180922670018498 a36.29639893329272,36.29639893329272 0 0,0 0.040305265323445215,0.6235046150210071 l -15.272466511125643 0.8553285877278074" fill="#ffbb11" stroke="none" /><path d="M 120.96714384426684 98.82574320788733 l 18.407314106566865 -1.0308945164268404 a39.436158930802655,39.436158930802655 0 0,0 0.032124304020781286,0.6780932851125255 l -18.422332018821145 0.7138901246913152" fill="#ffe315" stroke="none" /><path d="M 120.98425023603335 99.18683210126433 l 12.40450526566888 -0.48069125026056814 a33.41381548775734,33.41381548775734 0 0,0 0.017324753925400053,0.5749242392456972 l -12.410941714049924 0.26709686358987184" fill="#ff940d" stroke="none" /><line stroke="#e1ed5e" stroke-width="0.3" x1="184.98032266829074" x2="189.97916517819016" y1="98.17113171792111" y2="98.06355123074" /><path d="M 185.9800911702706 98.14961562048488 a86.0,86.0 0 0,1 -9.607161424134198,41.387399972396054" fill="none" id="id40" stroke="none" /><text fill="#e1ed5e" style="font-size:6.75px; font-family:Arial;" text-anchor="middle"><textPath startOffset="21.466115282336823" xlink:href="#id40">April</textPath></text><path d="M 120.99824983174949 100.27111621757518 l 30.86989056415615 0.39857264456675984 a51.8724635167972,51.8724635167972 0 0,0 -0.01921241760037554,0.8927255521441059 l -30.85845608387077 -0.9298880125009805" fill="#89ff25" stroke="none" /><path d="M 120.89721153311464 102.0752229133903 l 30.951471299068903 3.073673362648716 a52.10371430420075,52.10371430420075 0 0,0 -0.09631172726360929,0.8917269792568455 l -30.893977270304244 -3.6059966637903527" fill="#86ff25" stroke="none" /><path d="M 120.8583938346157 102.4346265915055 l 33.34374274882783 3.8919373850297654 a54.570111067868105,54.570111067868105 0 0,0 -0.11693203039456827,0.932063332695677 l -33.27180920918641 -4.465318472012838" fill="#6cff28" stroke="none" /><path d="M 120.81339534386255 102.79330883721812 l 29.600371753548792 3.972584897279185 a50.86575695867057,50.86575695867057 0 0,0 -0.12393308216901398,0.8667876880382984 l -29.527604620363178 -4.481518057297893" fill="#94ff23" stroke="none" /><path d="M 120.76222939487914 103.15116336523771 l 30.376597144679536 4.610372916239305 a51.72447220892404,51.72447220892404 0 0,0 -0.14117885731446755,0.8791208792629325 l -30.29273653300378 -5.132573025195443" fill="#8aff24" stroke="none" /><path d="M 120.5718875245553 104.21870165774334 l 42.930230469852816 8.803753872088443 a64.82363255636155,64.82363255636155 0 0,0 -0.2335686890833611,1.0911551563770439 l -42.772327742045015 -9.541422847881655" fill="#35ff64" stroke="none" /><path d="M 120.32669344350535 105.2749913415812 l 27.82222947868915 7.220162000842449 a49.7438200746395,49.7438200746395 0 0,0 -0.22221730720525953,0.8269532669781345 l -27.693824095142112 -7.698006200996132" fill="#a0ff22" stroke="none" /><path d="M 120.23288151984713 105.62410040840565 l 26.21141693597182 7.28594394969817 a48.20520827028335,48.20520827028335 0 0,0 -0.22910641551492258,0.7975494883454595 l -26.082117883570795 -7.736050913548212" fill="#b2ff20" stroke="none" /><path d="M 120.13307415673323 105.97154293290107 l 28.804115696549275 8.543405353159597 a51.044414723681875,51.044414723681875 0 0,0 -0.2571015471837768,0.8402227319925459 l -28.652787376859365 -9.0379550577042" fill="#92ff23" stroke="none" /><line stroke="#e1ed5e" stroke-width="0.3" x1="174.80103733775053" x2="179.2010983576182" y1="140.37084112569926" y2="142.7455964860345" /><path d="M 175.68104954172406 140.8457921977663 a86.0,86.0 0 0,1 -30.038265399797805,32.042727171017184" fill="none" id="id41" stroke="none" /><text fill="#e1ed5e" style="font-size:6.75px; font-family:Arial;" text-anchor="middle"><textPath startOffset="22.206326154141568" xlink:href="#id41">May</textPath></text><path d="M 116.27256486870786 113.27417163493432 l 20.13117568302401 16.42179234715174 a46.979597731176455,46.979597731176455 0 0,0 -0.5165608114057552,0.6222307740119133 l -19.845518871724714 -16.765884378277427" fill="#c0ff1e" stroke="none" /><path d="M 114.29624159901734 115.38237550388516 l 12.075059275090068 12.992442434232078 a38.737266331195826,38.737266331195826 0 0,0 -0.49233303981991655,0.44973455877178864 l -11.849626685803287 -13.19836975959045" fill="#ffda14" stroke="none" /><path d="M 112.34349029814194 116.9893568818739 l 10.975302120737934 15.106207410692619 a39.67229924182716,39.67229924182716 0 0,0 -0.5559273099176738,0.39663937484070677 l -10.713647482971377 -15.292891047377545" fill="#ffe615" stroke="none" /><line stroke="#e1ed5e" stroke-width="0.3" x1="143.8653032363475" x2="146.44561519142675" y1="172.8068346515853" y2="177.08958963109032" /><path d="M 144.38136562736335 173.6633856474863 a86.0,86.0 0 0,1 -40.68145358897372,12.25698825130547" fill="none" id="id42" stroke="none" /><text fill="#e1ed5e" style="font-size:6.75px; font-family:Arial;" text-anchor="middle"><textPath startOffset="21.466115282336833" xlink:href="#id42">June</textPath></text><path d="M 110.8373102113329 117.98757091392108 l 2.55239877521765 4.236425189879842 a25.94591123021643,25.94591123021643 0 0,0 -0.3845333900137557,0.227189104769135 l -2.479097514175512 -4.279732866942727" fill="#ff2c04" stroke="none" /><path d="M 110.5260780823613 118.17145234162733 l 1.4921428038096953 2.575926345422619 a23.97689211830113,23.97689211830113 0 0,0 -0.358912647751683,0.20379996843811793 l -1.4475813891368132 -2.6012294796553657" fill="#ff1001" stroke="none" /><path d="M 107.93186726928326 119.44442032107085 l 0.7225877182291474 1.771373478033585 a22.91308572970905,22.91308572970905 0 0,0 -0.3664772656883402,0.14582886724618505 l -0.6919893764989409 -1.783549189685839" fill="#ff0000" stroke="none" /><path d="M 105.18746579009965 120.34920634021253 l 1.19491278829657 4.687361396004208 a25.83726921189892,25.83726921189892 0 0,0 -0.4319089756210704,0.10615271791449019 l -1.1140505279322883 -4.707235372232728" fill="#ff2b04" stroke="none" /><path d="M 103.41894727170886 120.7198165907248 l 2.8498136916701076 17.270701276310636 a38.50424407544605,38.50424407544605 0 0,0 -0.6548730991720743,0.1022777099451693 l -2.5521047288895162 -17.317197293602913" fill="#ffd714" stroke="none" /><line stroke="#e1ed5e" stroke-width="0.3" x1="102.19456741930631" x2="102.32365962044197" y1="184.97166512339345" y2="189.96999836594603" /><path d="M 102.22038585953345 185.97133177190398 a86.0,86.0 0 0,1 -42.740103519485714,-10.115201625700543" fill="none" id="id43" stroke="none" /><text fill="#e1ed5e" style="font-size:6.75px; font-family:Arial;" text-anchor="middle"><textPath startOffset="22.20632615414155" xlink:href="#id43">July</textPath></text><path d="M 100.54218724476979 120.99299961872073 l 0.5016275752671818 19.42256590856344 a40.42904260885644,40.42904260885644 0 0,0 -0.6958421760898863,0.011979554105496735 l -0.16722570928462754 -19.428322939948096" fill="#ffef16" stroke="none" /><path d="M 98.01472825383883 120.90594882070398 l -1.6693326534947523 17.578945092113326 a38.658028827124475,38.658028827124475 0 0,0 -0.6619127164626318,-0.06860995945915886 l 1.9716779665629776 -17.547605764198405" fill="#ffd914" stroke="none" /><path d="M 93.42475214034765 119.94407469862007 l -1.1559939109905215 3.5063665133323054 a24.692008673888147,24.692008673888147 0 0,0 -0.402515329697546,-0.13655505404147653 l 1.2161789736252933 -3.485948472392706" fill="#ff1a02" stroke="none" /><path d="M 93.08242187328487 119.8279376855182 l -2.0250624488468922 5.8044609413158845 a27.147572263991,27.147572263991 0 0,0 -0.4398946579917669,-0.15773057365357057 l 2.124676667468386 -5.768742826622356" fill="#ff3e05" stroke="none" /><line stroke="#e1ed5e" stroke-width="0.3" x1="58.666819895761336" x2="56.23545636021788" y1="174.27360380694188" y2="178.64263932499728" /><path d="M 58.180547188652646 175.14741091055294 a86.0,86.0 0 0,1 -31.652253787137756,-30.449443065178592" fill="none" id="id44" stroke="none" /><text fill="#e1ed5e" style="font-size:6.75px; font-family:Arial;" text-anchor="middle"><textPath startOffset="22.20632615414155" xlink:href="#id44">August</textPath></text><path d="M 88.8546689885994 117.79835938074946 l -3.7683598936340728 6.0178224939479374 a28.100332658165783,28.100332658165783 0 0,0 -0.407746796641822,-0.2602432974887848 l 3.871388492322818 -5.952064767635348" fill="#ff4b07" stroke="none" /><path d="M 88.54995079064634 117.60387380957326 l -4.094069770164322 6.294426013705279 a28.508741980184368,28.508741980184368 0 0,0 -0.4090669174154168,-0.2711072471257059 l 4.2018113863197 -6.223020745488254" fill="#ff5107" stroke="none" /><line stroke="#e1ed5e" stroke-width="0.3" x1="26.63291911575756" x2="22.317208475507996" y1="142.92168965132927" y2="145.44649492493687" /><path d="M 25.769776987707644 143.4266507060508 a86.0,86.0 0 0,1 -11.730757126820373,-40.83630448921669" fill="none" id="id45" stroke="none" /><text fill="#e1ed5e" style="font-size:6.75px; font-family:Arial;" text-anchor="middle"><textPath startOffset="21.46611528233685" xlink:href="#id45">September</textPath></text><path d="M 80.32549172779594 107.34259656027581 l -26.180806175532382 9.7707701107478 a48.944633841900256,48.944633841900256 0 0,0 -0.2877845158789208,-0.7918593891673602 l 26.345114952416527 -9.318662924574324" fill="#a9ff21" stroke="none" /><path d="M 79.10278846688536 102.07522291339032 l -38.679417754183056 3.8411064496753515 a59.86967270971482,59.86967270971482 0 0,0 -0.09301296394827671,-1.0263903065239681 l 38.73980531440841 -3.174734754602817" fill="#35ff2f" stroke="none" /><path d="M 79.07016306316243 101.71520430193888 l -31.261055683171634 2.561849734077696 a52.36585207652347,52.36585207652347 0 0,0 -0.06588981049219576,-0.8990141144677904 l 31.300522052328162 -2.023362483113145" fill="#83ff25" stroke="none" /><line stroke="#e1ed5e" stroke-width="0.3" x1="15.007084014347285" x2="10.007500721073583" y1="101.09737516637583" y2="101.16192664675087" /><path d="M 14.007167355692545 101.11028546245083 a86.0,86.0 0 0,1 10.666146001902534,-42.60595125391555" fill="none" id="id46" stroke="none" /><text fill="#e1ed5e" style="font-size:6.75px; font-family:Arial;" text-anchor="middle"><textPath startOffset="22.20632615414155" xlink:href="#id46">October</textPath></text><path d="M 79.12142395522702 97.74499172005258 l -28.57531186899976 -3.086300748120535 a49.741497885782636,49.741497885782636 0 0,0 0.09926898178408947,-0.8504760133805193 l 28.51795253421208 3.577720499825916" fill="#a0ff22" stroke="none" /><path d="M 79.16333360222342 97.38593545837743 l -30.7185832888051 -3.8538006901484696 a51.95937885408305,51.95937885408305 0 0,0 0.11897213437019508,-0.8864805905300644 l 30.64769515537707 4.381999622743193" fill="#88ff25" stroke="none" /><path d="M 79.26566170972629 96.67025291283419 l -23.214042597323388 -3.7279651579737108 a44.51147587731172,44.51147587731172 0 0,0 0.1279983413913501,-0.7554534564624331 l 23.146432394411814 4.127004402751972" fill="#ddff1b" stroke="none" /><path d="M 79.32604984820605 96.31383870115002 l -28.519418504105072 -5.08500678310942 a49.96919960572883,49.96919960572883 0 0,0 0.15826976850374674,-0.8454834319792393 l 28.427663011691465 5.575168292551232" fill="#9eff22" stroke="none" /><path d="M 79.3925641242962 95.95851677861259 l -6.942436866968287 -1.3615348499748985 a28.074687752794226,28.074687752794226 0 0,0 0.09708588531307598,-0.4734252561369341 l 6.917971685740217 1.480835762275235" fill="#ff4b07" stroke="none" /><path d="M 80.02781315780177 93.51064311812611 l -14.576603302316176 -4.736225517096148 a36.32674773009224,36.32674773009224 0 0,0 0.19834872396202383,-0.593037438344338 l 14.49291728458238 4.986436058362808" fill="#ffbb11" stroke="none" /><path d="M 80.14247586403 93.16781622104843 l -12.366513865341231 -4.254825266958532 a34.078004558571834,34.078004558571834 0 0,0 0.19561897436595718,-0.5530411828669547 l 12.291441810165464 4.467064076252098" fill="#ff9d0e" stroke="none" /><path d="M 80.95270993114464 91.15688171328213 l -16.661830060475577 -7.735616644957811 a39.369984916757986,39.369984916757986 0 0,0 0.2906663604722456,-0.6122174843183414 l 16.52620550616158 8.021276544916685" fill="#ffe215" stroke="none" /><line stroke="#e1ed5e" stroke-width="0.3" x1="26.266209847984243" x2="21.928928074336255" y1="57.711370442889674" y2="55.22380399835377" /><path d="M 25.398753493254645 57.213857153982495 a86.0,86.0 0 0,1 29.58750427330803,-30.492523968695096" fill="none" id="id47" stroke="none" /><text fill="#e1ed5e" style="font-size:6.75px; font-family:Arial;" text-anchor="middle"><textPath startOffset="21.46611528233685" xlink:href="#id47">November</textPath></text><path d="M 83.17141714833178 87.43820079747576 l -9.940311802498428 -7.420006899813837 a33.40428559507457,33.40428559507457 0 0,0 0.34792004567942997,-0.4578219973847896 l 9.811115816594889 7.590013673079652" fill="#ff940d" stroke="none" /><path d="M 83.84228863543731 86.58626213691792 l -39.79082928917132 -33.033375915490524 a72.71570380352648,72.71570380352648 0 0,0 0.8078000919131753,-0.9561805155601855 l 39.21631858377102 33.71341538067983" fill="#3fffbc" stroke="none" /><path d="M 86.65592168130627 83.78471172551755 l -9.72211615038768 -11.813998108486079 a36.300003063690596,36.300003063690596 0 0,0 0.48589559491912604,-0.39289377931762465 l 9.517317156904054 11.979597985067837" fill="#ffbb11" stroke="none" /><path d="M 86.93701828274178 83.55741782278169 l -9.061819687020591 -11.406256098645457 a35.56774705395315,35.56774705395315 0 0,0 0.48264999984289975,-0.3767159805448223 l 8.864137132018266 11.560550468413503" fill="#ffb110" stroke="none" /><path d="M 87.51073957382395 83.11751280151077 l -8.975632460938797 -12.132904187228913 a36.09202909122346,36.09202909122346 0 0,0 0.5026325214297078,-0.3651839027772497 l 8.765454623155309 12.285607324822832" fill="#ffb811" stroke="none" /><path d="M 87.80319425747018 82.90503203632743 l -16.845108520093024 -23.610000566906535 a50.003272364046055,50.003272364046055 0 0,0 0.7049719936148081,-0.4938779333193341 l 16.436205386894557 23.89646334298981" fill="#9dff22" stroke="none" /><path d="M 88.70189139769569 82.29822771554957 l -16.668251456357236 -26.11566254551813 a51.98158221917876,51.98158221917876 0 0,0 0.7583886295878081,-0.47490289027318094 l 16.216243674397184 26.39870977711424" fill="#87ff25" stroke="none" /><path d="M 89.00827224532344 82.1063720568725 l -16.040571602529724 -26.112730105478242 a51.64595586529212,51.64595586529212 0 0,0 0.7615022410639779,-0.4587965797343217 l 15.588707295248097 26.384973294671184" fill="#8bff24" stroke="none" /><line stroke="#e1ed5e" stroke-width="0.3" x1="56.762969772571076" x2="54.21961505331055" y1="26.818313649435495" y2="22.513508569990535" /><path d="M 56.25429882871897 25.957352633546506 a86.0,86.0 0 0,1 42.265352541879196,-11.944610805530505" fill="none" id="id48" stroke="none" /><text fill="#e1ed5e" style="font-size:6.75px; font-family:Arial;" text-anchor="middle"><textPath startOffset="22.20632615414155" xlink:href="#id48">December</textPath></text><path d="M 89.63071344664047 81.73862282372117 l -6.7128074404959115 -11.821942421189105 a34.59485587798149,34.59485587798149 0 0,0 0.520365791137081,-0.2895829993796994 l 6.508317560286785 11.93574081812899" fill="#ffa40f" stroke="none" /><path d="M 95.692805502759 79.44645832069477 l -2.687286386713872 -12.823487025936032 a34.10203524757003,34.10203524757003 0 0,0 0.5755669903464056,-0.115453323610369 l 2.46615298690033 12.867844305623612" fill="#ff9e0e" stroke="none" /><path d="M 96.75951476605007 79.25152402106235 l -9.72145570184976 -62.24542793681294 a84.0,84.0 0 0,0 1.430524078285405,-0.2108220633561242 l 8.648562643135705 62.403544484330034" fill="#4dd2ff" stroke="none" /><path d="M 98.91598698831166 79.02799685794201 l -0.9589097399768566 -18.55167591431689 a39.57644172384119,39.57644172384119 0 0,0 0.6806378452369004,-0.029309697375644723 l 0.6394310623506321 18.565433338216728" fill="#ffe515" stroke="none" /></svg>