<?xml version="1.0" encoding="utf-8" ?>
<svg baseProfile="full" height="200mm" version="1.1" viewBox="0,0,200,200" width="200mm" xmlns="http://www.w3.org/2000/svg" xmlns:ev="http://www.w3.org/2001/xml-events" xmlns:xlink="http://www.w3.org/1999/xlink"><defs /><rect fill="#1a1a1a" height="200" width="200" x="0" y="0" /><rect fill="#1a1a1a" height="200" width="180" x="10" y="0" /><text alignment-baseline="middle" fill="#e1ed5e" style="dominant-baseline: central; font-size:9.0px; font-family:Arial;" text-anchor="middle" x="100.0" y="100.0">2019</text><line stroke="#e1ed5e" stroke-width="0.3" x1="100.0" x2="100.0" y1="15.0" y2="10.0" /><path d="M 100.0 14.0 a86.0,86.0 0 0,1 42.46469731375804,11.215312516191453" fill="none" id="id49" stroke="none" /><text fill="#e1ed5e" style="font-size:6.75px; font-family:Arial;" text-anchor="middle"><textPath startOffset="22.20632615414155" xlink:href="#id49">January</textPath></text><path d="M 104.307194497241 79.44645832069477 l 1.8045592990088832 -8.611193385558778 a29.798243335298853,29.798243335298853 0 0,0 0.5011174495859254,0.10952486504475037 l -1.9525194727483368 8.578855022418157" fill="#ff700a" stroke="none" /><path d="M 107.76421540070413 80.48803036053334 l 2.9277056016909113 -7.357511334411053 a28.918613080973174,28.918613080973174 0 0,0 0.4609298222539991,0.18802484775600137 l -3.053919293533298 7.3060256004714725" fill="#ff6409" stroke="none" /><path d="M 110.05341064243156 81.56283822128135 l 3.266995507204019 -5.991411953515811 a27.824241850991463,27.824241850991463 0 0,0 0.4185241781219968,0.232908251998378 l -3.369643774398051 5.934288303957253" fill="#ff5507" stroke="none" /><line stroke="#e1ed5e" stroke-width="0.3" x1="143.23703022742887" x2="145.7803849466894" y1="26.81831364943548" y2="22.513508569990506" /><path d="M 143.74570117128098 25.957352633546492 a86.0,86.0 0 0,1 28.547481713284135,27.462654790039103" fill="none" id="id50" stroke="none" /><text fill="#e1ed5e" style="font-size:6.75px; font-family:Arial;" text-anchor="middle"><textPath startOffset="19.985693538727396" xlink:href="#id50">February</textPath></text><path d="M 115.19652480421416 85.50635884689758 l 4.914054170933119 -4.686764814851619 a27.790706356823,27.790706356823 0 0,0 0.3271795598538014,0.34901234251693714 l -4.994001052757383 4.601483055456628" fill="#ff5507" stroke="none" /><path d="M 116.38621287248628 86.86637796730983 l 5.715678883883117 -4.581141884662899 a28.325015090160573,28.325015090160573 0 0,0 0.30165590676327636,0.38307236795240796 l -5.793688871240358 4.4820771227574525" fill="#ff5c08" stroke="none" /><path d="M 117.65298651832404 88.62581576622439 l 6.396161913898424 -4.12117937790429 a28.60887683522794,28.60887683522794 0 0,0 0.26316407176020845,0.4162623625361168 l -6.466153581904588 4.010469367653967" fill="#ff6008" stroke="none" /><line stroke="#e1ed5e" stroke-width="0.3" x1="172.23445277983987" x2="176.4835382374775" y1="55.19839476539836" y2="52.563006222186495" /><path d="M 173.08426987136738 54.67131705675599 a86.0,86.0 0 0,1 12.851231095245387,41.99856678651699" fill="none" id="id51" stroke="none" /><text fill="#e1ed5e" style="font-size:6.75px; font-family:Arial;" text-anchor="middle"><textPath startOffset="22.20632615414155" xlink:href="#id51">March</textPath></text><path d="M 118.03404312379186 89.2402003453031 l 7.290751058721899 -4.349940841642091 a29.48981956969878,29.48981956969878 0 0,0 0.25633720305067276,0.4381633729388101 l -7.364547936242899 4.223798056349386" fill="#ff6c0a" stroke="none" /><path d="M 118.21658344932153 89.55222093294921 l 8.120530854274012 -4.657377850717886 a30.361313465511866,30.361313465511866 0 0,0 0.25610831813050416,0.45558812062007514 l -8.19949681369695 4.516906220163016" fill="#ff780b" stroke="none" /><path d="M 118.3937258080291 89.86733742301442 l 13.795169613954148 -7.59942821532467 a36.74985758277314,36.74985758277314 0 0,0 0.3004596619922397,0.5567061217573323 l -13.923937375164853 7.360841110234879" fill="#ffcb12" stroke="none" /><path d="M 118.73160827565052 90.50648371742162 l 5.402576390889035 -2.738122972678781 a27.05682665039234,27.05682665039234 0 0,0 0.20697182298290034,0.4172425655416969 l -5.448908226825344 2.644720818638134" fill="#ff4b06" stroke="none" /><path d="M 118.89224826269711 90.83032412892265 l 3.097569703552718 -1.5034584436268972 a24.443156307820004,24.443156307820004 0 0,0 0.18046243343679447,0.38009990847630426 l -3.1229903308312683 1.4499161195100525" fill="#ff2603" stroke="none" /><path d="M 119.04729006885535 91.15688171328212 l 14.079093630683552 -6.53652513800316 a36.522468822365255,36.522468822365255 0 0,0 0.2598272486114174,0.5724949009083137 l -14.189523196258316 6.293208228252784" fill="#ffc812" stroke="none" /><path d="M 119.7369772167798 92.82701384747503 l 15.067219560037502 -5.4758616820674275 a37.031411866442426,37.031411866442426 0 0,0 0.21257250541727118,0.6009710981360576 l -15.159245146264583 5.215692957504755" fill="#ffcf13" stroke="none" /><path d="M 119.85752413597 93.16781622104841 l 5.479816575422122 -1.8853868015908228 a26.795090430000545,26.795090430000545 0 0,0 0.1463046467778099,0.43743227185871836 l -5.511458515971702 1.7907814268097904" fill="#ff4706" stroke="none" /><path d="M 119.97218684219823 93.5106431181261 l 15.368778579671151 -4.993618867577548 a37.159690109206466,37.159690109206466 0 0,0 0.19242440591662052,0.6100379514664175 l -15.452458469355976 4.728330749684711" fill="#ffd013" stroke="none" /><path d="M 120.18372546131832 94.20196356495316 l 13.482471804286892 -3.8730145683740056 a35.02773281040911,35.02773281040911 0 0,0 0.16148323491020328,0.5809411145107907 l -13.547141809763458 3.640362150444263" fill="#ffb510" stroke="none" /><path d="M 120.53481517161879 95.60439243477599 l 9.21590470882863 -1.9727229156899855 a30.42467693368309,30.42467693368309 0 0,0 0.10521245049918186,0.5130532740752717 l -9.248496455242808 1.813793985451302" fill="#ff790b" stroke="none" /><path d="M 120.6074358757038 95.95851677861258 l 15.657207631081297 -3.070655772822254 a36.9554717159336,36.9554717159336 0 0,0 0.1170507832740473,0.6252899646849243 l -15.707744138265204 2.8006877306747673" fill="#ffce13" stroke="none" /><path d="M 120.94382443527127 98.46500227214037 l 11.305723416799054 -0.8286098754423227 a32.33604764910765,32.33604764910765 0 0,0 0.03590750097286903,0.5554731470141683 l -11.31831150877634 0.6338776641751193" fill="#ff920d" stroke="none" /><line stroke="#e1ed5e" stroke-width="0.3" x1="184.98032266829074" x2="189.97916517819016" y1="98.17113171792111" y2="98.06355123074" /><path d="M 185.9800911702706 98.14961562048488 a86.0,86.0 0 0,1 -9.607161424134198,41.387399972396054" fill="none" id="id52" stroke="none" /><text fill="#e1ed5e" style="font-size:6.75px; font-family:Arial;" text-anchor="middle"><textPath startOffset="21.466115282336823" xlink:href="#id52">April</textPath></text><path d="M 120.99513854157772 99.54816195383933 l 16.067393171486717 -0.34578764617926905 a37.07111360246664,37.07111360246664 0 0,0 0.008238601110527143,0.6380887352672986 l -16.070964779714963 0.06916265285150769" fill="#ffcf13" stroke="none" /><path d="M 120.99980553446 99.90962569577887 l 3.2416122359004236 -0.013950531584374308 a24.241642254362876,24.241642254362876 0 0,0 -0.0017958470743814575,0.4172916146537734 l -3.241372091536539 -0.041850561273083786" fill="#ff2303" stroke="none" /><path d="M 120.89721153311464 102.0752229133903 l 15.0337675315412 1.4929465018143224 a36.10771509691992,36.10771509691992 0 0,0 -0.06674373324372164,0.6179640768651935 l -15.005841496796426 -1.7515069005643074" fill="#ffc312" stroke="none" /><path d="M 120.8583938346157 102.4346265915055 l 2.8374675502284754 0.33119395506166577 a23.85673091740699,23.85673091740699 0 0,0 -0.05111985169463671,0.4074755152769941 l -2.8313461892869904 -0.3799872246260548" fill="#ff1e03" stroke="none" /><path d="M 120.76222939487914 103.15116336523771 l 3.764139068350839 0.5712978557482212 a24.80724627071426,24.80724627071426 0 0,0 -0.06770989692213389,0.42162959276827155 l -3.7537474170674163 -0.6360066782096977" fill="#ff2b04" stroke="none" /><path d="M 120.64145759157962 103.86396538481128 l 13.145600708081535 2.4607829109557855 a34.37393997710345,34.37393997710345 0 0,0 -0.11387606229036121,0.5806515882603737 l -13.101294712815509 -2.686698226284104" fill="#ffad10" stroke="none" /><path d="M 120.5718875245553 104.21870165774334 l 2.6266598009433104 0.5386522769648902 a23.681322059240742,23.681322059240742 0 0,0 -0.08532714275659532,0.39862000409031584 l -2.6169986194622723 -0.583786100471375" fill="#ff1b02" stroke="none" /><path d="M 120.23288151984713 105.62410040840565 l 10.276124914227513 2.85643734285907 a31.665738490441587,31.665738490441587 0 0,0 -0.15049875522787248,0.5239059105300358 l -10.22543352211354 -3.0329007288936882" fill="#ff890c" stroke="none" /><path d="M 120.13307415673323 105.97154293290107 l 15.21036408991172 4.511449244207349 a36.86531909640443,36.86531909640443 0 0,0 -0.18568398968657124,0.6068260218994562 l -15.130453327719014 -4.772602238658863" fill="#ffcd13" stroke="none" /><path d="M 119.26925614724726 108.34839909993367 l 7.289988076292511 3.1583850165042193 a28.94476696102317,28.94476696102317 0 0,0 -0.20200541183398318,0.45546887581436185 l -7.234541579727255 -3.2834022288112688" fill="#ff6509" stroke="none" /><path d="M 119.12269723197855 108.67885076344098 l 21.266409122740015 9.65177604453679 a44.35416317896349,44.35416317896349 0 0,0 -0.3215156897460172,0.6925161923343961 l -21.09711881615417 -10.016412304150016" fill="#d6ff1c" stroke="none" /><line stroke="#e1ed5e" stroke-width="0.3" x1="174.80103733775053" x2="179.2010983576182" y1="140.37084112569926" y2="142.7455964860345" /><path d="M 175.68104954172406 140.8457921977663 a86.0,86.0 0 0,1 -30.038265399797805,32.042727171017184" fill="none" id="id53" stroke="none" /><text fill="#e1ed5e" style="font-size:6.75px; font-family:Arial;" text-anchor="middle"><textPath startOffset="22.206326154141568" xlink:href="#id53">May</textPath></text><path d="M 117.14729908036423 112.12312394758627 l 4.619443014850809 3.2659417658363017 a26.65735179967517,26.65735179967517 0 0,0 -0.2681224467544756,0.3723986278900716 l -4.562540775720731 -3.3449739991775043" fill="#ff4506" stroke="none" /><path d="M 116.71984013943494 112.70617746262583 l 1.5542624962201446 1.1811557368840007 a22.952142613112695,22.952142613112695 0 0,0 -0.2417551179171046,0.3125010788257082 l -1.5337005610849717 -1.2077348098229614" fill="#ff1101" stroke="none" /><path d="M 115.07121518719521 114.62390073753431 l 4.5137951983903335 4.379825522423834 a27.28945297302451,27.28945297302451 0 0,0 -0.33001963902884096,0.33430815197038893 l -4.437734934305957 -4.456874168374888" fill="#ff4e07" stroke="none" /><path d="M 113.48314897796784 116.09983520530334 l 2.836285309575929 3.3867256198097424 a25.41751341607379,25.41751341607379 0 0,0 -0.3378470120258222,0.27802509038977635 l -2.777568169005416 -3.435045829056697" fill="#ff3404" stroke="none" /><path d="M 113.20401910651253 116.32954008644616 l 4.08503597765976 5.052004106754776 a27.496942698950157,27.496942698950157 0 0,0 -0.370609695434199,0.29443475626372617 l -3.9974687895082095 -5.121572777023628" fill="#ff5107" stroke="none" /><path d="M 112.63410532772338 116.77436683061366 l 3.5956752967299277 4.773996643733224 a26.976614827298974,26.976614827298974 0 0,0 -0.3733242721924994,0.2761763716451673 l -3.5129660541188636 -4.835182964118161" fill="#ff4a06" stroke="none" /><path d="M 111.7513745106137 117.40417183066458 l 2.1131969293340918 3.129714097439872 a24.77633573638003,24.77633573638003 0 0,0 -0.3555112776135479,0.2356134893648085 l -2.05901095298058 -3.165625607895999" fill="#ff2b04" stroke="none" /><line stroke="#e1ed5e" stroke-width="0.3" x1="143.8653032363475" x2="146.44561519142675" y1="172.8068346515853" y2="177.08958963109032" /><path d="M 144.38136562736335 173.6633856474863 a86.0,86.0 0 0,1 -40.68145358897372,12.25698825130547" fill="none" id="id54" stroke="none" /><text fill="#e1ed5e" style="font-size:6.75px; font-family:Arial;" text-anchor="middle"><textPath startOffset="21.466115282336833" xlink:href="#id54">June</textPath></text><path d="M 109.89434966115114 118.52300852407294 l 4.141818661846798 7.753813540649304 a29.790693160995833,29.790693160995833 0 0,0 -0.4543919066432702,0.23771636966798684 l -4.007735852677032 -7.823959329262008" fill="#ff700a" stroke="none" /><path d="M 107.2578585660854 119.70592522655815 l 1.0986726517361936 2.983023287991009 a24.178916408521893,24.178916408521893 0 0,0 -0.3917910618566069,0.14048233552347678 l -1.047162029249852 -3.001493164554446" fill="#ff2203" stroke="none" /><path d="M 105.53697534728816 120.25689768951611 l 3.5125142408363814 12.850453026567896 a34.321857951506104,34.321857951506104 0 0,0 -0.5712293987865517,0.15086687604274218 l -3.290794399238332 -12.909011251914222" fill="#ffac0f" stroke="none" /><path d="M 103.41894727170886 120.7198165907248 l 7.070606346626942 42.849934510426195 a64.42937210755844,64.42937210755844 0 0,0 -1.095802907001981,0.17114187774870385 l -6.331967576016444 -42.965294695522005" fill="#35ff63" stroke="none" /><path d="M 103.06178313531738 120.77559828337769 l 0.3231598921513094 2.1927876024894637 a23.216472374185326,23.216472374185326 0 0,0 -0.3958645224141224,0.054863215680854074 l -0.2853667785503566 -2.19802538366292" fill="#ff1402" stroke="none" /><path d="M 101.62511606390274 120.93702456842531 l 0.26651603667087753 3.433633407239205 a24.44396126184832,24.44396126184832 0 0,0 -0.4197810811952263,0.02895056110295061 l -0.20737219469672089 -3.437712312858441" fill="#ff2603" stroke="none" /><path d="M 100.90346689309514 120.98055641714683 l 0.5727319350430214 13.30013835250339 a34.31246416202311,34.31246416202311 0 0,0 -0.5903045231253241,0.02033128133645174 l -0.343707060243045 -13.308026432265935" fill="#ffac0f" stroke="none" /><line stroke="#e1ed5e" stroke-width="0.3" x1="102.19456741930631" x2="102.32365962044197" y1="184.97166512339345" y2="189.96999836594603" /><path d="M 102.22038585953345 185.97133177190398 a86.0,86.0 0 0,1 -42.740103519485714,-10.115201625700543" fill="none" id="id55" stroke="none" /><text fill="#e1ed5e" style="font-size:6.75px; font-family:Arial;" text-anchor="middle"><textPath startOffset="22.20632615414155" xlink:href="#id55">July</textPath></text><path d="M 100.54218724476979 120.99299961872073 l 0.16512422600949242 6.393460648692758 a27.395592629021806,27.395592629021806 0 0,0 -0.47151769025751344,0.00811760464690354 l -0.05504684585931105 -6.395355730618821" fill="#ff4f07" stroke="none" /><path d="M 99.81925306533755 120.99922214144158 l -0.06492984663682634 7.54356512702577 a28.543844557694943,28.543844557694943 0 0,0 -0.49128076326613057,-0.008457843871447221 l 0.19477029979562488 -7.541329805875163" fill="#ff5f08" stroke="none" /><path d="M 99.45781275523022 120.99299961872073 l -0.21157428054814204 8.191964738610205 a29.19469645287868,29.19469645287868 0 0,0 -0.5022595079743598,-0.017298832992960676 l 0.35255414019714487 -8.187109107191151" fill="#ff6809" stroke="none" /><path d="M 96.22490169976321 120.6578951692458 l -0.2421717650323641 1.3251996470332978 a22.347145600251164,22.347145600251164 0 0,0 -0.3778076385700391,-0.07240773312170443 l 0.2649470181740982 -1.3208347155631255" fill="#ff0801" stroke="none" /><path d="M 95.51606077576429 120.51570834832081 l -1.6211790550415353 7.417503897882909 a28.592600714090892,28.592600714090892 0 0,0 -0.4799197918177279,-0.10922818213301609 l 1.748618996252126 -7.388498982172207" fill="#ff6008" stroke="none" /><path d="M 95.16358092515715 120.4354850818985 l -1.714143912295368 7.2428302440018255 a28.442907986498746,28.442907986498746 0 0,0 -0.47546616290530896,-0.11685801480785428 l 1.8385633599438878 -7.212250970879942" fill="#ff5e08" stroke="none" /><path d="M 94.81253420990036 120.34920634021253 l -2.3312212652905995 9.14483188354261 a30.437295309886228,30.437295309886228 0 0,0 -0.5065774097987747,-0.1337916981382867 l 2.4882891179008637 -9.103348836100743" fill="#ff790b" stroke="none" /><path d="M 94.11515582081647 120.15858648285463 l -1.882264528541301 6.447714013639991 a27.716839715006927,27.716839715006927 0 0,0 -0.4568329454663039,-0.13764001901120304 l 1.9929724484478508 -6.414358625523063" fill="#ff5407" stroke="none" /><path d="M 93.08242187328487 119.8279376855182 l -4.391580210432239 12.587639367183284 a34.33171562788985,34.33171562788985 0 0,0 -0.5563052989616019,-0.19947128781313095 l 4.607605070023568 -12.510180538330195" fill="#ffac10" stroke="none" /><path d="M 92.7421414339146 119.70592522655815 l -0.28038996226240565 0.7612911687807354 a21.81128464462299,21.81128464462299 0 0,0 -0.35119261246766675,-0.13279099567797 l 0.29345279549035536 -0.7563519229961323" fill="#ff0000" stroke="none" /><path d="M 92.40401165467489 119.57807347666478 l -6.687890305541423 17.237520893031313 a39.48945654357223,39.48945654357223 0 0,0 -0.6316036272165165,-0.2513281180827587 l 6.983615008799797 -17.11984593054249" fill="#ffed16" stroke="none" /><path d="M 92.06813273071674 119.44442032107085 l -3.6135126943910643 8.858274764299502 a30.566948614493064,30.566948614493064 0 0,0 -0.4854737980479971,-0.20292808695715434 l 3.7654579519365234 -8.794761634322374" fill="#ff7b0b" stroke="none" /><path d="M 91.7346041902142 119.30500536409082 l -0.5696402055230587 1.3304755726525141 a22.447292373079257,22.447292373079257 0 0,0 -0.3538968768875936,-0.15513799075699494 l 0.5924577570683957 -1.3204730286010669" fill="#ff0901" stroke="none" /><path d="M 91.40352486487194 119.15986991738527 l -8.459663489043761 18.854943386341535 a41.665788067480136,41.665788067480136 0 0,0 -0.651835469606628,-0.29922569358553547 l 8.782966954417809 -18.706530622421923" fill="#f6ff19" stroke="none" /><path d="M 91.07499286063937 119.00905698771935 l -5.719488410590883 12.18173604120064 a34.45760902450246,34.45760902450246 0 0,0 -0.534728489146947,-0.25670217018730934 l 5.928329567738072 -12.081479594513768" fill="#ffae10" stroke="none" /><path d="M 90.7491055286396 118.85261126421891 l -0.9428676540169637 1.9214917443733295 a23.140357431992683,23.140357431992683 0 0,0 -0.35608171804631555,-0.17854676556363105 l 0.9758032797460398 -1.9049771379003964" fill="#ff1302" stroke="none" /><path d="M 90.42595943632237 118.69057910512821 l -3.6115548357862033 7.0505290740946185 a28.92169732800643,28.92169732800643 0 0,0 -0.44113727469217157,-0.23078217268376522 l 3.7323830130048705 -6.987317482466136" fill="#ff6409" stroke="none" /><line stroke="#e1ed5e" stroke-width="0.3" x1="58.666819895761336" x2="56.23545636021788" y1="174.27360380694188" y2="178.64263932499728" /><path d="M 58.180547188652646 175.14741091055294 a86.0,86.0 0 0,1 -31.652253787137756,-30.449443065178592" fill="none" id="id56" stroke="none" /><text fill="#e1ed5e" style="font-size:6.75px; font-family:Arial;" text-anchor="middle"><textPath startOffset="22.20632615414155" xlink:href="#id56">August</textPath></text><path d="M 89.7882731507175 118.34994917583269 l -1.8410083445239802 3.308197531416792 a24.785958614602,24.785958614602 0 0,0 -0.37102365016857447,-0.2106769116881761 l 1.8976807616137619 -3.276017453933983" fill="#ff2b04" stroke="none" /><path d="M 89.4739219176387 118.17145234162733 l -1.9019354305918836 3.2833624036826357 a24.794446870896646,24.794446870896646 0 0,0 -0.3674680231572777,-0.21710658522891668 l 1.9581713247775434 -3.2501372461599694" fill="#ff2b04" stroke="none" /><path d="M 88.24862548938628 117.40417183066458 l -5.279255291372236 7.818750576453982 a30.43416117141748,30.43416117141748 0 0,0 -0.4316478751040023,-0.296891344471994 l 5.413060051099128 -7.726718442616887" fill="#ff790b" stroke="none" /><path d="M 87.65650970185807 116.9893568818739 l -3.892223095881977 5.357185499612294 a27.621845445596968,27.621845445596968 0 0,0 -0.38225349672695275,-0.2827819984881492 l 3.983861563027494 -5.289393552384379" fill="#ff5307" stroke="none" /><path d="M 86.79598089348748 116.32954008644616 l -0.9830361837063347 1.2157305013548618 a22.5634451670591,22.5634451670591 0 0,0 -0.2999110261461986,-0.24680635667961098 l 1.003817338397222 -1.1986290258180703" fill="#ff0b01" stroke="none" /><path d="M 86.51685102203217 116.09983520530335 l -3.963748288103169 4.732996300644784 a27.17353662606435,27.17353662606435 0 0,0 -0.35601800234895775,-0.3034062652474 l 4.044631767029183 -4.664065645174432" fill="#ff4c07" stroke="none" /><path d="M 85.97065885151581 115.62618273729859 l -0.8462533464134451 0.9425752280986978 a22.266725221561988,22.266725221561988 0 0,0 -0.2829999520729831,-0.25851374635456853 l 0.8623528479532828 -0.9278687151575533" fill="#ff0701" stroke="none" /><path d="M 85.70375840098266 115.38237550388516 l -0.6847036480308 0.7367229037045467 a22.0057731963368,22.0057731963368 0 0,0 -0.2752441931047967,-0.2602605644568976 l 0.6972836755264137 -0.7248277025017184" fill="#ff0300" stroke="none" /><path d="M 85.44109423537348 115.13401014063109 l -4.118136042262825 4.280810222395363 a26.94006570862215,26.94006570862215 0 0,0 -0.33142701232484595,-0.3243710876992534 l 4.191213006963466 -4.20928903177354" fill="#ff4906" stroke="none" /><path d="M 84.19399662182784 113.82643327865904 l -0.7586983132207146 0.6636776771074216 a22.008013486801968,22.008013486801968 0 0,0 -0.24696920131581937,-0.2872809761283009 l 0.7700100241073127 -0.6505196018175904" fill="#ff0300" stroke="none" /><path d="M 83.28015986056508 112.70617746262583 l -7.316138512474557 5.559870997893099 a30.1890178064321,30.1890178064321 0 0,0 -0.3108588081039238,-0.41644617327559724 l 7.410758587273566 -5.433111945108194" fill="#ff760a" stroke="none" /><path d="M 82.6465618267979 111.8261652097733 l -7.6552130191422645 5.216938163884253 a30.263839925983028,30.263839925983028 0 0,0 -0.2896637068318733,-0.4330079396258068 l 7.743879831384868 -5.084393310052625" fill="#ff770a" stroke="none" /><line stroke="#e1ed5e" stroke-width="0.3" x1="26.63291911575756" x2="22.317208475507996" y1="142.92168965132927" y2="145.44649492493687" /><path d="M 25.769776987707644 143.4266507060508 a86.0,86.0 0 0,1 -11.730757126820373,-40.83630448921669" fill="none" id="id57" stroke="none" /><text fill="#e1ed5e" style="font-size:6.75px; font-family:Arial;" text-anchor="middle"><textPath startOffset="21.46611528233685" xlink:href="#id57">September</textPath></text><path d="M 81.87401531095188 110.60418214915194 l -7.638038391697083 4.468455190559072 a29.849108557536905,29.849108557536905 0 0,0 -0.25563345670019083,-0.44571847916497864 l 7.713823844549651 -4.336316865535787" fill="#ff710a" stroke="none" /><path d="M 81.51974371655577 109.97397251340807 l -6.646494517496848 3.5871771804062824 a28.552729936568845,28.552729936568845 0 0,0 -0.22971010029121494,-0.43452494123944135 l 6.707257126012949 -3.472237224080715" fill="#ff5f08" stroke="none" /><path d="M 81.35079622478065 109.6543875284942 l -13.636957050567283 7.059629443834485 a36.35594235087093,36.35594235087093 0 0,0 -0.2829207838168157,-0.5582295471723009 l 13.756456504170366 -6.823845684959499" fill="#ffc612" stroke="none" /><path d="M 81.18737489456691 109.33194174019688 l -5.349883797271097 2.653792526729237 a26.971923594557097,26.971923594557097 0 0,0 -0.20273477629702197,-0.41769368722907063 l 5.3947718301828385 -2.5613098835348813" fill="#ff4906" stroke="none" /><path d="M 80.87730276802145 108.67885076344099 l -11.986898889673471 5.440263228450896 a34.163670042434596,34.163670042434596 0 0,0 -0.23842811538179445,-0.5375924570017697 l 12.078768089786545 -5.233122434956431" fill="#ffaa0f" stroke="none" /><path d="M 80.73074385275274 108.34839909993369 l -5.58238351464312 2.4185658830317105 a27.083787195088618,27.083787195088618 0 0,0 -0.18165356438212393,-0.4293753666038901 l 5.623188060217551 -2.3221159907616618" fill="#ff4b07" stroke="none" /><path d="M 80.32549172779594 107.34259656027581 l -9.283231014641812 3.464534877990049 a30.90865177468747,30.90865177468747 0 0,0 -0.1817366009148437,-0.5000610729533741 l 9.34149187656188 -3.304226008030558" fill="#ff7f0b" stroke="none" /><path d="M 80.0844068197444 106.66101706037122 l -2.8282098254662427 0.9459298413675662 a23.98220624398338,23.98220624398338 0 0,0 -0.1275713464371159,-0.3926242327447942 l 2.844073422919608 -0.8971067086449687" fill="#ff1f03" stroke="none" /><path d="M 79.97269907076064 106.31721596034903 l -14.721058507971264 4.643466740144497 a36.43604052087002,36.43604052087002 0 0,0 -0.1835217906185637,-0.5997598302412096 l 14.798807071095958 -4.389379937351239" fill="#ffc712" stroke="none" /><path d="M 79.86692584326677 105.97154293290107 l -5.932412659940452 1.7595751457892816 a27.187861073222404,27.187861073222404 0 0,0 -0.1292166058297745,-0.4498199565195579 l 5.961821902656331 -1.6571977137651277" fill="#ff4c07" stroke="none" /><path d="M 79.76711848015287 105.62410040840567 l -10.846032763058597 3.01485367926773 a32.25725407924751,32.25725407924751 0 0,0 -0.1441007170050637,-0.5362523747583637 l 10.896321556405436 -2.8277103713338274" fill="#ff910d" stroke="none" /><path d="M 79.67330655649465 105.27499134158121 l -21.53965180025527 5.589766828668551 a43.25313669744388,43.25313669744388 0 0,0 -0.1808160011087986,-0.7222700427872668 l 21.632679115659126 -5.218168946483892" fill="#e3ff1b" stroke="none" /><path d="M 79.58551787078972 104.9243191809786 l -15.114813916119715 3.645949361486442 a36.54832937860044,36.54832937860044 0 0,0 -0.14225903617097452,-0.6128482045596725 l 15.175333518221246 -3.385232499578195" fill="#ffc912" stroke="none" /><path d="M 79.35854240842038 103.8639653848113 l -1.3829674176545088 0.25888376372794464 a22.406989581132684,22.406989581132684 0 0,0 -0.06770491454245717,-0.37972511640196976 l 1.3872187745361548 -0.23503989659276117" fill="#ff0901" stroke="none" /><path d="M 79.0235259727143 100.99374915477108 l -6.142251858476342 0.29098587230686146 a27.149140644906268,27.149140644906268 0 0,0 -0.018096669711974326,-0.4669946345217732 l 6.146350661039518 -0.18521399077109146" fill="#ff4c07" stroke="none" /><path d="M 79.0095281055655 100.63252640178507 l -62.97141568330351 1.8975792053552267 a84.0,84.0 0 0,0 -0.03111174925997018,-1.4456407368394846 l 62.994749495248485 -0.8133486527256131" fill="#4dd2ff" stroke="none" /><line stroke="#e1ed5e" stroke-width="0.3" x1="15.007084014347285" x2="10.007500721073583" y1="101.09737516637583" y2="101.16192664675087" /><path d="M 14.007167355692545 101.11028546245083 a86.0,86.0 0 0,1 10.666146001902534,-42.60595125391555" fill="none" id="id58" stroke="none" /><text fill="#e1ed5e" style="font-size:6.75px; font-family:Arial;" text-anchor="middle"><textPath startOffset="22.20632615414155" xlink:href="#id58">October</textPath></text><path d="M 79.00486145842228 99.54816195383935 l -2.4856983038771805 -0.05349491086922369 a23.48627387135585,23.48627387135585 0 0,0 0.012177415524272494,-0.40410913692729594 l 2.484409193897263 0.09627419522151404" fill="#ff1802" stroke="none" /><path d="M 79.21141760316559 97.0276538004421 l -11.094456758744993 -1.5862825927003414 a32.20728616729164,32.20728616729164 0 0,0 0.08319311728045026,-0.5481386982681871 l 11.06550774802524 1.7770204033606205" fill="#ff910d" stroke="none" /><path d="M 79.32604984820605 96.31383870115002 l -8.227947543181235 -1.467041449744943 a29.357710894055373,29.357710894055373 0 0,0 0.09298604227531726,-0.49673515600827284 l 8.201475776996055 1.6084546832157887" fill="#ff6a09" stroke="none" /><path d="M 79.3925641242962 95.95851677861259 l -17.13531825467352 -3.3605394497936922 a38.461739806862525,38.461739806862525 0 0,0 0.133005648814697,-0.648582779615197 l 17.07493330994383 3.6549978855722913" fill="#ffe115" stroke="none" /><path d="M 79.46518482838121 95.60439243477599 l -6.069125045670262 -1.2991347495501062 a27.206611790459483,27.206611790459483 0 0,0 0.10196728850312883,-0.45709936058350364 l 6.045863370165095 1.403412279683569" fill="#ff4d07" stroke="none" /><path d="M 79.62865764111835 94.90015583598534 l -5.923838431436871 -1.4829976503712123 a27.106647508475906,27.106647508475906 0 0,0 0.11720871545086696,-0.45165299307631923 l 5.897433384115697 1.5847470689963956" fill="#ff4b07" stroke="none" /><path d="M 80.2630227832202 92.82701384747504 l -5.898769144433075 -2.1437826535052027 a27.276247404682636,27.276247404682636 0 0,0 0.16417107213553686,-0.43989685260140393 l 5.860993483795911 2.245002643135948" fill="#ff4e07" stroke="none" /><path d="M 80.38941819471856 92.48833698450439 l -1.8084822065264212 -0.6927234000414945 a22.93661395231154,22.93661395231154 0 0,0 0.144398490874723,-0.367478408979854 l 1.796290165770007 0.7237508139171118" fill="#ff1001" stroke="none" /><path d="M 80.95270993114464 91.15688171328213 l -12.171433969248 -5.650852689277298 a34.41923771991824,34.41923771991824 0 0,0 0.25411527536601136,-0.5352315773957513 l 12.072360500040237 5.859526682313581" fill="#ffad10" stroke="none" /><path d="M 81.10775173730289 90.83032412892265 l -1.0606236523698405 -0.5147918330415374 a22.178954266853726,22.178954266853726 0 0,0 0.16965842505401107,-0.3420210322114583 l 1.0516052143624166 0.5329724537519572" fill="#ff0500" stroke="none" /><path d="M 81.26839172434947 90.50648371742162 l -4.955558240295711 -2.511566126688017 a26.555674745851253,26.555674745851253 0 0,0 0.2101572685156507,-0.40595695105717067 l 4.9115915386199465 2.5964958000055236" fill="#ff4406" stroke="none" /><path d="M 81.43458229118936 90.18545643968196 l -11.50704107095394 -6.083157277288178 a34.016020769376674,34.016020769376674 0 0,0 0.2781083458532487,-0.5152925275283948 l 11.40062462588222 6.280330788149045" fill="#ffa80f" stroke="none" /><line stroke="#e1ed5e" stroke-width="0.3" x1="26.266209847984243" x2="21.928928074336255" y1="57.711370442889674" y2="55.22380399835377" /><path d="M 25.398753493254645 57.213857153982495 a86.0,86.0 0 0,1 29.58750427330803,-30.492523968695096" fill="none" id="id59" stroke="none" /><text fill="#e1ed5e" style="font-size:6.75px; font-family:Arial;" text-anchor="middle"><textPath startOffset="21.46611528233685" xlink:href="#id59">November</textPath></text><path d="M 82.15384107792192 88.93136811851018 l -14.091371363785148 -8.739819196507687 a37.58165210405008,37.58165210405008 0 0,0 0.34570181304701564,-0.5468172477704049 l 13.93884195449217 8.981084091992308" fill="#ffd614" stroke="none" /><path d="M 83.17141714833178 87.43820079747576 l -7.036916281957128 -5.252749451220494 a29.781205358979513,29.781205358979513 0 0,0 0.3101841019588345,-0.4081659188060886 l 6.945456239774184 5.3731001459076095" fill="#ff700a" stroke="none" /><path d="M 83.6137871275137 86.86637796730984 l -20.796746037550033 -16.668683855904625 a47.65238577010412,47.65238577010412 0 0,0 0.5185067621250593,-0.6356279814356535 l 20.506740783348583 17.02419600694836" fill="#b1ff20" stroke="none" /><path d="M 84.07557802195018 86.31012108654704 l -4.868518052628701 -4.185358986361712 a27.42025683859223,27.42025683859223 0 0,0 0.3107735347795347,-0.35526787289051487 l 4.795752654271324 4.26854241545517" fill="#ff5007" stroke="none" /><path d="M 84.31358615837235 86.03803664274999 l -3.284421750343895 -2.923356261732937 a25.396980562516195,25.396980562516195 0 0,0 0.29346375441167855,-0.32405000730930844 l 3.2336143553161714 2.9794590563118017" fill="#ff3304" stroke="none" /><path d="M 84.5562425177563 85.77008943001954 l -4.759520468248285 -4.385432152572563 a27.47186605643933,27.47186605643933 0 0,0 0.3234258578858298,-0.3450081549768022 l 4.6833272883919985 4.466709724427416" fill="#ff5007" stroke="none" /><path d="M 84.80347519578584 85.50635884689758 l -8.652055013616977 -8.251872202353157 a32.95623062685826,32.95623062685826 0 0,0 0.3950600467820002,-0.4071441049673631 l 8.508730703131858 8.399580502870643" fill="#ff9a0e" stroke="none" /><path d="M 85.57189188830299 84.74124197986013 l -3.690561533769522 -3.903033229739354 a26.371583828535943,26.371583828535943 0 0,0 0.33252321379235156,-0.309044087530985 l 3.6228304361823143 3.965981903344986" fill="#ff4106" stroke="none" /><path d="M 85.83668400450813 84.49514656593479 l -7.648646010107659 -8.373119359443372 a32.34067518251983,32.34067518251983 0 0,0 0.4142517275154994,-0.37191929112615835 l 7.503383294996189 8.503537659338809" fill="#ff920d" stroke="none" /><path d="M 87.22198572758235 83.33499621200491 l -8.045834337278741 -10.493325242073153 a34.22290909062235,34.22290909062235 0 0,0 0.47057126807115074,-0.3544245231456976 l 7.8640169154492 10.630266354724705" fill="#ffab0f" stroke="none" /><line stroke="#e1ed5e" stroke-width="0.3" x1="56.762969772571076" x2="54.21961505331055" y1="26.818313649435495" y2="22.513508569990535" /><path d="M 56.25429882871897 25.957352633546506 a86.0,86.0 0 0,1 42.265352541879196,-11.944610805530505" fill="none" id="id60" stroke="none" /><text fill="#e1ed5e" style="font-size:6.75px; font-family:Arial;" text-anchor="middle"><textPath startOffset="22.20632615414155" xlink:href="#id60">December</textPath></text><path d="M 89.3179101791058 81.91981866633112 l -3.0243121105438315 -5.1188589765729935 a26.945517720436463,26.945517720436463 0 0,0 0.40136409468410206,-0.23249598990075712 l 2.935751283394409 5.170159123863798" fill="#ff4906" stroke="none" /><path d="M 89.94658935756843 81.56283822128135 l -2.1124028959724024 -3.873980216275847 a25.41247874907169,25.41247874907169 0 0,0 0.38585212995884205,-0.2061088449185295 l 2.045405719485255 3.909767787696126" fill="#ff3404" stroke="none" /><path d="M 90.58718382345135 81.22770947309562 l -1.3184909776942206 -2.6295101514936325 a23.941554367178878,23.941554367178878 0 0,0 0.3699867764086459,-0.1815509043487938 l 1.2730329342751487 2.651816215977256" fill="#ff1f03" stroke="none" /><path d="M 91.23893434514133 80.91482961587045 l -4.346913620306956 -9.469348861989547 a31.419415813397258,31.419415813397258 0 0,0 0.4934611982183911,-0.22140165559191766 l 4.18327030362179 9.542770848097993" fill="#ff860c" stroke="none" /><path d="M 91.56875222667455 80.76684994638697 l -4.954774381213676 -11.302706517198425 a33.34102766315071,33.34102766315071 0 0,0 0.5276078583060774,-0.2258941501961375 l 4.759482765117291 11.386320195357348" fill="#ff9f0e" stroke="none" /><path d="M 92.57280143429618 80.3572730644239 l -1.9684536767897476 -5.205973385046797 a26.56569571244087,26.56569571244087 0 0,0 0.4291215958956103,-0.15804910527447405 l 1.8785497551215677 5.239085758127594" fill="#ff4406" stroke="none" /><path d="M 92.91201910852362 80.23233633223022 l -1.4480534835006749 -4.038475085225777 a25.2902377445857,25.2902377445857 0 0,0 0.4110482506545262,-0.14340666350939246 l 1.3783232287828633 4.0628026019073795" fill="#ff3204" stroke="none" /><path d="M 93.94186890950719 79.89281104454417 l -3.595109413955246 -11.93231761118194 a33.46214328566448,33.46214328566448 0 0,0 0.5529376693364815,-0.1614176682285597 l 3.389181526895343 11.992433608329199" fill="#ffa10e" stroke="none" /></svg>