<?xml version="1.0" encoding="utf-8" ?>
<svg baseProfile="full" height="200mm" version="1.1" viewBox="0,0,200,200" width="200mm" xmlns="http://www.w3.org/2000/svg" xmlns:ev="http://www.w3.org/2001/xml-events" xmlns:xlink="http://www.w3.org/1999/xlink"><defs /><rect fill="#1a1a1a" height="200" width="200" x="0" y="0" /><text alignment-baseline="middle" fill="#e1ed5e" style="dominant-baseline: central; font-size:9.0px; font-family:Arial;" text-anchor="middle" x="100.0" y="100.0">2024</text><line stroke="#e1ed5e" stroke-width="0.3" x1="100.0" x2="100.0" y1="15.0" y2="10.0" /><path d="M 100.0 14.0 a86.0,86.0 0 0,1 42.35913384403234,11.155469271406648" fill="none" id="id109" stroke="none" /><text fill="#e1ed5e" style="font-size:6.75px; font-family:Arial;" text-anchor="middle"><textPath startOffset="22.145653131862478" xlink:href="#id109">January</textPath></text><path d="M 100.0 79.0 l 0.0 -14.906559863125558 a35.90655986312556,35.90655986312556 0 0,0 0.6163838469675537,0.005290914000420227 l -0.2558909221186989 14.904363347319572" fill="#ffb110" stroke="none" /><path d="M 100.72087961077811 79.0123766808444 l 1.1452006286555065 -33.341266779814575 a54.36092856865108,54.36092856865108 0 0,0 0.932352671440294,0.04003923537828112 l -1.7173790606966368 33.31669497601046" fill="#70ff27" stroke="none" /><path d="M 101.08105385017728 79.02784411241856 l 0.8520807848152354 -16.530139590203984 a37.552086168682195,37.552086168682195 0 0,0 0.6434919189051777,0.038710875909938984 l -1.1357170558528753 16.51307673646935" fill="#ffc612" stroke="none" /><path d="M 101.44090949804482 79.04949213459386 l 0.9825565381014851 -14.286156422477239 a35.319905121126105,35.319905121126105 0 0,0 0.6045270953395112,0.04679422047583659 l -1.22765262821623 14.26718443500635" fill="#ffa90f" stroke="none" /><path d="M 101.80034050326958 79.07731436759882 l 0.43449632263844495 -5.049505885408218 a26.068165027024925,26.068165027024925 0 0,0 0.445517895711942,0.042191007927130604 l -0.5211137817353999 5.041303121975903" fill="#ff2803" stroke="none" /><path d="M 102.87502721639298 79.19773525538626 l 4.539811694902495 -32.84781591964825 a54.16004977252402,54.16004977252402 0 0,0 0.9198823825189377,0.13519103234070556 l -5.103019183029115 32.765043814008656" fill="#72ff27" stroke="none" /><path d="M 103.58742460773223 79.30868818359171 l 4.7008835344701305 -27.113447015637245 a48.51794532799316,48.51794532799316 0 0,0 0.8194109527289574,0.14932397160220715 l -5.165629220750142 27.028754870103672" fill="#b1ff20" stroke="none" /><path d="M 104.29559338865022 79.4440306129975 l 8.318302215156415 -39.806087358822396 a61.66594081735816,61.66594081735816 0 0,0 1.034336284305416,0.22542877901718958 l -9.000400916080965 39.65742712167149" fill="#31ff3c" stroke="none" /><path d="M 105.3480935250658 79.69241777938227 l 12.422042638439773 -47.168519220132936 a69.77680133763658,69.77680133763658 0 0,0 1.155698537548334,0.3149907755719198 l -13.2299225769228 46.948327950416875" fill="#3bff9b" stroke="none" /><path d="M 107.06938296918511 80.22567764915836 l 0.7932974039435198 -2.2189940273490687 a23.35653458801571,23.35653458801571 0 0,0 0.37638593735000836,0.1382141296833873 l -0.8312724929476528 2.205049048656959" fill="#ff0000" stroke="none" /><path d="M 109.06512990194946 81.05736502329252 l 2.6070072611992363 -5.4476425009533616 a27.039312517012092,27.039312517012092 0 0,0 0.4169716297921079,0.20396171884615016 l -2.7001391402534116 5.40208703200999" fill="#ff3605" stroke="none" /><line stroke="#e1ed5e" stroke-width="0.3" x1="143.13028292997686" x2="145.6673583964461" y1="26.7553504044142" y2="22.446841604673864" /><path d="M 143.63769802327073 25.89364864446614 a86.0,86.0 0 0,1 29.32050498858742,28.57503671076993" fill="none" id="id110" stroke="none" /><text fill="#e1ed5e" style="font-size:6.75px; font-family:Arial;" text-anchor="middle"><textPath startOffset="20.669276256404974" xlink:href="#id110">February</textPath></text><path d="M 110.96478420261332 82.08984904055464 l 2.4403206276987577 -3.9860803481309084 a25.673756659019325,25.673756659019325 0 0,0 0.3739026540500997,0.2333429098479901 l -2.50838741053857 3.943601641441373" fill="#ff2203" stroke="none" /><path d="M 111.27062007382361 82.28071324371311 l 7.732394537340975 -12.156608529295317 a35.407395885989814,35.407395885989814 0 0,0 0.51005933237505,0.3306142968834794 l -7.939939501973032 12.022080390707943" fill="#ffaa0f" stroke="none" /><path d="M 113.31354834802062 83.75963576809568 l 4.535890918629704 -5.533049395181377 a28.154644787494654,28.154644787494654 0 0,0 0.3711394423682669,0.3096177228552887 l -4.630204695159864 5.454369488414218" fill="#ff4606" stroke="none" /><path d="M 113.86319453409587 84.22622945171908 l 2.198316573085622 -2.5012807207640693 a24.33001516506591,24.33001516506591 0 0,0 0.31134885584623107,0.2784100667700154 l -2.2409304557552283 2.4631751241106667" fill="#ff0e01" stroke="none" /><path d="M 115.6541949942343 86.00192230759917 l 11.465487587364626 -10.252509700326348 a36.38087646304001,36.38087646304001 0 0,0 0.4122974324615648,0.4691187937454844 l -11.63979608378478 10.054178628769566" fill="#ffb711" stroke="none" /><path d="M 116.7966241395341 87.39550010848427 l 6.022447084532014 -4.5193565679054695 a28.529571878523935,28.529571878523935 0 0,0 0.2905913241406832,0.39424294087656075 l -6.099140428256523 4.415307317760034" fill="#ff4c07" stroke="none" /><path d="M 117.01052211995028 87.68569379921539 l 12.190437943620761 -8.824936971414248 a36.049461445736284,36.049461445736284 0 0,0 0.3585803905781241,0.5043882256007166 l -12.340133432728846 8.614371519104028" fill="#ffb310" stroke="none" /><path d="M 117.42321728460499 88.27688183743584 l 13.32077303681697 -8.962810586382716 a37.05537193296263,37.05537193296263 0 0,0 0.35057127665631393,0.5308095949078689 l -13.472668752394009 8.732821113135788" fill="#ffc011" stroke="none" /><line stroke="#e1ed5e" stroke-width="0.3" x1="172.87174338648825" x2="177.1583165268699" y1="56.24261187166439" y2="53.66864786411523" /><path d="M 173.72905801456457 55.72781907015455 a86.0,86.0 0 0,1 12.242430191666344,42.057860355516425" fill="none" id="id111" stroke="none" /><text fill="#e1ed5e" style="font-size:6.75px; font-family:Arial;" text-anchor="middle"><textPath startOffset="22.145653131862474" xlink:href="#id111">March</textPath></text><path d="M 118.18653347947321 89.5 l 20.66863226380807 -11.933040401290976 a44.86608080258195,44.86608080258195 0 0,0 0.3793675710854057,0.670306147809334 l -20.870433199914853 11.576477483382524" fill="#dcff1b" stroke="none" /><path d="M 118.36410011445183 89.81374322990088 l 35.731338862501104 -19.819571344333312 a61.860053661002446,61.860053661002446 0 0,0 0.5071188528945764,0.9330415713392474 l -36.06630306501102 19.20327493951946" fill="#31ff3e" stroke="none" /><path d="M 118.70294669586156 90.45014215332178 l 14.642134367415968 -7.476378137340512 a37.4404479527161,37.4404479527161 0 0,0 0.28736450716239165,0.57492151217667 l -14.768318787790097 7.223924769000091" fill="#ffc512" stroke="none" /><path d="M 119.0197475246899 91.09779779509293 l 13.225253425488743 -6.19008638532179 a35.602208655753,35.602208655753 0 0,0 0.25432782780166224,0.5557522026117891 l -13.329565718145457 5.962145200495316" fill="#ffad10" stroke="none" /><path d="M 119.16976305983485 91.42560881287824 l 19.539487463057547 -8.739764209978718 a42.4050239141424,42.4050239141424 0 0,0 0.2915166040696322,0.6670470395668291 l -19.68663794914415 8.40305510063604" fill="#faff18" stroke="none" /><path d="M 119.31412917781788 91.75594674310238 l 45.473428896933946 -19.409902778874596 a70.44266438542599,70.44266438542599 0 0,0 0.4651703329642334,1.1162394598004037 l -45.79992507443466 18.626430809632915" fill="#3cffa2" stroke="none" /><path d="M 119.71291397450082 92.76114493625339 l 15.046483674869242 -5.525277220927252 a37.02889139479721,37.02889139479721 0 0,0 0.21399142681589922,0.5985721063095777 l -15.139115271729084 5.266170158236757" fill="#ffc011" stroke="none" /><path d="M 120.05942366710727 93.78553927170692 l 25.57774583457933 -7.924051041800306 a47.77707353112727,47.77707353112727 0 0,0 0.23598161362408626,0.7855060428942484 l -25.71000376820704 7.483807395315334" fill="#baff1f" stroke="none" /><path d="M 120.16314734710363 94.1308016681162 l 60.48944204131091 -17.607594995651397 a84.0,84.0 0 0,0 0.3911260317016718,1.3879683043879474 l -60.782786565087164 16.56661876736044" fill="#4dd2ff" stroke="none" /><path d="M 120.26092885502905 94.47779374421319 l 16.885251625687232 -4.602150415959829 a38.50118598592371,38.50118598592371 0 0,0 0.16832447023815708,0.6391554304505619 l -16.96176557673012 4.311614481136469" fill="#ffd313" stroke="none" /><path d="M 120.43855184770803 95.1765574152323 l 22.194038150094233 -5.237732572189468 a43.80370960843022,43.80370960843022 0 0,0 0.16643144048737224,0.7333276354490116 l -22.28068045213927 4.855970602801429" fill="#e9ff1a" stroke="none" /><path d="M 120.51834098615036 95.52812308129327 l 15.576450249741946 -3.394814833919646 a36.94210055605242,36.94210055605242 0 0,0 0.1297235743790351,0.6207742638662481 l -15.632431534945347 3.126924118767993" fill="#ffbe11" stroke="none" /><path d="M 120.592083275326 95.88100663000786 l 6.875199691033688 -1.3752324894039367 a28.01139324182447,28.01139324182447 0 0,0 0.09026832566746641,0.47232202365586634 l -6.897794308983311 1.2570079007147559" fill="#ff4406" stroke="none" /><path d="M 120.65975698304385 96.23510406497455 l 15.76804287705914 -2.8734626733446023 a37.0277248512657,37.0277248512657 0 0,0 0.10858853299107281,0.6263098020128043 l -15.815046227542448 2.602359838411205" fill="#ffc011" stroke="none" /><path d="M 120.77682067341334 96.94652285012252 l 49.37101837187574 -7.255839516274625 a70.90134930201812,70.90134930201812 0 0,0 0.16663668436613563,1.2057000381019223 l -49.48829957279709 6.407251169972617" fill="#3cffa7" stroke="none" /><path d="M 120.86939407059847 97.66154086499901 l 15.75009237042483 -1.764830701655012 a36.848660419177975,36.848660419177975 0 0,0 0.06504246104735503,0.6292268088690077 l -15.778067223953853 1.494199370503073" fill="#ffbd11" stroke="none" /><path d="M 120.9064616781168 98.02013634271609 l 15.810817223638498 -1.497300829523255 a36.881556946766736,36.881556946766736 0 0,0 0.05427977688054913,0.6308132854902169 l -15.834190623216788 1.2256664966573763" fill="#ffbe11" stroke="none" /><path d="M 120.99303781780057 99.45929381324524 l 5.5463582824724815 -0.14285451506920513 a26.54819769024381,26.54819769024381 0 0,0 0.007823587492295732,0.4556847491862519 l -5.5479933015634435 0.04762284991388684" fill="#ff2f04" stroke="none" /><line stroke="#e1ed5e" stroke-width="0.3" x1="184.99686870605535" x2="189.99668451229388" y1="99.2704041080226" y2="99.22748670261217" /><path d="M 185.99683186730306 99.26182062694052 a86.0,86.0 0 0,1 -10.086455211305974,41.156179273409016" fill="none" id="id112" stroke="none" /><text fill="#e1ed5e" style="font-size:6.75px; font-family:Arial;" text-anchor="middle"><textPath startOffset="21.40746469413373" xlink:href="#id112">April</textPath></text><path d="M 120.98066250479742 100.90099992219065 l 19.504945226978165 0.8376262726604392 a40.522922580394294,40.522922580394294 0 0,0 -0.03581147779364185,0.6947331020834735 l -19.487692159727953 -1.1723311681206434" fill="#ffed16" stroke="none" /><line stroke="#e1ed5e" stroke-width="0.3" x1="174.33088141563837" x2="178.70328620479359" y1="141.23008692659167" y2="143.65538615756765" /><path d="M 175.20536237346943 141.71514677278685 a86.0,86.0 0 0,1 -30.301960400862466,31.631185727798858" fill="none" id="id113" stroke="none" /><text fill="#e1ed5e" style="font-size:6.75px; font-family:Arial;" text-anchor="middle"><textPath startOffset="22.145653131862474" xlink:href="#id113">May</textPath></text><line stroke="#e1ed5e" stroke-width="0.3" x1="143.1302829299769" x2="145.66735839644613" y1="173.24464959558577" y2="177.55315839532614" /><path d="M 143.63769802327073 174.10635135553383 a86.0,86.0 0 0,1 -40.68552437913181,11.842963189579606" fill="none" id="id114" stroke="none" /><text fill="#e1ed5e" style="font-size:6.75px; font-family:Arial;" text-anchor="middle"><textPath startOffset="21.407464694133747" xlink:href="#id114">June</textPath></text><line stroke="#e1ed5e" stroke-width="0.3" x1="101.45913802915013" x2="101.54496967792366" y1="184.9874750549273" y2="189.98673829345242" /><path d="M 101.47630435890484 185.9873277026323 a86.0,86.0 0 0,1 -42.54439059252881,-10.42667462771756" fill="none" id="id115" stroke="none" /><text fill="#e1ed5e" style="font-size:6.75px; font-family:Arial;" text-anchor="middle"><textPath startOffset="22.145653131862474" xlink:href="#id115">July</textPath></text><line stroke="#e1ed5e" stroke-width="0.3" x1="58.13341422392154" x2="55.67067388415222" y1="173.97424548756322" y2="178.32567169271397" /><path d="M 57.64086615596768 174.84453072859336 a86.0,86.0 0 0,1 -31.369924170532247,-30.572349798747897" fill="none" id="id116" stroke="none" /><text fill="#e1ed5e" style="font-size:6.75px; font-family:Arial;" text-anchor="middle"><textPath startOffset="22.145653131862474" xlink:href="#id116">August</textPath></text><line stroke="#e1ed5e" stroke-width="0.3" x1="26.387840678322732" x2="22.057713659400548" y1="142.50000000000003" y2="145.00000000000006" /><path d="M 25.521815274538298 143.00000000000003 a86.0,86.0 0 0,1 -11.493303480769221,-40.785679425670985" fill="none" id="id117" stroke="none" /><text fill="#e1ed5e" style="font-size:6.75px; font-family:Arial;" text-anchor="middle"><textPath startOffset="21.40746469413373" xlink:href="#id117">September</textPath></text><line stroke="#e1ed5e" stroke-width="0.3" x1="15.003131293944662" x2="10.003315487706104" y1="100.72959589197737" y2="100.7725132973878" /><path d="M 14.003168132696942 100.73817937305945 a86.0,86.0 0 0,1 10.791469493833604,-42.45332614584628" fill="none" id="id118" stroke="none" /><text fill="#e1ed5e" style="font-size:6.75px; font-family:Arial;" text-anchor="middle"><textPath startOffset="22.145653131862435" xlink:href="#id118">October</textPath></text><line stroke="#e1ed5e" stroke-width="0.3" x1="26.387840678322718" x2="22.05771365940052" y1="57.49999999999999" y2="54.99999999999999" /><path d="M 25.521815274538284 56.99999999999999 a86.0,86.0 0 0,1 29.574782752854787,-30.34633250058573" fill="none" id="id119" stroke="none" /><text fill="#e1ed5e" style="font-size:6.75px; font-family:Arial;" text-anchor="middle"><textPath startOffset="21.40746469413373" xlink:href="#id119">November</textPath></text><line stroke="#e1ed5e" stroke-width="0.3" x1="56.869717070023135" x2="54.33264160355391" y1="26.7553504044142" y2="22.446841604673864" /><path d="M 56.362301976729285 25.89364864446614 a86.0,86.0 0 0,1 42.16139366436587,-11.88097634709845" fill="none" id="id120" stroke="none" /><text fill="#e1ed5e" style="font-size:6.75px; font-family:Arial;" text-anchor="middle"><textPath startOffset="22.145653131862474" xlink:href="#id120">December</textPath></text></svg>