<?xml version="1.0" encoding="utf-8" ?>
<svg baseProfile="full" height="200mm" version="1.1" viewBox="0,0,200,200" width="200mm" xmlns="http://www.w3.org/2000/svg" xmlns:ev="http://www.w3.org/2001/xml-events" xmlns:xlink="http://www.w3.org/1999/xlink"><defs /><rect fill="#1a1a1a" height="200" width="200" x="0" y="0" /><text alignment-baseline="middle" fill="#e1ed5e" style="dominant-baseline: central; font-size:9.0px; font-family:Arial;" text-anchor="middle" x="100.0" y="100.0">2017</text><line stroke="#e1ed5e" stroke-width="0.3" x1="100.0" x2="100.0" y1="15.0" y2="10.0" /><path d="M 100.0 14.0 a86.0,86.0 0 0,1 42.46469731375804,11.215312516191453" fill="none" id="id25" stroke="none" /><text fill="#e1ed5e" style="font-size:6.75px; font-family:Arial;" text-anchor="middle"><textPath startOffset="22.20632615414155" xlink:href="#id25">January</textPath></text><line stroke="#e1ed5e" stroke-width="0.3" x1="143.23703022742887" x2="145.7803849466894" y1="26.81831364943548" y2="22.513508569990506" /><path d="M 143.74570117128098 25.957352633546492 a86.0,86.0 0 0,1 28.547481713284135,27.462654790039103" fill="none" id="id26" stroke="none" /><text fill="#e1ed5e" style="font-size:6.75px; font-family:Arial;" text-anchor="middle"><textPath startOffset="19.985693538727396" xlink:href="#id26">February</textPath></text><path d="M 111.60114157652 82.49532879139004 l 4.018848822397116 -6.0639400708247635 a28.27478625389344,28.27478625389344 0 0,0 0.40338062992023405,0.2723644019744739 l -4.122634146723892 5.99386375655162" fill="#ff0d01" stroke="none" /><path d="M 111.90073688211348 82.69761687909136 l 5.252426931733725 -7.636460161053162 a30.268414776247006,30.268414776247006 0 0,0 0.42673976521013485,0.29895847667150893 l -5.383097836527511 7.5449168416177175" fill="#ff2c04" stroke="none" /><path d="M 112.48926042617603 83.11751280151076 l 6.171152049882225 -8.341918730728764 a31.37645053632739,31.37645053632739 0 0,0 0.4314319416083039,0.32494559389721744 l -6.313830145248912 8.2344565473257" fill="#ff3d05" stroke="none" /><path d="M 113.89432698308785 84.25364557470407 l 5.816835921876936 -6.592184002230214 a29.79161362101963,29.79161362101963 0 0,0 0.38160079646856765,0.3426049628494448 l -5.929447705941493 6.491080030611472" fill="#ff2503" stroke="none" /><line stroke="#e1ed5e" stroke-width="0.3" x1="172.23445277983987" x2="176.4835382374775" y1="55.19839476539836" y2="52.563006222186495" /><path d="M 173.08426987136738 54.67131705675599 a86.0,86.0 0 0,1 12.851231095245387,41.99856678651699" fill="none" id="id27" stroke="none" /><text fill="#e1ed5e" style="font-size:6.75px; font-family:Arial;" text-anchor="middle"><textPath startOffset="22.20632615414155" xlink:href="#id27">March</textPath></text><path d="M 120.78858239683441 97.02765380044208 l 11.653047249527061 -1.6661497183509197 a32.77155746210632,32.77155746210632 0 0,0 0.07503750475638551,0.5591165686022178 l -11.680000753341282 1.4653148076840374" fill="#ff5307" stroke="none" /><path d="M 120.83666639777658 97.38593545837742 l 6.417763283203257 -0.8051406647725134 a27.46807058165742,27.46807058165742 0 0,0 0.05481795913094127,0.46964679707042867 l -6.430671595337787 0.694550129377232" fill="#ff0000" stroke="none" /><path d="M 120.91429891909075 98.10471618934814 l 9.682199982286633 -0.8774148705109646 a30.72187499158393,30.72187499158393 0 0,0 0.04319424843616528,0.5270792379404946 l -9.695868714542293 0.7106217153627012" fill="#ff3304" stroke="none" /><line stroke="#e1ed5e" stroke-width="0.3" x1="184.98032266829074" x2="189.97916517819016" y1="98.17113171792111" y2="98.06355123074" /><path d="M 185.9800911702706 98.14961562048488 a86.0,86.0 0 0,1 -9.607161424134198,41.387399972396054" fill="none" id="id28" stroke="none" /><text fill="#e1ed5e" style="font-size:6.75px; font-family:Arial;" text-anchor="middle"><textPath startOffset="21.466115282336823" xlink:href="#id28">April</textPath></text><path d="M 120.99513854157772 99.54816195383933 l 10.710887257453196 -0.2305098564351347 a31.71336738079055,31.71336738079055 0 0,0 0.007047907611401015,0.5458682115697054 l -10.713268172182312 0.0461053868049665" fill="#ff4306" stroke="none" /><path d="M 120.92983693683757 101.71520430193887 l 15.204141774867491 1.245982444021924 a36.255110598126834,36.255110598126834 0 0,0 -0.05632560096586536,0.6215483131216964 l -15.180441577624551 -1.507512145692191" fill="#ff870c" stroke="none" /><path d="M 120.76222939487914 103.15116336523771 l 7.266634520314824 1.1028850540797628 a28.3498525627623,28.3498525627623 0 0,0 -0.07737922919112697,0.4818405340373899 l -7.2465735367624085 -1.2278048178103576" fill="#ff0e01" stroke="none" /><line stroke="#e1ed5e" stroke-width="0.3" x1="174.80103733775053" x2="179.2010983576182" y1="140.37084112569926" y2="142.7455964860345" /><path d="M 175.68104954172406 140.8457921977663 a86.0,86.0 0 0,1 -30.038265399797805,32.042727171017184" fill="none" id="id29" stroke="none" /><text fill="#e1ed5e" style="font-size:6.75px; font-family:Arial;" text-anchor="middle"><textPath startOffset="22.206326154141568" xlink:href="#id29">May</textPath></text><line stroke="#e1ed5e" stroke-width="0.3" x1="143.8653032363475" x2="146.44561519142675" y1="172.8068346515853" y2="177.08958963109032" /><path d="M 144.38136562736335 173.6633856474863 a86.0,86.0 0 0,1 -40.68145358897372,12.25698825130547" fill="none" id="id30" stroke="none" /><text fill="#e1ed5e" style="font-size:6.75px; font-family:Arial;" text-anchor="middle"><textPath startOffset="21.466115282336833" xlink:href="#id30">June</textPath></text><path d="M 108.92500713936063 119.00905698771935 l 10.964139403091195 23.352132662785795 a46.79795442958151,46.79795442958151 0 0,0 -0.7321250363207326,0.3360826957094128 l -10.560546371003044 -23.53740242882928" fill="#e5ff1a" stroke="none" /><path d="M 108.59647513512805 119.15986991738527 l 12.166389302754697 27.11651377347647 a50.72080664943876,50.72080664943876 0 0,0 -0.7996481164909857,0.35054223477770924 l -11.697820511605956 -27.321920561548634" fill="#b4ff20" stroke="none" /><path d="M 108.2653958097858 119.30500536409082 l 11.947189384150668 27.90435696664049 a51.35438142842743,51.35438142842743 0 0,0 -0.8156262802968614,0.34093185131333803 l -11.465091644356345 -28.1058738609738" fill="#acff21" stroke="none" /><path d="M 106.57524785965236 119.94407469862006 l 9.153965124262236 27.765852804901147 a50.23589676202265,50.23589676202265 0 0,0 -0.8235784269228352,0.2636838045511724 l -8.674665352248459 -27.91930945611203" fill="#baff1f" stroke="none" /><path d="M 106.2309692047433 120.05430185196036 l 6.228088576395425 20.04503058315554 a41.990291527157694,41.990291527157694 0 0,0 -0.6920900346713803,0.2085210501453628 l -5.882123567283799 -20.149267002406628" fill="#ffd814" stroke="none" /><path d="M 103.7750983002368 120.6578951692458 l 4.982254435808413 27.263631740393034 a48.71513079418712,48.71513079418712 0 0,0 -0.8261878065344455,0.14364334030053197 l -4.5122176578019175 -27.34535365921457" fill="#cdff1d" stroke="none" /><path d="M 100.90346689309514 120.98055641714683 l 0.4508823945586461 10.470514845461793 a31.480218321330845,31.480218321330845 0 0,0 -0.5415791525874084,0.018653081055375963 l -0.27058289029658544 -10.476724724943262" fill="#ff3f05" stroke="none" /><line stroke="#e1ed5e" stroke-width="0.3" x1="102.19456741930631" x2="102.32365962044197" y1="184.97166512339345" y2="189.96999836594603" /><path d="M 102.22038585953345 185.97133177190398 a86.0,86.0 0 0,1 -42.740103519485714,-10.115201625700543" fill="none" id="id31" stroke="none" /><text fill="#e1ed5e" style="font-size:6.75px; font-family:Arial;" text-anchor="middle"><textPath startOffset="22.20632615414155" xlink:href="#id31">July</textPath></text><path d="M 100.18074693466247 120.99922214144158 l 0.10366075375869607 12.04333118895326 a33.043777301107994,33.043777301107994 0 0,0 -0.5688153768422948,0.0 l 0.10366075375868777 -12.04333118895326" fill="#ff5708" stroke="none" /><path d="M 95.16358092515715 120.4354850818985 l -3.977387637019539 16.805790495704994 a38.270037828581735,38.270037828581735 0 0,0 -0.6397414796417473,-0.1572328908630717 l 4.266082401404497 -16.734836346527892" fill="#ffa40f" stroke="none" /><path d="M 92.7421414339146 119.70592522655815 l -3.7203230574303157 10.10110727852111 a31.76444015747404,31.76444015747404 0 0,0 -0.5114525303866619,-0.19338758373886605 l 3.8936458085772605 -10.03557144467561" fill="#ff4306" stroke="none" /><line stroke="#e1ed5e" stroke-width="0.3" x1="58.666819895761336" x2="56.23545636021788" y1="174.27360380694188" y2="178.64263932499728" /><path d="M 58.180547188652646 175.14741091055294 a86.0,86.0 0 0,1 -31.652253787137756,-30.449443065178592" fill="none" id="id32" stroke="none" /><text fill="#e1ed5e" style="font-size:6.75px; font-family:Arial;" text-anchor="middle"><textPath startOffset="22.20632615414155" xlink:href="#id32">August</textPath></text><path d="M 87.95078237400918 117.19931262002967 l -4.1345044422713 5.901680643408416 a28.205828293814854,28.205828293814854 0 0,0 -0.3952478315360175,-0.28199883332014775 l 4.235479601656205 -5.829637548244049" fill="#ff0c01" stroke="none" /><path d="M 84.43433777217949 114.09645910891817 l -8.485440093768853 7.684521066453577 a32.447906254233075,32.447906254233075 0 0,0 -0.37136033884025027,-0.4172272774509473 l 8.616459282257441 -7.5373196192617655" fill="#ff4e07" stroke="none" /><path d="M 83.06392112726016 112.41649034213515 l -13.119114558807428 9.618127102548437 a37.26713053269967,37.26713053269967 0 0,0 -0.3748367166039125,-0.5206154152171384 l 13.282731067786948 -9.39087808188016" fill="#ff960d" stroke="none" /><line stroke="#e1ed5e" stroke-width="0.3" x1="26.63291911575756" x2="22.317208475507996" y1="142.92168965132927" y2="145.44649492493687" /><path d="M 25.769776987707644 143.4266507060508 a86.0,86.0 0 0,1 -11.730757126820373,-40.83630448921669" fill="none" id="id33" stroke="none" /><text fill="#e1ed5e" style="font-size:6.75px; font-family:Arial;" text-anchor="middle"><textPath startOffset="21.46611528233685" xlink:href="#id33">September</textPath></text><path d="M 81.51974371655577 109.97397251340807 l -13.481028953898335 7.275841318234176 a36.31913863583618,36.31913863583618 0 0,0 -0.2921917798074836,-0.5527167320485047 l 13.604273241930704 -7.042709571099545" fill="#ff880c" stroke="none" /><path d="M 79.76711848015287 105.62410040840567 l -30.362515365045414 8.439817872568934 a52.51369329378505,52.51369329378505 0 0,0 -0.2345909802994291,-0.8730003076809171 l 30.50329442168662 -7.915926631712478" fill="#9eff22" stroke="none" /><path d="M 79.67330655649465 105.27499134158121 l -17.28491205170053 4.485616987638762 a38.85746186877675,38.85746186877675 0 0,0 -0.16244026225189476,-0.6488681004313049 l 17.359563628247482 -4.187421047810065" fill="#ffac10" stroke="none" /><line stroke="#e1ed5e" stroke-width="0.3" x1="15.007084014347285" x2="10.007500721073583" y1="101.09737516637583" y2="101.16192664675087" /><path d="M 14.007167355692545 101.11028546245083 a86.0,86.0 0 0,1 10.666146001902534,-42.60595125391555" fill="none" id="id34" stroke="none" /><text fill="#e1ed5e" style="font-size:6.75px; font-family:Arial;" text-anchor="middle"><textPath startOffset="22.20632615414155" xlink:href="#id34">October</textPath></text><path d="M 80.2630227832202 92.82701384747504 l -10.481510104435445 -3.8092827493739443 a32.152250406714344,32.152250406714344 0 0,0 0.193518900988351,-0.5185344431044331 l 10.414386614945467 3.989140329507719" fill="#ff4906" stroke="none" /><path d="M 80.52162464483688 92.15188598940014 l -35.80096594797895 -14.424717530400462 a59.597689550544224,59.597689550544224 0 0,0 0.3915804128411454,-0.9482430295745615 l 35.54736384825161 15.038835130428335" fill="#4cff2c" stroke="none" /><path d="M 80.65960295795068 91.81776055985345 l -39.47859352541416 -16.7019996685099 a63.86625875524686,63.86625875524686 0 0,0 0.43705593860572395,-1.0087853648175704 l 39.185246876965756 17.37908417791407" fill="#32ff45" stroke="none" /><path d="M 80.803312248108 91.48605970444005 l -38.64997788392232 -17.141686544127626 a63.28070727890926,63.28070727890926 0 0,0 0.45019004992330536,-0.9919341000535377 l 38.34918551703566 17.804442653023234" fill="#31ff3d" stroke="none" /><path d="M 80.95270993114464 91.15688171328213 l -45.39390738637454 -21.075107853290003 a71.04764728566724,71.04764728566724 0 0,0 0.5245407408792394,-1.1048165748586187 l 45.02440845165356 21.853366843789154" fill="#3bff9f" stroke="none" /><path d="M 81.43458229118936 90.18545643968196 l -36.89867520928156 -19.50635643321173 a62.73739538470927,62.73739538470927 0 0,0 0.5129286982706194,-0.9503789775269322 l 36.55743841179247 20.138616394071136" fill="#30ff36" stroke="none" /><path d="M 81.6062741919709 89.86733742301443 l -37.67676277330204 -20.755225350176453 a64.01532090328149,64.01532090328149 0 0,0 0.5399916637252025,-0.960584915878118 l 37.313913468284404 21.400693775989357" fill="#32ff47" stroke="none" /><line stroke="#e1ed5e" stroke-width="0.3" x1="26.266209847984243" x2="21.928928074336255" y1="57.711370442889674" y2="55.22380399835377" /><path d="M 25.398753493254645 57.213857153982495 a86.0,86.0 0 0,1 29.58750427330803,-30.492523968695096" fill="none" id="id35" stroke="none" /><text fill="#e1ed5e" style="font-size:6.75px; font-family:Arial;" text-anchor="middle"><textPath startOffset="21.46611528233685" xlink:href="#id35">November</textPath></text><path d="M 81.78341655067845 89.55222093294921 l -37.04262174980601 -21.245099509629362 a63.70257696291004,63.70257696291004 0 0,0 0.5537280540899416,-0.9465007380256487 l 36.671434021245744 21.879579660008904" fill="#31ff43" stroke="none" /><path d="M 81.96595687620814 89.24020034530311 l -37.41589000872008 -22.32375056622104 a64.5694694079179,64.5694694079179 0 0,0 0.5776944387994852,-0.9495777628611889 l 37.02607977163438 22.964496102289303" fill="#33ff4e" stroke="none" /><path d="M 82.15384107792192 88.93136811851018 l -35.805649455853796 -22.207554848915514 a63.13336000514408,63.13336000514408 0 0,0 0.5807439480601277,-0.9185974598703353 l 35.41807791154771 22.820599956500065" fill="#31ff3b" stroke="none" /><path d="M 82.7489923806493 88.02491185347247 l -27.973791360603858 -19.418495703406894 a55.05306122024607,55.05306122024607 0 0,0 0.5470894818014218,-0.7738192737061171 l 27.635389258998558 19.897141477444794" fill="#7fff26" stroke="none" /><path d="M 82.95767976084542 87.72973835380427 l -26.849704910195506 -19.331458378204278 a54.08492008140296,54.08492008140296 0 0,0 0.5504747390765713,-0.7508469254644953 l 26.5129675586053 19.790767747340276" fill="#8bff24" stroke="none" /><path d="M 83.17141714833178 87.43820079747576 l -35.60979364506954 -26.581149545123104 a65.43663932595075,65.43663932595075 0 0,0 0.6815508291172706,-0.8968410006281402 l 35.14696687572816 27.19017532163227" fill="#34ff59" stroke="none" /><path d="M 83.39014120810768 87.1503855733568 l -31.993384359934268 -24.75052066241657 a61.44953542209349,61.44953542209349 0 0,0 0.6544256117403544,-0.8310540689488651 l 31.562604667599942 25.297567125318484" fill="#38ff2e" stroke="none" /><path d="M 83.6137871275137 86.86637796730984 l -28.24697929018254 -22.6400787326153 a57.20034535800758,57.20034535800758 0 0,0 0.622398341335993,-0.7629867732696559 l 27.853082456770156 23.12294967549304" fill="#67ff28" stroke="none" /><path d="M 83.84228863543731 86.58626213691792 l -20.199878774854188 -16.769446652339248 a47.253560587936576,47.253560587936576 0 0,0 0.5249406742908919,-0.6213641835484294 l 19.90822748707617 17.114669785516796" fill="#dfff1b" stroke="none" /><path d="M 84.07557802195018 86.31012108654704 l -15.919691254062384 -13.685812013024792 a41.99376145621656,41.99376145621656 0 0,0 0.4759455669309851,-0.544088058512427 l 15.681753823553555 13.957815627740162" fill="#ffd814" stroke="none" /><path d="M 84.31358615837235 86.03803664274999 l -16.45171634697073 -14.643134059788549 a43.024539628653386,43.024539628653386 0 0,0 0.4971513404980824,-0.5489669272622956 l 16.197221365856603 14.9241537743204" fill="#ffe615" stroke="none" /><path d="M 84.5562425177563 85.77008943001954 l -16.159289922593423 -14.889203662856534 a42.97296148716531,42.97296148716531 0 0,0 0.5059200167301113,-0.5396801995946285 l 15.900602583892857 15.165153279329214" fill="#ffe615" stroke="none" /><path d="M 84.80347519578584 85.50635884689758 l -30.735739669616123 -29.31412195129351 a63.47356164502481,63.47356164502481 0 0,0 0.7608839893378964,-0.7841578346036109 l 30.226591416575108 29.838843981447248" fill="#31ff40" stroke="none" /><path d="M 86.93701828274178 83.55741782278169 l -39.18894515177469 -49.32774653165494 a84.0,84.0 0 0,0 1.1398697793622974,-0.889686443107113 l 38.334042817252964 49.99501136398527" fill="#4dd2ff" stroke="none" /><path d="M 87.22198572758235 83.33499621200491 l -26.354880825760628 -34.37186556768189 a64.3128720583482,64.3128720583482 0 0,0 0.8843137699853627,-0.6660467978058673 l 25.759320902016874 34.8204289549936" fill="#32ff4b" stroke="none" /><path d="M 88.09926311788651 82.69761687909137 l -24.580216222395048 -35.73697347379071 a64.37416630445033,64.37416630445033 0 0,0 0.9183903822050496,-0.6201012856711878 l 23.96142114578346 36.15478667176057" fill="#32ff4c" stroke="none" /><path d="M 88.39885842347998 82.49532879139004 l -24.163528182791598 -36.45974090479348 a64.74001372982448,64.74001372982448 0 0,0 0.9342075672054666,-0.6076345883845181 l 23.532353589801847 36.87027441733753" fill="#33ff50" stroke="none" /><line stroke="#e1ed5e" stroke-width="0.3" x1="56.762969772571076" x2="54.21961505331055" y1="26.818313649435495" y2="22.513508569990535" /><path d="M 56.25429882871897 25.957352633546506 a86.0,86.0 0 0,1 42.265352541879196,-11.944610805530505" fill="none" id="id36" stroke="none" /><text fill="#e1ed5e" style="font-size:6.75px; font-family:Arial;" text-anchor="middle"><textPath startOffset="22.20632615414155" xlink:href="#id36">December</textPath></text><path d="M 89.3179101791058 81.91981866633112 l -19.80855448558332 -33.52735869686088 a59.941784910251556,59.941784910251556 0 0,0 0.8928564848470311,-0.5172001059217898 l 19.228501268270968 33.863362960172715" fill="#48ff2c" stroke="none" /><path d="M 90.26544431104013 81.39251694778311 l -18.695083937848146 -35.73542220604944 a61.33021898884011,61.33021898884011 0 0,0 0.9396359406449409,-0.4813180244562752 l 18.077187509614443 36.05193275581822" fill="#39ff2e" stroke="none" /><path d="M 90.58718382345135 81.22770947309562 l -18.025904973271057 -35.949658297979234 a61.21580761152094,61.21580761152094 0 0,0 0.9460137372904958,-0.46420483239589183 l 17.404419968970135 36.25461829050995" fill="#3aff2e" stroke="none" /><path d="M 90.91171255644093 81.06846463323043 l -17.18873973708959 -35.805341354330594 a60.71744255676011,60.71744255676011 0 0,0 0.9460985789874438,-0.44420596863153244 l 16.569862946802537 36.095912305602134" fill="#40ff2d" stroke="none" /><path d="M 91.23893434514133 80.91482961587045 l -16.838714214170814 -36.68157989991666 a61.36187062489161,61.36187062489161 0 0,0 0.9637258179246484,-0.4323956825694749 l 16.20480627777939 36.965995913002665" fill="#39ff2e" stroke="none" /><path d="M 91.56875222667455 80.76684994638697 l -15.938106638023688 -36.357607412442356 a60.69759262174846,60.69759262174846 0 0,0 0.9605140900587695,-0.41124200617832757 l 15.309908790174612 36.62656894658347" fill="#40ff2d" stroke="none" /><path d="M 91.90106846888425 80.62456947434976 l -15.249362091660895 -36.48172041365009 a60.540598990687,60.540598990687 0 0,0 0.9649483346173501,-0.39362665410018277 l 14.619129887455166 36.73880795393385" fill="#41ff2d" stroke="none" /><path d="M 92.57280143429618 80.3572730644239 l -14.232883602713006 -37.64173579590268 a61.24270429999602,61.24270429999602 0 0,0 0.9892670340972815,-0.3643553974259615 l 13.582834242843155 37.88115446113497" fill="#3aff2e" stroke="none" /><path d="M 92.91201910852362 80.23233633223022 l -13.54400693470697 -37.77286901565867 a61.12766822930903,61.12766822930903 0 0,0 0.993522534110102,-0.3466205038246827 l 12.891802396533581 38.000410372655566" fill="#3bff2e" stroke="none" /><path d="M 93.25333710446033 80.11325718540243 l -12.727853557353331 -37.517147987975726 a60.61735288139659,60.61735288139659 0 0,0 0.990998976875097,-0.3267167818051942 l 12.080171758235824 37.730678494040156" fill="#41ff2d" stroke="none" /><path d="M 93.59665428221793 80.00007090966166 l -12.007715447846213 -37.50437163293853 a60.379729834751394,60.379729834751394 0 0,0 0.9925698062252665,-0.30839627037642864 l 11.360360268910217 37.705508038197486" fill="#43ff2d" stroke="none" /><path d="M 94.98787191387505 79.60689891045804 l -9.327901265488228 -37.95290746598562 a60.08238640539193,60.08238640539193 0 0,0 1.0064552556276734,-0.2381954417419352 l 8.67322232289802 38.10784881986843" fill="#46ff2c" stroke="none" /><path d="M 95.33964822691252 79.52364482259891 l -8.72358206881087 -38.32911624648417 a60.309312336236246,60.309312336236246 0 0,0 1.0142224977542689,-0.22166975483227513 l 8.06251684690308 38.47359949941231" fill="#44ff2d" stroke="none" /><path d="M 95.692805502759 79.44645832069477 l -8.047743008914086 -38.40310008382646 a60.237281551936256,60.237281551936256 0 0,0 1.0166721897329425,-0.2039348769050423 l 7.385504409714008 38.53593891680871" fill="#45ff2d" stroke="none" /><path d="M 96.04723909329186 79.375362276772 l -7.351536624780673 -38.35870248003825 a60.05681946469251,60.05681946469251 0 0,0 1.0169760958422562,-0.18584588116756093 l 6.690165407835523 38.479563842556544" fill="#47ff2c" stroke="none" /><path d="M 96.40284397218896 79.31037775812273 l -7.039581324127954 -40.48928576106587 a62.09669045872505,62.09669045872505 0 0,0 1.0546702800981593,-0.17402963297986557 l 6.341581837890908 40.604461656985364" fill="#31ff2f" stroke="none" /><path d="M 97.47563105711357 79.15227682838746 l -2.349661229628372 -19.404884139618776 a40.54662212163644,40.54662212163644 0 0,0 0.6936046060143453,-0.07793455913941875 l 2.015289920104309 19.442454652228793" fill="#ffc412" stroke="none" /><path d="M 97.83486435360386 79.11191278185805 l -4.052214946476873 -39.09363340331823 a60.3030866300026,60.3030866300026 0 0,0 1.0334078874780313,-0.09813453093496358 l 3.378681931908606 39.157593478768376" fill="#44ff2d" stroke="none" /><path d="M 98.19473922651362 79.07773832637324 l -3.3050339131160227 -38.30404193455197 a59.446363647174266,59.446363647174266 0 0,0 1.0202406031036142,-0.07919030651804917 l 2.6452031206500743 38.35525750325848" fill="#4dff2c" stroke="none" /></svg>