<?xml version="1.0" encoding="utf-8" ?>
<svg baseProfile="full" height="200mm" version="1.1" viewBox="0,0,200,200" width="200mm" xmlns="http://www.w3.org/2000/svg" xmlns:ev="http://www.w3.org/2001/xml-events" xmlns:xlink="http://www.w3.org/1999/xlink"><defs /><rect fill="#1a1a1a" height="200" width="200" x="0" y="0" /><rect fill="#1a1a1a" height="200" width="180" x="10" y="0" /><text alignment-baseline="middle" fill="#e1ed5e" style="dominant-baseline: central; font-size:9.0px; font-family:Arial;" text-anchor="middle" x="100.0" y="100.0">2020</text><line stroke="#e1ed5e" stroke-width="0.3" x1="100.0" x2="100.0" y1="15.0" y2="10.0" /><path d="M 100.0 14.0 a86.0,86.0 0 0,1 42.35913384403234,11.155469271406648" fill="none" id="id61" stroke="none" /><text fill="#e1ed5e" style="font-size:6.75px; font-family:Arial;" text-anchor="middle"><textPath startOffset="22.145653131862478" xlink:href="#id61">January</textPath></text><path d="M 100.0 79.0 l 0.0 -1.2199255393670967 a22.219925539367097,22.219925539367097 0 0,0 0.3814345689338196,0.0032741570223569385 l -0.02094164408496483 1.2197457805391747" fill="#ff0000" stroke="none" /><path d="M 101.08105385017728 79.02784411241856 l 0.3788750104078912 -7.35007398464039 a28.35983246094631,28.35983246094631 0 0,0 0.485973613507079,0.02923496580964727 l -0.5049929760474325 7.342487041006051" fill="#ff5808" stroke="none" /><path d="M 101.80034050326958 79.07731436759882 l 0.6418978590598307 -7.459826121130805 a28.487391977115333,28.487391977115333 0 0,0 0.4868636866004273,0.04610649731132687 l -0.7698611090452709 7.447707868314294" fill="#ff5908" stroke="none" /><path d="M 102.51750503828377 79.15144685158666 l 0.5963294564819346 -4.93846335096258 a25.97433705024786,25.97433705024786 0 0,0 0.4422095979593964,0.05725288580042197 l -0.6810168763321226 4.927498868961761" fill="#ff3605" stroke="none" /><path d="M 103.58742460773223 79.30868818359171 l 1.4557907786667805 -8.396614350005196 a29.521881208627846,29.521881208627846 0 0,0 0.4985898030920065,0.09085967102356718 l -1.5997153153098407 8.370386505050263" fill="#ff6809" stroke="none" /><path d="M 106.04205211174951 79.88797359093562 l 1.4294428281497693 -4.758150273826657 a25.968229143997437,25.968229143997437 0 0,0 0.4258287120700689,0.131922823509549 l -1.5109121730914683 4.732910862510462" fill="#ff3605" stroke="none" /><path d="M 108.4095320186766 80.7573450057729 l 0.5186827348367521 -1.1868476029057893 a22.295237048551712,22.295237048551712 0 0,0 0.3493839853730921,0.15627501267250002 l -0.5389801230654758 1.1777688393234365" fill="#ff0100" stroke="none" /><path d="M 109.06512990194946 81.05736502329252 l 2.235818031222206 -4.671999772521203 a26.17942700915618,26.17942700915618 0 0,0 0.4037113865289069,0.19747546938685484 l -2.31568966701318 4.632930553037127" fill="#ff3905" stroke="none" /><path d="M 109.3889696526874 81.21577127319529 l 3.301098273159341 -6.604407864385468 a28.38345806842649,28.38345806842649 0 0,0 0.43395979711456334,0.22158296449266987 l -3.4139852919874834 6.546766948219965" fill="#ff5808" stroke="none" /><line stroke="#e1ed5e" stroke-width="0.3" x1="143.13028292997686" x2="145.6673583964461" y1="26.7553504044142" y2="22.446841604673864" /><path d="M 143.63769802327073 25.89364864446614 a86.0,86.0 0 0,1 29.32050498858742,28.57503671076993" fill="none" id="id62" stroke="none" /><text fill="#e1ed5e" style="font-size:6.75px; font-family:Arial;" text-anchor="middle"><textPath startOffset="20.669276256404974" xlink:href="#id62">February</textPath></text><path d="M 112.16784306229584 82.88440491214696 l 1.3901326341017763 -1.9553956409433912 a23.399175035926966,23.399175035926966 0 0,0 0.32538111676543174,0.23555083586196987 l -1.423494761241176 1.9312440337083465" fill="#ff1101" stroke="none" /><path d="M 113.03279911837588 83.53348406188908 l 0.9009569728035709 -1.1383297031950992 a22.451729306730293,22.451729306730293 0 0,0 0.3001574146217511,0.24178556619074262 l -0.9203651577805815 1.1226958432109484" fill="#ff0300" stroke="none" /><path d="M 116.35404254752997 86.82634096563983 l 1.1344037190235505 -0.9137953358194899 a22.456672136583904,22.456672136583904 0 0,0 0.2392529244300075,0.30228825424091527 l -1.1499230740951174 0.8941871376638963" fill="#ff0300" stroke="none" /><path d="M 116.57777611688842 87.10902102172516 l 3.3391795338440953 -2.5965662023640173 a25.229926240787464,25.229926240787464 0 0,0 0.2629294985377631,0.3441831537362238 l -3.3832610097361653 2.5388621353869114" fill="#ff2c04" stroke="none" /><line stroke="#e1ed5e" stroke-width="0.3" x1="172.87174338648825" x2="177.1583165268699" y1="56.24261187166439" y2="53.66864786411523" /><path d="M 173.72905801456457 55.72781907015455 a86.0,86.0 0 0,1 12.242430191666344,42.057860355516425" fill="none" id="id63" stroke="none" /><text fill="#e1ed5e" style="font-size:6.75px; font-family:Arial;" text-anchor="middle"><textPath startOffset="22.145653131862474" xlink:href="#id63">March</textPath></text><path d="M 118.00360718960297 89.18935116829356 l 2.2630943184543675 -1.358923114250624 a23.63974770094891,23.63974770094891 0 0,0 0.2059205400191875,0.34969809548261255 l -2.2860885686033225 1.319873850474455" fill="#ff1502" stroke="none" /><path d="M 119.0197475246899 91.09779779509293 l 5.120577759824999 -2.396688944726434 a26.6537097990778,26.6537097990778 0 0,0 0.19040335900508648,0.41606570176143515 l -5.160965583685138 2.3084342607503148" fill="#ff4006" stroke="none" /><path d="M 119.58574465831526 92.42381321644754 l 4.503076536955539 -1.7418867415961863 a25.82823650189467,25.82823650189467 0 0,0 0.1564075797249928,0.41488968755886474 l -4.532314800494972 1.6643287738431638" fill="#ff3404" stroke="none" /><path d="M 119.71291397450082 92.76114493625339 l 4.540208983315542 -1.6672276271207027 a25.8366461078741,25.8366461078741 0 0,0 0.14931099896601982,0.4176494379990618 l -4.568160152325505 1.589043232740724" fill="#ff3405" stroke="none" /><path d="M 120.05942366710727 93.78553927170692 l 3.8348256705842094 -1.1880387953903968 a25.014638726351887,25.014638726351887 0 0,0 0.12355287535604734,0.4112673386653593 l -3.854654865943884 1.122033853134314" fill="#ff2803" stroke="none" /><path d="M 120.16314734710363 94.1308016681162 l 9.390263505068443 -2.7333688511587377 a30.77999764678423,30.77999764678423 0 0,0 0.14331974208777992,0.5085912040818109 l -9.435801739230804 2.571769723173914" fill="#ff790b" stroke="none" /><path d="M 120.26092885502905 94.47779374421319 l 4.61902572910906 -1.2589360023637333 a25.787516949757887,25.787516949757887 0 0,0 0.11274120571019475,0.4280967215477382 l -4.639956415623985 1.1794587764431965" fill="#ff3404" stroke="none" /><path d="M 120.35273937422433 94.82641323984039 l 5.06212411512422 -1.2867721547822095 a26.223110484686785,26.223110484686785 0 0,0 0.10715571300607385,0.43723187604149877 l -5.083467354646586 1.1996844541326157" fill="#ff3a05" stroke="none" /><path d="M 120.43855184770803 95.1765574152323 l 9.584990895902658 -2.262031752855922 a30.848291127168473,30.848291127168473 0 0,0 0.11720755102166935,0.516438096045991 l -9.622409308481993 2.0971593228709047" fill="#ff7a0b" stroke="none" /><path d="M 120.51834098615036 95.52812308129327 l 9.483952812278767 -2.066983373946275 a30.706584425723637,30.706584425723637 0 0,0 0.10782732515798604,0.5159927848120804 l -9.518037848261121 1.90387413784879" fill="#ff780b" stroke="none" /><path d="M 120.65975698304385 96.23510406497455 l 6.915309169693284 -1.260199691786821 a28.029196552638403,28.029196552638403 0 0,0 0.08219919929715584,0.4741031379588222 l -6.9359231864826745 1.141303520907406" fill="#ff5307" stroke="none" /><path d="M 120.7213421655516 96.59031103205396 l 4.845764145261796 -0.7973686460733082 a25.91092933254446,25.91092933254446 0 0,0 0.06845236650859156,0.43951329739960043 l -4.858738003908653 0.7140671667422664" fill="#ff3505" stroke="none" /><path d="M 120.77682067341334 96.94652285012252 l 4.775406501117044 -0.7018203055098001 a25.826702703931204,25.826702703931204 0 0,0 0.060699495130348766,0.43919130934353784 l -4.786750512802605 0.6197406879661767" fill="#ff3404" stroke="none" /><path d="M 120.99303781780057 99.45929381324524 l 6.40882548935031 -0.1650686109365749 a27.410950927847036,27.410950927847036 0 0,0 0.00807783546488525,0.47049341896014507 l -6.410714756413861 0.055028276007363486" fill="#ff4a06" stroke="none" /><line stroke="#e1ed5e" stroke-width="0.3" x1="184.99686870605535" x2="189.99668451229388" y1="99.2704041080226" y2="99.22748670261217" /><path d="M 185.99683186730306 99.26182062694052 a86.0,86.0 0 0,1 -10.086455211305974,41.156179273409016" fill="none" id="id64" stroke="none" /><text fill="#e1ed5e" style="font-size:6.75px; font-family:Arial;" text-anchor="middle"><textPath startOffset="21.40746469413373" xlink:href="#id64">April</textPath></text><path d="M 120.7213421655516 103.40968896794604 l 6.357061634915406 1.0460520728796645 a27.44255054844657,27.44255054844657 0 0,0 -0.08047878495260319,0.46418024520176954 l -6.338168032470569 -1.155025351002022" fill="#ff4b07" stroke="none" /><path d="M 120.51834098615036 104.47187691870673 l 4.788557996073964 1.043643927693071 a25.900967285095312,25.900967285095312 0 0,0 -0.09841027926194684,0.43361384834325073 l -4.769936855254353 -1.1256921099753385" fill="#ff3505" stroke="none" /><path d="M 120.16314734710363 105.8691983318838 l 3.3325247598625425 0.9700493888597358 a24.470838096472384,24.470838096472384 0 0,0 -0.12086692285530903,0.40232667634911784 l -3.315381517003604 -1.027113668799577" fill="#ff2103" stroke="none" /><path d="M 120.05942366710727 106.21446072829308 l 6.101025991107735 1.8901134475864998 a27.38710004531943,27.38710004531943 0 0,0 -0.1429805951193025,0.4478846777597526 l -6.067680680211178 -1.9945671590376362" fill="#ff4a06" stroke="none" /><path d="M 119.83427380445688 106.89939002012753 l 6.038003417094104 2.1003310193304907 a27.392876946696372,27.392876946696372 0 0,0 -0.15830451848848853,0.44280591274106357 l -6.001058728561672 -2.2036718884524755" fill="#ff4a06" stroke="none" /><path d="M 119.71291397450082 107.23885506374661 l 3.4917436598094223 1.2822166375712902 a24.7197248945969,24.7197248945969 0 0,0 -0.14969478624481128,0.3970832053248398 l -3.4692181897501704 -1.341968123090289" fill="#ff2403" stroke="none" /><path d="M 119.4528033332814 107.91128576633889 l 3.451135522023787 1.4035467724274635 a24.72562477092983,24.72562477092983 0 0,0 -0.16327643492459273,0.3918040051199476 l -3.426533242562709 -1.4625832869886888" fill="#ff2403" stroke="none" /><path d="M 119.31412917781788 108.2440532568976 l 10.749825666318953 4.588461352804871 a32.68814482466887,32.68814482466887 0 0,0 -0.22471717011450756,0.5141968621070737 l -10.66947461418748 -4.7723202846877895" fill="#ff920d" stroke="none" /><path d="M 119.0197475246899 108.90220220490707 l 5.301498615099302 2.481369040224327 a26.85346733822643,26.85346733822643 0 0,0 -0.19899792921543163,0.41582913593306275 l -5.258121427923958 -2.572010678222493" fill="#ff4306" stroke="none" /><path d="M 118.70294669586154 109.54985784667822 l 5.7183233058044625 2.9198166246104544 a27.420634746741015,27.420634746741015 0 0,0 -0.21765707408889826,0.4173861387264273 l -5.667358162740615 -3.0175490064413846" fill="#ff4b06" stroke="none" /><path d="M 118.5362547648365 109.86951160357373 l 5.6496126272626075 3.0081005083206063 a27.40053056443634,27.40053056443634 0 0,0 -0.2246251790321313,0.4132850293579338 l -5.597142098615137 -3.104640371153143" fill="#ff4a06" stroke="none" /><line stroke="#e1ed5e" stroke-width="0.3" x1="174.33088141563837" x2="178.70328620479359" y1="141.23008692659167" y2="143.65538615756765" /><path d="M 175.20536237346943 141.71514677278685 a86.0,86.0 0 0,1 -30.301960400862466,31.631185727798858" fill="none" id="id65" stroke="none" /><text fill="#e1ed5e" style="font-size:6.75px; font-family:Arial;" text-anchor="middle"><textPath startOffset="22.145653131862474" xlink:href="#id65">May</textPath></text><path d="M 117.81537515405839 111.11811171558189 l 9.647775389130292 6.0209253891999515 a32.37238376513125,32.37238376513125 0 0,0 -0.298261120878579,0.4689160218765282 l -9.542996576625823 -6.185655085755152" fill="#ff8e0d" stroke="none" /><path d="M 117.01052211995028 112.31430620078461 l 5.287289775049983 3.827590052975597 a27.527317885547312,27.527317885547312 0 0,0 -0.2803827477139304,0.38039304633980087 l -5.220805007752225 -3.9177894085842753" fill="#ff4c07" stroke="none" /><path d="M 116.79662413953412 112.60449989151573 l 5.190461747333769 3.895019260280935 a27.489381186869405,27.489381186869405 0 0,0 -0.2864760341190549,0.3750063246660836 l -5.12283373586041 -3.9835464981878963" fill="#ff4b07" stroke="none" /><path d="M 116.57777611688842 112.89097897827486 l 7.137959905767316 5.55052079628918 a30.04205467393227,30.04205467393227 0 0,0 -0.3200674344314392,0.40439474762596844 l -7.041626040694315 -5.672235487829831" fill="#ff6f0a" stroke="none" /><path d="M 116.1254893667686 113.45245675266167 l 2.4372522077090015 2.033242475549426 a24.17399957283563,24.17399957283563 0 0,0 -0.26856788200567827,0.3163722896983552 l -2.4019897621962087 -2.074781547697338" fill="#ff1c02" stroke="none" /><path d="M 115.89218393027572 113.72728997021213 l 4.8532745632146925 4.192142975855101 a27.41313782137559,27.41313782137559 0 0,0 -0.3106677858888493,0.35348291184263736 l -4.7805957133672585 -4.274838165509032" fill="#ff4a06" stroke="none" /><path d="M 115.6541949942343 113.99807769240083 l 3.001971359678497 2.6843813008985182 a25.02712490654854,25.02712490654854 0 0,0 -0.28912562112600615,0.31779970497148624 l -2.955448037710611 -2.735518581427676" fill="#ff2903" stroke="none" /><path d="M 115.16444852881244 114.52719865689866 l 8.480461694407452 8.12409046743781 a32.743895285356814,32.743895285356814 0 0,0 -0.3923236302634111,0.40255860647568237 l -8.339751262993234 -8.268471765981229" fill="#ff930d" stroke="none" /><path d="M 114.91283532996324 114.78537596483092 l 3.1086896227399383 3.082119785620382 a25.377603630234653,25.377603630234653 0 0,0 -0.3093748370037718,0.306730623516535 l -3.0553228656062017 -3.1350304193655787" fill="#ff2e04" stroke="none" /><path d="M 114.65682725009322 115.03919595460226 l 3.1041646123567888 3.185146354254725 a25.447583078328087,25.447583078328087 0 0,0 -0.31546219254843333,0.30220564441790515 l -3.0490299339430433 -3.2379641289782106" fill="#ff2f04" stroke="none" /><path d="M 114.13192950727249 115.5334660781643 l 4.309939961977789 4.737379008567383 a27.404556373915995,27.404556373915995 0 0,0 -0.35069346295531156,0.31359225705784444 l -4.227981472199099 -4.810666795508615" fill="#ff4a06" stroke="none" /><path d="M 113.86319453409587 115.77377054828091 l 4.207199355830158 4.787020562001243 a27.373075574690795,27.373075574690795 0 0,0 -0.3556160342275149,0.3071726605553622 l -4.124403841839788 -4.858537355021324" fill="#ff4a06" stroke="none" /><path d="M 113.59037401385872 116.0094264158162 l 2.411582240781475 2.8408378158032854 a24.72640421851288,24.72640421851288 0 0,0 -0.3259477767415217,0.27191722809217544 l -2.362460129878058 -2.881817227807331" fill="#ff2403" stroke="none" /><path d="M 113.31354834802062 116.24036423190432 l 8.462736482696599 10.32316248718555 a34.34861762552209,34.34861762552209 0 0,0 -0.45920704465368195,0.36990468961189477 l -8.284278667687664 -10.466915470590848" fill="#ffa80f" stroke="none" /><path d="M 111.27062007382361 117.71928675628689 l 3.4459353499870296 5.417582724827961 a27.420644283609285,27.420644283609285 0 0,0 -0.39934364922023663,0.24921997244202174 l -3.352427571977078 -5.4759384941115306" fill="#ff4b06" stroke="none" /><line stroke="#e1ed5e" stroke-width="0.3" x1="143.1302829299769" x2="145.66735839644613" y1="173.24464959558577" y2="177.55315839532614" /><path d="M 143.63769802327073 174.10635135553383 a86.0,86.0 0 0,1 -40.68552437913181,11.842963189579606" fill="none" id="id66" stroke="none" /><text fill="#e1ed5e" style="font-size:6.75px; font-family:Arial;" text-anchor="middle"><textPath startOffset="21.407464694133747" xlink:href="#id66">June</textPath></text><path d="M 110.34350942703117 118.27599006163325 l 1.84370197957391 3.2576447377955127 a24.74319198374483,24.74319198374483 0 0,0 -0.3714492893545282,0.20603665928930798 l -1.7875085020632875 -3.2888143125179643" fill="#ff2503" stroke="none" /><path d="M 110.02825361518725 118.45085714620011 l 2.5515897062890924 4.694637668033852 a26.34324179345861,26.34324179345861 0 0,0 -0.39917686510083883,0.21253919693985612 l -2.4706240254017 -4.7377473326962765" fill="#ff3b05" stroke="none" /><path d="M 103.94208987418118 120.62667999033965 l 0.5024536400344117 2.629049761358841 a23.67663264346918,23.67663264346918 0 0,0 -0.39987043929093974,0.07286971442398564 l -0.45724846719241485 -2.63728764971419" fill="#ff1502" stroke="none" /><path d="M 102.15924093988457 120.88869738790638 l 5.196767497633201 50.27401141216354 a71.54188971432318,71.54188971432318 0 0,0 -1.2226864502253179,0.1157896780586476 l -4.332981484022867 -50.35581284572737" fill="#3dffb1" stroke="none" /><line stroke="#e1ed5e" stroke-width="0.3" x1="101.45913802915013" x2="101.54496967792366" y1="184.9874750549273" y2="189.98673829345242" /><path d="M 101.47630435890484 185.9873277026323 a86.0,86.0 0 0,1 -42.54439059252881,-10.42667462771756" fill="none" id="id67" stroke="none" /><text fill="#e1ed5e" style="font-size:6.75px; font-family:Arial;" text-anchor="middle"><textPath startOffset="22.145653131862474" xlink:href="#id67">July</textPath></text><path d="M 98.91894614982273 120.97215588758144 l -0.1496336321092172 2.9028524879726714 a23.90670651954877,23.90670651954877 0 0,0 -0.40966492204627103,-0.02464442442256087 l 0.19944290628793457 -2.8998560857254185" fill="#ff1902" stroke="none" /><path d="M 96.76829788921471 120.74984581791261 l -0.44694459363129224 2.869704907531026 a23.904301245753253,23.904301245753253 0 0,0 -0.4049189393767196,-0.06662925738471036 l 0.49614103606107535 -2.8616096516506473" fill="#ff1902" stroke="none" /><path d="M 94.30408787586889 120.21278271476187 l -0.7232589393466068 2.5665908231953583 a23.666550570879053,23.666550570879053 0 0,0 -0.3900923581701977,-0.11355020019640266 l 0.7672113098984114 -2.55379692869644" fill="#ff1502" stroke="none" /><path d="M 93.61358852112213 120.00534299687104 l -1.1363292176118986 3.559535089600332 a24.736513635047316,24.736513635047316 0 0,0 -0.4034139747557271,-0.13261018632190272 l 1.1972659300153692 -3.5395039818764076" fill="#ff2503" stroke="none" /><path d="M 92.93061703081489 119.77432235084164 l -1.8010725035211834 5.037920341436902 a26.35018724248075,26.35018724248075 0 0,0 -0.42462805803812975,-0.15592930462306437 l 1.887289713213432 -5.006260187805117" fill="#ff3b05" stroke="none" /><path d="M 92.59220618246901 119.65005319985036 l -1.1241297131161256 2.9818876186846563 a24.186741499145388,24.186741499145388 0 0,0 -0.38725016056721634,-0.14979668118834025 l 1.1751521361768702 -2.9621510493582752" fill="#ff1d02" stroke="none" /><path d="M 91.92203290615298 119.3841803445677 l -1.2418203548878735 2.979916782904076 a24.22831563308906,24.22831563308906 0 0,0 -0.38253617388724964,-0.1632819456254986 l 1.2927916039455543 -2.9581601876191734" fill="#ff1d03" stroke="none" /><path d="M 91.59046798132341 119.24265499422711 l -3.207771751089895 7.340009523641059 a29.01033953176966,29.01033953176966 0 0,0 -0.45461494850060596,-0.20334348399562138 l 3.333300102446136 -7.283862288735582" fill="#ff6108" stroke="none" /><path d="M 90.93487009805054 118.94263497670748 l -1.1540291755424037 2.411477128426957 a23.673388351685816,23.673388351685816 0 0,0 -0.3650659134729602,-0.17857203196584176 l 1.1952553382774334 -2.391311346363894" fill="#ff1502" stroke="none" /><line stroke="#e1ed5e" stroke-width="0.3" x1="58.13341422392154" x2="55.67067388415222" y1="173.97424548756322" y2="178.32567169271397" /><path d="M 57.64086615596768 174.84453072859336 a86.0,86.0 0 0,1 -31.369924170532247,-30.572349798747897" fill="none" id="id68" stroke="none" /><text fill="#e1ed5e" style="font-size:6.75px; font-family:Arial;" text-anchor="middle"><textPath startOffset="22.145653131862474" xlink:href="#id68">August</textPath></text><path d="M 89.65649057296885 118.27599006163327 l -1.5790660290732506 2.7900583701878734 a24.205912542978766,24.205912542978766 0 0,0 -0.35986991515382843,-0.2077709923873122 l 1.6267284120874788 -2.7625404805243896" fill="#ff1d02" stroke="none" /><path d="M 87.83215693770417 117.11559508785305 l -2.164243329223753 3.04427927817074 a24.735182125625105,24.735182125625105 0 0,0 -0.3439591853591085,-0.24899992482399466 l 2.2161835249568154 -3.0066785819736803" fill="#ff2403" stroke="none" /><path d="M 87.54013794807813 116.9041958592261 l -3.151368968504618 4.275437243711103 a26.311354817799867,26.311354817799867 0 0,0 -0.36127621521051906,-0.27110840711796114 l 3.2242981726259035 -4.220709809329127" fill="#ff3b05" stroke="none" /><path d="M 86.68645165197938 116.24036423190432 l -2.1215851263856966 2.5879888892743694 a24.346462302119747,24.346462302119747 0 0,0 -0.3209393160755561,-0.26773899207254837 l 2.1656987766231452 -2.5511877132899508" fill="#ff1f03" stroke="none" /><path d="M 85.60350026404147 115.28858382429668 l -4.38035373370285 4.651783868721623 a27.389568999053317,27.389568999053317 0 0,0 -0.33953611479733325,-0.3252679173581984 l 4.459562334365498 -4.575903821057842" fill="#ff4a06" stroke="none" /><path d="M 85.08716467003676 114.78537596483092 l -3.6300123847886976 3.598986824340242 a26.11172143954402,26.11172143954402 0 0,0 -0.31285970280298386,-0.32102161651136296 l 3.691258888742491 -3.5361425157611417" fill="#ff3805" stroke="none" /><path d="M 84.83555147118756 114.52719865689866 l -4.216050789393291 4.038881285311546 a26.83846266542689,26.83846266542689 0 0,0 -0.31585568948798237,-0.33542779659534516 l 4.284762312617527 -3.965912028771711" fill="#ff4206" stroke="none" /><path d="M 83.64595745247003 113.17365903436017 l -2.2309072118626854 1.7970609322410578 a23.864677116557473,23.864677116557473 0 0,0 -0.25425378061304993,-0.3212413459888812 l 2.2614274231172966 -1.7584996423374961" fill="#ff1802" stroke="none" /><path d="M 83.20337586046588 112.60449989151573 l -2.7212456144679695 2.0420734409134993 a24.40224067819216,24.40224067819216 0 0,0 -0.24855190469974303,-0.3372083945006505 l 2.7558995387515433 -1.995058737143969" fill="#ff2003" stroke="none" /><path d="M 82.98947788004972 112.3143062007846 l -2.1519223489464605 1.5578258291178086 a23.656612713543666,23.656612713543666 0 0,0 -0.2353099626563547,-0.33099293115012407 l 2.1783474101327758 -1.5206556712581805" fill="#ff1502" stroke="none" /><path d="M 82.576782715395 111.72311816256416 l -2.7699316298178562 1.8637336186624294 a24.33856619452093,24.33856619452093 0 0,0 -0.23026087116959426,-0.3486443068423144 l 2.8015169399081774 -1.815909433481054" fill="#ff1f03" stroke="none" /><line stroke="#e1ed5e" stroke-width="0.3" x1="26.387840678322732" x2="22.057713659400548" y1="142.50000000000003" y2="145.00000000000006" /><path d="M 25.521815274538298 143.00000000000003 a86.0,86.0 0 0,1 -11.493303480769221,-40.785679425670985" fill="none" id="id69" stroke="none" /><text fill="#e1ed5e" style="font-size:6.75px; font-family:Arial;" text-anchor="middle"><textPath startOffset="21.40746469413373" xlink:href="#id69">September</textPath></text><path d="M 80.9802524753101 108.90220220490708 l -9.303376431282128 4.354449924854648 a31.2720030748731,31.2720030748731 0 0,0 -0.22339458458721048,-0.4881574836266443 l 9.376755480724395 -4.194103459013315" fill="#ff7f0b" stroke="none" /><path d="M 80.5471966667186 107.91128576633889 l -2.9735199255194824 1.2093046672836114 a24.21002157715105,24.21002157715105 0 0,0 -0.153262492741199,-0.38632160017814055 l 2.9938410932268056 -1.1580820498919056" fill="#ff1d02" stroke="none" /><path d="M 80.16572619554312 106.89939002012753 l -3.1457605138425713 1.0942588021568855 a24.330647314944784,24.330647314944784 0 0,0 -0.13383545083129808,-0.39566072938158947 l 3.1640813862462367 -1.0400963983011344" fill="#ff1f03" stroke="none" /><path d="M 79.94057633289273 106.21446072829308 l -2.8765292347749667 0.8911561099638444 a24.011408250443793,24.011408250443793 0 0,0 -0.1185976964586304,-0.3947731597004618 l 2.891403251237227 -0.8416453466726591" fill="#ff1a02" stroke="none" /><path d="M 79.64726062577567 105.17358676015961 l -3.170841949917883 0.8060156241881334 a24.271681503110354,24.271681503110354 0 0,0 -0.09918157263764886,-0.40469466215625793 l 3.184211049071825 -0.751465137423776" fill="#ff1e03" stroke="none" /><path d="M 79.17382384314188 102.69636545807758 l -3.270978114777969 0.42349360422127563 a24.298279045225367,24.298279045225367 0 0,0 -0.050005758467391845,-0.41411941476980135 l 3.2777659595050217 -0.36728051252807503" fill="#ff1e03" stroke="none" /><path d="M 79.06263194458094 101.62068470465958 l -4.623088954497278 0.357856323536096 a25.63691844110822,25.63691844110822 0 0,0 -0.030197895722251733,-0.4390707762744454 l 4.628550811384596 -0.27844212310730726" fill="#ff3104" stroke="none" /><path d="M 79.03789590574601 101.26102812881392 l -2.9860837245872047 0.1796353817711498 a23.99148205420468,23.99148205420468 0 0,0 -0.021202084452723795,-0.4113147742004599 l 2.988727398496501 -0.1283488141939591" fill="#ff1a02" stroke="none" /><line stroke="#e1ed5e" stroke-width="0.3" x1="15.003131293944662" x2="10.003315487706104" y1="100.72959589197737" y2="100.7725132973878" /><path d="M 14.003168132696942 100.73817937305945 a86.0,86.0 0 0,1 10.791469493833604,-42.45332614584628" fill="none" id="id70" stroke="none" /><text fill="#e1ed5e" style="font-size:6.75px; font-family:Arial;" text-anchor="middle"><textPath startOffset="22.145653131862435" xlink:href="#id70">October</textPath></text><path d="M 79.00077361379809 99.81974689727619 l -62.99767915860572 -0.540759308171441 a84.0,84.0 0 0,0 0.024754273605335886,-1.4418123361237905 l 62.97911345340172 1.6221185602642838" fill="#4dd2ff" stroke="none" /><path d="M 79.00696218219943 99.45929381324524 l -62.26999846790502 -1.6038542736419132 a83.29064984188216,83.29064984188216 0 0,0 0.04908323152519138,-1.4290047313529555 l 62.23329054938298 2.672565269559007" fill="#4cd8ff" stroke="none" /><path d="M 79.01933749520258 99.09900007780938 l -7.085602442409069 -0.3042862563479331 a28.092133113364103,28.092133113364103 0 0,0 0.02482596854088028,-0.4816171573822458 l 7.079334884411618 0.4258752071068909" fill="#ff5407" stroke="none" /><path d="M 79.13060592940154 97.66154086499901 l -2.6814211215312618 -0.3004588295768173 a23.69820213091322,23.69820213091322 0 0,0 0.04877080264260724,-0.40389220896192085 l 2.675868232628986 0.3464447154621744" fill="#ff1602" stroke="none" /><path d="M 79.83685265289637 94.1308016681162 l -6.766940937166497 -1.9697578843552384 a28.04779651877659,28.04779651877659 0 0,0 0.13853431765318538,-0.4611356876225033 l 6.732130299509683 2.0856311755684653" fill="#ff5307" stroke="none" /><path d="M 79.94057633289273 93.78553927170692 l -3.072371773893489 -0.9518286291986277 a24.216433748171966,24.216433748171966 0 0,0 0.12642740937343117,-0.3960320591753853 l 3.0555796487428 1.0044297220654046" fill="#ff1d02" stroke="none" /><path d="M 80.5471966667186 92.08871423366112 l -23.20866499624802 -9.43876200744851 a46.05458758673392,46.05458758673392 0 0,0 0.30412290661005265,-0.7297842638073795 l 23.04321624510149 9.835778780697153" fill="#c6ff1e" stroke="none" /><path d="M 80.83023694016515 91.42560881287825 l -2.4747230067498296 -1.106912123713331 a23.710997677933435,23.710997677933435 0 0,0 0.169381809784568,-0.3701298229289963 l 2.455356732110215 1.1492309288569986" fill="#ff1602" stroke="none" /><path d="M 80.9802524753101 91.09779779509293 l -2.3991773730673187 -1.1229361521627907 a23.648969171068696,23.648969171068696 0 0,0 0.1752509586135734,-0.3662071006418913 l 2.3795471564938406 1.1639557548697692" fill="#ff1502" stroke="none" /><path d="M 81.1358732173502 90.77261029715801 l -2.4779137317682567 -1.2120717760484332 a23.758473210379048,23.758473210379048 0 0,0 0.18235203685739765,-0.3648262265016058 l 2.4567417816991153 1.2544298587138092" fill="#ff1602" stroke="none" /><path d="M 81.46374523516351 90.13048839642627 l -4.2022065989478685 -2.2374383237117703 a25.760742647177555,25.760742647177555 0 0,0 0.21118245924160853,-0.38855193902846297 l 4.163178790090909 2.309245096214853" fill="#ff3304" stroke="none" /><line stroke="#e1ed5e" stroke-width="0.3" x1="26.387840678322718" x2="22.05771365940052" y1="57.49999999999999" y2="54.99999999999999" /><path d="M 25.521815274538284 56.99999999999999 a86.0,86.0 0 0,1 29.574782752854787,-30.34633250058573" fill="none" id="id71" stroke="none" /><text fill="#e1ed5e" style="font-size:6.75px; font-family:Arial;" text-anchor="middle"><textPath startOffset="21.40746469413373" xlink:href="#id71">November</textPath></text><path d="M 82.98947788004972 87.6856937992154 l -2.1060604064203132 -1.5246253195010329 a23.59999476929376,23.59999476929376 0 0,0 0.24038053423735128,-0.32612236111127985 l 2.0795778525991433 1.5605539898811762" fill="#ff1402" stroke="none" /><path d="M 83.8745106332314 86.54754324733833 l -2.860669745447879 -2.386472444897771 a24.725410329450593,24.725410329450593 0 0,0 0.27469393568467476,-0.32358876552847016 l 2.81928124625609 2.435227992875798" fill="#ff2403" stroke="none" /><path d="M 84.10781606972428 86.27271002978789 l -2.818436004145805 -2.4344978928723107 a24.724293422901194,24.724293422901194 0 0,0 0.28019563267103925,-0.31881119517678413 l 2.7762293075161737 2.482521365860395" fill="#ff2403" stroke="none" /><path d="M 84.58840730492382 85.73525988315684 l -1.9667781302801195 -1.8204204750947013 a23.679952783146035,23.679952783146035 0 0,0 0.2786839137026229,-0.29595265885940086 l 1.935238382841225 1.8539145938986135" fill="#ff1502" stroke="none" /><path d="M 84.83555147118756 85.47280134310135 l -1.9185505626844885 -1.837928039682224 a23.65684319082386,23.65684319082386 0 0,0 0.2834463804722404,-0.29084095662774995 l 1.8867173810614457 1.8705916883777043" fill="#ff1502" stroke="none" /><path d="M 86.68645165197937 83.75963576809568 l -3.6166989504724762 -4.4117846525529485 a26.704766000358862,26.704766000358862 0 0,0 0.35701630868781814,-0.28758706642043746 l 3.5404318714294125 4.473220012766785" fill="#ff4006" stroke="none" /><path d="M 88.4268655584334 82.4767994020092 l -6.083732422400592 -9.211546289424708 a32.03922031801079,32.03922031801079 0 0,0 0.4615392608324229,-0.29916417271242307 l 5.924707529311144 9.314624303841038" fill="#ff8a0c" stroke="none" /><path d="M 89.03521579738668 82.08984904055464 l -3.270837061347672 -5.34266652676332 a27.264380312375895,27.264380312375895 0 0,0 0.4012631841578942,-0.24094701285909398 l 3.1786411206323435 5.3980275401583375" fill="#ff4806" stroke="none" /><line stroke="#e1ed5e" stroke-width="0.3" x1="56.869717070023135" x2="54.33264160355391" y1="26.7553504044142" y2="22.446841604673864" /><path d="M 56.362301976729285 25.89364864446614 a86.0,86.0 0 0,1 42.16139366436587,-11.88097634709845" fill="none" id="id72" stroke="none" /><text fill="#e1ed5e" style="font-size:6.75px; font-family:Arial;" text-anchor="middle"><textPath startOffset="22.145653131862474" xlink:href="#id72">December</textPath></text><path d="M 89.65649057296885 81.72400993836675 l -2.4674835715361354 -4.359807041195044 a26.00962998755942,26.00962998755942 0 0,0 0.3904612865470202,-0.21658229364700637 l 2.3922780968330124 4.401522250275196" fill="#ff3705" stroke="none" /><path d="M 90.61103034731259 81.2157712731953 l -2.2275020034818205 -4.45649615140058 a25.98218055904879,25.98218055904879 0 0,0 0.4006696607557471,-0.19598760888838032 l 2.1506720934640207 4.494077510386174" fill="#ff3605" stroke="none" /><path d="M 91.5904679813234 80.7573450057729 l -2.407849092490095 -5.509629936844117 a27.01279962190445,27.01279962190445 0 0,0 0.42649985124156925,-0.1820474252462071 l 2.3129141660780945 5.550152011749728" fill="#ff4506" stroke="none" /><path d="M 92.592206182469 80.34994680014964 l -1.7165237930106365 -4.553283296255404 a25.86609111175799,25.86609111175799 0 0,0 0.4168269445962698,-0.1530646277105338 l 1.6381076967602397 4.5820787729746595" fill="#ff3505" stroke="none" /><path d="M 95.35216902796891 79.52079915486377 l -1.8858245188778304 -8.309290788151136 a29.520601358944926,29.520601358944926 0 0,0 0.4951554896488158,-0.1079168343496238 l 1.7429066126098964 8.340439080634473" fill="#ff6809" stroke="none" /><path d="M 96.41257539226777 79.30868818359171 l -0.9964690960664554 -5.747368944753732 a26.833112415043544,26.833112415043544 0 0,0 0.4545305594827086,-0.07479283059371708 l 0.897661033530674 5.763627773843118" fill="#ff4206" stroke="none" /><path d="M 97.12497278360702 79.19773525538626 l -0.6278153418743448 -4.5425590679400205 a25.58573821638533,25.58573821638533 0 0,0 0.4355937550311445,-0.05639633247957321 l 0.5497437649524063 4.552666996619989" fill="#ff3104" stroke="none" /><path d="M 97.84075906011542 79.11130261209362 l -1.4734149300875312 -14.253952874322074 a35.329903143413055,35.329903143413055 0 0,0 0.6038056030350504,-0.05718101838173818 l 1.2285097636674653 14.277145648208997" fill="#ffb510" stroke="none" /><path d="M 98.9189461498227 79.02784411241856 l -0.3340620365413614 -6.480714263511823 a27.489318516573505,27.489318516573505 0 0,0 0.4714735423004121,-0.020247102532176372 l 0.22276273364012916 6.485493934469828" fill="#ff4b07" stroke="none" /><path d="M 99.63950707515114 79.00309439819443 l -0.1160976602658106 -6.762106674392461 a27.76310323317501,27.76310323317501 0 0,0 0.47659058511466107,-0.00409095697698318 l 1.656482545362178e-15 6.763103233175009" fill="#ff4f07" stroke="none" /></svg>