<?xml version="1.0" encoding="utf-8" ?>
<svg baseProfile="full" height="200mm" version="1.1" viewBox="0,0,200,200" width="200mm" xmlns="http://www.w3.org/2000/svg" xmlns:ev="http://www.w3.org/2001/xml-events" xmlns:xlink="http://www.w3.org/1999/xlink"><defs /><rect fill="#1a1a1a" height="200" width="200" x="0" y="0" /><text alignment-baseline="middle" fill="#e1ed5e" style="dominant-baseline: central; font-size:9.0px; font-family:Arial;" text-anchor="middle" x="100.0" y="100.0">2024</text><line stroke="#e1ed5e" stroke-width="0.3" x1="100.0" x2="100.0" y1="15.0" y2="10.0" /><path d="M 100.0 14.0 a86.0,86.0 0 0,1 42.35913384403234,11.155469271406648" fill="none" id="id109" stroke="none" /><text fill="#e1ed5e" style="font-size:6.75px; font-family:Arial;" text-anchor="middle"><textPath startOffset="22.145653131862478" xlink:href="#id109">January</textPath></text><path d="M 100.0 79.0 l 0.0 -12.212588821398448 a33.21258882139845,33.21258882139845 0 0,0 0.5701382517156336,0.004893951184830689 l -0.2096453268667788 12.210789268408053" fill="#ff9c0e" stroke="none" /><path d="M 100.72087961077811 79.0123766808444 l 0.9382355502676123 -27.31570434125973 a48.331812775718,48.331812775718 0 0,0 0.8289463764417626,0.03559852414114138 l -1.4070076873102113 27.295573248692758" fill="#aaff21" stroke="none" /><path d="M 101.08105385017728 79.02784411241856 l 0.6980894561262666 -13.542748952752158 a34.56072926084819,34.56072926084819 0 0,0 0.5922320770922425,0.03562721111588889 l -0.9304658853509714 13.528769763811578" fill="#ffae10" stroke="none" /><path d="M 101.44090949804482 79.04949213459386 l 0.8049851276077138 -11.704307085465434 a32.731956589015574,32.731956589015574 0 0,0 0.5602323837982518,0.043365529663208585 l -1.005786506181199 11.68876378880717" fill="#ff960d" stroke="none" /><path d="M 101.80034050326958 79.07731436759882 l 0.3559724699405188 -4.1369396893692025 a25.152226678883718,25.152226678883718 0 0,0 0.4298640541376425,0.040708572854806724 l -0.42693608746317424 4.130219361009212" fill="#ff2e04" stroke="none" /><path d="M 102.87502721639298 79.19773525538626 l 3.7193594005260358 -26.91143182539347 a48.16723757107229,48.16723757107229 0 0,0 0.8180973511348525,0.12023213788730264 l -4.18078185726857 26.843618614207287" fill="#acff21" stroke="none" /><path d="M 103.58742460773223 79.30868818359171 l 3.8513217154671127 -22.21340020589574 a43.54479602177224,43.54479602177224 0 0,0 0.7354203182631843,0.1340180801273015 l -4.232076767281351 22.144013951837074" fill="#e1ff1b" stroke="none" /><path d="M 104.29559338865022 79.4440306129975 l 6.81498652798705 -32.612177589312225 a54.31663501155967,54.31663501155967 0 0,0 0.911064773992967,0.1985623270914493 l -7.373813718599151 32.49038380408705" fill="#69ff28" stroke="none" /><path d="M 105.3480935250658 79.69241777938227 l 10.177083140451385 -38.64404234371277 a60.961669508546876,60.961669508546876 0 0,0 1.0096953564354776,0.27519695931230315 l -10.838959897821557 38.463644890256326" fill="#30ff3a" stroke="none" /><path d="M 107.06938296918511 80.22567764915836 l 0.6499296347650824 -1.8179688608227926 a22.93065256042282,22.93065256042282 0 0,0 0.3695229326712955,0.13569393930284387 l -0.6810417190905025 1.8065440725112267" fill="#ff0e01" stroke="none" /><path d="M 109.06512990194946 81.05736502329252 l 2.135858845217868 -4.463123518840406 a25.947864645594276,25.947864645594276 0 0,0 0.40014047709575584,0.195728758642547 l -2.212159571575691 4.4258010101006375" fill="#ff3905" stroke="none" /><line stroke="#e1ed5e" stroke-width="0.3" x1="143.13028292997686" x2="145.6673583964461" y1="26.7553504044142" y2="22.446841604673864" /><path d="M 143.63769802327073 25.89364864446614 a86.0,86.0 0 0,1 29.32050498858742,28.57503671076993" fill="none" id="id110" stroke="none" /><text fill="#e1ed5e" style="font-size:6.75px; font-family:Arial;" text-anchor="middle"><textPath startOffset="20.669276256404974" xlink:href="#id110">February</textPath></text><path d="M 110.96478420261332 82.08984904055464 l 1.9992964635780808 -3.2657005202924414 a24.82909731366469,24.82909731366469 0 0,0 0.361601362299507,0.22566599399601608 l -2.0550619546673 3.23089872945488" fill="#ff2904" stroke="none" /><path d="M 111.27062007382361 82.28071324371311 l 6.3349663474649915 -9.959619308157366 a32.80363568511562,32.80363568511562 0 0,0 0.4725510051882964,0.3063018523637786 l -6.505002984910295 9.849403614089693" fill="#ff970d" stroke="none" /><path d="M 113.31354834802062 83.75963576809568 l 3.716147202076497 -4.533095349450337 a26.86162976267772,26.86162976267772 0 0,0 0.3540946925976181,0.295398386379081 l -3.793416228836008 4.468634779159386" fill="#ff4606" stroke="none" /><path d="M 113.86319453409587 84.22622945171908 l 1.8010283159142801 -2.049239613302551 a23.72820196969605,23.72820196969605 0 0,0 0.3036475104693236,0.27152347624513257 l -1.8359408532069792 2.0180206071740314" fill="#ff1902" stroke="none" /><path d="M 115.6541949942343 86.00192230759917 l 9.393400410761995 -8.399636569884686 a33.60118509438885,33.60118509438885 0 0,0 0.38079572811162293,0.4332756368833585 l -9.536207202832207 8.23714865519003" fill="#ffa10e" stroke="none" /><path d="M 116.7966241395341 87.39550010848427 l 4.934047199177026 -3.7026010030421115 a27.168798582498468,27.168798582498468 0 0,0 0.2767310070062019,0.37543875873265653 l -4.996880225767054 3.61735593504058" fill="#ff4a06" stroke="none" /><path d="M 117.01052211995028 87.68569379921539 l 9.987334940135437 -7.2300602953498325 a33.329664678361866,33.329664678361866 0 0,0 0.3315268439223366,0.4663340242208843 l -10.109976882587734 7.057549044419444" fill="#ff9d0e" stroke="none" /><path d="M 117.42321728460499 88.27688183743584 l 10.913391511896856 -7.343016858392586 a34.15378313925618,34.15378313925618 0 0,0 0.3231200965796012,0.48924500948249755 l -11.037836047397182 7.15459197057103" fill="#ffa80f" stroke="none" /><line stroke="#e1ed5e" stroke-width="0.3" x1="172.87174338648825" x2="177.1583165268699" y1="56.24261187166439" y2="53.66864786411523" /><path d="M 173.72905801456457 55.72781907015455 a86.0,86.0 0 0,1 12.242430191666344,42.057860355516425" fill="none" id="id111" stroke="none" /><text fill="#e1ed5e" style="font-size:6.75px; font-family:Arial;" text-anchor="middle"><textPath startOffset="22.145653131862474" xlink:href="#id111">March</textPath></text><path d="M 118.18653347947321 89.5 l 16.933317254706385 -9.77645527527807 a40.552910550556135,40.552910550556135 0 0,0 0.34289732690720914,0.6058667208577635 l -17.098647946634973 9.484331784321189" fill="#fff917" stroke="none" /><path d="M 118.36410011445183 89.81374322990088 l 29.273833370852863 -16.237701902198786 a54.47566703277365,54.47566703277365 0 0,0 0.4465828291665822,0.8216621059941882 l -29.548261549634784 15.732784962729996" fill="#68ff28" stroke="none" /><path d="M 118.70294669586156 90.45014215332178 l 11.995951322025839 -6.1252182195636244 a34.46926673422453,34.46926673422453 0 0,0 0.2645599716071475,0.529297164913427 l -12.099331206844722 5.918389198486446" fill="#ffac10" stroke="none" /><path d="M 119.0197475246899 91.09779779509293 l 10.835134573458824 -5.071390078396042 a32.96324113909841,32.96324113909841 0 0,0 0.2354761075997063,0.5145577917766972 l -10.920595145913582 4.88464330440466" fill="#ff990e" stroke="none" /><path d="M 119.16976305983485 91.42560881287824 l 16.008235861145028 -7.160280284150313 a38.53662536332579,38.53662536332579 0 0,0 0.2649230001842717,0.6061956695402166 l -16.12879274334627 6.884422544834248" fill="#ffe015" stroke="none" /><path d="M 119.31412917781788 91.75594674310238 l 37.255295287219205 -15.90207022131877 a61.50719521593233,61.50719521593233 0 0,0 0.40616468340471795,0.9746473811100592 l -37.522785815160404 15.260190330767433" fill="#31ff40" stroke="none" /><path d="M 119.71291397450082 92.76114493625339 l 12.327225061740899 -4.526727792530066 a34.132088266169895,34.132088266169895 0 0,0 0.1972506870489285,0.5517452777183696 l -12.403115918833771 4.314447558430779" fill="#ffa80f" stroke="none" /><path d="M 120.05942366710727 93.78553927170692 l 20.955236870491287 -6.491985948593646 a42.93781743599702,42.93781743599702 0 0,0 0.21207944930828693,0.705943511644588 l -21.0635926398032 6.131304833358334" fill="#e8ff1a" stroke="none" /><path d="M 120.16314734710363 94.1308016681162 l 49.55755657036269 -14.425482458064323 a72.61439680333986,72.61439680333986 0 0,0 0.3381116769773915,1.199839061967681 l -49.797886739414665 13.57263547219363" fill="#3fffbd" stroke="none" /><path d="M 120.26092885502905 94.47779374421319 l 13.83368377035651 -3.7704320272699396 a35.33830409534154,35.33830409534154 0 0,0 0.15449657364160158,0.5866486547637445 l -13.896369824802841 3.5324028681333965" fill="#ffb811" stroke="none" /><path d="M 120.43855184770803 95.1765574152323 l 18.183045900752806 -4.291149322710558 a39.68253517964526,39.68253517964526 0 0,0 0.1507731091995947,0.6643341386390479 l -18.254029871510067 3.9783808501324835" fill="#ffee16" stroke="none" /><path d="M 120.51834098615036 95.52812308129327 l 12.761414031391476 -2.781290792250681 a34.06098260283864,34.06098260283864 0 0,0 0.11960642041451136,0.5723600196950382 l -12.807278162630356 2.5618143212702384" fill="#ffa70f" stroke="none" /><path d="M 120.592083275326 95.88100663000786 l 5.6326870627811525 -1.1266951651577732 a26.744267189329904,26.744267189329904 0 0,0 0.08618493909041014,0.4509560196097812 l -5.651198294153719 1.0298365805146774" fill="#ff4406" stroke="none" /><path d="M 120.65975698304385 96.23510406497455 l 12.918381299501698 -2.3541594066919687 a34.13113254488856,34.13113254488856 0 0,0 0.1000939060463668,0.5773150511550056 l -12.9568900230403 2.13205132261637" fill="#ffa80f" stroke="none" /><path d="M 120.77682067341334 96.94652285012252 l 40.448497346523446 -5.944536189434159 a61.88298482375286,61.88298482375286 0 0,0 0.1454411729991794,1.0523398763828005 l -40.54458303607784 5.249308004851273" fill="#32ff45" stroke="none" /><path d="M 120.86939407059847 97.66154086499901 l 12.903674877720047 -1.4458836845387064 a33.98442932820379,33.98442932820379 0 0,0 0.059986737527257854,0.5803172699947236 l -12.926594007728971 1.2241618922610515" fill="#ffa60f" stroke="none" /><path d="M 120.9064616781168 98.02013634271609 l 12.953425301046945 -1.226702843634654 a34.01138066833741,34.01138066833741 0 0,0 0.05005564588125718,0.5817224802743375 l -12.972574569625943 1.0041593159846545" fill="#ffa60f" stroke="none" /><path d="M 120.99303781780057 99.45929381324524 l 4.543999003254368 -0.11703729564969281 a25.545505986152662,25.545505986152662 0 0,0 0.007528100530571056,0.4384741150399716 l -4.545338535383605 0.03901626464065484" fill="#ff3304" stroke="none" /><line stroke="#e1ed5e" stroke-width="0.3" x1="184.99686870605535" x2="189.99668451229388" y1="99.2704041080226" y2="99.22748670261217" /><path d="M 185.99683186730306 99.26182062694052 a86.0,86.0 0 0,1 -10.086455211305974,41.156179273409016" fill="none" id="id112" stroke="none" /><text fill="#e1ed5e" style="font-size:6.75px; font-family:Arial;" text-anchor="middle"><textPath startOffset="21.40746469413373" xlink:href="#id112">April</textPath></text><path d="M 120.98066250479742 100.90099992219065 l 15.97993623131208 0.6862472192063247 a36.994664648021505,36.994664648021505 0 0,0 -0.03269343687878098,0.6342439413264974 l -15.965801204976724 -0.9604629539095527" fill="#ffcd13" stroke="none" /><path d="M 120.93736805541906 101.62068470465957 l 11.788156080838862 0.9124778341664807 a32.82341911563924,32.82341911563924 0 0,0 -0.04830728454943493,0.5614038714050061 l -11.770755173591686 -1.114702752947144" fill="#ff970d" stroke="none" /><path d="M 120.82617615685814 102.69636545807757 l 26.409790792673487 3.4192761605432813 a47.630217783090714,47.630217783090714 0 0,0 -0.111943448822146,0.8099670311103772 l -26.34720282729613 -3.8721314998537437" fill="#b2ff20" stroke="none" /><path d="M 120.77682067341334 103.0534771498775 l 13.129159892944537 1.9295343768112692 a34.27018999132265,34.27018999132265 0 0,0 -0.09053614308841235,0.5813069848744594 l -13.094102257717859 -2.154629543617179" fill="#ffaa0f" stroke="none" /><path d="M 120.51834098615036 104.47187691870673 l 21.102215450215564 4.599129640602604 a42.59758065984211,42.59758065984211 0 0,0 -0.16184877431317682,0.7131355627268495 l -21.020155814344722 -4.960699537268471" fill="#ecff1a" stroke="none" /><path d="M 120.35273937422433 105.17358676015961 l 14.82967353452458 3.769645021488894 a36.301288858413685,36.301288858413685 0 0,0 -0.15870667512135336,0.6026350958303504 l -14.762777378598498 -4.023660621692048" fill="#ffc412" stroke="none" /><path d="M 120.16314734710363 105.8691983318838 l 49.325670037175826 14.357983667804167 a72.37288603554677,72.37288603554677 0 0,0 -0.3574658129316587,1.189887431794683 l -49.07192790424054 -15.202608703189574" fill="#3fffba" stroke="none" /><path d="M 120.05942366710727 106.21446072829308 l 12.321524449439918 3.8172397709165873 a33.89927456203693,33.89927456203693 0 0,0 -0.1769788857882759,0.5543838390476878 l -12.254180847874387 -4.028192643655658" fill="#ffa50f" stroke="none" /><path d="M 119.94978838288452 106.5578916946017 l 22.989765359837957 7.557192508541491 a45.2000097089146,45.2000097089146 0 0,0 -0.2486314317357276,0.7350346490164774 l -22.856648506529865 -7.950728832032129" fill="#ceff1d" stroke="none" /><path d="M 119.83427380445688 106.89939002012753 l 48.49143971990408 16.867839910022006 a72.34144280539087,72.34144280539087 0 0,0 -0.41806405703038296,1.1693995732094804 l -48.19473549282975 -17.697774439612406" fill="#3fffba" stroke="none" /><path d="M 119.4528033332814 107.91128576633889 l 46.94980598545084 19.094077365681883 a71.68400213596121,71.68400213596121 0 0,0 -0.47336754554519944,1.1359097859042806 l -46.61511259536915 -19.897219661027442" fill="#3effb3" stroke="none" /><path d="M 119.16976305983485 108.57439118712176 l 18.847983190879294 8.430463144612641 a41.64749813406797,41.64749813406797 0 0,0 -0.29751293904906,0.6501194643590794 l -18.700485786975175 -8.75277159118641" fill="#f8ff18" stroke="none" /><path d="M 119.0197475246899 108.90220220490707 l 18.880097564406185 8.836838972154426 a41.84581029994477,41.84581029994477 0 0,0 -0.3100988595307697,0.6479873500236839 l -18.725619446915502 -9.159638824243213" fill="#f5ff19" stroke="none" /><path d="M 118.70294669586154 109.54985784667822 l 45.77090453050911 23.370949983884728 a72.39238274968598,72.39238274968598 0 0,0 -0.574629812954749,1.1019284341216145 l -45.36296664857941 -24.153224661110844" fill="#3fffba" stroke="none" /><path d="M 118.5362547648365 109.86951160357373 l 18.381089540663165 9.786894861417432 a41.82421099898663,41.82421099898663 0 0,0 -0.3428682105783256,0.6308388894127308 l -18.2103759804695 -10.100988584304766" fill="#f6ff19" stroke="none" /><line stroke="#e1ed5e" stroke-width="0.3" x1="174.33088141563837" x2="178.70328620479359" y1="141.23008692659167" y2="143.65538615756765" /><path d="M 175.20536237346943 141.71514677278685 a86.0,86.0 0 0,1 -30.301960400862466,31.631185727798858" fill="none" id="id113" stroke="none" /><text fill="#e1ed5e" style="font-size:6.75px; font-family:Arial;" text-anchor="middle"><textPath startOffset="22.145653131862474" xlink:href="#id113">May</textPath></text><path d="M 118.18653347947321 110.5 l 19.496638834555927 11.256389679423771 a43.51277935884755,43.51277935884755 0 0,0 -0.3790300614312433,0.6436759081965022 l -19.30053506299492 -11.589416755913824" fill="#e2ff1b" stroke="none" /><path d="M 118.00360718960297 110.81064883170644 l 1.4246924480397858 0.8554868803090095 a22.66180816398357,22.66180816398357 0 0,0 -0.20312753713465503,0.33179356628240214 l -1.4097969464497262 -0.8798175627159688" fill="#ff0a01" stroke="none" /><path d="M 117.81537515405839 111.11811171558189 l 6.4256514607794815 4.010081750653664 a28.574282298828255,28.574282298828255 0 0,0 -0.26326752853860774,0.413900282436897 l -6.355866240614984 -4.119795707769232" fill="#ff5d08" stroke="none" /><path d="M 117.62189284568427 111.42229804090321 l 8.030003268990772 5.2049511032126645 a30.569350473612992,30.569350473612992 0 0,0 -0.2892087074844767,0.4378988442175306 l -7.939470122585568 -5.342029825769256" fill="#ff790b" stroke="none" /><path d="M 117.423217284605 111.72311816256416 l 28.916062901446722 19.4560176029787 a55.85219239427902,55.85219239427902 0 0,0 -0.5420595253009224,0.7908810470592216 l -28.57781363933048 -19.94953338510797" fill="#5aff2a" stroke="none" /><path d="M 116.79662413953412 112.60449989151573 l 25.988254801205528 19.502070898370658 a53.49184754576843,53.49184754576843 0 0,0 -0.5574564315741155,0.729728363522379 l -25.64964639227711 -19.945320175133915" fill="#72ff27" stroke="none" /><path d="M 116.1254893667686 113.45245675266167 l 7.0512627778624335 5.882414196143919 a30.182761215313384,30.182761215313384 0 0,0 -0.3353239180904392,0.3950107323505384 l -6.9492442962648795 -6.002591710944014" fill="#ff730a" stroke="none" /><path d="M 115.89218393027572 113.72728997021213 l 2.969857718336717 2.5652923631354785 a24.92438272541369,24.92438272541369 0 0,0 -0.2824632060147721,0.3213912773892536 l -2.9253834483633594 -2.615895918336025" fill="#ff2a04" stroke="none" /><path d="M 115.6541949942343 113.99807769240083 l 11.084568700111012 9.911889682481748 a35.86987627201951,35.86987627201951 0 0,0 -0.4143864025766301,0.4554832462449079 l -10.912784596692502 -10.100710504284327" fill="#ffbe11" stroke="none" /><path d="M 115.41159269507618 114.26474011684316 l 5.322146278614206 4.926099140454886 a28.252013082762428,28.252013082762428 0 0,0 -0.3324914389815046,0.35309438606337107 l -5.236799005896442 -5.016734986462755" fill="#ff5908" stroke="none" /><path d="M 115.16444852881244 114.52719865689866 l 35.5656500540414 34.071088224219075 a70.25194936801034,70.25194936801034 0 0,0 -0.8417294145655532,0.8636885316584063 l -34.975533838325035 -34.67659944794522" fill="#3cffa4" stroke="none" /><path d="M 114.65682725009322 115.03919595460226 l 7.0375396800025225 7.221135685089943 a31.083241806586283,31.083241806586283 0 0,0 -0.3853249081312387,0.3691325455876706 l -6.912542286005971 -7.340880360983194" fill="#ff800b" stroke="none" /><path d="M 114.39649973595853 115.28858382429668 l 3.3562887771358625 3.5642623727226006 a25.895777835761574,25.895777835761574 0 0,0 -0.32625008876238754,0.3019722115274507 l -3.2946089170595076 -3.6213523303824307" fill="#ff3805" stroke="none" /><path d="M 114.13192950727249 115.5334660781643 l 3.3440672830693203 3.675715738457705 a25.969272802296157,25.969272802296157 0 0,0 -0.332326277616259,0.2971682066699785 l -3.2804759786296835 -3.7325794750110703" fill="#ff3905" stroke="none" /><path d="M 113.86319453409587 115.77377054828091 l 7.574653419873915 8.61856513186661 a32.47410298731167,32.47410298731167 0 0,0 -0.4218857938682369,0.3644149005669064 l -7.425588146242823 -8.747324164898234" fill="#ff920d" stroke="none" /><path d="M 113.31354834802062 116.24036423190432 l 6.078092845971137 7.414284988012148 a30.587222461573937,30.587222461573937 0 0,0 -0.4089209115742571,0.32939774037169883 l -5.949921164041628 -7.51753102217725" fill="#ff790b" stroke="none" /><path d="M 113.03279911837588 116.46651593811092 l 32.03665458871784 40.47726651790953 a72.62127799656548,72.62127799656548 0 0,0 -0.9841568345572798,0.7652863071711415 l -31.337087809525325 -41.021253876701465" fill="#3fffbd" stroke="none" /><path d="M 112.7482090630111 116.68781488649013 l 18.028330253987992 23.599663019646155 a50.6978919519166,50.6978919519166 0 0,0 -0.6961231244219079,0.5223837702961708 l -17.620554140655315 -23.90566581720634" fill="#90ff24" stroke="none" /><path d="M 111.8722381534696 117.32195027204791 l 9.853668780597875 14.376797231351503 a38.42948900768825,38.42948900768825 0 0,0 -0.5473525147016649,0.3682831994578828 l -9.605419977799206 -14.543830104866506" fill="#ffdf14" stroke="none" /><path d="M 111.5731344415666 117.5232005979908 l 3.2100231724897217 4.8603842165443565 a26.824738921218227,26.824738921218227 0 0,0 -0.38642233022014844,0.2504742858265569 l -3.1261152100125633 -4.914772344074808" fill="#ff4506" stroke="none" /><path d="M 111.27062007382361 117.71928675628689 l 27.623233366247586 43.42831094885095 a72.46903159644896,72.46903159644896 0 0,0 -1.0554109244793164,0.6586544747295683 l -26.873658312978556 -43.89610122042207" fill="#3fffbb" stroke="none" /><path d="M 110.96478420261333 117.91015095944535 l 1.4924487366203245 2.437802849392397 a23.858371208213743,23.858371208213743 0 0,0 -0.35113528677866873,0.21084665077434744 l -1.4503806932842194 -2.4630635007026678" fill="#ff1b02" stroke="none" /><line stroke="#e1ed5e" stroke-width="0.3" x1="143.1302829299769" x2="145.66735839644613" y1="173.24464959558577" y2="177.55315839532614" /><path d="M 143.63769802327073 174.10635135553383 a86.0,86.0 0 0,1 -40.68552437913181,11.842963189579606" fill="none" id="id114" stroke="none" /><text fill="#e1ed5e" style="font-size:6.75px; font-family:Arial;" text-anchor="middle"><textPath startOffset="21.407464694133747" xlink:href="#id114">June</textPath></text><path d="M 110.65571695917076 118.09573695890943 l 21.21513952899315 36.027944992741 a62.81022561090312,62.81022561090312 0 0,0 -0.9338012157672216,0.5391303832928073 l -20.593545845365526 -36.38682227330998" fill="#33ff50" stroke="none" /><path d="M 109.71004243097381 118.62028667847754 l 14.957965158262148 28.683870472601768 a53.34973179123406,53.34973179123406 0 0,0 -0.8156736479546068,0.4164887765504628 l -14.46336428859396 -28.936417200825066" fill="#74ff27" stroke="none" /><path d="M 109.3889696526874 118.78422872680471 l 5.974980147429488 11.953962775383754 a34.364041821149655,34.364041821149655 0 0,0 -0.529925844652806,0.2592132855424046 l -5.768894053514613 -12.054769811023382" fill="#ffab0f" stroke="none" /><path d="M 109.06512990194946 118.94263497670748 l 10.410594593883978 21.75413870682864 a45.116861957438545,45.116861957438545 0 0,0 -0.7014840297049987,0.3283299459070377 l -10.035621850307473 -21.929644884306214" fill="#cfff1d" stroke="none" /><path d="M 108.4095320186766 119.2426549942271 l 13.24693802268435 30.311586606044987 a54.07980727804511,54.07980727804511 0 0,0 -0.8538555826163141,0.3644601748274882 l -12.724647364897606 -30.53452143053188" fill="#6cff28" stroke="none" /><path d="M 108.07796709384702 119.3841803445677 l 3.48181179947674 8.35508080966429 a30.051540683386225,30.051540683386225 0 0,0 -0.47788466407479996,0.19435153258236773 l -3.337872674211499 -8.41361959882595" fill="#ff720a" stroke="none" /><path d="M 107.74402155503746 119.51999308798841 l 12.28135833477103 30.95704578067635 a54.304210634902326,54.304210634902326 0 0,0 -0.8694562799451443,0.3363243671309906 l -11.748129792332355 -31.16331003594538" fill="#6aff28" stroke="none" /><path d="M 107.407793817531 119.65005319985036 l 6.837354091729419 18.136894054845296 a40.382887734606825,40.382887734606825 0 0,0 -0.6507622522344974,0.23896891301693754 l -6.525002687840795 -18.251593816870955" fill="#fff717" stroke="none" /><path d="M 106.72888874123015 119.89276391827305 l 20.186666223690434 59.678291754819156 a84.0,84.0 0 0,0 -1.369909049409063,0.4503163143919231 l -19.159234436633636 -60.016028990613094" fill="#4dd2ff" stroke="none" /><path d="M 106.38641147887787 120.00534299687104 l 16.44227648851857 51.50519691537277 a75.06601303421786,75.06601303421786 0 0,0 -1.230937368633984,0.38134754334482246 l -15.55569848701296 -51.77986104652424" fill="#42ffd6" stroke="none" /><path d="M 106.0420521117495 120.11202640906438 l 7.861428514034746 26.16813873216618 a48.323498000570396,48.323498000570396 0 0,0 -0.7965092856949946,0.23185224461510084 l -7.411059215958145 -26.299234671083802" fill="#aaff21" stroke="none" /><path d="M 105.69591212413111 120.21278271476187 l 1.8942017636903663 6.72185381954653 a27.98364654696384,27.98364654696384 0 0,0 -0.4634872732716009,0.1263255173665313 l -1.7785330894840703 -6.753379831057203" fill="#ff5507" stroke="none" /><path d="M 104.9986988182912 120.39639698878246 l 2.9850100489288796 12.179859636806704 a33.54030564876788,33.54030564876788 0 0,0 -0.5603911812328262,0.1322507929048704 l -2.775486713956174 -12.2293065733578" fill="#ffa00e" stroke="none" /><path d="M 104.29559338865022 120.5559693870025 l 2.5226057699378233 12.071581802720816 a33.3323406979496,33.3323406979496 0 0,0 -0.5610999801049829,0.11223571054243205 l -2.315009304301882 -12.11310690992611" fill="#ff9d0e" stroke="none" /><path d="M 103.94208987418118 120.62667999033965 l 6.856777792646643 35.877558809631964 a57.526902795560595,57.526902795560595 0 0,0 -0.971561633712854,0.1770508940833345 l -6.239881425382731 -35.98997787764666" fill="#49ff2c" stroke="none" /><path d="M 103.58742460773223 120.69131181640829 l 0.4721805027407534 2.723411662722975 a23.764041517746076,23.764041517746076 0 0,0 -0.4025430564877663,0.06623830675946156 l -0.4253599431999148 -2.731115967978108" fill="#ff1a02" stroke="none" /><path d="M 103.2317021107853 120.74984581791261 l 2.6891761258102704 17.266439812491033 a38.474599052167214,38.474599052167214 0 0,0 -0.653472550177066,0.09603796131287816 l -2.392378470025519 -17.31005884710279" fill="#ffdf14" stroke="none" /><path d="M 102.51750503828377 120.84855314841334 l 1.5085369501750807 12.492849985917484 a33.58359982281231,33.58359982281231 0 0,0 -0.57294276721521,0.06419943211071565 l -1.2938582813590715 -12.51690517853517" fill="#ffa10e" stroke="none" /><path d="M 101.08105385017728 120.97215588758144 l 1.1757068232545094 22.80839827853462 a43.83868031578244,43.83868031578244 0 0,0 -0.751883968523825,0.03228913276601132 l -0.7839970941298547 -22.825219979726466" fill="#deff1b" stroke="none" /><line stroke="#e1ed5e" stroke-width="0.3" x1="101.45913802915013" x2="101.54496967792366" y1="184.9874750549273" y2="189.98673829345242" /><path d="M 101.47630435890484 185.9873277026323 a86.0,86.0 0 0,1 -42.54439059252881,-10.42667462771756" fill="none" id="id115" stroke="none" /><text fill="#e1ed5e" style="font-size:6.75px; font-family:Arial;" text-anchor="middle"><textPath startOffset="22.145653131862474" xlink:href="#id115">July</textPath></text><path d="M 100.36049292484886 120.99690560180557 l 0.6515454015728454 37.94925322834389 a58.95484596200174,58.95484596200174 0 0,0 -1.012038326421693,0.008687131852286024 l -4.6481280619496275e-15 -37.95484596200174" fill="#3bff2e" stroke="none" /><path d="M 100.0 121.0 l 2.3868512659523364e-15 19.490119662372493 a40.49011966237249,40.49011966237249 0 0,0 -0.6950667459318418,-0.005966312055985663 l 0.3345738210829873 -19.487247748510942" fill="#fff817" stroke="none" /><path d="M 99.27912038922189 120.98762331915562 l -1.4362650390702603 41.815289509911686 a62.8399485427526,62.8399485427526 0 0,0 -1.0777776509651595,-0.046284409724260865 l 2.1538684506362586 -41.784472531761594" fill="#33ff50" stroke="none" /><path d="M 98.91894614982273 120.97215588758144 l -0.3377042798541581 6.551372810747115 a27.560070875076608,27.560070875076608 0 0,0 -0.472268912382209,-0.02841052502174884 l 0.45011754436881346 -6.544610307900675" fill="#ff4f07" stroke="none" /><path d="M 98.55909050195518 120.95050786540614 l -2.419578530678338 35.18014081156924 a56.263248117380776,56.263248117380776 0 0,0 -0.9629883727638322,-0.07454139041604177 l 3.0231358982174066 -35.13342165415814" fill="#55ff2b" stroke="none" /><path d="M 98.19965949673042 120.92268563240118 l -2.860119089720961 33.238919235991 a54.36174505603864,54.36174505603864 0 0,0 -0.9290692397983218,-0.08798382295854822 l 3.430287892904298 -33.18492365752727" fill="#69ff28" stroke="none" /><path d="M 97.84075906011543 120.88869738790638 l -3.837639125091633 37.12567730969121 a58.32349648355249,58.32349648355249 0 0,0 -0.9950102325318517,-0.1114929719479321 l 4.474385259224284 -37.05432857723631" fill="#41ff2d" stroke="none" /><path d="M 97.48249496171623 120.84855314841334 l -1.4873638585346933 12.31750641374262 a33.406982530021786,33.406982530021786 0 0,0 -0.5687493884852182,-0.07363599509885384 l 1.6985910689107055 -12.290158822443368" fill="#ff9e0e" stroke="none" /><path d="M 96.76829788921471 120.74984581791261 l -2.0547910620143366 13.19323262578242 a34.35228644938925,34.35228644938925 0 0,0 -0.5818991005530073,-0.09575127555741816 l 2.2809676656204076 -13.156015351729334" fill="#ffab0f" stroke="none" /><path d="M 96.41257539226777 120.69131181640829 l -1.2453575045143368 7.1828911451603705 a28.290050789759523,28.290050789759523 0 0,0 -0.4777856381525803,-0.08706845914840765 l 1.3684778762179741 -7.160454512080597" fill="#ff5a08" stroke="none" /><path d="M 96.05791012581884 120.62667999033965 l -3.9356073146934167 20.592760499830828 a41.96546660436779,41.96546660436779 0 0,0 -0.7064257109989155,-0.14130492680568496 l 4.28852951122329 -20.52216617636228" fill="#f4ff19" stroke="none" /><path d="M 95.70440661134978 120.55596938700252 l -2.5505028725804832 12.205079537730796 a33.46872212479596,33.46872212479596 0 0,0 -0.56137818095637,-0.12234976169753961 l 2.7596434701559898 -12.159498317899537" fill="#ff9f0e" stroke="none" /><path d="M 95.35216902796893 120.47920084513623 l -2.7311933194066658 12.034141704292912 a33.340177612456536,33.340177612456536 0 0,0 -0.5570474434672491,-0.1314616798967197 l 2.937372916613803 -11.985483880749964" fill="#ff9e0e" stroke="none" /><path d="M 95.00130118170881 120.39639698878247 l -2.9119391468295417 11.881705420734958 a33.2333279732034,33.2333279732034 0 0,0 -0.5529308991591535,-0.14055287234679661 l 3.1154753392140737 -11.8299673165529" fill="#ff9c0e" stroke="none" /><path d="M 94.30408787586889 120.21278271476187 l -10.492351459811054 37.23365382088424 a59.68377458327518,59.68377458327518 0 0,0 -0.9837590950130402,-0.28635793509962876 l 11.129970567205701 -37.0480521914821" fill="#34ff2f" stroke="none" /><path d="M 93.61358852112213 120.00534299687104 l -9.990188020048466 31.294121684031772 a53.850051882012416,53.850051882012416 0 0,0 -0.8782103974323137,-0.2886852011109663 l 10.525921155128524 -31.118015561518785" fill="#6eff28" stroke="none" /><path d="M 93.27111125876986 119.89276391827306 l -2.033127055190672 6.010578875668548 a27.34512915890459,27.34512915890459 0 0,0 -0.4433742210138277,-0.15422856948547625 l 2.136007048249521 -5.974791873614482" fill="#ff4c07" stroke="none" /><path d="M 92.93061703081489 119.77432235084164 l -4.183763168913249 11.702730196155407 a33.428103970339265,33.428103970339265 0 0,0 -0.5386872868188965,-0.19781343331630055 l 4.384039607386264 -11.629185913830387" fill="#ff9f0e" stroke="none" /><path d="M 92.59220618246901 119.65005319985036 l -3.672150248428041 9.740814811649944 a31.41000291267438,31.41000291267438 0 0,0 -0.5029006768761998,-0.19453278535270957 l 3.838823187797769 -9.676342138159194" fill="#ff840c" stroke="none" /><path d="M 92.25597844496254 119.51999308798841 l -4.6677845660208375 11.76586632893288 a33.65795493850009,33.65795493850009 0 0,0 -0.5352344712935845,-0.21767519991087086 l 4.8690734985048625 -11.684003872442718" fill="#ffa20e" stroke="none" /><path d="M 91.92203290615298 119.3841803445677 l -4.141124143729298 9.93719042163907 a31.765531229330627,31.765531229330627 0 0,0 -0.5015398082963967,-0.21407752076124587 l 4.311099027196126 -9.86463825121842" fill="#ff890c" stroke="none" /><path d="M 91.26138138417905 119.09545874513695 l -9.33244984590357 20.393087152341593 a43.42705115991189,43.42705115991189 0 0,0 -0.6752105869995922,-0.31603264809701287 l 9.681149146774652 -20.229878272674053" fill="#e3ff1b" stroke="none" /><path d="M 90.93487009805054 118.94263497670748 l -4.06605706299159 8.496495424974482 a30.419302232443552,30.419302232443552 0 0,0 -0.46909425012268074,-0.2294575043476482 l 4.21131156237634 -8.425444170529612" fill="#ff770a" stroke="none" /><line stroke="#e1ed5e" stroke-width="0.3" x1="58.13341422392154" x2="55.67067388415222" y1="173.97424548756322" y2="178.32567169271397" /><path d="M 57.64086615596768 174.84453072859336 a86.0,86.0 0 0,1 -31.369924170532247,-30.572349798747897" fill="none" id="id116" stroke="none" /><text fill="#e1ed5e" style="font-size:6.75px; font-family:Arial;" text-anchor="middle"><textPath startOffset="22.145653131862474" xlink:href="#id116">August</textPath></text><path d="M 89.65649057296885 118.27599006163327 l -3.981790119335561 7.03544161310572 a29.084064030291813,29.084064030291813 0 0,0 -0.43239351692797734,-0.2496425133942186 l 4.101976104123938 -6.966052202435329" fill="#ff6409" stroke="none" /><path d="M 89.03521579738668 117.91015095944536 l -5.0983681614204155 8.327801234437999 a30.764508759261393,30.764508759261393 0 0,0 -0.44804239708310606,-0.27961159285226916 l 5.2405746872932335 -8.239053844744182" fill="#ff7b0b" stroke="none" /><path d="M 88.72937992617639 117.7192867562869 l -6.4820239444706385 10.19081827626787 a33.077640976474086,33.077640976474086 0 0,0 -0.4764981736394137,-0.3088603592654589 l 6.656007750367062 -10.078044075298516" fill="#ff9a0e" stroke="none" /><path d="M 88.1277618465304 117.32195027204791 l -6.016211316078474 8.777832106811955 a31.641669751269745,31.641669751269745 0 0,0 -0.44540156675875797,-0.3109248852265022 l 6.166007974010997 -8.673262405780324" fill="#ff870c" stroke="none" /><path d="M 87.54013794807813 116.9041958592261 l -7.45115960917638 10.108929046485239 a33.55827320885696,33.55827320885696 0 0,0 -0.4607822750995148,-0.3457796095367818 l 7.6235948731866605 -9.979530409684443" fill="#ffa00e" stroke="none" /><path d="M 87.2517909369889 116.68781488649013 l -5.941659306686549 7.777822762278777 a30.78763721426968,30.78763721426968 0 0,0 -0.41723120854092915,-0.3244415113618292 l 6.074300459862706 -7.674680199296154" fill="#ff7c0b" stroke="none" /><path d="M 86.96720088162412 116.46651593811092 l -18.767394434255483 23.711989785275932 a51.24026377907365,51.24026377907365 0 0,0 -0.6850316467984813,-0.5518130038149147 l 19.171676851409224 -23.38632848766761" fill="#8aff24" stroke="none" /><path d="M 86.68645165197938 116.24036423190432 l -7.931379783783598 9.674993711902413 a33.51048714479026,33.51048714479026 0 0,0 -0.44174109125789995,-0.36851612939367673 l 8.09629520920339 -9.537415398596867" fill="#ffa00e" stroke="none" /><path d="M 85.86807049272751 115.53346607816431 l -3.3414946762547664 3.67288799291413 a25.965449917170822,25.965449917170822 0 0,0 -0.327127858215315,-0.30278466182874614 l 3.4040523057840484 -3.6149855849530064" fill="#ff3905" stroke="none" /><path d="M 85.08716467003676 114.78537596483092 l -6.8229499712822514 6.764634509974775 a30.607961613378883,30.607961613378883 0 0,0 -0.3667317681807377,-0.37629910145886647 l 6.938068540613799 -6.646512716448171" fill="#ff790b" stroke="none" /><path d="M 84.58840730492382 114.26474011684316 l -8.545663948867636 7.909738971716956 a32.64441251964538,32.64441251964538 0 0,0 -0.37712426342533767,-0.4145256279516216 l 8.680185913134855 -7.76187576820766" fill="#ff940d" stroke="none" /><path d="M 84.3458050057657 113.99807769240083 l -4.693850482086113 4.19727004479979 a27.29676966206909,27.29676966206909 0 0,0 -0.3093490080591996,-0.3519823847572045 l 4.765210554103905 -4.116075382231285" fill="#ff4c07" stroke="none" /><path d="M 84.1078160697243 113.72728997021213 l -12.770127814589788 11.03053225639983 a37.87450165961759,37.87450165961759 0 0,0 -0.42077748293560413,-0.49567481686820936 l 12.957599861032504 -10.809690657082067" fill="#ffd814" stroke="none" /><path d="M 83.8745106332314 113.45245675266167 l -2.7784684828570576 2.3178972280552954 a24.618360771130543,24.618360771130543 0 0,0 -0.2679335552082296,-0.3268353719673557 l 2.8178488573039173 -2.2698595743894443" fill="#ff2603" stroke="none" /><path d="M 83.64595745247003 113.17365903436017 l -6.725772050690059 5.4178058716132185 a29.636470930902867,29.636470930902867 0 0,0 -0.3157463535504047,-0.39893520309136005 l 6.817784834882026 -5.301550724607178" fill="#ff6c0a" stroke="none" /><path d="M 83.4222238831116 112.89097897827486 l -12.235964436912136 9.514759954712135 a36.499983312803025,36.499983312803025 0 0,0 -0.3803785321241985,-0.4979277088654897 l 12.39749494639063 -9.303311332605775" fill="#ffc612" stroke="none" /><path d="M 82.98947788004972 112.3143062007846 l -5.371417866089629 3.8884923031149174 a27.631176538407857,27.631176538407857 0 0,0 -0.27484455184412326,-0.3866032818949659 l 5.437377516463712 -3.7957117945104475" fill="#ff5007" stroke="none" /><path d="M 82.78059297857968 112.02048342749411 l -5.862750587479583 4.092655234217049 a28.149942049915957,28.149942049915957 0 0,0 -0.27320224275365335,-0.39861023692552233 l 5.932142567048562 -3.9914102622214753" fill="#ff5808" stroke="none" /><path d="M 82.576782715395 111.72311816256416 l -11.261016398465063 7.576914396081444 a34.572771348993,34.572771348993 0 0,0 -0.3270840355155528,-0.4952469182552333 l 11.389424872901344 -7.382487599487149" fill="#ffae10" stroke="none" /><path d="M 82.37810715431573 111.42229804090323 l -12.429835875014835 8.056869441167995 a35.81262856726761,35.81262856726761 0 0,0 -0.32995762114950167,-0.5187481849511787 l 12.566311187790227 -7.842307581538145" fill="#ffbe11" stroke="none" /><path d="M 82.18462484594161 111.11811171558189 l -5.759832935115511 3.594561746914103 a27.789443982596772,27.789443982596772 0 0,0 -0.2490887432141284,-0.40686774229448947 l 5.820689642785044 -3.4951568884950563" fill="#ff5307" stroke="none" /><path d="M 81.99639281039703 110.81064883170644 l -13.18659868271652 7.91817362721714 a36.381282729661336,36.381282729661336 0 0,0 -0.3169091938312772,-0.5381810940929057 l 13.320581586677568 -7.690641364830675" fill="#ffc512" stroke="none" /><line stroke="#e1ed5e" stroke-width="0.3" x1="26.387840678322732" x2="22.057713659400548" y1="142.50000000000003" y2="145.00000000000006" /><path d="M 25.521815274538298 143.00000000000003 a86.0,86.0 0 0,1 -11.493303480769221,-40.785679425670985" fill="none" id="id117" stroke="none" /><text fill="#e1ed5e" style="font-size:6.75px; font-family:Arial;" text-anchor="middle"><textPath startOffset="21.40746469413373" xlink:href="#id117">September</textPath></text><path d="M 81.81346652052679 110.50000000000001 l -9.8592283910267 5.692228165561273 a32.384456331122536,32.384456331122536 0 0,0 -0.27382852077759756,-0.48382875847192075 l 9.955490276825676 -5.522142636990231" fill="#ff910d" stroke="none" /><path d="M 81.63589988554817 110.18625677009913 l -14.88714324784566 8.257647407207573 a38.02397646801823,38.02397646801823 0 0,0 -0.31171449405174345,-0.5735195599200391 l 15.026703091512733 -8.000873013812946" fill="#ffda14" stroke="none" /><path d="M 81.4637452351635 109.86951160357371 l -6.282082591739431 3.344855140392092 a28.117065237838066,28.117065237838066 0 0,0 -0.2231851380596455,-0.42798693029289153 l 6.338575798774026 -3.236521966994698" fill="#ff5708" stroke="none" /><path d="M 81.29705330413844 109.54985784667822 l -19.05547755609578 9.729862615795646 a42.395827897352504,42.395827897352504 0 0,0 -0.3253982485693114,-0.6510144727838214 l 19.219695717876828 -9.401316286848072" fill="#efff19" stroke="none" /><path d="M 81.1358732173502 109.22738970284198 l -18.57134402399327 9.084174984051923 a41.67406718568906,41.67406718568906 0 0,0 -0.30882615520311496,-0.6453278874707119 l 18.724549437156295 -8.764034594516106" fill="#f7ff18" stroke="none" /><path d="M 80.9802524753101 108.90220220490708 l -6.262521679689813 2.9311763593519093 a27.91454789832339,27.91454789832339 0 0,0 -0.1994102781569597,-0.4357474455983909 l 6.311916422701829 -2.8232399315388297" fill="#ff5407" stroke="none" /><path d="M 80.83023694016515 108.57439118712176 l -18.22768815203411 8.153013063571565 a40.9679803030395,40.9679803030395 0 0,0 -0.28163753704548244,-0.6444418008938019 l 18.36495957109656 -7.838909192901915" fill="#fffe18" stroke="none" /><path d="M 80.68587082218212 108.24405325689762 l -17.581422184989403 7.504463674785755 a40.116050352858366,40.116050352858366 0 0,0 -0.2649075906292598,-0.6356817812879942 l 17.707655620155148 -7.201549384056479" fill="#fff417" stroke="none" /><path d="M 80.5471966667186 107.91128576633889 l -6.308701457837365 2.5656939615525918 a27.81046985078612,27.81046985078612 0 0,0 -0.17605527198943594,-0.4437742932291066 l 6.351815404792925 -2.45701865110992" fill="#ff5307" stroke="none" /><path d="M 80.41425534168474 107.57618678355246 l -15.769723235828717 6.100067719857771 a37.90842976510495,37.90842976510495 0 0,0 -0.22956138528080372,-0.6089388479905866 l 15.872115304923957 -5.828460591673039" fill="#ffd814" stroke="none" /><path d="M 80.28708602549918 107.23885506374661 l -15.309425769701523 5.621833200277177 a37.30900137745226,37.30900137745226 0 0,0 -0.2156101934760902,-0.6031000847610044 l 15.403676133221555 -5.3581981591352505" fill="#ffd113" stroke="none" /><path d="M 80.16572619554312 106.89939002012753 l -6.0342483611085385 2.0990248159349316 a27.38890119358969,27.38890119358969 0 0,0 -0.15065797023683802,-0.4453935188382626 l 6.069391752917744 -1.9951296226225073" fill="#ff4d07" stroke="none" /><path d="M 80.05021161711548 106.5578916946017 l -20.640417112317433 6.784915075595899 a42.72698532133473,42.72698532133473 0 0,0 -0.2230659609374092,-0.6987509455409385 l 20.753847789032097 -6.429595096363569" fill="#ebff1a" stroke="none" /><path d="M 79.94057633289273 106.21446072829308 l -8.324234186170749 2.5788690294177745 a29.714553359587853,29.714553359587853 0 0,0 -0.1467668011383315,-0.48853894767441053 l 8.367277307312708 -2.4355924781526403" fill="#ff6d0a" stroke="none" /><path d="M 79.83685265289637 105.86919833188381 l -12.74495002287 3.709869204765605 a34.27391730431986,34.27391730431986 0 0,0 -0.1595883484060815,-0.5663227486382376 l 12.806756863350657 -3.4905385322243716" fill="#ffaa0f" stroke="none" /><path d="M 79.64726062577567 105.17358676015961 l -0.9537741463879261 0.24244565830702394 a21.984106203389626,21.984106203389626 0 0,0 -0.08983383479244567,-0.36655270182446775 l 0.9577955076966653 -0.2260371318744566" fill="#ff0000" stroke="none" /><path d="M 79.56144815229197 104.8234425847677 l -12.827409118520038 3.0272336247465317 a34.17977875810846,34.17977875810846 0 0,0 -0.12986548091709757,-0.5722112707100535 l 12.877485460994802 -2.806588020097452" fill="#ffa90f" stroke="none" /><path d="M 79.48165901384964 104.47187691870673 l -7.234340944673028 1.576690937847994 a28.404163910750803,28.404163910750803 0 0,0 -0.09974228899517476,-0.47730295995698363 l 7.26034094449257 -1.4522715266056014" fill="#ff5b08" stroke="none" /><path d="M 79.407916724674 104.11899336999214 l -3.4557655969661747 0.691249903753376 a24.524222224919143,24.524222224919143 0 0,0 -0.07903071651698142,-0.41352210401889755 l 3.467122605765313 -0.6318252347011639" fill="#ff2503" stroke="none" /><path d="M 79.34024301695615 103.76489593502545 l -3.288383620719623 0.5992530375169767 a24.34253960933755,24.34253960933755 0 0,0 -0.07138760688302705,-0.41174474598300626 l 3.298186045094884 -0.5427152586133777" fill="#ff2203" stroke="none" /><path d="M 79.22317932658666 103.0534771498775 l -6.848532896839663 1.0064984936527694 a27.92209809644593,27.92209809644593 0 0,0 -0.0656242214448985,-0.47482417570595115 l 6.864801634839774 -0.8887860097467327" fill="#ff5407" stroke="none" /><path d="M 79.17382384314188 102.69636545807758 l -15.431302178277239 1.9978910124104712 a36.560098181398935,36.560098181398935 0 0,0 -0.07524053188295296,-0.6230995386392386 l 15.463324796419855 -1.7326977968478334" fill="#ffc712" stroke="none" /><path d="M 79.13060592940153 102.33845913500099 l -8.44485019930517 0.9462630791040368 a29.49770020085317,29.49770020085317 0 0,0 -0.052067103511366924,-0.5037019950038006 l 8.459849695298203 -0.8011565618173048" fill="#ff6a09" stroke="none" /><path d="M 79.0935383218832 101.97986365728391 l -3.4154714050894075 0.3234486931141978 a24.430752683604677,24.430752683604677 0 0,0 -0.03595552667703179,-0.4178577219391125 l 3.4205205544641797 -0.2647699237994233" fill="#ff2303" stroke="none" /><path d="M 79.06263194458094 101.62068470465958 l -8.705237674868052 0.6738404518056582 a29.7312784820112,29.7312784820112 0 0,0 -0.03502066948301258,-0.509192848302562 l 8.715522305516131 -0.524304179348753" fill="#ff6d0a" stroke="none" /><path d="M 79.03789590574601 101.26102812881392 l -22.62546079804433 1.3610915376348762 a43.666363768757925,43.666363768757925 0 0,0 -0.03858944313139286,-0.7486248874964389 l 22.645491830632295 -0.9724948567617067" fill="#e0ff1b" stroke="none" /><path d="M 79.01933749520258 100.90099992219065 l -6.8670270970649705 0.2948996905470387 a27.873356311097897,27.873356311097897 0 0,0 -0.01642578613324833,-0.47821884116479646 l 6.871077570195067 -0.17697458481812237" fill="#ff5407" stroke="none" /><path d="M 79.00696218219943 100.54070618675478 l -14.771794493180701 0.38046902698190094 a35.77669344708945,35.77669344708945 0 0,0 -0.010543167360517615,-0.6140866423539613 l 14.776149092139885 -0.12683546865888728" fill="#ffbd11" stroke="none" /><line stroke="#e1ed5e" stroke-width="0.3" x1="15.003131293944662" x2="10.003315487706104" y1="100.72959589197737" y2="100.7725132973878" /><path d="M 14.003168132696942 100.73817937305945 a86.0,86.0 0 0,1 10.791469493833604,-42.45332614584628" fill="none" id="id118" stroke="none" /><text fill="#e1ed5e" style="font-size:6.75px; font-family:Arial;" text-anchor="middle"><textPath startOffset="22.145653131862435" xlink:href="#id118">October</textPath></text><path d="M 79.00077361379809 100.18025310272382 l -12.078056168716282 0.1036755859117851 a33.078501125627284,33.078501125627284 0 0,0 0.0,-0.5678573772712009 l 12.078056168716282 0.10367558591178067" fill="#ff9a0e" stroke="none" /><path d="M 79.00077361379809 99.81974689727619 l -15.294608787151676 -0.131285821588289 a36.29517224221314,36.29517224221314 0 0,0 0.01069595981233972,-0.6229860366733415 l 15.29010139574067 0.39381877423068284" fill="#ffc412" stroke="none" /><path d="M 79.01933749520258 99.09900007780938 l -22.17905189391044 -0.9524639189113174 a43.199493922826264,43.199493922826264 0 0,0 0.03817685445181926,-0.740620777336608 l 22.15943345000205 1.3330564896246375" fill="#e5ff1a" stroke="none" /><path d="M 79.03789590574601 98.7389718711861 l -10.493008804743093 -0.6312333532538913 a31.51197837339272,31.51197837339272 0 0,0 0.03711816765761493,-0.5396900114236852 l 10.480626675920414 0.8112667888319015" fill="#ff850c" stroke="none" /><path d="M 79.0935383218832 98.0201363427161 l -7.01134044184858 -0.6639812295062303 a28.042710122150282,28.042710122150282 0 0,0 0.04949886535992106,-0.4788566206063942 l 6.998909184006995 0.7842423723955373" fill="#ff5608" stroke="none" /><path d="M 79.13060592940154 97.66154086499901 l -3.471341182877889 -0.38897102006628426 a24.493065711147654,24.493065711147654 0 0,0 0.05040662862574548,-0.4174391947404532 l 3.464152467992475 0.44850389173017374" fill="#ff2403" stroke="none" /><path d="M 79.17382384314186 97.30363454192245 l -11.237714776533636 -1.454947164710062 a32.33150937213663,32.33150937213663 0 0,0 0.0759874893124586,-0.5498076195394811 l 11.21108277066597 1.6476430924496102" fill="#ff900d" stroke="none" /><path d="M 79.22317932658666 96.9465228501225 l -10.665681299564032 -1.5674878581287788 a31.780249337063175,31.780249337063175 0 0,0 0.08395813393781322,-0.5390714473822431 l 10.63720167348795 1.7503474874424718" fill="#ff890c" stroke="none" /><path d="M 79.2786578344484 96.59031103205396 l -18.72517920415538 -3.081221112277385 a39.97699290642427,39.97699290642427 0 0,0 0.11723763829779965,-0.6761955430117117 l 18.66952674836535 3.4022096882096893" fill="#fff216" stroke="none" /><path d="M 79.34024301695615 96.23510406497455 l -19.23884003318999 -3.5059575335280755 a40.555682142272005,40.555682142272005 0 0,0 0.13069301807589379,-0.6838410961858442 l 19.17582072283194 3.835701194747234" fill="#fff917" stroke="none" /><path d="M 79.407916724674 95.88100663000787 l -22.96671358148628 -4.593985936624597 a44.42167029739619,44.42167029739619 0 0,0 0.1559883646064393,-0.7464607930654621 l 22.884467506055476 4.987563180975469" fill="#d7ff1c" stroke="none" /><path d="M 79.48165901384962 95.52812308129327 l -7.023768882118331 -1.5307977368870354 a28.188648761809986,28.188648761809986 0 0,0 0.10710228564564304,-0.4719124322526228 l 6.996455734915026 1.6511445030786662" fill="#ff5808" stroke="none" /><path d="M 79.56144815229197 95.17655741523228 l -35.679440695570214 -8.420250854074407 a57.65955690940976,57.65955690940976 0 0,0 0.23561472373193904,-0.9613884765479329 l 35.52963844532198 9.031495155230457" fill="#47ff2c" stroke="none" /><path d="M 79.64726062577567 94.8264132398404 l -19.613734997745905 -4.985734737512916 a41.23749370437569,41.23749370437569 0 0,0 0.18028741463383766,-0.6845806788642821 l 19.525258102307344 5.321695920749984" fill="#fdff18" stroke="none" /><path d="M 79.73907114497095 94.47779374421319 l -6.638279778141826 -1.8092926726515233 a27.880428648579766,27.880428648579766 0 0,0 0.129818588326912,-0.46068037234498105 l 6.606242697740332 1.9229809688995174" fill="#ff5407" stroke="none" /><path d="M 79.83685265289637 94.1308016681162 l -18.786846785074395 -5.468577296696398 a40.56657736487921,40.56657736487921 0 0,0 0.20036736614965386,-0.6669577959581195 l 18.69020309892111 5.790272696245241" fill="#fff917" stroke="none" /><path d="M 80.05021161711548 93.44210830539832 l -15.558757604908106 -5.1144726609272855 a37.3778133097083,37.3778133097083 0 0,0 0.20560392128656188,-0.6078314598610848 l 15.468668262049178 5.380805795262532" fill="#ffd213" stroke="none" /><path d="M 80.16572619554312 93.10060997987247 l -19.27467953967159 -6.704734086472279 a41.407516520325004,41.407516520325004 0 0,0 0.2392956744671073,-0.6693525905585639 l 19.15674369516054 7.034621633411765" fill="#fbff18" stroke="none" /><path d="M 80.28708602549916 92.7611449362534 l -26.627362363449368 -9.777936287258209 a49.365903202121395,49.365903202121395 0 0,0 0.29894419776650116,-0.7929850012829037 l 26.45558748186843 10.233589568735256" fill="#9fff22" stroke="none" /><path d="M 80.41425534168474 92.42381321644754 l -6.322757141784748 -2.4457782907357677 a27.779313337014628,27.779313337014628 0 0,0 0.17585803445494008,-0.44327712579708356 l 6.2798404323636765 2.553956433746434" fill="#ff5307" stroke="none" /><path d="M 80.5471966667186 92.08871423366112 l -18.5499372040713 -7.544097971626075 a41.02532357991953,41.02532357991953 0 0,0 0.27091200476490634,-0.6500901893833319 l 18.417699354769912 7.861420670450671" fill="#ffff18" stroke="none" /><path d="M 80.68587082218212 91.75594674310238 l -3.2200274921767487 -1.3744382617398834 a24.50109376991086,24.50109376991086 0 0,0 0.16843465685238349,-0.3854114573418932 l 3.1959589533073878 1.4295117888576434" fill="#ff2403" stroke="none" /><path d="M 80.9802524753101 91.09779779509293 l -11.937388247582447 -5.587300453936643 a34.18025661874913,34.18025661874913 0 0,0 0.25329318562526704,-0.5292853394582986 l 11.839715803997276 5.791398295460028" fill="#ffa90f" stroke="none" /><path d="M 81.1358732173502 90.77261029715801 l -6.2377236523434325 -3.051183214679531 a27.94398411378848,27.94398411378848 0 0,0 0.2144768468890512,-0.42909736612202204 l 6.184426892242637 3.1578124369653233" fill="#ff5507" stroke="none" /><path d="M 81.29705330413844 90.45014215332179 l -18.15492789783949 -9.270035543619617 a41.38467478170112,41.38467478170112 0 0,0 0.32849958829551745,-0.6299412748509418 l 17.99312024056903 9.580323061575045" fill="#fbff18" stroke="none" /><path d="M 81.46374523516351 90.13048839642627 l -3.151839310745132 -1.6781769049166009 a24.570765851320107,24.570765851320107 0 0,0 0.20142721927700452,-0.3706033962491675 l 3.122566741852777 1.732035134640388" fill="#ff2503" stroke="none" /><line stroke="#e1ed5e" stroke-width="0.3" x1="26.387840678322718" x2="22.05771365940052" y1="57.49999999999999" y2="54.99999999999999" /><path d="M 25.521815274538284 56.99999999999999 a86.0,86.0 0 0,1 29.574782752854787,-30.34633250058573" fill="none" id="id119" stroke="none" /><text fill="#e1ed5e" style="font-size:6.75px; font-family:Arial;" text-anchor="middle"><textPath startOffset="21.40746469413373" xlink:href="#id119">November</textPath></text><path d="M 82.18462484594161 88.88188828441811 l -2.9184288640129905 -1.8213154572096433 a24.44011875216175,24.44011875216175 0 0,0 0.2251776472907443,-0.35401666255414116 l 2.886733525096356 1.8711457944424565" fill="#ff2403" stroke="none" /><path d="M 82.37810715431573 88.57770195909679 l -13.274001928221228 -8.604047677931462 a36.81862078799978,36.81862078799978 0 0,0 0.34833143539146505,-0.5274181897540033 l 13.124346053909033 8.830645746024526" fill="#ffca12" stroke="none" /><path d="M 82.576782715395 88.27688183743585 l -5.85649609310101 -3.940511938554691 a28.058766239676693,28.058766239676693 0 0,0 0.27231735866410034,-0.3973191645937822 l 5.787988997621596 4.040465838218508" fill="#ff5608" stroke="none" /><path d="M 82.78059297857968 87.97951657250589 l -19.661827933971512 -13.725482912422091 a44.97866466015765,44.97866466015765 0 0,0 0.44739828265668796,-0.6293217137785719 l 19.423314552784852 14.060981852910183" fill="#d0ff1d" stroke="none" /><path d="M 82.98947788004972 87.6856937992154 l -2.8532367242101855 -2.0655233529863284 a24.52240635448461,24.52240635448461 0 0,0 0.24977586638900892,-0.3388689336007889 l 2.8173588382373578 2.1141985958559806" fill="#ff2503" stroke="none" /><path d="M 83.2033758604659 87.39550010848427 l -3.1483541651737523 -2.362583659890504 a24.936233669302233,24.936233669302233 0 0,0 0.2598688300360835,-0.3401766404187436 l 3.1073333577833617 2.4162812135501315" fill="#ff2b04" stroke="none" /><path d="M 83.42222388311158 87.10902102172516 l -6.06830079719398 -4.718747403687275 a28.687057410025666,28.687057410025666 0 0,0 0.3056313213683562,-0.38615519036136986 l 5.986403045184063 4.822222537963328" fill="#ff5f08" stroke="none" /><path d="M 83.64595745247003 86.82634096563983 l -13.119148089845016 -10.567857045412824 a37.84611673756197,37.84611673756197 0 0,0 0.4118976361826627,-0.502448142524036 l 12.935803634423722 10.791507469635352" fill="#ffd714" stroke="none" /><path d="M 83.8745106332314 86.54754324733833 l -5.403409335863692 -4.507716246889993 a28.03678465020601,28.03678465020601 0 0,0 0.3114825847939688,-0.3669257016754761 l 5.325232187562609 4.599808731015026" fill="#ff5608" stroke="none" /><path d="M 84.10781606972428 86.27271002978789 l -5.32465357810017 -4.59930894194228 a28.036020073180943,28.036020073180943 0 0,0 0.3177267899072322,-0.3615147626120635 l 5.244915724234345 4.690035982365644" fill="#ff5608" stroke="none" /><path d="M 84.58840730492382 85.73525988315684 l -2.551025069840237 -2.361190720051195 a24.476053872339907,24.476053872339907 0 0,0 0.2880530441764546,-0.3059023507454203 l 2.510116191927511 2.4046345307411263" fill="#ff2403" stroke="none" /><path d="M 84.83555147118756 85.47280134310135 l -4.921058949860913 -4.714263155109734 a27.814770596552123,27.814770596552123 0 0,0 0.333264924050242,-0.3419591711129275 l 4.839407224659868 4.7980450182903915" fill="#ff5307" stroke="none" /><path d="M 85.08716467003674 85.21462403516908 l -25.44236650918089 -25.22491169183917 a56.82750596188038,56.82750596188038 0 0,0 0.6927762231001575,-0.686855094379737 l 25.005598365950757 25.657946796447582" fill="#50ff2b" stroke="none" /><path d="M 85.34317274990677 84.96080404539775 l -14.715371134614028 -15.099267137555318 a42.083880471125084,42.083880471125084 0 0,0 0.5216948565804678,-0.4997718713889987 l 14.45400379216826 15.349651139249884" fill="#f3ff19" stroke="none" /><path d="M 85.60350026404147 84.71141617570332 l -4.813764352964293 -5.112050926996097 a28.021779826089066,28.021779826089066 0 0,0 0.35303469984659214,-0.3267636476759666 l 4.725299881803748 5.193932320804429" fill="#ff5607" stroke="none" /><path d="M 85.86807049272753 84.46653392183569 l -4.699573813658202 -5.165654865368657 a27.98355097483571,27.98355097483571 0 0,0 0.3581028009813676,-0.3202177328089873 l 4.610205985853443 5.245568128061045" fill="#ff5507" stroke="none" /><path d="M 86.13680546590413 84.22622945171909 l -5.059232768042256 -5.756478179482405 a28.663737810761116,28.663737810761116 0 0,0 0.37238361245110263,-0.32165609526661837 l 4.959669675828305 5.842478407213735" fill="#ff5f08" stroke="none" /><path d="M 86.40962598614128 83.9905735841838 l -4.563640782049578 -5.375957366142884 a28.051789474322955,28.051789474322955 0 0,0 0.36978358567520975,-0.3084866189792287 l 4.47068286221246 5.453506169033994" fill="#ff5608" stroke="none" /><path d="M 86.68645165197937 83.75963576809568 l -12.919749362466122 -15.759993500347205 a41.37884488188499,41.37884488188499 0 0,0 0.5531942297228096,-0.44561411289983677 l 12.647304362388066 15.97945590704044" fill="#fbff18" stroke="none" /><path d="M 86.96720088162412 83.53348406188908 l -5.937465440568846 -7.50179362246577 a30.567152314665922,30.567152314665922 0 0,0 0.4142432175987469,-0.3221180315324881 l 5.807812278334854 7.602612705619063" fill="#ff790b" stroke="none" /><path d="M 87.25179093698888 83.31218511350988 l -12.255444681794344 -16.042770493528213 a41.18827405838698,41.18827405838698 0 0,0 0.5655483674600325,-0.42439803838431867 l 11.97824332542356 16.25078755917653" fill="#fdff18" stroke="none" /><path d="M 87.54013794807813 83.09580414077388 l -4.107236182770711 -5.572254699476962 a27.92238481283033,27.92238481283033 0 0,0 0.3882793619519989,-0.28108431480268453 l 4.010975810444744 5.641939785652726" fill="#ff5507" stroke="none" /><path d="M 87.83215693770416 82.88440491214696 l -3.9564299506155556 -5.565214202837802 a27.828246266618933,27.828246266618933 0 0,0 0.391722200020852,-0.2734525182937355 l 3.8603126594209383 5.632311536936664" fill="#ff5307" stroke="none" /><path d="M 88.12776184653039 82.6780497279521 l -3.912236636490381 -5.708070171247836 a27.920091081755128,27.920091081755128 0 0,0 0.3976668037725287,-0.2675679728837338 l 3.8136735446208627 5.7743878181886785" fill="#ff5407" stroke="none" /><path d="M 88.4268655584334 82.4767994020092 l -12.963077038525864 -19.62775084487383 a44.522116604064394,44.522116604064394 0 0,0 0.6413609502408336,-0.4157224192429386 l 12.624230456028004 19.847387105820676" fill="#d6ff1c" stroke="none" /><path d="M 88.72937992617638 82.28071324371311 l -3.7656900886534395 -5.920290283861973 a28.016427786913596,28.016427786913596 0 0,0 0.40802040954339125,-0.25463491261409105 l 3.6635055503203495 5.984060993317599" fill="#ff5607" stroke="none" /><path d="M 89.03521579738668 82.08984904055464 l -4.88474060218972 -7.978856671169013 a30.355364478722304,30.355364478722304 0 0,0 0.44675470586348,-0.26826336456571465 l 4.7470531397688065 8.06153403627065" fill="#ff760a" stroke="none" /><line stroke="#e1ed5e" stroke-width="0.3" x1="56.869717070023135" x2="54.33264160355391" y1="26.7553504044142" y2="22.446841604673864" /><path d="M 56.362301976729285 25.89364864446614 a86.0,86.0 0 0,1 42.16139366436587,-11.88097634709845" fill="none" id="id120" stroke="none" /><text fill="#e1ed5e" style="font-size:6.75px; font-family:Arial;" text-anchor="middle"><textPath startOffset="22.145653131862474" xlink:href="#id120">December</textPath></text><path d="M 89.34428304082924 81.90426304109057 l -24.319966782799096 -41.3006204497755 a68.92913554251595,68.92913554251595 0 0,0 1.0247712047735673,-0.591651930933793 l 23.60740311016513 41.71201927798547" fill="#3aff95" stroke="none" /><path d="M 89.65649057296885 81.72400993836675 l -3.407159424105511 -6.020124234683975 a27.917415062167393,27.917415062167393 0 0,0 0.41910130238126814,-0.2324684276459042 l 3.3033139335681403 6.077725577763026" fill="#ff5407" stroke="none" /><path d="M 89.97174638481275 81.54914285379989 l -3.364835468577603 -6.190918272865537 a28.04624629089122,28.04624629089122 0 0,0 0.42498234499839244,-0.22627916148586436 l 3.2580643077926488 6.247767902073977" fill="#ff5608" stroke="none" /><path d="M 90.28995756902619 81.37971332152246 l -8.966206055559088 -17.193882350117367 a40.39129808188255,40.39129808188255 0 0,0 0.6175498235116612,-0.31532534010176 l 8.669729010333844 17.34526564189196" fill="#fff717" stroke="none" /><path d="M 90.61103034731259 81.2157712731953 l -3.1094406525576717 -6.220964236831882 a27.954783764267553,27.954783764267553 0 0,0 0.43108905743588616,-0.21086726014004317 l 3.0021913458597327 6.273425247069139" fill="#ff5507" stroke="none" /><path d="M 90.93487009805054 81.0573650232925 l -8.066764791204529 -16.856435874116105 a39.6872182139238,39.6872182139238 0 0,0 0.6170630791376094,-0.2888166783778106 l 7.776212998195398 16.992428784064458" fill="#ffee16" stroke="none" /><path d="M 91.26138138417902 80.90454125486306 l -7.835231563578315 -17.12139500058137 a39.829047252073764,39.829047252073764 0 0,0 0.6241526489375105,-0.2791755409685609 l 7.540165511785186 17.253374292459775" fill="#fff016" stroke="none" /><path d="M 91.5904679813234 80.7573450057729 l -2.9172626106282498 -6.675267757968743 a28.28488989484032,28.28488989484032 0 0,0 0.44658463770454104,-0.19062042627202203 l 2.8022428977532776 6.724362833900169" fill="#ff5a08" stroke="none" /><path d="M 91.92203290615298 80.6158196554323 l -2.6125077015512326 -6.269067433688178 a27.79164214154384,27.79164214154384 0 0,0 0.4419473766362051,-0.1797361506385547 l 2.504505863724587 6.312990840906024" fill="#ff5307" stroke="none" /><path d="M 92.25597844496254 80.48000691201159 l -7.47986008867799 -18.854133629720803 a41.28365504226412,41.28365504226412 0 0,0 0.6609861871837173,-0.2556836568032103 l 7.155101639000743 18.97975717466205" fill="#fcff18" stroke="none" /><path d="M 92.592206182469 80.34994680014964 l -2.1974644964129566 -5.829035651222929 a27.229486883863178,27.229486883863178 0 0,0 0.43879779792337903,-0.16113262938027714 l 2.0970775468354503 5.865899129611928" fill="#ff4b07" stroke="none" /><path d="M 92.93061703081487 80.22567764915836 l -5.542563633972837 -15.503536931861055 a37.4644972299253,37.4644972299253 0 0,0 0.6074497647631185,-0.21130256071153466 l 5.275608097164714 15.596397925141176" fill="#ffd313" stroke="none" /></svg>