<?xml version="1.0" encoding="utf-8" ?>
<svg baseProfile="full" height="200mm" version="1.1" viewBox="0,0,200,200" width="200mm" xmlns="http://www.w3.org/2000/svg" xmlns:ev="http://www.w3.org/2001/xml-events" xmlns:xlink="http://www.w3.org/1999/xlink"><defs /><rect fill="#1a1a1a" height="200" width="200" x="0" y="0" /><text alignment-baseline="middle" fill="#e1ed5e" style="dominant-baseline: central; font-size:9.0px; font-family:Arial;" text-anchor="middle" x="100.0" y="100.0">2021</text><line stroke="#e1ed5e" stroke-width="0.3" x1="100.0" x2="100.0" y1="15.0" y2="10.0" /><path d="M 100.0 14.0 a86.0,86.0 0 0,1 42.46469731375804,11.215312516191453" fill="none" id="id73" stroke="none" /><text fill="#e1ed5e" style="font-size:6.75px; font-family:Arial;" text-anchor="middle"><textPath startOffset="22.20632615414155" xlink:href="#id73">January</textPath></text><path d="M 100.36148047927253 79.00311137660856 l 0.14556221641634542 -8.455100126067254 a29.45635302601958,29.45635302601958 0 0,0 0.5068924479952636,0.013091536453327347 l -0.2910812996064767 8.451341797471567" fill="#ff6509" stroke="none" /><path d="M 101.44485096284872 79.0497635885617 l 0.4057015571673391 -5.8826437838172705 a26.896616965750106,26.896616965750106 0 0,0 0.46160974416283984,0.03582980036353124 l -0.5069014906925201 5.874788721265275" fill="#ff4106" stroke="none" /><path d="M 102.16513564639614 79.11191278185805 l 0.59499826992681 -5.740229614510205 a26.770984228753,26.770984228753 0 0,0 0.4579537578468617,0.051456440621295126 l -0.693718731283397 5.729137220418308" fill="#ff3f05" stroke="none" /><path d="M 103.2404852339499 79.25152402106235 l 0.9520592838417973 -6.095932477753574 a27.169830601668103,27.169830601668103 0 0,0 0.4614611928461545,0.07614505077169113 l -1.056849682826827 6.078641164042258" fill="#ff4506" stroke="none" /><path d="M 103.95276090670814 79.375362276772 l 0.8361896756711186 -4.363053960423566 a25.44246024577224,25.44246024577224 0 0,0 0.4294125017570942,0.08613610814939543 l -0.9111685868953381 4.348013896196963" fill="#ff2c04" stroke="none" /><path d="M 104.66035177308747 79.52364482259891 l 1.3027149976377774 -5.723785732356059 a26.87016094114916,26.87016094114916 0 0,0 0.45010886412386,0.10652622570397294 l -1.401047548724161 5.700513594511217" fill="#ff4106" stroke="none" /><path d="M 105.36241919743992 79.69619591428918 l 3.737276676623711 -14.150503842088774 a35.63570961527335,35.63570961527335 0 0,0 0.5917260553265105,0.161741083501972 l -3.9803006211739325 14.08407621776051" fill="#ffb711" stroke="none" /><path d="M 105.71112130821622 79.79150937346287 l 1.4607357744402585 -5.168733706138578 a26.371178374221305,26.371178374221305 0 0,0 0.4357646126673906,0.12721163989007458 l -1.5494906048310761 5.1428237373298" fill="#ff3a05" stroke="none" /><path d="M 106.74666289553966 80.11325718540242 l 1.5341733311462866 -4.522192814716028 a25.77534455965952,25.77534455965952 0 0,0 0.4189328071276947,0.14615743044555424 l -1.611788142337255 4.495114531098267" fill="#ff3104" stroke="none" /><path d="M 108.09893153111575 80.62456947434976 l 2.8148657066433533 -6.7341271782044645 a28.298762758075426,28.298762758075426 0 0,0 0.4478161189974762,0.19173149158514127 l -2.9303655834311444 6.684676158656532" fill="#ff5507" stroke="none" /><path d="M 108.76106565485865 80.91482961587045 l 2.996284535284358 -6.52712844852628 a28.182000194927962,28.182000194927962 0 0,0 0.4391316434733051,0.20617819472319993 l -3.1081943900572613 6.474585271163077" fill="#ff5307" stroke="none" /><path d="M 109.41281617654863 81.2277094730956 l 2.6196272426002754 -5.224409225456397 a26.84439035701821,26.84439035701821 0 0,0 0.4112810030687691,0.2106741040126492 l -2.7091687332578003 5.178542596131248" fill="#ff4006" stroke="none" /><path d="M 110.05341064243156 81.56283822128135 l 4.958170046344921 -9.092892603534233 a31.356840546608776,31.356840546608776 0 0,0 0.471660503403952,0.26247855948830734 l -5.113954638820908 9.006198646485746" fill="#ff7f0b" stroke="none" /><line stroke="#e1ed5e" stroke-width="0.3" x1="143.23703022742887" x2="145.7803849466894" y1="26.81831364943548" y2="22.513508569990506" /><path d="M 143.74570117128098 25.957352633546492 a86.0,86.0 0 0,1 28.547481713284135,27.462654790039103" fill="none" id="id74" stroke="none" /><text fill="#e1ed5e" style="font-size:6.75px; font-family:Arial;" text-anchor="middle"><textPath startOffset="19.985693538727396" xlink:href="#id74">February</textPath></text><path d="M 110.99172775467656 82.1063720568725 l 2.7732783056721355 -4.5146687847441545 a26.298424935455344,26.298424935455344 0 0,0 0.38368255823805797,0.24026198276956634 l -2.8505800162824566 4.4662624606516435" fill="#ff3905" stroke="none" /><path d="M 112.48926042617603 83.11751280151076 l 2.912086280762741 -3.9364428059192913 a25.896511867736084,25.896511867736084 0 0,0 0.3560817812404989,0.26819341528083535 l -2.9794142157616226 3.8857328011326087" fill="#ff3304" stroke="none" /><path d="M 113.89432698308785 84.25364557470407 l 0.915568168302815 -1.037607715448421 a22.3837972546466,22.3837972546466 0 0,0 0.2867140722561418,0.257414724976392 l -0.9332932281549468 1.0216939817027313" fill="#ff0000" stroke="none" /><path d="M 114.42810811169701 84.74124197986012 l 7.355351494899561 -7.778811175025623 a31.705657332000904,31.705657332000904 0 0,0 0.39332642891757263,0.3783797129865836 l -7.488161167429552 7.651048375276737" fill="#ff830c" stroke="none" /><path d="M 116.15771136456269 86.58626213691792 l 3.7345177187666034 -3.100305519408952 a25.853711662785432,25.853711662785432 0 0,0 0.28131486192229554,0.34485875767304136 l -3.787331072765308 3.0355625921278095" fill="#ff3204" stroke="none" /><path d="M 116.60985879189232 87.15038557335679 l 4.729048449414127 -3.6584566997973553 a26.978980235892934,26.978980235892934 0 0,0 0.28099771837180504,0.3697600591949853 l -4.791322108010045 3.5765118647213368" fill="#ff4206" stroke="none" /><path d="M 117.04232023915458 87.72973835380427 l 5.563113743625281 -4.005373695830509 a27.855016627825453,27.855016627825453 0 0,0 0.27680906882762735,0.3915267972072063 l -5.6312354322567915 3.90902039829151" fill="#ff4f07" stroke="none" /><path d="M 117.65298651832404 88.62581576622439 l 8.599670510237539 -5.540945529623352 a31.23017156488112,31.23017156488112 0 0,0 0.28727653861139474,0.4544024944732541 l -8.693774645094889 5.392095387435892" fill="#ff7d0b" stroke="none" /><line stroke="#e1ed5e" stroke-width="0.3" x1="172.23445277983987" x2="176.4835382374775" y1="55.19839476539836" y2="52.563006222186495" /><path d="M 173.08426987136738 54.67131705675599 a86.0,86.0 0 0,1 12.851231095245387,41.99856678651699" fill="none" id="id75" stroke="none" /><text fill="#e1ed5e" style="font-size:6.75px; font-family:Arial;" text-anchor="middle"><textPath startOffset="22.20632615414155" xlink:href="#id75">March</textPath></text><path d="M 119.7369772167798 92.82701384747503 l 59.21093165033941 -21.518958457574904 a84.0,84.0 0 0,0 0.4821876767607618,1.3632094942935418 l -59.57257240790998 20.496551336854747" fill="#4dd2ff" stroke="none" /><path d="M 120.53481517161879 95.60439243477599 l 14.523938077508683 -3.108941159527837 a35.85295567934924,35.85295567934924 0 0,0 0.1239841373791787,0.6045906859310395 l -14.57530151080286 2.8584748174333856" fill="#ffba11" stroke="none" /><line stroke="#e1ed5e" stroke-width="0.3" x1="184.98032266829074" x2="189.97916517819016" y1="98.17113171792111" y2="98.06355123074" /><path d="M 185.9800911702706 98.14961562048488 a86.0,86.0 0 0,1 -9.607161424134198,41.387399972396054" fill="none" id="id76" stroke="none" /><text fill="#e1ed5e" style="font-size:6.75px; font-family:Arial;" text-anchor="middle"><textPath startOffset="21.466115282336823" xlink:href="#id76">April</textPath></text><path d="M 120.9904718944345 100.63252640178507 l 8.14930502040644 0.24557097179760967 a29.15300419586616,29.15300419586616 0 0,0 -0.01943237522485954,0.5014632587353811 l -8.143870512330375 -0.38581147754699696" fill="#ff6108" stroke="none" /><line stroke="#e1ed5e" stroke-width="0.3" x1="174.80103733775053" x2="179.2010983576182" y1="140.37084112569926" y2="142.7455964860345" /><path d="M 175.68104954172406 140.8457921977663 a86.0,86.0 0 0,1 -30.038265399797805,32.042727171017184" fill="none" id="id77" stroke="none" /><text fill="#e1ed5e" style="font-size:6.75px; font-family:Arial;" text-anchor="middle"><textPath startOffset="22.206326154141568" xlink:href="#id77">May</textPath></text><path d="M 117.75023020441432 111.22182372390056 l 2.9025948974698497 1.835041456149643 a24.43401139843854,24.43401139843854 0 0,0 -0.2278124095239992,0.35356991863135645 l -2.8705776245688 -1.8847329747024524" fill="#ff1e03" stroke="none" /><path d="M 114.55890576462653 115.13401014063108 l 4.029522667168991 4.188696451007123 a26.812248350157482,26.812248350157482 0 0,0 -0.33536270671431234,0.31710637148311577 l -3.956824126063871 -4.257437459236161" fill="#ff4006" stroke="none" /><path d="M 113.75828350139079 115.86535959552629 l 3.7938912235511095 4.374924279025429 a26.790817996047217,26.790817996047217 0 0,0 -0.3510037591168341,0.29913301838329626 l -3.7180219878572283 -4.439581687631672" fill="#ff4006" stroke="none" /><path d="M 112.92097659922987 116.55440617244103 l 5.994226026092641 7.67982602269159 a30.742200644140794,30.742200644140794 0 0,0 -0.419954961318705,0.3220035565409626 l -5.861142336280443 -7.781868921059924" fill="#ff760a" stroke="none" /><path d="M 112.04921762599082 117.19931262002967 l 2.9074984930542054 4.150225938025774 a26.067338830567223,26.067338830567223 0 0,0 -0.36971320985176326,0.2542921169610777 l -2.835628398579559 -4.199658844351946" fill="#ff3505" stroke="none" /><path d="M 111.45004920935366 117.60387380957326 l 3.9645325826011653 6.095269113868905 a28.271163879943188,28.271163879943188 0 0,0 -0.4102256243586761,0.261825402619355 l -3.8590251561955586 -6.162608945312068" fill="#ff5407" stroke="none" /><line stroke="#e1ed5e" stroke-width="0.3" x1="143.8653032363475" x2="146.44561519142675" y1="172.8068346515853" y2="177.08958963109032" /><path d="M 144.38136562736335 173.6633856474863 a86.0,86.0 0 0,1 -40.68145358897372,12.25698825130547" fill="none" id="id78" stroke="none" /><text fill="#e1ed5e" style="font-size:6.75px; font-family:Arial;" text-anchor="middle"><textPath startOffset="21.466115282336833" xlink:href="#id78">June</textPath></text><path d="M 110.8373102113329 117.98757091392108 l 2.4766480442871828 4.110695500702149 a25.79912523641178,25.79912523641178 0 0,0 -0.382357936806373,0.22590380866875023 l -2.405522236452428 -4.152717881664649" fill="#ff3104" stroke="none" /><path d="M 110.21172684928248 118.3499491758327 l 2.8104818584860145 5.050291691501895 a26.779641376948234,26.779641376948234 0 0,0 -0.4047260609229438,0.22068891822865447 l -2.723132985694422 -5.09792126149032" fill="#ff3f05" stroke="none" /><path d="M 109.57404056367764 118.69057910512821 l 2.21929512265624 4.332539722570192 a25.86787133037577,25.86787133037577 0 0,0 -0.3980524541417182,0.19959176394005476 l -2.1443887608317613 -4.370099327419549" fill="#ff3204" stroke="none" /><path d="M 107.2578585660854 119.70592522655815 l 1.6587374890783555 4.5036640811667 a25.79941665347624,25.79941665347624 0 0,0 -0.4180493730638777,0.14989763169643994 l -1.580968555384743 -4.5315492539031" fill="#ff3104" stroke="none" /><path d="M 106.91757812671514 119.82793768551818 l 0.7930738929375759 2.2731972723876868 a23.407569737068894,23.407569737068894 0 0,0 -0.38157712378006087,0.12945167777319375 l -0.7538270362202881 -2.2865119370590037" fill="#ff0f01" stroke="none" /><path d="M 105.88484417918355 120.15858648285463 l 1.3483218688610743 4.618688647068148 a25.811471363377862,25.811471363377862 0 0,0 -0.4275717329847465,0.12083604264009233 l -1.268618967771722 -4.6412134830467595" fill="#ff3204" stroke="none" /><path d="M 104.83641907484287 120.43548508189849 l 1.1323446641825452 4.784534204828307 a25.916703366654808,25.916703366654808 0 0,0 -0.43500551099561885,0.09900583804625104 l -1.0498190037940642 -4.803316776452243" fill="#ff3304" stroke="none" /><path d="M 104.48393922423573 120.51570834832081 l 0.6545754791906483 2.9949290013685723 a24.065626980112913,24.065626980112913 0 0,0 -0.4054583005533086,0.08496772907816011 l -0.6029257172079617 -3.005752711173274" fill="#ff1902" stroke="none" /><path d="M 104.13013068566511 120.58985236759428 l 0.2859746096699465 1.4256631187050146 a22.45406217384663,22.45406217384663 0 0,0 -0.3796152026731443,0.07275415708410528 l -0.2613917924250978 -1.4303744741375881" fill="#ff0100" stroke="none" /><path d="M 103.41894727170886 120.7198165907248 l 0.4713501518061268 2.856519249725617 a23.895146488463176,23.895146488463176 0 0,0 -0.40640425521428214,0.0634719865388256 l -0.42211003298332755 -2.8642095436115484" fill="#ff1602" stroke="none" /><path d="M 101.98527174616119 120.90594882070398 l 1.5566274805681695 16.392100731089172 a37.465845119259264,37.465845119259264 0 0,0 -0.6425493814436453,0.05544186433775098 l -1.2742337813829825 -16.416466847705586" fill="#ffcf13" stroke="none" /><path d="M 101.26447882468166 120.96189622390904 l 0.29336431501813776 4.863246586004723 a25.87208681958898,25.87208681958898 0 0,0 -0.4447681922339987,0.022989435215172372 l -0.20960805437065946 -4.8675758279820975" fill="#ff3304" stroke="none" /><path d="M 100.90346689309514 120.98055641714683 l 0.0820458508747045 1.9052912909430533 a22.907057006224303,22.907057006224303 0 0,0 -0.3940882618751147,0.013573196561590934 l -0.049237237324937524 -1.906421285930738" fill="#ff0801" stroke="none" /><line stroke="#e1ed5e" stroke-width="0.3" x1="102.19456741930631" x2="102.32365962044197" y1="184.97166512339345" y2="189.96999836594603" /><path d="M 102.22038585953345 185.97133177190398 a86.0,86.0 0 0,1 -42.740103519485714,-10.115201625700543" fill="none" id="id79" stroke="none" /><text fill="#e1ed5e" style="font-size:6.75px; font-family:Arial;" text-anchor="middle"><textPath startOffset="22.20632615414155" xlink:href="#id79">July</textPath></text><path d="M 100.54218724476979 120.99299961872073 l 0.08785629372686471 3.401716212437607 a24.402850557739537,24.402850557739537 0 0,0 -0.42000827967105997,0.007230823430895507 l -0.029288324163136797 -3.402724513147662" fill="#ff1d03" stroke="none" /><path d="M 99.09653310690486 120.98055641714683 l -0.16539702539488585 3.8408951662164093 a24.844454688752887,24.844454688752887 0 0,0 -0.4271021226857253,-0.022076301208564193 l 0.2314872164941001 -3.837479058245643" fill="#ff2403" stroke="none" /><path d="M 96.58105272829116 120.7198165907248 l -0.836937185332735 5.072083188163447 a26.140670357049064,26.140670357049064 0 0,0 -0.4433346016225295,-0.077079403186775 l 0.9241207584273144 -5.056925206455666" fill="#ff3605" stroke="none" /><path d="M 95.51606077576429 120.51570834832081 l -2.6048963261018105 11.918380386394775 a33.19972441920466,33.19972441920466 0 0,0 -0.5572492334990184,-0.1268281112966302 l 2.8096657089936916 -11.871775541520458" fill="#ff970e" stroke="none" /><path d="M 90.10565033884886 118.52300852407294 l -4.31850142694134 8.08457771171482 a30.165688809426733,30.165688809426733 0 0,0 -0.4559000710657844,-0.24859306878938647 l 4.457024309875765 -8.009043991165669" fill="#ff6e0a" stroke="none" /><line stroke="#e1ed5e" stroke-width="0.3" x1="58.666819895761336" x2="56.23545636021788" y1="174.27360380694188" y2="178.64263932499728" /><path d="M 58.180547188652646 175.14741091055294 a86.0,86.0 0 0,1 -31.652253787137756,-30.449443065178592" fill="none" id="id80" stroke="none" /><text fill="#e1ed5e" style="font-size:6.75px; font-family:Arial;" text-anchor="middle"><textPath startOffset="22.20632615414155" xlink:href="#id80">August</textPath></text><path d="M 89.7882731507175 118.34994917583269 l -1.8922883144695801 3.400345006190474 a24.891413782444964,24.891413782444964 0 0,0 -0.372602219789811,-0.2115732647172506 l 1.9505393011805985 -3.3672685756785903" fill="#ff2403" stroke="none" /><path d="M 87.65650970185807 116.9893568818739 l -3.2489033378573415 4.471731815585295 a26.527364501211977,26.527364501211977 0 0,0 -0.36710718186844027,-0.27157711685306934 l 3.325395490144346 -4.415144749992459" fill="#ff3c05" stroke="none" /><path d="M 85.18274418774928 114.88116024355367 l -1.5056452999495535 1.5121389049636251 a23.133900615578142,23.133900615578142 0 0,0 -0.27976528287426855,-0.283400754507811 l 1.5314512078793554 -1.4859976564751496" fill="#ff0b01" stroke="none" /><path d="M 84.19399662182784 113.82643327865904 l -1.9872005161277018 1.738320224927968 a23.64021269894905,23.64021269894905 0 0,0 -0.26528539037368287,-0.30858684197496866 l 2.0168284160721632 -1.7038562837914688" fill="#ff1202" stroke="none" /><path d="M 82.6465618267979 111.8261652097733 l -7.0040656182420635 4.773188823718808 a29.475863774950298,29.475863774950298 0 0,0 -0.2821217659095884,-0.4217337612509728 l 7.085190489562382 -4.651918148262014" fill="#ff6509" stroke="none" /><line stroke="#e1ed5e" stroke-width="0.3" x1="26.63291911575756" x2="22.317208475507996" y1="142.92168965132927" y2="145.44649492493687" /><path d="M 25.769776987707644 143.4266507060508 a86.0,86.0 0 0,1 -11.730757126820373,-40.83630448921669" fill="none" id="id81" stroke="none" /><text fill="#e1ed5e" style="font-size:6.75px; font-family:Arial;" text-anchor="middle"><textPath startOffset="21.46611528233685" xlink:href="#id81">September</textPath></text><path d="M 80.45479744820244 107.68017299344265 l -4.593286905754577 1.8049052165727304 a25.93517653578754,25.93517653578754 0 0,0 -0.15969365170616795,-0.41690973278588267 l 4.623674837054254 -1.72557191695369" fill="#ff3304" stroke="none" /><path d="M 79.4281124754447 104.21870165774334 l -4.98063460898556 1.021384715255751 a26.08428439849531,26.08428439849531 0 0,0 -0.08641359113738556,-0.4406210395057962 l 4.997478133098612 -0.9354999486819998" fill="#ff3605" stroke="none" /><path d="M 79.1416061653843 102.43462659150553 l -7.678465872893443 0.8962433706228149 a28.730594436430785,28.730594436430785 0 0,0 -0.05310740726328221,-0.49170863404237336 l 7.692755581657777 -0.7639384146956595" fill="#ff5b08" stroke="none" /><line stroke="#e1ed5e" stroke-width="0.3" x1="15.007084014347285" x2="10.007500721073583" y1="101.09737516637583" y2="101.16192664675087" /><path d="M 14.007167355692545 101.11028546245083 a86.0,86.0 0 0,1 10.666146001902534,-42.60595125391555" fill="none" id="id82" stroke="none" /><text fill="#e1ed5e" style="font-size:6.75px; font-family:Arial;" text-anchor="middle"><textPath startOffset="22.20632615414155" xlink:href="#id82">October</textPath></text><path d="M 79.46518482838121 95.60439243477599 l -3.485593424971838 -0.7461134030208788 a24.564554212573334,24.564554212573334 0 0,0 0.09206515701534591,-0.41271004673663736 l 3.4722338809544544 0.8060016193074754" fill="#ff2003" stroke="none" /><path d="M 80.14247586403 93.16781622104843 l -2.8496504996112293 -0.9804513284643701 a24.01360129702356,24.01360129702356 0 0,0 0.13784598357227387,-0.3897091580986019 l 2.832351435229146 1.029358112989583" fill="#ff1802" stroke="none" /><path d="M 80.2630227832202 92.82701384747504 l -2.269299986269697 -0.8247289946506511 a23.41451865644089,23.41451865644089 0 0,0 0.14092798669605544,-0.3776169393586362 l 2.2547674110720144 0.8636690710386288" fill="#ff0f01" stroke="none" /><path d="M 80.52162464483688 92.15188598940014 l -4.453422720438976 -1.794347249712302 a25.801318150203358,25.801318150203358 0 0,0 0.16952487402273986,-0.4105179290384511 l 4.421876159530036 1.8707397492040645" fill="#ff3204" stroke="none" /><path d="M 81.10775173730289 90.83032412892265 l -3.3974898395683293 -1.6490298121708316 a24.776537638022187,24.776537638022187 0 0,0 0.18952869929672214,-0.38207829258419396 l 3.3686011273181946 1.707267693253987" fill="#ff2303" stroke="none" /><path d="M 81.43458229118936 90.18545643968196 l -4.749215065197235 -2.510656041559274 a26.37200497901058,26.37200497901058 0 0,0 0.21561236486982152,-0.39949696626066566 l 4.705294601108942 2.592033991152412" fill="#ff3a05" stroke="none" /><path d="M 81.6062741919709 89.86733742301443 l -6.399674432490474 -3.525427219246769 a28.306467677344386,28.306467677344386 0 0,0 0.23877497385925506,-0.4247540352680587 l 6.338041817338787 3.6350647644496124" fill="#ff5507" stroke="none" /><line stroke="#e1ed5e" stroke-width="0.3" x1="26.266209847984243" x2="21.928928074336255" y1="57.711370442889674" y2="55.22380399835377" /><path d="M 25.398753493254645 57.213857153982495 a86.0,86.0 0 0,1 29.58750427330803,-30.492523968695096" fill="none" id="id83" stroke="none" /><text fill="#e1ed5e" style="font-size:6.75px; font-family:Arial;" text-anchor="middle"><textPath startOffset="21.46611528233685" xlink:href="#id83">November</textPath></text><path d="M 81.96595687620814 89.24020034530311 l -4.125448555991448 -2.4614003439786214 a25.803937701664125,25.803937701664125 0 0,0 0.2308643921975883,-0.37948035906813604 l 4.082468365507643 2.5320484762538316" fill="#ff3204" stroke="none" /><path d="M 82.34701348167596 88.62581576622439 l -6.143212419994977 -3.9581987886135375 a28.307968013569997,28.307968013569997 0 0,0 0.2674474333367932,-0.40734078948565994 l 6.074168351300263 4.0633576420768645" fill="#ff5507" stroke="none" /><path d="M 82.7489923806493 88.02491185347247 l -8.61095370188123 -5.9774438618894035 a31.482287859908322,31.482287859908322 0 0,0 0.3128550560030684,-0.44251128977006005 l 8.506786026074284 6.12478165199125" fill="#ff800b" stroke="none" /><path d="M 83.39014120810768 87.1503855733568 l -3.7946391888642026 -2.935584888231314 a25.79759785826991,25.79759785826991 0 0,0 0.2747394043561799,-0.3488911433090105 l 3.7435457039140516 3.0004684254933722" fill="#ff3104" stroke="none" /><path d="M 83.84228863543731 86.58626213691792 l -6.206381330936959 -5.152386397624452 a29.066365650987333,29.066365650987333 0 0,0 0.32289879099417906,-0.38221032101561087 l 6.116771926455656 5.258455668269179" fill="#ff5f08" stroke="none" /><path d="M 84.31358615837235 86.03803664274999 l -7.59713085011065 -6.761957425093181 a31.170568586488947,31.170568586488947 0 0,0 0.36017793776787055,-0.3977174748558499 l 7.479609271726735 6.891727687218587" fill="#ff7c0b" stroke="none" /><path d="M 84.5562425177563 85.77008943001954 l -4.361436781556864 -4.018637007835283 a26.930562722057697,26.930562722057697 0 0,0 0.31705310202937775,-0.33821014335669153 l 4.2916163575570305 4.093116568070024" fill="#ff4206" stroke="none" /><path d="M 85.57189188830299 84.74124197986013 l -2.7665703818346876 -2.9258463878488525 a25.026721838286463,25.026721838286463 0 0,0 0.3155656493922553,-0.29328387952322693 l 2.715796848647576 2.9730348534467272" fill="#ff2603" stroke="none" /><path d="M 86.10567301691215 84.25364557470407 l -3.23424730268865 -3.665352369293014 a25.888267955629143,25.888267955629143 0 0,0 0.3366784057607778,-0.2919641957916429 l 3.170675098281099 3.7204815585043374" fill="#ff3304" stroke="none" /><path d="M 86.37877921826538 84.01681056812374 l -2.928791672493888 -3.4366546771448943 a25.515353367214068,25.515353367214068 0 0,0 0.3367327560737316,-0.2820039992961085 l 2.869201379461046 3.486559833834815" fill="#ff2d04" stroke="none" /><line stroke="#e1ed5e" stroke-width="0.3" x1="56.762969772571076" x2="54.21961505331055" y1="26.818313649435495" y2="22.513508569990535" /><path d="M 56.25429882871897 25.957352633546506 a86.0,86.0 0 0,1 42.265352541879196,-11.944610805530505" fill="none" id="id84" stroke="none" /><text fill="#e1ed5e" style="font-size:6.75px; font-family:Arial;" text-anchor="middle"><textPath startOffset="22.20632615414155" xlink:href="#id84">December</textPath></text><path d="M 99.27714615592234 79.0124445844662 l -0.09595198999217248 -2.785898869723803 a23.787550770248288,23.787550770248288 0 0,0 0.4093422505865367,-0.010572102655376203 l 0.047983104210756744 2.7871377645215394" fill="#ff1502" stroke="none" /><path d="M 99.63851952072746 79.00311137660856 l -0.04864496800856325 -2.8255826633287033 a23.826001365926118,23.826001365926118 0 0,0 0.4101254472810983,-0.0035300792059730565 l 6.921707054334936e-16 2.8260013659261176" fill="#ff1502" stroke="none" /></svg>