<?xml version="1.0" encoding="utf-8" ?>
<svg baseProfile="full" height="200mm" version="1.1" viewBox="0,0,200,200" width="200mm" xmlns="http://www.w3.org/2000/svg" xmlns:ev="http://www.w3.org/2001/xml-events" xmlns:xlink="http://www.w3.org/1999/xlink"><defs /><rect fill="#1a1a1a" height="200" width="200" x="0" y="0" /><text alignment-baseline="middle" fill="#e1ed5e" style="dominant-baseline: central; font-size:9.0px; font-family:Arial;" text-anchor="middle" x="100.0" y="100.0">2022</text><line stroke="#e1ed5e" stroke-width="0.3" x1="100.0" x2="100.0" y1="15.0" y2="10.0" /><path d="M 100.0 14.0 a86.0,86.0 0 0,1 42.46469731375804,11.215312516191453" fill="none" id="id85" stroke="none" /><text fill="#e1ed5e" style="font-size:6.75px; font-family:Arial;" text-anchor="middle"><textPath startOffset="22.20632615414155" xlink:href="#id85">January</textPath></text><path d="M 100.72285384407766 79.0124445844662 l 1.1484421452397262 -33.344213857654665 a54.36398533068213,54.36398533068213 0 0,0 0.9349548423822737,0.04026112224273488 l -1.7222378200113315 33.31950500888774" fill="#88ff25" stroke="none" /><path d="M 101.80526077348638 79.07773832637324 l 2.4399831999230934 -28.278444719903174 a49.383515529132865,49.383515529132865 0 0,0 0.8462803035658877,0.08036451205401697 l -2.926388630579225 28.232254663333975" fill="#c5ff1e" stroke="none" /><path d="M 105.36241919743992 79.69619591428918 l 8.530386510191615 -32.29872378515431 a54.40621277790932,54.40621277790932 0 0,0 0.9034076778571853,0.24693544478110674 l -9.085092077272511 32.14710179954691" fill="#88ff25" stroke="none" /><path d="M 106.0581310904928 79.89281104454417 l 10.743239823865336 -35.65725962438141 a58.24053390908389,58.24053390908389 0 0,0 0.9574040098358653,0.2974700862599202 l -11.35542920641192 35.467049403238974" fill="#5bff2a" stroke="none" /><path d="M 107.76421540070413 80.48803036053334 l 13.62331752099587 -34.23626781843001 a57.84720904509783,57.84720904509783 0 0,0 0.9220187603184179,0.376114602846233 l -14.210620150902676 33.99669232940019" fill="#60ff29" stroke="none" /><path d="M 108.43124777332544 80.76684994638697 l 15.241253350374574 -34.767963245049785 a58.96191607255141,58.96191607255141 0 0,0 0.9260330595327814,0.41548404059658006 l -15.837468528374135 34.50045887393667" fill="#53ff2b" stroke="none" /><path d="M 109.73455568895987 81.39251694778311 l 17.095034067370154 -32.67694662699587 a57.87849008064298,57.87849008064298 0 0,0 0.878802060079763,0.46942562565193835 l -17.654981173978225 32.37784227484218" fill="#60ff29" stroke="none" /><line stroke="#e1ed5e" stroke-width="0.3" x1="143.23703022742887" x2="145.7803849466894" y1="26.81831364943548" y2="22.513508569990506" /><path d="M 143.74570117128098 25.957352633546492 a86.0,86.0 0 0,1 28.547481713284135,27.462654790039103" fill="none" id="id86" stroke="none" /><text fill="#e1ed5e" style="font-size:6.75px; font-family:Arial;" text-anchor="middle"><textPath startOffset="19.985693538727396" xlink:href="#id86">February</textPath></text><path d="M 111.2981086023043 82.29822771554956 l 11.74618651279736 -18.403816619165273 a42.83285056389308,42.83285056389308 0 0,0 0.6180841000244759,0.40201909178369016 l -12.061237638606116 18.198898603222055" fill="#ffe215" stroke="none" /><path d="M 111.60114157652 82.49532879139004 l 32.250984863238294 -48.6627012058402 a79.37965838627105,79.37965838627105 0 0,0 1.1324653815304375,0.7646456808258859 l -33.083854939175275 48.10034361271565" fill="#47fffc" stroke="none" /><path d="M 111.90073688211348 82.69761687909136 l 18.736334031143244 -27.240601392960695 a54.06207158023751,54.06207158023751 0 0,0 0.7621950440241909,0.5339663370153491 l -19.202460214751085 26.91405021318141" fill="#8cff24" stroke="none" /><path d="M 112.19680574252982 82.90503203632743 l 15.10491688639259 -21.170958668827623 a47.00707605829682,47.00707605829682 0 0,0 0.6546399789410756,0.47562378523322246 l -15.467102181687455 20.907815648777724" fill="#e4ff1a" stroke="none" /><path d="M 112.77801427241765 83.33499621200491 l 10.79284147069373 -14.075954225578657 a38.73747204006569,38.73747204006569 0 0,0 0.5256627822305014,0.4102881394557967 l -11.033536808083662 13.888087696899637" fill="#ffa90f" stroke="none" /><path d="M 113.06298171725822 83.55741782278167 l 13.084682552904829 -16.469897363073805 a42.03488618130551,42.03488618130551 0 0,0 0.5626601736806387,0.45496539672414454 l -13.366246125149958 16.24222586908553" fill="#ffd814" stroke="none" /><path d="M 113.89432698308785 84.25364557470407 l 21.509336215689117 -24.376397066036517 a53.50938754207205,53.50938754207205 0 0,0 0.6854017766326378,0.6153604824551527 l -21.925748979917746 24.002537574812067" fill="#92ff23" stroke="none" /><path d="M 114.16331599549186 84.49514656593476 l 20.71190601372773 -22.673720418664615 a51.70961817322481,51.70961817322481 0 0,0 0.652014248773745,0.6059761851553358 l -21.099128146296323 22.31383964743464" fill="#a8ff21" stroke="none" /><path d="M 114.42810811169701 84.74124197986012 l 17.975168807460275 -19.010028832667405 a47.16271946636165,47.16271946636165 0 0,0 0.5850799379901904,0.5628464367883358 l -18.29973198906288 18.697799309116768" fill="#e2ff1b" stroke="none" /><path d="M 114.94478906791727 85.2469230424477 l 23.665814777361632 -23.362229141334534 a54.25454163762611,54.25454163762611 0 0,0 0.6503717612665779,0.6702652692770166 l -24.06445080233132 22.951399676507407" fill="#8aff24" stroke="none" /><path d="M 115.9244219780498 86.31012108654704 l 24.9688687742389 -21.46519293424856 a53.92717594282384,53.92717594282384 0 0,0 0.5990779900987458,0.7091193813517785 l -25.334657377824765 21.032214603267676" fill="#8dff24" stroke="none" /><path d="M 117.2510076193507 88.02491185347247 l 40.49404323043685 -28.109647146050555 a70.29421669753924,70.29421669753924 0 0,0 0.6814372725999712,0.9999251125974916 l -40.97190496870555 27.408444010182656" fill="#3aff95" stroke="none" /><path d="M 117.45458315368197 88.32363383020206 l 15.902171155486851 -10.637869244508137 a40.132258348706515,40.132258348706515 0 0,0 0.37916071843182764,0.5774877868933472 l -16.082928509276602 10.362563393637116" fill="#ffbd11" stroke="none" /><line stroke="#e1ed5e" stroke-width="0.3" x1="172.23445277983987" x2="176.4835382374775" y1="55.19839476539836" y2="52.563006222186495" /><path d="M 173.08426987136738 54.67131705675599 a86.0,86.0 0 0,1 12.851231095245387,41.99856678651699" fill="none" id="id87" stroke="none" /><text fill="#e1ed5e" style="font-size:6.75px; font-family:Arial;" text-anchor="middle"><textPath startOffset="22.20632615414155" xlink:href="#id87">March</textPath></text><path d="M 118.73160827565052 90.50648371742162 l 16.50976621056438 -8.367446726146758 a39.50909357700688,39.50909357700688 0 0,0 0.3022257276396653,0.609268624857686 l -16.65135195115745 8.082018512790123" fill="#ffb410" stroke="none" /><path d="M 119.61058180528143 92.48833698450437 l 30.878893110492207 -11.827891780092884 a54.066676030269385,54.066676030269385 0 0,0 0.3254180840569149,0.8719586775801417 l -31.07791578305075 11.294609965483408" fill="#8cff24" stroke="none" /><path d="M 119.85752413597 93.16781622104841 l 30.570553961426057 -10.518110992018524 a53.3293895449463,53.3293895449463 0 0,0 0.29118533936776264,0.8706071019400538 l -30.747076594565588 9.990330787156157" fill="#95ff23" stroke="none" /><line stroke="#e1ed5e" stroke-width="0.3" x1="184.98032266829074" x2="189.97916517819016" y1="98.17113171792111" y2="98.06355123074" /><path d="M 185.9800911702706 98.14961562048488 a86.0,86.0 0 0,1 -9.607161424134198,41.387399972396054" fill="none" id="id88" stroke="none" /><text fill="#e1ed5e" style="font-size:6.75px; font-family:Arial;" text-anchor="middle"><textPath startOffset="21.466115282336823" xlink:href="#id88">April</textPath></text><path d="M 118.64920377521936 109.65438752849418 l 19.380051975279393 10.032735678523931 a42.82297412727371,42.82297412727371 0 0,0 -0.3445159080549139,0.6516942638300776 l -19.204483558999584 -10.364844957440143" fill="#ffe215" stroke="none" /><line stroke="#e1ed5e" stroke-width="0.3" x1="174.80103733775053" x2="179.2010983576182" y1="140.37084112569926" y2="142.7455964860345" /><path d="M 175.68104954172406 140.8457921977663 a86.0,86.0 0 0,1 -30.038265399797805,32.042727171017184" fill="none" id="id89" stroke="none" /><text fill="#e1ed5e" style="font-size:6.75px; font-family:Arial;" text-anchor="middle"><textPath startOffset="22.206326154141568" xlink:href="#id89">May</textPath></text><path d="M 116.498646956653 112.99209946851258 l 13.9519756516161 10.986686115794937 a38.75851616521746,38.75851616521746 0 0,0 -0.4172669647756218,0.5206046962864426 l -13.760790774785626 -11.225218645659629" fill="#ffa90f" stroke="none" /><path d="M 115.07121518719521 114.62390073753431 l 13.49031851521536 13.08992516090173 a39.79720283339972,39.79720283339972 0 0,0 -0.48127965505277437,0.4875337496129383 l -13.262998235107052 -13.320199404495334" fill="#ffb811" stroke="none" /><path d="M 112.63410532772338 116.77436683061366 l 10.88647247372522 14.45402567326478 a39.0951413668027,39.0951413668027 0 0,0 -0.5410302697525609,0.40024125935594707 l -10.636057233554094 -14.639276881360496" fill="#ffae10" stroke="none" /><line stroke="#e1ed5e" stroke-width="0.3" x1="143.8653032363475" x2="146.44561519142675" y1="172.8068346515853" y2="177.08958963109032" /><path d="M 144.38136562736335 173.6633856474863 a86.0,86.0 0 0,1 -40.68145358897372,12.25698825130547" fill="none" id="id90" stroke="none" /><text fill="#e1ed5e" style="font-size:6.75px; font-family:Arial;" text-anchor="middle"><textPath startOffset="21.466115282336833" xlink:href="#id90">June</textPath></text><path d="M 109.89434966115114 118.52300852407294 l 17.311736261419306 32.408945440428774 a57.742835450542316,57.742835450542316 0 0,0 -0.8807407385106801,0.4607619280108087 l -16.75130462038213 -32.7021367873843" fill="#61ff29" stroke="none" /><path d="M 107.59598834532513 119.57807347666477 l 13.418603800825144 34.58541525126092 a58.09730281389296,58.09730281389296 0 0,0 -0.9354489607088139,0.3537067537543415 l -12.821284619356055 -34.81127025512189" fill="#5dff2a" stroke="none" /><path d="M 106.91757812671514 119.82793768551818 l 12.656624196432082 36.27783471020148 a59.42227774755695,59.42227774755695 0 0,0 -0.9686687719428307,0.3286250404433997 l -12.030285691552026 -36.49032273754301" fill="#4eff2b" stroke="none" /><path d="M 106.57524785965236 119.94407469862006 l 11.81267544652364 35.83026625379236 a58.727275027790625,58.727275027790625 0 0,0 -0.9627879644305792,0.3082543023688506 l -11.19416613700212 -36.028293402820914" fill="#56ff2a" stroke="none" /><path d="M 105.88484417918355 120.15858648285463 l 9.728459968644593 33.32492682076747 a55.7158995414353,55.7158995414353 0 0,0 -0.9229440424514395,0.2608332054356361 l -9.153384758088547 -33.487448819541626" fill="#78ff26" stroke="none" /><path d="M 104.83641907484287 120.43548508189849 l 12.767768790599431 53.94808526965811 a76.43836058319643,76.43836058319643 0 0,0 -1.282999139000934,0.29200642695003776 l -11.837249502205635 -54.15986843018583" fill="#43ffdc" stroke="none" /><path d="M 103.7750983002368 120.6578951692458 l 6.032352671579649 33.00992429934743 a54.55658476369373,54.55658476369373 0 0,0 -0.9252563703124671,0.160867679981292 l -5.4632473297951325 -33.10887055784973" fill="#86ff25" stroke="none" /><path d="M 102.70371172650421 120.8252237178851 l 5.376664849188276 41.4135306078684 a62.761094840884496,62.761094840884496 0 0,0 -1.0725350398888067,0.12986905680613056 l -4.663002386248088 -41.49994519339988" fill="#30ff36" stroke="none" /><path d="M 102.34483914955558 120.86867818915974 l 3.7382871046208876 33.27013308345891 a54.479494408781655,54.479494408781655 0 0,0 -0.9328119210859622,0.09668976965839386 l -3.1650425869293226 -33.32955222157306" fill="#87ff25" stroke="none" /><path d="M 101.62511606390274 120.93702456842531 l 2.8828086122420777 37.1403840508668 a58.25209675898389,58.25209675898389 0 0,0 -1.0003750168570746,0.06899171818064138 l -2.2430708346060726 -37.184504113563726" fill="#5bff2a" stroke="none" /><path d="M 100.90346689309514 120.98055641714683 l 2.7104006792854274 62.94166925144049 a84.0,84.0 0 0,0 -1.4451185933013908,0.04977280629562486 l -1.626561734309384 -62.97899885616221" fill="#4dd2ff" stroke="none" /><line stroke="#e1ed5e" stroke-width="0.3" x1="102.19456741930631" x2="102.32365962044197" y1="184.97166512339345" y2="189.96999836594603" /><path d="M 102.22038585953345 185.97133177190398 a86.0,86.0 0 0,1 -42.740103519485714,-10.115201625700543" fill="none" id="id91" stroke="none" /><text fill="#e1ed5e" style="font-size:6.75px; font-family:Arial;" text-anchor="middle"><textPath startOffset="22.20632615414155" xlink:href="#id91">July</textPath></text><path d="M 99.09653310690486 120.98055641714683 l -2.3952172959937346 55.62239412864757 a76.67394179055077,76.67394179055077 0 0,0 -1.3181051346742119,-0.06813097952930292 l 3.352310499081435 -55.57292334235607" fill="#43ffdf" stroke="none" /><path d="M 98.37488393609728 120.93702456842531 l -2.7678104570924975 35.6588165166024 a56.76607289165399,56.76607289165399 0 0,0 -0.9735535100679533,-0.08400229334819254 l 3.381208284901992 -35.60588997097554" fill="#6cff28" stroke="none" /><path d="M 97.65516085044442 120.86867818915974 l -6.203675793268598 55.21168210797728 a76.559116574513,76.559116574513 0 0,0 -1.3083317835240271,-0.15842075866666017 l 7.153134999844015 -55.096715820585274" fill="#43ffde" stroke="none" /><path d="M 96.93821686468263 120.77559828337769 l -5.4177427437974455 36.761861266230184 a58.158934056233704,58.158934056233704 0 0,0 -0.9891564502687578,-0.154485894502132 l 6.04973505767472 -36.66315706438095" fill="#5cff2a" stroke="none" /><path d="M 96.22490169976321 120.6578951692458 l -5.418116804066394 29.648734960388182 a51.139732488093706,51.139732488093706 0 0,0 -0.864583867400633,-0.16569955591427432 l 5.927668286038722 -29.551078206125442" fill="#afff20" stroke="none" /><path d="M 94.46302465271185 120.25689768951611 l -9.959773376949979 36.43760314129905 a58.77427707320165,58.77427707320165 0 0,0 -0.9736066243309729,-0.27515095712964444 l 10.585511169385567 -36.26076339083089" fill="#56ff2b" stroke="none" /><path d="M 93.76903079525671 120.05430185196036 l -9.921946030777583 31.93366780060523 a54.439559689641165,54.439559689641165 0 0,0 -0.8924942087519583,-0.2857484616041968 l 10.470161584620481 -31.75814649234133" fill="#87ff25" stroke="none" /><path d="M 92.7421414339146 119.70592522655815 l -19.006266320752836 51.60421073826681 a75.99302433377196,75.99302433377196 0 0,0 -1.223595454368417,-0.46265910194104515 l 19.891731995881536 -51.269403386219125" fill="#42ffd8" stroke="none" /><path d="M 91.7346041902142 119.30500536409082 l -21.850112929296976 51.03404083887424 a76.51486971404071,76.51486971404071 0 0,0 -1.2063091163607271,-0.5288104664554328 l 22.725342720315446 -50.65036581912435" fill="#43ffdd" stroke="none" /><path d="M 91.07499286063937 119.00905698771935 l -18.8469546143664 40.14146192998073 a65.34574008979982,65.34574008979982 0 0,0 -1.0140642331149756,-0.4868124564771564 l 19.535131515481616 -39.81109519700401" fill="#34ff58" stroke="none" /><path d="M 90.42595943632237 118.69057910512821 l -12.453207508773852 24.311330049964425 a48.31525482317316,48.31525482317316 0 0,0 -0.7369436031720464,-0.385534063073962 l 12.869842014472395 -24.093366567945747" fill="#d3ff1c" stroke="none" /><line stroke="#e1ed5e" stroke-width="0.3" x1="58.666819895761336" x2="56.23545636021788" y1="174.27360380694188" y2="178.64263932499728" /><path d="M 58.180547188652646 175.14741091055294 a86.0,86.0 0 0,1 -31.652253787137756,-30.449443065178592" fill="none" id="id92" stroke="none" /><text fill="#e1ed5e" style="font-size:6.75px; font-family:Arial;" text-anchor="middle"><textPath startOffset="22.20632615414155" xlink:href="#id92">August</textPath></text><path d="M 89.7882731507175 118.34994917583269 l -17.072359510132607 30.678154042525044 a56.10861140375835,56.10861140375835 0 0,0 -0.8398957705290596,-0.4769147384395244 l 17.597904047582873 -30.379736138290887" fill="#74ff27" stroke="none" /><path d="M 89.1626897886671 117.98757091392108 l -18.072657001730047 29.99666827675027 a56.02029467048469,56.02029467048469 0 0,0 -0.8216864754490721,-0.5047469449204022 l 18.58632267711143 -29.68113286500149" fill="#75ff27" stroke="none" /><path d="M 88.54995079064634 117.60387380957326 l -23.420692021114103 36.00813405550814 a63.95479639001124,63.95479639001124 0 0,0 -0.9176761090116448,-0.6081856857041452 l 24.03704282886571 -35.59965034871267" fill="#32ff45" stroke="none" /><path d="M 87.07902340077011 116.55440617244103 l -27.357044851638765 35.04995374565631 a65.4624241420463,65.4624241420463 0 0,0 -0.8823166029506921,-0.7009656712646665 l 27.956318947306816 -34.57385416038651" fill="#34ff59" stroke="none" /><path d="M 86.24171649860922 115.8653595955263 l -36.34000432689849 41.905462719309774 a76.4676817633337,76.4676817633337 0 0,0 -0.987007137974146,-0.8709190419100286 l 37.05595381777922 -41.273720535627454" fill="#43ffdd" stroke="none" /><line stroke="#e1ed5e" stroke-width="0.3" x1="26.63291911575756" x2="22.317208475507996" y1="142.92168965132927" y2="145.44649492493687" /><path d="M 25.769776987707644 143.4266507060508 a86.0,86.0 0 0,1 -11.730757126820373,-40.83630448921669" fill="none" id="id93" stroke="none" /><text fill="#e1ed5e" style="font-size:6.75px; font-family:Arial;" text-anchor="middle"><textPath startOffset="21.46611528233685" xlink:href="#id93">September</textPath></text><path d="M 81.02952815118164 109.00673069616217 l -30.212229745838158 14.344051071575937 a54.44444090367317,54.44444090367317 0 0,0 -0.3946583751191934,-0.8500590295494396 l 30.45466273779718 -13.821871974747669" fill="#87ff25" stroke="none" /><path d="M 80.58989483394504 108.01547362559985 l -30.72591889314975 12.688380119705355 a54.24269967813311,54.24269967813311 0 0,0 -0.34895461533987693,-0.8660767377138519 l 30.939776122747016 -12.157604014148697" fill="#8aff24" stroke="none" /><path d="M 79.50377843672027 104.57218783832718 l -36.18000299781643 8.07084218847539 a58.06927448107503,58.06927448107503 0 0,0 -0.20923178448499255,-0.9774612402661733 l 36.31356882102587 -7.446867128793055" fill="#5dff2a" stroke="none" /><path d="M 79.35854240842038 103.8639653848113 l -32.87255795300422 6.153558946943109 a54.44355474657448,54.44355474657448 0 0,0 -0.1645065352557762,-0.9226400132255047 l 32.97361093059918 -5.5868001829843905" fill="#87ff25" stroke="none" /><path d="M 79.1416061653843 102.43462659150553 l -32.6666354495931 3.8129042893326854 a53.88840693490982,53.88840693490982 0 0,0 -0.09961066347561687,-0.9222710314369621 l 32.72742841456977 -3.2500369360109413" fill="#8eff24" stroke="none" /><path d="M 79.0235259727143 100.99374915477108 l -33.40953875158844 1.582758897062296 a54.447008914402495,54.447008914402495 0 0,0 -0.03629247606825183,-0.9365475453292347 l 33.431833360507895 -1.0074341047190647" fill="#87ff25" stroke="none" /><line stroke="#e1ed5e" stroke-width="0.3" x1="15.007084014347285" x2="10.007500721073583" y1="101.09737516637583" y2="101.16192664675087" /><path d="M 14.007167355692545 101.11028546245083 a86.0,86.0 0 0,1 10.666146001902534,-42.60595125391555" fill="none" id="id94" stroke="none" /><text fill="#e1ed5e" style="font-size:6.75px; font-family:Arial;" text-anchor="middle"><textPath startOffset="22.20632615414155" xlink:href="#id94">October</textPath></text><path d="M 79.00175016825051 100.2711162175752 l -33.31549762227998 0.43014878736851936 a54.31827441209129,54.31827441209129 0 0,0 -0.004023956511067121,-0.9350257790620394 l 33.31796587608054 0.14338646989719545" fill="#89ff24" stroke="none" /><path d="M 79.05617556472873 98.46500227214037 l -31.802533344392227 -2.3308453799684465 a52.88783415828833,52.88783415828833 0 0,0 0.07435907634249034,-0.9073690760121121 l 31.75769978423024 2.877928373188337" fill="#9aff23" stroke="none" /><path d="M 79.3925641242962 95.95851677861259 l -6.482060639648174 -1.2712469165579356 a27.605541526546794,27.605541526546794 0 0,0 0.0954635172526516,-0.46551401330201564 l 6.459217826480528 1.3826365860233538" fill="#ff0000" stroke="none" /><path d="M 79.62865764111835 94.90015583598534 l -32.15644107630195 -8.050173398954279 a54.14878571602451,54.14878571602451 0 0,0 0.23413849370398723,-0.9022311273440763 l 32.01310625072766 8.602500951847219" fill="#8bff24" stroke="none" /><line stroke="#e1ed5e" stroke-width="0.3" x1="26.266209847984243" x2="21.928928074336255" y1="57.711370442889674" y2="55.22380399835377" /><path d="M 25.398753493254645 57.213857153982495 a86.0,86.0 0 0,1 29.58750427330803,-30.492523968695096" fill="none" id="id95" stroke="none" /><text fill="#e1ed5e" style="font-size:6.75px; font-family:Arial;" text-anchor="middle"><textPath startOffset="21.46611528233685" xlink:href="#id95">November</textPath></text><path d="M 82.54541684631803 88.32363383020206 l -36.79307378216795 -24.612985495580922 a65.26657128517785,65.26657128517785 0 0,0 0.6326989106356822,-0.928407580412888 l 36.363950405863534 25.24267109926423" fill="#33ff56" stroke="none" /><path d="M 83.39014120810768 87.1503855733568 l -26.381486173969158 -20.40907930552622 a54.35435999755631,54.35435999755631 0 0,0 0.5788633721609411,-0.7350976981485807 l 26.026268721214247 20.86016939762785" fill="#88ff25" stroke="none" /><path d="M 84.07557802195018 86.31012108654704 l -34.582104029280664 -29.72948201108045 a66.60442982583102,66.60442982583102 0 0,0 0.7548760104907779,-0.8629537735038733 l 34.06523615521204 30.320351340787266" fill="#35ff68" stroke="none" /><path d="M 84.31358615837235 86.03803664274999 l -16.539497830188328 -14.721265483866928 a43.14205604548268,43.14205604548268 0 0,0 0.4985092503016845,-0.5504663651832231 l 16.283644939270598 15.003784636319706" fill="#ffe715" stroke="none" /><path d="M 84.80347519578584 85.50635884689758 l -24.416767440906163 -23.287420641666166 a54.74140620076755,54.74140620076755 0 0,0 0.6562080093274715,-0.6762800359244562 l 24.012295167875575 23.704264873140747" fill="#84ff25" stroke="none" /><path d="M 85.31137513191541 84.99185889309783 l -12.668893278606417 -12.944475041141388 a39.11243470645101,39.11243470645101 0 0,0 0.48521164876882533,-0.46677322168291946 l 12.444198386225164 13.160631349586621" fill="#ffaf10" stroke="none" /><path d="M 86.37877921826538 84.01681056812374 l -24.046870491727155 -28.216684280491148 a58.07334962248238,58.07334962248238 0 0,0 0.7664091024480707,-0.6418455825544116 l 23.557603852319975 28.626431020439373" fill="#5dff2a" stroke="none" /><path d="M 86.93701828274178 83.55741782278169 l -20.73096081971123 -26.094389035273014 a54.32701420218407,54.32701420218407 0 0,0 0.7372109725244755,-0.5754048575020327 l 20.278717292027327 26.44737228199827" fill="#89ff24" stroke="none" /><line stroke="#e1ed5e" stroke-width="0.3" x1="56.762969772571076" x2="54.21961505331055" y1="26.818313649435495" y2="22.513508569990535" /><path d="M 56.25429882871897 25.957352633546506 a86.0,86.0 0 0,1 42.265352541879196,-11.944610805530505" fill="none" id="id96" stroke="none" /><text fill="#e1ed5e" style="font-size:6.75px; font-family:Arial;" text-anchor="middle"><textPath startOffset="22.20632615414155" xlink:href="#id96">December</textPath></text><path d="M 90.26544431104013 81.39251694778311 l -15.451111766083306 -29.534609437939725 a54.33211678636141,54.33211678636141 0 0,0 0.8324185125292507,-0.4263970934279176 l 14.940432765965292 29.79619905668015" fill="#89ff24" stroke="none" /><path d="M 90.91171255644093 81.06846463323043 l -12.560343996399304 -26.1640708509001 a50.02276425151133,50.02276425151133 0 0,0 0.7794542092436925,-0.36596420257979767 l 12.108111575856002 26.376400036119904" fill="#bdff1f" stroke="none" /><path d="M 91.90106846888425 80.62456947434976 l -18.40153969158661 -44.02281368715472 a68.7139894365895,68.7139894365895 0 0,0 1.0952228880647685,-0.44676891545061825 l 17.641032933933463 44.33304348878892" fill="#38ff82" stroke="none" /><path d="M 92.57280143429618 80.3572730644239 l -11.688504526353883 -30.912611352091673 a54.048610843242145,54.048610843242145 0 0,0 0.8730592412127659,-0.3215550865886878 l 11.154662959368547 31.109229706486683" fill="#8cff24" stroke="none" /><path d="M 93.25333710446033 80.11325718540243 l -16.48756685417387 -48.599434526988 a72.32002432885088,72.32002432885088 0 0,0 1.1823193641876848,-0.38979210548877286 l 15.648564667743775 48.876040356736006" fill="#3dffad" stroke="none" /><path d="M 93.94186890950719 79.89281104454417 l -9.919639302166665 -32.923695251765515 a55.38559222866776,55.38559222866776 0 0,0 0.9152067762156842,-0.26717395459959864 l 9.351442308227561 33.08956753528381" fill="#7cff26" stroke="none" /><path d="M 94.98787191387505 79.60689891045804 l -11.723953643428906 -47.70184793988306 a70.12145545393577,70.12145545393577 0 0,0 1.1746222411622111,-0.27799513396057 l 10.90110771530416 47.8965889859845" fill="#3aff93" stroke="none" /><path d="M 96.04723909329186 79.375362276772 l -9.618987502578397 -50.189762848609746 a72.10320161569572,72.10320161569572 0 0,0 1.220964298983007,-0.2231234214317527 l 8.753628082492497 50.34790175139223" fill="#3dffab" stroke="none" /></svg>