<?xml version="1.0" encoding="utf-8" ?>
<svg baseProfile="full" height="200mm" version="1.1" viewBox="0,0,200,200" width="200mm" xmlns="http://www.w3.org/2000/svg" xmlns:ev="http://www.w3.org/2001/xml-events" xmlns:xlink="http://www.w3.org/1999/xlink"><defs /><rect fill="#1a1a1a" height="200" width="200" x="0" y="0" /><text alignment-baseline="middle" fill="#e1ed5e" style="dominant-baseline: central; font-size:9.0px; font-family:Arial;" text-anchor="middle" x="100.0" y="100.0">2025</text><line stroke="#e1ed5e" stroke-width="0.3" x1="100.0" x2="100.0" y1="15.0" y2="10.0" /><path d="M 100.0 14.0 a86.0,86.0 0 0,1 42.46469731375804,11.215312516191453" fill="none" id="id121" stroke="none" /><text fill="#e1ed5e" style="font-size:6.75px; font-family:Arial;" text-anchor="middle"><textPath startOffset="22.20632615414155" xlink:href="#id121">January</textPath></text><path d="M 100.0 79.0 l 0.0 -25.675557043821385 a46.675557043821385,46.675557043821385 0 0,0 0.8034429871672758,0.006915487446552429 l -0.44196250789474745 25.67175293298339" fill="#ebff1a" stroke="none" /><path d="M 100.36148047927253 79.00311137660856 l 0.6206907786028107 -36.05333038762455 a57.05867286911506,57.05867286911506 0 0,0 0.9818802193346388,0.025359069236597875 l -1.2411976331323173 36.03730452624559" fill="#6aff28" stroke="none" /><path d="M 100.72285384407766 79.0124445844662 l 1.4261863035486662 -41.408321092620696 a62.43287418321357,62.43287418321357 0 0,0 1.073724041502429,0.04623681586561323 l -2.1387511774404264 41.37763655023089" fill="#2fff30" stroke="none" /><path d="M 101.44485096284872 79.0497635885617 l 4.334552888546152 -62.8507092343149 a84.0,84.0 0 0,0 1.4416392425506352,0.11189895124614191 l -5.415782320459128 62.76678502088029" fill="#4dd2ff" stroke="none" /><path d="M 101.80526077348638 79.07773832637324 l 1.1617688117098595 -13.464443165133417 a34.51447137401126,34.51447137401126 0 0,0 0.5914709999652241,0.05616729835968112 l -1.3933649387653277 13.442450322258559" fill="#ff6809" stroke="none" /><path d="M 102.16513564639614 79.11191278185805 l 5.204994402238236 -50.21504182653001 a71.4840805835611,71.4840805835611 0 0,0 1.2228315197432902,0.1373993692755324 l -6.0685926254912514 50.11800650378388" fill="#3cffa3" stroke="none" /><path d="M 102.52436894288641 79.15227682838746 l 1.691167725199769 -13.966657556568196 a35.06867341213097,35.06867341213097 0 0,0 0.5986477575722595,0.07772166023856339 l -1.9313302112798747 13.935477573165496" fill="#ff700a" stroke="none" /><path d="M 102.88285421437855 79.19881850522331 l 4.447768108150404 -32.09278887668615 a53.399533006317085,53.399533006317085 0 0,0 0.9093966396991823,0.13402142536482411 l -4.999533728278242 32.01147296716036" fill="#96ff23" stroke="none" /><path d="M 103.2404852339499 79.25152402106235 l 7.439766273586308 -47.63601765537387 a69.21348670516045,69.21348670516045 0 0,0 1.1755442499536184,0.193974873694157 l -8.258639729678801 47.500896518740085" fill="#39ff87" stroke="none" /><path d="M 103.59715602781102 79.31037775812273 l 4.833765904513854 -27.802183112673042 a49.21926077434068,49.21926077434068 0 0,0 0.8334575841459124,0.15230904617585742 l -5.311618609762666 27.714858585146445" fill="#caff1d" stroke="none" /><path d="M 103.95276090670814 79.375362276772 l 11.282436137366217 -58.86927225315641 a80.94067551179248,80.94067551179248 0 0,0 1.3660997258000442,0.27402675339651555 l -12.294102272633387 58.66634154368269" fill="#49f1ff" stroke="none" /><path d="M 104.307194497241 79.44645832069477 l 1.4115501288721009 -6.735789253256476 a27.882102195594328,27.882102195594328 0 0,0 0.4688936788699538,0.10248199686720827 l -1.5272865318955826 6.710493758293397" fill="#ff0000" stroke="none" /><path d="M 104.66035177308747 79.52364482259891 l 5.204820079409865 -22.868605154640314 a44.453427335420926,44.453427335420926 0 0,0 0.7446506080920832,0.17623474023917357 l -5.597694374464472 22.77562450226027" fill="#fff617" stroke="none" /><line stroke="#e1ed5e" stroke-width="0.3" x1="143.23703022742887" x2="145.7803849466894" y1="26.81831364943548" y2="22.513508569990506" /><path d="M 143.74570117128098 25.957352633546492 a86.0,86.0 0 0,1 28.547481713284135,27.462654790039103" fill="none" id="id122" stroke="none" /><text fill="#e1ed5e" style="font-size:6.75px; font-family:Arial;" text-anchor="middle"><textPath startOffset="19.985693538727396" xlink:href="#id122">February</textPath></text><line stroke="#e1ed5e" stroke-width="0.3" x1="172.23445277983987" x2="176.4835382374775" y1="55.19839476539836" y2="52.563006222186495" /><path d="M 173.08426987136738 54.67131705675599 a86.0,86.0 0 0,1 12.851231095245387,41.99856678651699" fill="none" id="id123" stroke="none" /><text fill="#e1ed5e" style="font-size:6.75px; font-family:Arial;" text-anchor="middle"><textPath startOffset="22.20632615414155" xlink:href="#id123">March</textPath></text><line stroke="#e1ed5e" stroke-width="0.3" x1="184.98032266829074" x2="189.97916517819016" y1="98.17113171792111" y2="98.06355123074" /><path d="M 185.9800911702706 98.14961562048488 a86.0,86.0 0 0,1 -9.607161424134198,41.387399972396054" fill="none" id="id124" stroke="none" /><text fill="#e1ed5e" style="font-size:6.75px; font-family:Arial;" text-anchor="middle"><textPath startOffset="21.466115282336823" xlink:href="#id124">April</textPath></text><line stroke="#e1ed5e" stroke-width="0.3" x1="174.80103733775053" x2="179.2010983576182" y1="140.37084112569926" y2="142.7455964860345" /><path d="M 175.68104954172406 140.8457921977663 a86.0,86.0 0 0,1 -30.038265399797805,32.042727171017184" fill="none" id="id125" stroke="none" /><text fill="#e1ed5e" style="font-size:6.75px; font-family:Arial;" text-anchor="middle"><textPath startOffset="22.206326154141568" xlink:href="#id125">May</textPath></text><line stroke="#e1ed5e" stroke-width="0.3" x1="143.8653032363475" x2="146.44561519142675" y1="172.8068346515853" y2="177.08958963109032" /><path d="M 144.38136562736335 173.6633856474863 a86.0,86.0 0 0,1 -40.68145358897372,12.25698825130547" fill="none" id="id126" stroke="none" /><text fill="#e1ed5e" style="font-size:6.75px; font-family:Arial;" text-anchor="middle"><textPath startOffset="21.466115282336833" xlink:href="#id126">June</textPath></text><line stroke="#e1ed5e" stroke-width="0.3" x1="102.19456741930631" x2="102.32365962044197" y1="184.97166512339345" y2="189.96999836594603" /><path d="M 102.22038585953345 185.97133177190398 a86.0,86.0 0 0,1 -42.740103519485714,-10.115201625700543" fill="none" id="id127" stroke="none" /><text fill="#e1ed5e" style="font-size:6.75px; font-family:Arial;" text-anchor="middle"><textPath startOffset="22.20632615414155" xlink:href="#id127">July</textPath></text><line stroke="#e1ed5e" stroke-width="0.3" x1="58.666819895761336" x2="56.23545636021788" y1="174.27360380694188" y2="178.64263932499728" /><path d="M 58.180547188652646 175.14741091055294 a86.0,86.0 0 0,1 -31.652253787137756,-30.449443065178592" fill="none" id="id128" stroke="none" /><text fill="#e1ed5e" style="font-size:6.75px; font-family:Arial;" text-anchor="middle"><textPath startOffset="22.20632615414155" xlink:href="#id128">August</textPath></text><line stroke="#e1ed5e" stroke-width="0.3" x1="26.63291911575756" x2="22.317208475507996" y1="142.92168965132927" y2="145.44649492493687" /><path d="M 25.769776987707644 143.4266507060508 a86.0,86.0 0 0,1 -11.730757126820373,-40.83630448921669" fill="none" id="id129" stroke="none" /><text fill="#e1ed5e" style="font-size:6.75px; font-family:Arial;" text-anchor="middle"><textPath startOffset="21.46611528233685" xlink:href="#id129">September</textPath></text><line stroke="#e1ed5e" stroke-width="0.3" x1="15.007084014347285" x2="10.007500721073583" y1="101.09737516637583" y2="101.16192664675087" /><path d="M 14.007167355692545 101.11028546245083 a86.0,86.0 0 0,1 10.666146001902534,-42.60595125391555" fill="none" id="id130" stroke="none" /><text fill="#e1ed5e" style="font-size:6.75px; font-family:Arial;" text-anchor="middle"><textPath startOffset="22.20632615414155" xlink:href="#id130">October</textPath></text><line stroke="#e1ed5e" stroke-width="0.3" x1="26.266209847984243" x2="21.928928074336255" y1="57.711370442889674" y2="55.22380399835377" /><path d="M 25.398753493254645 57.213857153982495 a86.0,86.0 0 0,1 29.58750427330803,-30.492523968695096" fill="none" id="id131" stroke="none" /><text fill="#e1ed5e" style="font-size:6.75px; font-family:Arial;" text-anchor="middle"><textPath startOffset="21.46611528233685" xlink:href="#id131">November</textPath></text><line stroke="#e1ed5e" stroke-width="0.3" x1="56.762969772571076" x2="54.21961505331055" y1="26.818313649435495" y2="22.513508569990535" /><path d="M 56.25429882871897 25.957352633546506 a86.0,86.0 0 0,1 42.265352541879196,-11.944610805530505" fill="none" id="id132" stroke="none" /><text fill="#e1ed5e" style="font-size:6.75px; font-family:Arial;" text-anchor="middle"><textPath startOffset="22.20632615414155" xlink:href="#id132">December</textPath></text></svg>