<?xml version="1.0" encoding="utf-8" ?>
<svg baseProfile="full" height="200mm" version="1.1" viewBox="0,0,200,200" width="200mm" xmlns="http://www.w3.org/2000/svg" xmlns:ev="http://www.w3.org/2001/xml-events" xmlns:xlink="http://www.w3.org/1999/xlink"><defs /><rect fill="#1a1a1a" height="200" width="200" x="0" y="0" /><text alignment-baseline="middle" fill="#e1ed5e" style="dominant-baseline: central; font-size:9.0px; font-family:Arial;" text-anchor="middle" x="100.0" y="100.0">2023</text><line stroke="#e1ed5e" stroke-width="0.3" x1="100.0" x2="100.0" y1="15.0" y2="10.0" /><path d="M 100.0 14.0 a86.0,86.0 0 0,1 42.46469731375804,11.215312516191453" fill="none" id="id97" stroke="none" /><text fill="#e1ed5e" style="font-size:6.75px; font-family:Arial;" text-anchor="middle"><textPath startOffset="22.20632615414155" xlink:href="#id97">January</textPath></text><path d="M 107.4271985657038 80.35727306442388 l 1.6471301867389876 -4.356168506771643 a25.657171020207,25.657171020207 0 0,0 0.41175707487106794,0.15975534802000418 l -1.7218704266097224 4.327170454861092" fill="#ff2c04" stroke="none" /><line stroke="#e1ed5e" stroke-width="0.3" x1="143.23703022742887" x2="145.7803849466894" y1="26.81831364943548" y2="22.513508569990506" /><path d="M 143.74570117128098 25.957352633546492 a86.0,86.0 0 0,1 28.547481713284135,27.462654790039103" fill="none" id="id98" stroke="none" /><text fill="#e1ed5e" style="font-size:6.75px; font-family:Arial;" text-anchor="middle"><textPath startOffset="19.985693538727396" xlink:href="#id98">February</textPath></text><path d="M 111.60114157652 82.49532879139004 l 7.177139393407451 -10.829405405605439 a33.99181862986693,33.99181862986693 0 0,0 0.4849423471472565,0.32743523752982 l -7.362486434961249 10.704258255776947" fill="#ff9f0e" stroke="none" /><path d="M 112.48926042617603 83.11751280151076 l 9.884568578793363 -13.361568003203391 a37.62035485460818,37.62035485460818 0 0,0 0.517286769582981,0.3896096703704971 l -10.113101502134727 13.189441743327048" fill="#ffce13" stroke="none" /><path d="M 113.34407831869373 83.78471172551755 l 11.531170234222035 -14.012301563615637 a39.14696895022178,39.14696895022178 0 0,0 0.516632733116639,0.4326650564231698 l -11.770660504297792 13.811735349798647" fill="#ffe215" stroke="none" /><path d="M 113.89432698308785 84.25364557470407 l 8.813990512724411 -9.988840674577997 a34.32153770330211,34.32153770330211 0 0,0 0.43962459671420134,0.39469930361473293 l -8.984626097034601 9.835642362193967" fill="#ffa40f" stroke="none" /><path d="M 114.42810811169701 84.74124197986012 l 10.3570918997963 -10.953366710859406 a36.07466732380483,36.07466732380483 0 0,0 0.447526443759939,0.43052008432232464 l -10.544101587168658 10.773463539774779" fill="#ffbb11" stroke="none" /><path d="M 115.4437574822437 85.77008943001954 l 13.934720896039527 -12.839481091066231 a39.94805322819123,39.94805322819123 0 0,0 0.46160234099189085,0.5097128341191206 l -14.153666877647453 12.597715469677562" fill="#ffec16" stroke="none" /><path d="M 115.9244219780498 86.31012108654704 l 11.516306970734412 -9.900318402565711 a36.18689009364219,36.18689009364219 0 0,0 0.40200082808356674,0.475842182862592 l -11.685018412305096 9.700617270074012" fill="#ffbc11" stroke="none" /><path d="M 116.38621287248628 86.86637796730983 l 12.727898263082162 -10.201466706107249 a37.31163134549039,37.31163134549039 0 0,0 0.3973616236572033,0.5046089093399762 l -12.90161396733333 9.980865402814233" fill="#ffcb12" stroke="none" /><path d="M 117.2510076193507 88.02491185347247 l 24.32072633717036 -16.88265683382445 a50.60611138491868,50.60611138491868 0 0,0 0.4905793412196388,0.7198646489286141 l -24.60773014405873 16.461514161625427" fill="#95ff23" stroke="none" /><path d="M 117.65298651832404 88.62581576622439 l 19.89978675272342 -12.821844083060704 a44.67279448003943,44.67279448003943 0 0,0 0.41093100438664854,0.6499941636455178 l -20.11754535335602 12.47740227170098" fill="#d9ff1c" stroke="none" /><line stroke="#e1ed5e" stroke-width="0.3" x1="172.23445277983987" x2="176.4835382374775" y1="55.19839476539836" y2="52.563006222186495" /><path d="M 173.08426987136738 54.67131705675599 a86.0,86.0 0 0,1 12.851231095245387,41.99856678651699" fill="none" id="id99" stroke="none" /><text fill="#e1ed5e" style="font-size:6.75px; font-family:Arial;" text-anchor="middle"><textPath startOffset="22.20632615414155" xlink:href="#id99">March</textPath></text><path d="M 117.84615892207809 88.93136811851018 l 11.126614552333018 -6.901003241355251 a34.09295219319862,34.09295219319862 0 0,0 0.3050251003278597,0.5013810639890498 l -11.243755450947102 6.70845440415912" fill="#ffa10e" stroke="none" /><path d="M 118.21658344932153 89.55222093294921 l 14.722431629918123 -8.443773961624723 a37.97195662888122,37.97195662888122 0 0,0 0.320306760094355,0.5697899854191089 l -14.86559603130491 8.189100466270821" fill="#ffd313" stroke="none" /><path d="M 118.3937258080291 89.86733742301442 l 22.81311532572954 -12.567198311968573 a47.04558896007886,47.04558896007886 0 0,0 0.3846355519972736,0.7126712618345534 l -23.02605897694528 12.17264606680156" fill="#bdff1f" stroke="none" /><path d="M 118.73160827565052 90.50648371742162 l 11.876892088035676 -6.019422719338146 a34.3151798915722,34.3151798915722 0 0,0 0.26249476444207753,0.5291734274675858 l -11.978746865431162 5.81408970337161" fill="#ffa40f" stroke="none" /><path d="M 119.04729006885535 91.15688171328212 l 18.810992630980802 -8.733412066755925 a41.73947757516018,41.73947757516018 0 0,0 0.2969419638518699,0.6542722561987141 l -18.958536911796017 8.408317801715148" fill="#fcff18" stroke="none" /><path d="M 119.34039704204932 91.81776055985345 l 19.293826488022845 -8.162537082274756 a41.94943321833415,41.94943321833415 0 0,0 0.27562438245456483,0.6674463044436368 l -19.431472557363605 7.829216207377817" fill="#f9ff18" stroke="none" /><path d="M 119.47837535516314 92.15188598940014 l 33.4175577187397 -13.464408512024683 a57.02809265648103,57.02809265648103 0 0,0 0.35902293748242026,0.913674215388974 l -33.64437420610383 12.887185291739925" fill="#51ff2b" stroke="none" /><path d="M 119.7369772167798 92.82701384747503 l 13.899401078481658 -5.05144280044957 a35.788861508132086,35.788861508132086 0 0,0 0.2054398569585579,0.580806140450504 l -13.984294016250024 4.8114390335724515" fill="#ffb711" stroke="none" /><path d="M 119.97218684219823 93.5106431181261 l 19.76561680438094 -6.422238207935485 a41.782799408575656,41.782799408575656 0 0,0 0.21636430040455432,0.6859339591592748 l -19.873236588553702 6.081054082349791" fill="#fbff18" stroke="none" /><path d="M 120.37134235888165 94.90015583598534 l 61.11402707664495 -15.299532492043943 a84.0,84.0 0 0,0 0.33906879895672226,1.4056590733623755 l -61.36832867586249 14.245288187022162" fill="#4dd2ff" stroke="none" /><path d="M 120.67395015179393 96.31383870115 l 12.618489507208787 -2.249874229641674 a33.81749630359783,33.81749630359783 0 0,0 0.09724645951528627,0.5739541088656612 l -12.655347828244297 2.0323343324601746" fill="#ff9d0e" stroke="none" /><path d="M 120.78858239683441 97.02765380044208 l 20.11177886938977 -2.875577004129089 a41.31631345490389,41.31631345490389 0 0,0 0.09460255500439685,0.7048989183047134 l -20.158297423452005 2.528959743759711" fill="#fffd17" stroke="none" /><path d="M 120.83666639777658 97.38593545837742 l 23.47341500840277 -2.9448579092673177 a44.65741744701823,44.65741744701823 0 0,0 0.08912269528456684,0.7635488268853746 l -23.520628056690924 2.5403653440570904" fill="#d9ff1c" stroke="none" /><path d="M 120.91429891909075 98.10471618934814 l 19.270222685677762 -1.746295260726299 a40.34918679152292,40.34918679152292 0 0,0 0.056730027023016126,0.6922500215699918 l -19.29742719652027 1.4143313219485383" fill="#fff116" stroke="none" /><path d="M 120.96714384426684 98.82574320788733 l 2.515968686459481 -0.14090585445311707 a23.519911286347956,23.519911286347956 0 0,0 0.019159086513222668,0.40441803517679054 l -2.5180213812062 0.09757671265332676" fill="#ff0d01" stroke="none" /><path d="M 120.98425023603335 99.18683210126433 l 11.088276985244686 -0.4296856354299225 a32.096599310004926,32.096599310004926 0 0,0 0.016641789534384072,0.5522599760401408 l -11.094030469234715 0.23875551196478262" fill="#ff860c" stroke="none" /><line stroke="#e1ed5e" stroke-width="0.3" x1="184.98032266829074" x2="189.97916517819016" y1="98.17113171792111" y2="98.06355123074" /><path d="M 185.9800911702706 98.14961562048488 a86.0,86.0 0 0,1 -9.607161424134198,41.387399972396054" fill="none" id="id100" stroke="none" /><text fill="#e1ed5e" style="font-size:6.75px; font-family:Arial;" text-anchor="middle"><textPath startOffset="21.466115282336823" xlink:href="#id100">April</textPath></text><path d="M 120.99513854157772 99.54816195383933 l 26.20733726703029 -0.5640101894235353 a47.2134056185313,47.2134056185313 0 0,0 0.010492601331909246,0.8126635364087379 l -26.213162875479913 0.11281039495433465" fill="#bbff1f" stroke="none" /><path d="M 120.99824983174949 100.27111621757518 l 17.742138768632895 0.2290753559552748 a38.74361754558896,38.74361754558896 0 0,0 -0.014349782315506487,0.6667779978146974 l -17.73556692363238 -0.5344431695600871" fill="#ffdd14" stroke="none" /><path d="M 120.92983693683757 101.71520430193887 l 20.706141291761746 1.6968723993102484 a41.77555446032528,41.77555446032528 0 0,0 -0.06490211095319706,0.7161893861628513 l -20.673864584531476 -2.05304317402167" fill="#fcff18" stroke="none" /><path d="M 120.89721153311464 102.0752229133903 l 20.631343327521893 2.0488205490694074 a41.73282405125677,41.73282405125677 0 0,0 -0.07714153245387313,0.7142347839122154 l -20.593019493566967 -2.4036516548664144" fill="#fcff18" stroke="none" /><path d="M 120.76222939487914 103.15116336523771 l 20.29737063633718 3.0806099645374587 a41.529817644159685,41.529817644159685 0 0,0 -0.11335315662184965,0.7058502144882954 l -20.241335725354045 -3.4295394087189592" fill="#ffff18" stroke="none" /><path d="M 120.5718875245553 104.21870165774334 l 20.375192296375708 4.178365131296702 a41.79921143420404,41.79921143420404 0 0,0 -0.1506084530347285,0.7035925524425134 l -20.300249804616534 -4.528471503155384" fill="#fbff18" stroke="none" /><path d="M 120.41448212921028 104.9243191809786 l 30.933193888555977 7.461610783473683 a52.820404139970435,52.820404139970435 0 0,0 -0.22081113608817765,0.882030725888865 l -30.800171438172736 -7.992969348759944" fill="#7dff26" stroke="none" /><path d="M 120.23288151984713 105.62410040840565 l 8.565533338205789 2.3809470489094946 a29.890290783637262,29.890290783637262 0 0,0 -0.14206052884869336,0.49453133751281225 l -8.523280172470997 -2.5280358619268886" fill="#ff6809" stroke="none" /><path d="M 119.9155931802556 106.66101706037122 l 19.98458192801795 6.684091202409545 a42.07274519467718,42.07274519467718 0 0,0 -0.23562574296586491,0.6848387030242442 l -19.866565354108854 -7.027102608523089" fill="#f8ff18" stroke="none" /><path d="M 119.79798401119884 107.00284435728193 l 13.943757914583134 4.932116642593998 a35.79034006899951,35.79034006899951 0 0,0 -0.21043993756637902,0.5790403278258248 l -13.856793716011529 -5.171404767425955" fill="#ffb711" stroke="none" /><path d="M 118.97047184881838 109.00673069616215 l 7.233969973470414 3.4345175984238687 a29.007885657959584,29.007885657959584 0 0,0 -0.218038108742936,0.44922308476499756 l -7.173778608112763 -3.5585296391541417" fill="#ff5c08" stroke="none" /><path d="M 118.81262510543309 109.33194174019688 l 14.921883361808566 7.401951902299654 a37.65687530803352,37.65687530803352 0 0,0 -0.2930446025967351,0.5782048020720102 l -14.792260089425563 -7.657710916074358" fill="#ffcf13" stroke="none" /><line stroke="#e1ed5e" stroke-width="0.3" x1="174.80103733775053" x2="179.2010983576182" y1="140.37084112569926" y2="142.7455964860345" /><path d="M 175.68104954172406 140.8457921977663 a86.0,86.0 0 0,1 -30.038265399797805,32.042727171017184" fill="none" id="id101" stroke="none" /><text fill="#e1ed5e" style="font-size:6.75px; font-family:Arial;" text-anchor="middle"><textPath startOffset="22.206326154141568" xlink:href="#id101">May</textPath></text><path d="M 118.48025628344425 109.97397251340804 l 30.06909319213428 16.228579539242034 a55.16895022178412,55.16895022178412 0 0,0 -0.45822697068926305,0.8318150528219431 l -29.785289811993504 -16.74376511046178" fill="#64ff29" stroke="none" /><path d="M 118.30583269289576 110.29060199501025 l 1.784312805748426 1.003049313658536 a23.046919664859537,23.046919664859537 0 0,0 -0.19737821412197418,0.344145553380842 l -1.7667825954740723 -1.033614712897693" fill="#ff0601" stroke="none" /><path d="M 118.12598468904814 110.60418214915192 l 16.5067317584374 9.656876205981895 a40.124001971414486,40.124001971414486 0 0,0 -0.35389202422038074,0.5931433884245592 l -16.338058858518792 -9.939581688292558" fill="#ffee16" stroke="none" /><path d="M 117.75023020441432 111.22182372390056 l 8.762762381276596 5.539881660388728 a31.367077378018728,31.367077378018728 0 0,0 -0.2924533905091338,0.4538941566082056 l -8.666104127390412 -5.689897416918386" fill="#ff7c0b" stroke="none" /><path d="M 116.93607887273984 112.41649034213515 l 22.54371797115803 16.527666088946297 a48.9532281912272,48.9532281912272 0 0,0 -0.504075431202718,0.6752914149257158 l -22.25588127326022 -16.913270383381327" fill="#a7ff21" stroke="none" /><path d="M 116.71984013943494 112.70617746262583 l 16.38798609906975 12.453986275784017 a41.58319369147363,41.58319369147363 0 0,0 -0.43799614108831386,0.5661690548306323 l -16.171183140763365 -12.734233324727901" fill="#feff18" stroke="none" /><path d="M 115.80600337817218 113.82643327865902 l 15.590441676112613 13.637868881976894 a41.71360275998028,41.71360275998028 0 0,0 -0.4774045367926625,0.5363690580173028 l -15.353378289671612 -13.904212109735065" fill="#fcff18" stroke="none" /><path d="M 114.81725581225074 114.88116024355365 l 11.530606321937796 11.580335964789207 a37.34194184327255,37.34194184327255 0 0,0 -0.4593948787423707,0.44961457865441745 l -11.329561490819632 -11.777100646366197" fill="#ffcb12" stroke="none" /><path d="M 114.0293411484842 115.62618273729858 l 8.893711316814903 9.906007472371254 a34.312666338097586,34.312666338097586 0 0,0 -0.4428909811002887,0.3907997967696154 l -8.721877982808026 -10.057630410913157" fill="#ffa30f" stroke="none" /><path d="M 112.34349029814194 116.9893568818739 l 6.662338704890242 9.16992254146626 a32.33464760965993,32.33464760965993 0 0,0 -0.4531049121504431,0.3232783241377715 l -6.503506464890914 -9.28324512744825" fill="#ff890c" stroke="none" /><path d="M 111.45004920935366 117.60387380957326 l 12.114979195122514 18.62617016373337 a43.21951700344997,43.21951700344997 0 0,0 -0.6271320636996821,0.4002653547797654 l -11.7925653293759 -18.831949947336945" fill="#eaff1a" stroke="none" /><path d="M 111.1453310114006 117.79835938074945 l 7.064725801769939 11.281901687597635 a34.3113356333169,34.3113356333169 0 0,0 -0.5032669072935884,0.30914763906409487 l -6.869479694544041 -11.401837793490108" fill="#ffa30f" stroke="none" /><line stroke="#e1ed5e" stroke-width="0.3" x1="143.8653032363475" x2="146.44561519142675" y1="172.8068346515853" y2="177.08958963109032" /><path d="M 144.38136562736335 173.6633856474863 a86.0,86.0 0 0,1 -40.68145358897372,12.25698825130547" fill="none" id="id102" stroke="none" /><text fill="#e1ed5e" style="font-size:6.75px; font-family:Arial;" text-anchor="middle"><textPath startOffset="21.466115282336833" xlink:href="#id102">June</textPath></text><path d="M 110.8373102113329 117.98757091392108 l 9.816452833895587 16.293170355888616 a40.021833415475605,40.021833415475605 0 0,0 -0.5931466866307576,0.3504415175171132 l -9.534538276236447 -16.45973044569948" fill="#ffed16" stroke="none" /><path d="M 110.21172684928248 118.3499491758327 l 13.62862543961764 24.489940618712886 a49.0267126663381,49.0267126663381 0 0,0 -0.74095048616029,0.40402528287607026 l -13.2050521415887 -24.720906553348726" fill="#a6ff21" stroke="none" /><path d="M 109.89434966115114 118.52300852407294 l 0.7679040788204528 1.4375774340692506 a22.629817644159683,22.629817644159683 0 0,0 -0.34516840312337016,0.18057579484794944 l -0.7430447731705869 -1.4505826478619168" fill="#ff0000" stroke="none" /><path d="M 109.57404056367764 118.69057910512821 l 6.754541903838553 13.18631344132339 a35.81562345983242,35.81562345983242 0 0,0 -0.551127560235738,0.2763467999226714 l -6.526560435920054 -13.300628082155365" fill="#ffb711" stroke="none" /><path d="M 108.92500713936063 119.00905698771935 l 5.69716202405022 12.1341838602943 a34.405076392311486,34.405076392311486 0 0,0 -0.5382461287114826,0.24708239838592716 l -5.487447899571318 -12.230453329014303" fill="#ffa50f" stroke="none" /><path d="M 108.59647513512805 119.15986991738527 l 7.024076152268851 15.655298625519102 a38.15884672252341,38.15884672252341 0 0,0 -0.6016002489872015,0.26372386975437495 l -6.753555228623895 -15.77388704856793" fill="#ffd513" stroke="none" /><path d="M 107.93186726928326 119.44442032107085 l 15.412774683610092 37.78334395769019 a61.806062099556435,61.806062099556435 0 0,0 -0.9885406491470765,0.39336072544953254 l -14.76011295842115 -38.04305152754579" fill="#31ff41" stroke="none" /><path d="M 107.2578585660854 119.70592522655815 l 4.081478712467841 11.081686642050455 a32.80941350418926,32.80941350418926 0 0,0 -0.5316381734612492,0.1906265342229938 l -3.8901209783768564 -11.150300717313408" fill="#ff8f0d" stroke="none" /><path d="M 106.57524785965236 119.94407469862006 l 6.48464897166152 19.66926969837223 a41.71064563824544,41.71064563824544 0 0,0 -0.6838135702725512,0.2189355110804534 l -6.145114056298028 -19.77797805611239" fill="#fcff18" stroke="none" /><path d="M 105.88484417918355 120.15858648285463 l 5.73912146582589 19.659412022105492 a41.47999014292755,41.47999014292755 0 0,0 -0.6871236056215558,0.1941879944408354 l -5.399866692099728 -19.755288809884846" fill="#ffff18" stroke="none" /><path d="M 105.53697534728816 120.25689768951611 l 4.814162843492693 17.61250467352429 a39.25860029571217,39.25860029571217 0 0,0 -0.6533931431045132,0.17256706769176713 l -4.510279257576682 -17.69276309051964" fill="#ffe315" stroke="none" /><path d="M 105.18746579009965 120.34920634021253 l 7.672686674571534 30.098142453804176 a52.06071956628882,52.06071956628882 0 0,0 -0.8702735522690728,0.2138920654974076 l -7.15345983755925 -30.225755777615614" fill="#85ff25" stroke="none" /><path d="M 104.48393922423573 120.51570834832081 l 4.389891100958968 20.085402813084258 a41.559536717594874,41.559536717594874 0 0,0 -0.7001961404630641,0.14673290911358922 l -4.043503499066525 -20.157991702924388" fill="#feff18" stroke="none" /><path d="M 103.7750983002368 120.6578951692458 l 3.854597835658963 21.09292836259379 a42.442237555446034,42.442237555446034 0 0,0 -0.719802217066652,0.12514684191344544 l -3.490946647120261 -21.15615378302824" fill="#f3ff19" stroke="none" /><path d="M 103.41894727170886 120.7198165907248 l 2.4175036020782743 14.650776178084273 a35.84889107934943,35.84889107934943 0 0,0 -0.609711343949913,0.09522437257787389 l -2.164956394519844 -14.690218858009253" fill="#ffb811" stroke="none" /><path d="M 102.70371172650421 120.8252237178851 l 2.1762185775819267 16.762230341678684 a37.9029078363726,37.9029078363726 0 0,0 -0.6477292480516698,0.07843099141911068 l -1.8873619064788767 -16.797206861823145" fill="#ffd213" stroke="none" /><path d="M 102.34483914955558 120.86867818915974 l 1.4238421996357957 12.671958612588128 a33.75170034499753,33.75170034499753 0 0,0 -0.5779052977712641,0.05990224702619309 l -1.205504305258929 -12.69459022807008" fill="#ff9c0e" stroke="none" /><path d="M 101.26447882468166 120.96189622390904 l 0.7135941085313618 11.829605492043799 a32.85110892065057,32.85110892065057 0 0,0 -0.5647448707715825,0.029190859073109178 l -0.5098611693462998 -11.84013615787911" fill="#ff900d" stroke="none" /><line stroke="#e1ed5e" stroke-width="0.3" x1="102.19456741930631" x2="102.32365962044197" y1="184.97166512339345" y2="189.96999836594603" /><path d="M 102.22038585953345 185.97133177190398 a86.0,86.0 0 0,1 -42.740103519485714,-10.115201625700543" fill="none" id="id103" stroke="none" /><text fill="#e1ed5e" style="font-size:6.75px; font-family:Arial;" text-anchor="middle"><textPath startOffset="22.20632615414155" xlink:href="#id103">July</textPath></text><path d="M 100.54218724476979 120.99299961872073 l 0.8722140973508202 33.77134078634211 a54.78260226712666,54.78260226712666 0 0,0 -0.9428876548531854,0.016232666062569293 l -0.2907667526049669 -33.78135092968384" fill="#68ff28" stroke="none" /><path d="M 99.81925306533755 120.99922214144158 l -0.13126073244260758 15.249903320121453 a36.25046821094135,36.25046821094135 0 0,0 -0.6239228796046964,-0.010741398194461096 l 0.39374330193997187 -15.245384444647831" fill="#ffbd11" stroke="none" /><path d="M 99.45781275523022 120.99299961872073 l -0.10290983415126198 3.9845756792330755 a24.98590438639724,24.98590438639724 0 0,0 -0.4298523214194566,-0.014804983085061351 l 0.17148250724536163 -3.9822138977219206" fill="#ff2203" stroke="none" /><path d="M 98.73552117531835 120.96189622390904 l -1.3369573300096307 22.16340856044951 a43.20369640216856,43.20369640216856 0 0,0 -0.7419457997439687,-0.05116892631132127 l 1.7182658905325294 -22.137111289621902" fill="#eaff1a" stroke="none" /><path d="M 98.01472825383883 120.90594882070398 l -0.7000518542771966 7.371911812907961 a28.405076392311486,28.405076392311486 0 0,0 -0.4863590267430096,-0.05041310172399097 l 0.8268434776257996 -7.35876934272821" fill="#ff5307" stroke="none" /><path d="M 97.2962882734958 120.8252237178851 l -2.6676381242953267 20.547368342644702 a41.71981271562346,41.71981271562346 0 0,0 -0.7113653387859454,-0.09858875397999815 l 3.020932054268103 -20.4984050231721" fill="#fcff18" stroke="none" /><path d="M 96.93821686468263 120.77559828337769 l -1.852440235168319 12.569653848404766 a33.70542138984722,33.70542138984722 0 0,0 -0.5732556058293236,-0.08953073603355927 l 2.0685317046061598 -12.535904805024101" fill="#ff9b0e" stroke="none" /><path d="M 96.22490169976321 120.6578951692458 l -3.993741957335633 21.854345536507765 a43.216264169541645,43.216264169541645 0 0,0 -0.7306273027339121,-0.14002646147658696 l 4.36933687464124 -21.78236187668271" fill="#eaff1a" stroke="none" /><path d="M 95.16358092515715 120.4354850818985 l -1.708359561823495 7.218389432329549 a28.417792015771315,28.417792015771315 0 0,0 -0.47504631152319704,-0.11675482555306455 l 1.8323591580899026 -7.187913348462454" fill="#ff5307" stroke="none" /><path d="M 94.46302465271185 120.25689768951611 l -5.388444219546351 19.713499955255347 a41.43666830951207,41.43666830951207 0 0,0 -0.6864059715460251,-0.19398518388283734 l 5.72698135919699 -19.617825978033988" fill="#fffe18" stroke="none" /><path d="M 94.11515582081647 120.15858648285463 l -3.268506182319886 11.19629722382587 a32.66362740266141,32.66362740266141 0 0,0 -0.5383666128390698,-0.16220544415974536 l 3.460747769599202 -11.138376410560399" fill="#ff8e0d" stroke="none" /><path d="M 93.08242187328487 119.8279376855182 l -7.94618005911037 22.776231820422495 a45.12257269590931,45.12257269590931 0 0,0 -0.7311585172610058,-0.26216743091576933 l 8.337058137001103 -22.636076848466768" fill="#d3ff1c" stroke="none" /><path d="M 92.7421414339146 119.70592522655815 l -6.544847930497217 17.770018906159883 a39.93696402168556,39.93696402168556 0 0,0 -0.6430417537217649,-0.24314336836194905 l 6.849759904979265 -17.6547272876913" fill="#ffec16" stroke="none" /><path d="M 91.7346041902142 119.30500536409082 l -8.15022846269317 19.036015674479227 a41.70739280433712,41.70739280433712 0 0,0 -0.6575454986402107,-0.2882486231229151 l 8.476694635991123 -18.892902498061858" fill="#fcff18" stroke="none" /><path d="M 91.40352486487194 119.15986991738527 l -8.476392007140344 18.89222799725507 a41.7066535239034,41.7066535239034 0 0,0 -0.6524747843829429,-0.299519171642932 l 8.800334787290707 -18.743521755278064" fill="#fcff18" stroke="none" /><line stroke="#e1ed5e" stroke-width="0.3" x1="58.666819895761336" x2="56.23545636021788" y1="174.27360380694188" y2="178.64263932499728" /><path d="M 58.180547188652646 175.14741091055294 a86.0,86.0 0 0,1 -31.652253787137756,-30.449443065178592" fill="none" id="id104" stroke="none" /><text fill="#e1ed5e" style="font-size:6.75px; font-family:Arial;" text-anchor="middle"><textPath startOffset="22.20632615414155" xlink:href="#id104">August</textPath></text><path d="M 88.54995079064634 117.60387380957326 l -10.887986665612113 16.739730965101355 a40.96914736323312,40.96914736323312 0 0,0 -0.5878590795996723,-0.3896009429828118 l 11.174520443951746 -16.549832001027223" fill="#fff917" stroke="none" /><path d="M 87.65650970185807 116.9893568818739 l -7.229671695570168 9.950789412724957 a33.299852143913256,33.299852143913256 0 0,0 -0.46083035789813265,-0.34091128187514763 l 7.3998870238868655 -9.824868182110043" fill="#ff960d" stroke="none" /><path d="M 87.07902340077011 116.55440617244103 l -4.56814700382827 5.852727955663971 a28.424445539674714,28.424445539674714 0 0,0 -0.38311077779373515,-0.3043663721467131 l 4.668215274339363 -5.773227669512127" fill="#ff5307" stroke="none" /><path d="M 86.51685102203217 116.09983520530335 l -9.663097475655468 11.538423048284358 a36.05027106949236,36.05027106949236 0 0,0 -0.47231781666536693,-0.4025194900784339 l 9.86028076889789 -11.370379167982973" fill="#ffba11" stroke="none" /><path d="M 85.70375840098266 115.38237550388516 l -11.271312692915322 12.127632501401479 a37.556628881222274,37.556628881222274 0 0,0 -0.4697514565799997,-0.44417932260395415 l 11.478399983886138 -11.931818542051595" fill="#ffce13" stroke="none" /><path d="M 84.9287848128048 114.62390073753433 l -10.61511006453748 10.300053046398535 a35.79093149334648,35.79093149334648 0 0,0 -0.4252191870302139,-0.4458406175972719 l 10.790835802946653 -10.115805312218763" fill="#ffb711" stroke="none" /><path d="M 84.67929136418377 114.36230785411682 l -8.895244640113454 8.33879456857027 a33.19265648102513,33.19265648102513 0 0,0 -0.38717430634242633,-0.42020124168050305 l 9.037465354451609 -8.184442072088423" fill="#ff950d" stroke="none" /><path d="M 83.95833913139862 113.55231037782056 l -11.566531058450547 9.771632761894308 a36.141646131099066,36.141646131099066 0 0,0 -0.3973928886715747,-0.4786853343211044 l 11.733019947015658 -9.571086170459441" fill="#ffbb11" stroke="none" /><path d="M 83.72743513129214 113.27417163493432 l -21.184924872303696 17.281377035338775 a48.339477575160174,48.339477575160174 0 0,0 -0.5204138104937829,-0.649296245872408 l 21.479256594852338 -16.914152955888106" fill="#aeff20" stroke="none" /><path d="M 83.06392112726016 112.41649034213515 l -23.86159126343094 17.493849650597213 a50.58733366190242,50.58733366190242 0 0,0 -0.5088127199634024,-0.7066963660110754 l 24.159183775769954 -17.080519679135" fill="#95ff23" stroke="none" /><line stroke="#e1ed5e" stroke-width="0.3" x1="26.63291911575756" x2="22.317208475507996" y1="142.92168965132927" y2="145.44649492493687" /><path d="M 25.769776987707644 143.4266507060508 a86.0,86.0 0 0,1 -11.730757126820373,-40.83630448921669" fill="none" id="id105" stroke="none" /><text fill="#e1ed5e" style="font-size:6.75px; font-family:Arial;" text-anchor="middle"><textPath startOffset="21.46611528233685" xlink:href="#id105">September</textPath></text><path d="M 81.87401531095188 110.60418214915194 l -7.721059450027544 4.517024713255597 a29.945293247905372,29.945293247905372 0 0,0 -0.25645720072702277,-0.4471547463093508 l 7.797668646906944 -4.383450121087939" fill="#ff6809" stroke="none" /><path d="M 81.69416730710424 110.29060199501025 l -16.338500226343893 9.184668397517912 a39.743124691966486,39.743124691966486 0 0,0 -0.330101833732804,-0.5992307127841927 l 16.494178469528215 -8.902067166335897" fill="#ffe915" stroke="none" /><path d="M 81.51974371655577 109.97397251340807 l -13.062260989192193 7.049828209681308 a35.84327254805323,35.84327254805323 0 0,0 -0.2883633806669233,-0.5454748436444504 l 13.181676878084003 -6.823938350950732" fill="#ffb811" stroke="none" /><path d="M 81.35079622478065 109.6543875284942 l -8.26352876427272 4.277893576837665 a30.305174963035977,30.305174963035977 0 0,0 -0.23583390499139356,-0.46532266811639 l 8.335941339050382 -4.135016697018591" fill="#ff6d0a" stroke="none" /><path d="M 81.18737489456691 109.33194174019688 l -15.239643607023893 7.559575842556869 a38.01158206012814,38.01158206012814 0 0,0 -0.28571449710064756,-0.5886564898659774 l 15.367511360739261 -7.296130396725607" fill="#ffd313" stroke="none" /><path d="M 81.02952815118164 109.00673069616217 l -4.077522809270768 1.9359112489786567 a25.51375061606703,25.51375061606703 0 0,0 -0.18494478397066244,-0.398354611212421 l 4.110242210081257 -1.8654365704874087" fill="#ff2a04" stroke="none" /><path d="M 80.87730276802145 108.67885076344099 l -10.11929029964286 4.592647641550811 a32.112715623459835,32.112715623459835 0 0,0 -0.22411451276700736,-0.505319061786157 l 10.196845897141147 -4.417780243271959" fill="#ff860c" stroke="none" /><path d="M 80.73074385275274 108.34839909993369 l -6.7878576607693795 2.9408371736103804 a28.39753573188763,28.39753573188763 0 0,0 -0.1904650021139422,-0.4502030025452806 l 6.837473644075628 -2.823559645398941" fill="#ff5307" stroke="none" /><path d="M 80.58989483394504 108.01547362559985 l -13.823088906119311 5.708294911512872 a35.95534746180384,35.95534746180384 0 0,0 -0.23130825931223647,-0.5740881301606863 l 13.919299779688936 -5.46950741350938" fill="#ffb911" stroke="none" /><path d="M 80.20201598880116 107.00284435728193 l -7.086041802501533 2.506439434643574 a28.516264169541646,28.516264169541646 0 0,0 -0.15970353017062763,-0.4641732142412361 l 7.128136163615388 -2.384093517313041" fill="#ff5507" stroke="none" /><path d="M 79.97269907076064 106.31721596034903 l -6.317701829427866 1.9927940849642878 a27.62454411039921,27.62454411039921 0 0,0 -0.13913986612398535,-0.45471713307196154 l 6.351068468057982 -1.8837499793402785" fill="#ff4806" stroke="none" /><path d="M 79.76711848015287 105.62410040840567 l -19.235696624832478 5.3469145824615785 a40.96500739280434,40.96500739280434 0 0,0 -0.18300029267582799,-0.6810121668266225 l 19.32488499385008 -5.015011482459417" fill="#fff817" stroke="none" /><path d="M 79.67330655649465 105.27499134158121 l -26.064622896652278 6.764044554691225 a47.927994085756524,47.927994085756524 0 0,0 -0.20035883853632253,-0.8003339637810126 l 26.17719304948366 -6.31438275151282" fill="#b3ff20" stroke="none" /><path d="M 79.58551787078972 104.9243191809786 l -20.65336735978656 4.981942348469883 a42.2457368161656,42.2457368161656 0 0,0 -0.16443536281905174,-0.7083832393511982 l 20.73606328853617 -4.625690451770111" fill="#f6ff19" stroke="none" /><path d="M 79.50377843672027 104.57218783832718 l -7.252542470645284 1.6178585101091951 a28.430803351404634,28.430803351404634 0 0,0 -0.10244019359144872,-0.4785664803627693 l 7.279316702961173 -1.492778210330262" fill="#ff5307" stroke="none" /><path d="M 79.4281124754447 104.21870165774334 l -20.511343632523584 4.206285849161094 a41.93819615574175,41.93819615574175 0 0,0 -0.13893538654450482,-0.7084285427514692 l 20.580708952043754 -3.8525935793416695" fill="#faff18" stroke="none" /><path d="M 79.35854240842038 103.8639653848113 l -8.244375176055266 1.5433009107200961 a29.387580088713655,29.387580088713655 0 0,0 -0.08879745274623341,-0.4980232721380548 l 8.269719071140688 -1.4011588878488277" fill="#ff6108" stroke="none" /><path d="M 79.23777060512086 103.15116336523772 l -21.938409763190055 3.329676780971743 a43.18965007392805,43.18965007392805 0 0,0 -0.1052304491568354,-0.7359815163112943 l 21.99247426336349 -2.9515497926800482" fill="#eaff1a" stroke="none" /><path d="M 79.04373962182676 101.35467743843564 l -37.2089815862035 2.4053035681164325 a58.286643666830955,58.286643666830955 0 0,0 -0.05610408395356179,-1.0017761075827254 l 37.24487202104459 -1.7644557441982696" fill="#44ff2d" stroke="none" /><line stroke="#e1ed5e" stroke-width="0.3" x1="15.007084014347285" x2="10.007500721073583" y1="101.09737516637583" y2="101.16192664675087" /><path d="M 14.007167355692545 101.11028546245083 a86.0,86.0 0 0,1 10.666146001902534,-42.60595125391555" fill="none" id="id106" stroke="none" /><text fill="#e1ed5e" style="font-size:6.75px; font-family:Arial;" text-anchor="middle"><textPath startOffset="22.20632615414155" xlink:href="#id106">October</textPath></text><path d="M 79.00175016825051 100.2711162175752 l -17.046681701755826 0.22009605096709295 a38.048102513553474,38.048102513553474 0 0,0 -0.0028186445814096356,-0.6549537348087855 l 17.04794464362674 0.07336716204536792" fill="#ffd413" stroke="none" /><path d="M 79.05617556472873 98.46500227214037 l -10.169175672077568 -0.7453109435235936 a31.196451453918186,31.196451453918186 0 0,0 0.04386149200842549,-0.53522129958809 l 10.154839696249645 0.920246160319462" fill="#ff7a0b" stroke="none" /><path d="M 79.08570108090925 98.10471618934814 l -9.022319292203125 -0.817615534481798 a30.059290290783636,30.059290290783636 0 0,0 0.05113353567328894,-0.5149077260596959 l 9.006908630847608 0.9727987912459242" fill="#ff6a09" stroke="none" /><path d="M 79.16333360222342 97.38593545837743 l -35.58033533844933 -4.4637319238938025 a56.85924100542139,56.85924100542139 0 0,0 0.1301914189559778,-0.9700772922079751 l 35.49822792043552 5.075527558166438" fill="#52ff2b" stroke="none" /><path d="M 79.21141760316559 97.0276538004421 l -42.00441165712275 -6.005780046489669 a63.4315919172006,63.4315919172006 0 0,0 0.16384714434625358,-1.0795479644566712 l 41.8948086193372 6.727927123338432" fill="#33ff54" stroke="none" /><path d="M 79.26566170972629 96.67025291283419 l -27.63259701892473 -4.437545010913231 a48.98664366683095,48.98664366683095 0 0,0 0.14086724863867034,-0.83140647550319 l 27.552117908765837 4.912537274732249" fill="#a7ff21" stroke="none" /><path d="M 79.46518482838121 95.60439243477599 l -17.235191487561313 -3.689302165987633 a38.62562838836865,38.62562838836865 0 0,0 0.14476446474943114,-0.648950710012728 l 17.169132635809845 3.98543104555032" fill="#ffdb14" stroke="none" /><path d="M 79.54389044137918 95.25157060432595 l -4.369481460180517 -1.0142776244874978 a25.485657959586003,25.485657959586003 0 0,0 0.10287370755927536,-0.42647793275598883 l 4.351374952360427 1.0893407889028834" fill="#ff2a04" stroke="none" /><path d="M 79.71946130924805 94.55025226153421 l -24.815708650316637 -6.668429974059759 a46.6960571710202,46.6960571710202 0 0,0 0.21527600459734825,-0.7744623279794841 l 24.69724587515293 7.094603605458185" fill="#c1ff1e" stroke="none" /><path d="M 79.91906864156998 93.8553929516997 l -16.74353514132278 -5.123390056290668 a38.50985707244948,38.50985707244948 0 0,0 0.19941598940472058,-0.6322031817461677 l 16.65286366814986 5.41084340446325" fill="#ffda14" stroke="none" /><path d="M 80.02781315780177 93.51064311812611 l -33.325835924051844 -10.828220485150595 a56.0408575653031,56.0408575653031 0 0,0 0.305990304180395,-0.9148720623183318 l 33.13450832609968 11.40026565039125" fill="#5bff2a" stroke="none" /><path d="M 80.14247586403 93.16781622104843 l -3.517115237375634 -1.2100993814215706 a24.719467718087728,24.719467718087728 0 0,0 0.1418978894017544,-0.40116444151405056 l 3.49576426716407 1.2704614493622324" fill="#ff1f03" stroke="none" /><path d="M 80.2630227832202 92.82701384747504 l -6.9524798080173955 -2.5267314665702756 a28.397387875800888,28.397387875800888 0 0,0 0.17091902504955928,-0.45797801153986945 l 6.907956194466209 2.6460326151394864" fill="#ff5307" stroke="none" /><path d="M 80.52162464483688 92.15188598940014 l -32.49829031040583 -13.094022620219778 a56.0370133070478,56.0370133070478 0 0,0 0.36818536038295396,-0.8915900543681361 l 32.268083263136674 13.651487245041226" fill="#5bff2a" stroke="none" /><path d="M 80.95270993114464 91.15688171328213 l -19.294986645333402 -8.958116804464604 a42.27309019221292,42.27309019221292 0 0,0 0.3120998216805348,-0.6573618198370934 l 19.137928629811118 9.28892103994223" fill="#f6ff19" stroke="none" /><path d="M 81.10775173730289 90.83032412892265 l -18.414455150258835 -8.937770810675243 a41.46890093642188,41.46890093642188 0 0,0 0.31721731948871523,-0.6394907592260315 l 18.25787781781671 9.253421158400236" fill="#ffff18" stroke="none" /><path d="M 81.26839172434947 90.50648371742162 l -28.0524396723507 -14.217481429061127 a52.449581074420905,52.449581074420905 0 0,0 0.4150774099653603,-0.8017974395670081 l 27.803552829225225 14.698251590888471" fill="#81ff25" stroke="none" /><path d="M 81.43458229118936 90.18545643968196 l -9.893146794982275 -5.229977676284382 a32.190487925086245,32.190487925086245 0 0,0 0.26318314566394707,-0.4876383983226832 l 9.801655550099856 5.399497057939538" fill="#ff870c" stroke="none" /><path d="M 81.6062741919709 89.86733742301443 l -17.389536904871626 -9.579478984632223 a40.85352390340069,40.85352390340069 0 0,0 0.3446137897983078,-0.6130294790111906 l 17.222065473780887 9.877391973578199" fill="#fff717" stroke="none" /><line stroke="#e1ed5e" stroke-width="0.3" x1="26.266209847984243" x2="21.928928074336255" y1="57.711370442889674" y2="55.22380399835377" /><path d="M 25.398753493254645 57.213857153982495 a86.0,86.0 0 0,1 29.58750427330803,-30.492523968695096" fill="none" id="id107" stroke="none" /><text fill="#e1ed5e" style="font-size:6.75px; font-family:Arial;" text-anchor="middle"><textPath startOffset="21.46611528233685" xlink:href="#id107">November</textPath></text><path d="M 82.54541684631803 88.32363383020206 l -6.152055429650911 -4.115460750968701 a28.40167570231641,28.40167570231641 0 0,0 0.27532791938105794,-0.40400974801088385 l 6.080303044601113 4.220748522250001" fill="#ff5307" stroke="none" /><path d="M 82.7489923806493 88.02491185347247 l -21.347013603631236 -14.818402217958539 a46.986150813208475,46.986150813208475 0 0,0 0.4669246056527787,-0.6604317414987255 l 21.08877637817458 15.183660459789051" fill="#beff1f" stroke="none" /><path d="M 82.95767976084542 87.72973835380427 l -44.99218139712821 -32.39381903571422 a76.44056185312962,76.44056185312962 0 0,0 0.77800980897514,-1.061204505097091 l 44.42790897563944 33.16348598448282" fill="#44ffe3" stroke="none" /><path d="M 83.39014120810768 87.1503855733568 l -14.856368524162734 -11.493090321080379 a39.783045835386886,39.783045835386886 0 0,0 0.42368170774415675,-0.5380327432840193 l 14.656332735824606 11.747115458317445" fill="#ffea16" stroke="none" /><path d="M 83.6137871275137 86.86637796730984 l -16.098937859795377 -12.903369840467398 a41.631838344011825,41.631838344011825 0 0,0 0.4529970399637411,-0.555320808022617 l 15.874442327755244 13.178574818098099" fill="#fdff18" stroke="none" /><path d="M 83.84228863543731 86.58626213691792 l -23.887543189444344 -19.830855701446072 a52.04637752587482,52.04637752587482 0 0,0 0.578184165868041,-0.6843876837140309 l 23.54264841008918 20.23910233478922" fill="#85ff25" stroke="none" /><path d="M 84.07557802195018 86.31012108654704 l -24.21077226115725 -20.81347386506638 a52.927451946771804,52.927451946771804 0 0,0 0.5998649620678282,-0.6857493487872791 l 23.848915435511575 21.227138770056605" fill="#7cff26" stroke="none" /><path d="M 84.31358615837235 86.03803664274999 l -26.970735992066167 -24.005769033071672 a57.1067520946279,57.1067520946279 0 0,0 0.659872217120212,-0.7286473834211423 l 26.553520134329908 24.46646920376237" fill="#50ff2b" stroke="none" /><path d="M 84.5562425177563 85.77008943001954 l -25.167463831956038 -23.18935401657979 a55.222030556924594,55.222030556924594 0 0,0 0.6501281190865611,-0.6935113485693265 l 24.764568390899022 23.61913478202717" fill="#63ff29" stroke="none" /><path d="M 84.80347519578584 85.50635884689758 l -16.450722253731858 -15.689828307905389 a43.73316904879251,43.73316904879251 0 0,0 0.5242476910044656,-0.540283328253139 l 16.178210299024272 15.970675831708652" fill="#e4ff1a" stroke="none" /><path d="M 87.51073957382395 83.11751280151077 l -8.801398051935411 -11.897381019390172 a35.7990635781173,35.7990635781173 0 0,0 0.4985525625509119,-0.36221963913929145 l 8.595300173030717 12.047119893346132" fill="#ffb711" stroke="none" /><path d="M 88.39885842347998 82.49532879139004 l -1.7455213369727025 -2.6337733135816013 a24.159684573681616,24.159684573681616 0 0,0 0.34862767011791507,-0.22675713435423486 l 1.6999266410705003 2.6634293720953712" fill="#ff1602" stroke="none" /><path d="M 89.00827224532344 82.1063720568725 l -1.6385049638950353 -2.667351199126206 a24.13040906850665,24.13040906850665 0 0,0 0.3557947621569191,-0.21436236318478083 l 1.5923481355204672 2.695160171769606" fill="#ff1602" stroke="none" /><line stroke="#e1ed5e" stroke-width="0.3" x1="56.762969772571076" x2="54.21961505331055" y1="26.818313649435495" y2="22.513508569990535" /><path d="M 56.25429882871897 25.957352633546506 a86.0,86.0 0 0,1 42.265352541879196,-11.944610805530505" fill="none" id="id108" stroke="none" /><text fill="#e1ed5e" style="font-size:6.75px; font-family:Arial;" text-anchor="middle"><textPath startOffset="22.20632615414155" xlink:href="#id108">December</textPath></text><path d="M 89.94658935756843 81.56283822128135 l -3.9506513284942146 -7.245182780790142 a29.252291769344506,29.252291769344506 0 0,0 0.44415419671689427,-0.23725178985224518 l 3.825352085249015 7.312113297144136" fill="#ff5f08" stroke="none" /><path d="M 90.58718382345135 81.22770947309562 l -27.827089309707617 -55.49648428718015 a83.08225726959094,83.08225726959094 0 0,0 1.2839323659816273,-0.6300200359301379 l 26.867685676715563 55.967259483245115" fill="#4cdaff" stroke="none" /><path d="M 90.91171255644093 81.06846463323043 l -26.65588372333825 -55.52606127114903 a82.59285362247414,82.59285362247414 0 0,0 1.2869610141055048,-0.6042454523857202 l 25.696144497933133 55.97667170617476" fill="#4bdfff" stroke="none" /><path d="M 91.23893434514133 80.91482961587045 l -17.946089658276414 -39.09389477832827 a64.0162148841794,64.0162148841794 0 0,0 1.0054139227083714,-0.4510999200068443 l 17.270493617101266 39.39701502885164" fill="#34ff5b" stroke="none" /><path d="M 91.56875222667455 80.76684994638697 l -7.052733122954656 -16.088517155316875 a38.56648595367176,38.56648595367176 0 0,0 0.6102985565408123,-0.2612979917288093 l 6.774750808623535 16.20753467500847" fill="#ffdb14" stroke="none" /><path d="M 91.90106846888425 80.62456947434976 l -6.007852757775293 -14.37285069880999 a36.5779694430754,36.5779694430754 0 0,0 0.5830112566809839,-0.23782493014103412 l 5.7595576315059285 14.474136515134601" fill="#ffc112" stroke="none" /><path d="M 92.23578459929587 80.48803036053334 l -3.051457464389953 -7.668507676371394 a29.2533267619517,29.2533267619517 0 0,0 0.46946969516872517,-0.1821469480761416 l 2.919004604221551 7.719897328338087" fill="#ff5f08" stroke="none" /><path d="M 92.57280143429618 80.3572730644239 l -5.28438144518811 -13.975614201371345 a35.94130113356333,35.94130113356333 0 0,0 0.5805678371064317,-0.21382803401982492 l 5.0430312823091095 14.064505503197493" fill="#ffb911" stroke="none" /><path d="M 92.91201910852362 80.23233633223022 l -14.262895970891593 -39.77777801574273 a63.257565303104975,63.257565303104975 0 0,0 1.0281402579567451,-0.3586979479379507 l 13.576073708871563 40.017396816852894" fill="#33ff52" stroke="none" /><path d="M 93.25333710446033 80.11325718540243 l -13.467009863147707 -39.69591571073224 a62.918087727944794,62.918087727944794 0 0,0 1.0286123956505957,-0.3391173346027082 l 12.781714645254702 39.92184676959418" fill="#33ff4e" stroke="none" /><path d="M 93.59665428221793 80.00007090966166 l -10.777980947577406 -33.663472845134585 a56.34677180877279,56.34677180877279 0 0,0 0.9262728489961485,-0.28779748304829045 l 10.196922725870529 33.844010463065395" fill="#58ff2a" stroke="none" /><path d="M 94.28887869178378 79.79150937346287 l -6.470459580302089 -22.89536760317252 a44.792114342040406,44.792114342040406 0 0,0 0.7437668960572316,-0.20329958864971198 l 6.075394795021135 23.003353732648527" fill="#d7ff1c" stroke="none" /><path d="M 94.63758080256005 79.69619591428918 l -1.5123358682859585 -5.7261788105135025 a26.92252341054707,26.92252341054707 0 0,0 0.44908193547069775,-0.11448098457788057 l 1.4135450441302613 5.751362791260247" fill="#ff3e05" stroke="none" /><path d="M 95.33964822691252 79.52364482259891 l -3.343358608851671 -14.689834951002807 a36.06550024642681,36.06550024642681 0 0,0 0.6065139913842196,-0.1325604668306804 l 3.0900018933139304 14.745208915929355" fill="#ffba11" stroke="none" /><path d="M 96.04723909329186 79.375362276772 l -2.784243183762602 -14.527569046996401 a35.791966485953665,35.791966485953665 0 0,0 0.6060856146536597,-0.11075827207620385 l 2.533762448006049 14.573342800423342" fill="#ffb711" stroke="none" /><path d="M 96.75951476605007 79.25152402106235 l -5.2508956886054925 -33.62091637434755 a55.028486939379,55.028486939379 0 0,0 0.9371378042666141,-0.13810975190387395 l 4.67138890391023 33.7063206104124" fill="#65ff29" stroke="none" /><path d="M 97.47563105711357 79.15227682838746 l -1.7789487255755996 -14.6916046768056 a35.79891572203056,35.79891572203056 0 0,0 0.6123886907429915,-0.06880900475743641 l 1.5257933313228902 14.720049635033634" fill="#ffb711" stroke="none" /><path d="M 97.83486435360386 79.11191278185805 l -2.6198705357293623 -25.275129686051354 a46.410547067520945,46.410547067520945 0 0,0 0.7953328441712717,-0.07552643689452918 l 2.1844125644678543 25.316481667461066" fill="#c4ff1e" stroke="none" /><path d="M 98.19473922651362 79.07773832637324 l -3.405807542763991 -39.47196862983162 a60.618629866929524,60.618629866929524 0 0,0 1.0403594719740392,-0.08075191795342898 l 2.7258578814276175 39.52474580997352" fill="#30ff32" stroke="none" /><path d="M 98.55514903715128 79.0497635885617 l -3.073993413713816 -44.57268631882546 a65.67856086742238,65.67856086742238 0 0,0 1.1285389208839431,-0.06807654961382531 l 2.30629244399025 44.618996137819586" fill="#36ff6f" stroke="none" /><path d="M 98.91598698831166 79.02799685794201 l -1.1449873125429326 -22.15165063274236 a43.18122227698373,43.18122227698373 0 0,0 0.7426330616174771,-0.03197934180339452 l 0.7635134185361314 22.168077701069947" fill="#ebff1a" stroke="none" /></svg>