<?xml version="1.0" encoding="utf-8" ?>
<svg baseProfile="full" height="200mm" version="1.1" viewBox="0,0,200,200" width="200mm" xmlns="http://www.w3.org/2000/svg" xmlns:ev="http://www.w3.org/2001/xml-events" xmlns:xlink="http://www.w3.org/1999/xlink"><defs /><rect fill="#1a1a1a" height="200" width="200" x="0" y="0" /><text alignment-baseline="middle" fill="#e1ed5e" style="dominant-baseline: central; font-size:9.0px; font-family:Arial;" text-anchor="middle" x="100.0" y="100.0">2025</text><line stroke="#e1ed5e" stroke-width="0.3" x1="100.0" x2="100.0" y1="15.0" y2="10.0" /><path d="M 100.0 14.0 a86.0,86.0 0 0,1 42.46469731375804,11.215312516191453" fill="none" id="id121" stroke="none" /><text fill="#e1ed5e" style="font-size:6.75px; font-family:Arial;" text-anchor="middle"><textPath startOffset="22.20632615414155" xlink:href="#id121">January</textPath></text><path d="M 100.0 79.0 l 0.0 -0.8116831654840908 a21.81168316548409,21.81168316548409 0 0,0 0.3754522706857013,0.0032316362283040224 l -0.013971791413172957 0.8115629058643457" fill="#ff0a01" stroke="none" /><path d="M 100.36148047927253 79.00311137660856 l 0.019621940630275496 -1.1397564339237194 a22.139925326161592,22.139925326161592 0 0,0 0.3809894910309228,0.009839834524842958 l -0.03923806685606608 1.1392498072565167" fill="#ff0f01" stroke="none" /><path d="M 100.72285384407766 79.0124445844662 l 0.045086126523319524 -1.3090441264614423 a22.309820325017167,22.309820325017167 0 0,0 0.3836855303869892,0.01652230604241643 l -0.06761248929964025 1.3080740938948312" fill="#ff1101" stroke="none" /><path d="M 101.44485096284872 79.0497635885617 l 0.13702852107662458 -1.9869038298627797 a22.991623369192034,22.991623369192034 0 0,0 0.3945907916544225,0.0306278397911771 l -0.17120950209338825 1.984250727883138" fill="#ff1b02" stroke="none" /><path d="M 101.80526077348638 79.07773832637324 l 0.036727078015870114 -0.4256523755688521 a21.427233920805676,21.427233920805676 0 0,0 0.3671963373360739,0.03486971675187795 l -0.044048542442188185 0.42495711430179595" fill="#ff0400" stroke="none" /><path d="M 102.16513564639614 79.11191278185805 l 0.16454584901605376 -1.5874515997884535 a22.59595674067292,22.59595674067292 0 0,0 0.3865342870144561,0.043431630916991086 l -0.1918468395402351 1.5843840154008615" fill="#ff1502" stroke="none" /><path d="M 102.52436894288641 79.15227682838746 l 0.05346300258303492 -0.44152891395498095 a21.444753948271916,21.444753948271916 0 0,0 0.36607754482041416,0.047527371813575005 l -0.06105527591129518 0.4405432189772692" fill="#ff0500" stroke="none" /><path d="M 102.88285421437855 79.19881850522331 l 0.1406076016657048 -1.0145515604659434 a22.024248683909363,22.024248683909363 0 0,0 0.3750740243866353,0.0552761613263116 l -0.1580506064809959 1.0119809149786627" fill="#ff0d01" stroke="none" /><path d="M 103.2404852339499 79.25152402106235 l 0.2351938471714482 -1.5059207298045552 a22.52417629892424,22.52417629892424 0 0,0 0.38255789721929717,0.06312533092373453 l -0.26108095052962055 1.501649135941196" fill="#ff1402" stroke="none" /><path d="M 103.59715602781102 79.31037775812273 l 0.15281017677195985 -0.8789123428850129 a21.892097447928588,21.892097447928588 0 0,0 0.3707112696082923,0.0677451149941126 l -0.16791656748315303 0.8761517465401617" fill="#ff0b01" stroke="none" /><path d="M 103.95276090670814 79.375362276772 l 0.3566724360729411 -1.8610383864557878 a22.89490873197528,22.89490873197528 0 0,0 0.386415462228403,0.07751130651508673 l -0.3886543077684695 1.854623123863493" fill="#ff1902" stroke="none" /><path d="M 104.307194497241 79.44645832069477 l 0.04462343211821762 -0.21293897280536808 a21.217564373998627,21.217564373998627 0 0,0 0.35681605878183387,0.07798617014069688 l -0.048282215053579436 0.21213930456880067" fill="#ff0100" stroke="none" /><path d="M 104.66035177308747 79.52364482259891 l 0.2532806253606025 -1.1128481919299553 a22.141307221332113,22.141307221332113 0 0,0 0.3708946390547745,0.08777877793908587 l -0.2723989513779005 1.1083235018500008" fill="#ff0f01" stroke="none" /><path d="M 105.01212808612495 79.60689891045804 l 0.10451589134502497 -0.42524913590357555 a21.437904554818036,21.437904554818036 0 0,0 0.3575955909891225,0.09115907834109674 l -0.11182037101917255 0.42338706139361093" fill="#ff0500" stroke="none" /><path d="M 105.36241919743992 79.69619591428918 l 0.36952395095565227 -1.3991337918459013 a22.44710860608835,22.44710860608835 0 0,0 0.37273115008417207,0.10188150331876927 l -0.39355299026353513 1.3925657477008384" fill="#ff1302" stroke="none" /><path d="M 105.71112130821622 79.79150937346287 l 0.059078536856221296 -0.20904617392225716 a21.217233920805675,21.217233920805675 0 0,0 0.35059941539856637,0.10234958342382779 l -0.06266816997821481 0.2079982615797259" fill="#ff0100" stroke="none" /><path d="M 106.0581310904928 79.89281104454417 l 0.40269100373489025 -1.3365481832287274 a22.39589436942092,22.39589436942092 0 0,0 0.3681614441690365,0.11438955282140022 l -0.425637820614645 1.3294184955248065" fill="#ff1202" stroke="none" /><path d="M 106.40334571778207 80.00007090966166 l 0.7169010136365463 -2.23913717444712 a23.35110236896315,23.35110236896315 0 0,0 0.3817540268019442,0.1258583005516317 l -0.755337862680908 2.226465149636252" fill="#ff2003" stroke="none" /><path d="M 106.74666289553966 80.11325718540242 l 0.06903207402528777 -0.20348179883224332 a21.21487268253605,21.21487268253605 0 0,0 0.3448103727645717,0.1202975685284112 l -0.07252445085313317 0.20226337713162465" fill="#ff0100" stroke="none" /><path d="M 107.08798089147638 80.2323363322302 l 0.4548134591487635 -1.2684288557887222 a22.34750400549325,22.34750400549325 0 0,0 0.3609842063586406,0.13295352967292362 l -0.47657999127998046 1.2604120583094738" fill="#ff1202" stroke="none" /><path d="M 107.4271985657038 80.35727306442388 l 0.578876094207704 -1.530954766789283 a22.636740672922866,22.636740672922866 0 0,0 0.36328393791960817,0.1409485239582037 l -0.6051431971269792 1.5207635389405325" fill="#ff1602" stroke="none" /><path d="M 108.09893153111575 80.62456947434976 l 0.6955854192590144 -1.6640796275075602 a22.80360751888304,22.80360751888304 0 0,0 0.36085757902379645,0.1545003829494253 l -0.724126756073126 1.651859716595344" fill="#ff1802" stroke="none" /><path d="M 108.43124777332544 80.76684994638697 l 0.20697468569663183 -0.4721454397173559 a21.51551899748226,21.51551899748226 0 0,0 0.3379144236113021,0.1516123519053675 l -0.21507122777471413 0.46851275729545716" fill="#ff0600" stroke="none" /><path d="M 109.08828744355905 81.06846463323043 l 0.5203559404912553 -1.0839376452271459 a22.20236896314946,22.20236896314946 0 0,0 0.3431098413798956,0.16836250905543393 l -0.5389370488815828 1.07481997603688" fill="#ff0f01" stroke="none" /><path d="M 109.41281617654863 81.2277094730956 l 0.38203882547642093 -0.7619126614061156 a21.852328908216982,21.852328908216982 0 0,0 0.33479798323713683,0.17149653063828013 l -0.3950972963023133 0.7552236054553348" fill="#ff0a01" stroke="none" /><path d="M 110.05341064243156 81.56283822128135 l 26.49277349701144 -48.58565598323268 a76.33925383382925,76.33925383382925 0 0,0 1.1482729211581881,0.6390126374158184 l -27.325170507241666 48.12242794825668" fill="#44ffe4" stroke="none" /><path d="M 110.36928655335952 81.73862282372117 l 0.32095778068830116 -0.565239571753518 a21.650007438773173,21.650007438773173 0 0,0 0.3224853842380094,0.18680434954191433 l -0.33063989739163885 0.5596310648215542" fill="#ff0801" stroke="none" /><line stroke="#e1ed5e" stroke-width="0.3" x1="143.23703022742887" x2="145.7803849466894" y1="26.81831364943548" y2="22.513508569990506" /><path d="M 143.74570117128098 25.957352633546492 a86.0,86.0 0 0,1 28.547481713284135,27.462654790039103" fill="none" id="id122" stroke="none" /><text fill="#e1ed5e" style="font-size:6.75px; font-family:Arial;" text-anchor="middle"><textPath startOffset="19.985693538727396" xlink:href="#id122">February</textPath></text><path d="M 110.68208982089419 81.91981866633111 l 0.794717287250108 -1.3451143833651626 a22.562340638590065,22.562340638590065 0 0,0 0.33267412079175507,0.20043243546088876 l -0.8177534742595006 1.3312353384456592" fill="#ff1502" stroke="none" /><path d="M 110.99172775467656 82.1063720568725 l 0.2504838394541056 -0.407767070745625 a21.4785563057908,21.4785563057908 0 0,0 0.3133627755613455,0.19622774130855827 l -0.2574657673877143 0.4033949881141225" fill="#ff0500" stroke="none" /><path d="M 111.2981086023043 82.29822771554956 l 0.3685235372576403 -0.5773992769607862 a21.684981403067063,21.684981403067063 0 0,0 0.3129173528754279,0.20353015067262598 l -0.3784079159173484 0.5709702021286321" fill="#ff0801" stroke="none" /><path d="M 111.60114157652 82.49532879139004 l 1.3540794561896181 -2.0431364891628827 a23.451109521629665,23.451109521629665 0 0,0 0.33456392017325215,0.22589905236213875 l -1.3890480707694122 2.019525524502074" fill="#ff2103" stroke="none" /><path d="M 112.19680574252982 82.90503203632743 l 0.561652575264911 -0.7872087974139003 a21.96703221560998,21.96703221560998 0 0,0 0.30592197415534994,0.22226532447521727 l -0.5751198657740496 0.7774242381220081" fill="#ff0c01" stroke="none" /><path d="M 112.48926042617603 83.11751280151076 l 0.5039476612739989 -0.6812164731816578 a21.847360093842983,21.847360093842983 0 0,0 0.30040520272965604,0.22625897064299158 l -0.515599017762038 0.6724409130328188" fill="#ff0a01" stroke="none" /><path d="M 112.77801427241765 83.33499621200491 l 38.33404281725294 -49.995011363985284 a84.0,84.0 0 0,0 1.1398697793622787,0.8896864431071037 l -39.188945151774654 49.32774653165496" fill="#4dd2ff" stroke="none" /><path d="M 113.06298171725822 83.55741782278167 l 1.1415234126417981 -1.4368536162600558 a22.835108720531014,22.835108720531014 0 0,0 0.30566054546436283,0.24715623716606674 l -1.166087356670652 1.4169912818298593" fill="#ff1902" stroke="none" /><path d="M 113.34407831869373 83.78471172551755 l 0.13679665548097755 -0.16623082918373142 a21.215281242847333,21.215281242847333 0 0,0 0.27998358560703557,0.2344782010490228 l -0.1396377780471305 0.1638514707408892" fill="#ff0100" stroke="none" /><path d="M 113.6212207817346 84.01681056812373 l 0.29841821931235607 -0.3501650113173766 a21.460074959945068,21.460074959945068 0 0,0 0.2790895025269663,0.24202366639775896 l -0.30440152048608654 0.3449763514999463" fill="#ff0500" stroke="none" /><path d="M 113.89432698308785 84.25364557470407 l 0.14549449747682858 -0.16488800983229202 a21.219901579308765,21.219901579308765 0 0,0 0.27180573186326457,0.2440298697724294 l -0.14831121693608318 0.16235913129056517" fill="#ff0100" stroke="none" /><path d="M 114.16331599549186 84.49514656593476 l 0.2603631778846258 -0.28502456020987676 a21.38604142824445,21.38604142824445 0 0,0 0.26965976985885354,0.25061936750041447 l -0.2652308315383262 0.2805006066348218" fill="#ff0400" stroke="none" /><path d="M 114.42810811169701 84.74124197986012 l 1.2306286227257393 -1.3014779360855129 a22.791170462348365,22.791170462348365 0 0,0 0.28273722872035517,0.2719929900165689 l -1.2528490950585127 1.280101859306642" fill="#ff1802" stroke="none" /><path d="M 114.94478906791727 85.2469230424477 l 0.9457949494896135 -0.9336622693350014 a22.3290046349279,22.3290046349279 0 0,0 0.2676670677404889,0.27585444190608316 l -0.9617262809332114 0.917243631878804" fill="#ff1101" stroke="none" /><path d="M 115.19652480421416 85.50635884689758 l 0.31129136713416156 -0.29689323232967324 a21.430171950103,21.430171950103 0 0,0 0.25229708580273486,0.26913294022877227 l -0.31635577490735933 0.29149087522284617" fill="#ff0400" stroke="none" /><path d="M 115.4437574822437 85.77008943001954 l 0.9426957584914201 -0.8686018511658171 a22.281851968413825,22.281851968413825 0 0,0 0.25746824185655803,0.28430286330519033 l -0.9575076409640138 0.8522462005910778" fill="#ff1101" stroke="none" /><path d="M 115.68641384162765 86.03803664274999 l 0.313759692744915 -0.2792672294199765 a21.4200420576791,21.4200420576791 0 0,0 0.2427687758205865,0.27752667758919447 l -0.3185203321433497 0.27382499562783424" fill="#ff0400" stroke="none" /><path d="M 116.15771136456269 86.58626213691792 l 0.16163721042055895 -0.1341872695075152 a21.210078107118335,21.210078107118335 0 0,0 0.2307873728882708,0.2829180305548806 l -0.16392307538523862 0.13138506934453376" fill="#ff0100" stroke="none" /><path d="M 116.38621287248628 86.86637796730983 l 14.634924651227701 -11.729956783904557 a39.75560997940032,39.75560997940032 0 0,0 0.4233895212090839,0.5376616960564848 l -14.834668253030749 11.476302693895033" fill="#fff717" stroke="none" /><path d="M 116.60985879189232 87.15038557335679 l 1.0976753871960594 -0.8491767249683367 a22.387801270313574,22.387801270313574 0 0,0 0.23317860872851112,0.30683571619743727 l -1.112129936148684 0.8301562328898658" fill="#ff1202" stroke="none" /><path d="M 117.04232023915458 87.72973835380427 l 1.0350118211162014 -0.7451958227391772 a22.275369077592128,22.275369077592128 0 0,0 0.22136135312877614,0.3130999355730393 l -1.0476857940488604 0.7272693868343447" fill="#ff1101" stroke="none" /><path d="M 117.45458315368197 88.32363383020206 l 0.9290900026922383 -0.6215212921796248 a22.117808995193407,22.117808995193407 0 0,0 0.20896417729319647,0.3182667782256934 l -0.9396508153433597 0.6054364499762575" fill="#ff0e01" stroke="none" /><path d="M 117.65298651832404 88.62581576622439 l 0.36698433663536845 -0.23645559642091085 a21.43656471732662,21.43656471732662 0 0,0 0.19718822546071993,0.31190441782408573 l -0.3710001583420441 0.2301035308826189" fill="#ff0500" stroke="none" /><line stroke="#e1ed5e" stroke-width="0.3" x1="172.23445277983987" x2="176.4835382374775" y1="55.19839476539836" y2="52.563006222186495" /><path d="M 173.08426987136738 54.67131705675599 a86.0,86.0 0 0,1 12.851231095245387,41.99856678651699" fill="none" id="id123" stroke="none" /><text fill="#e1ed5e" style="font-size:6.75px; font-family:Arial;" text-anchor="middle"><textPath startOffset="22.20632615414155" xlink:href="#id123">March</textPath></text><path d="M 117.84615892207809 88.93136811851018 l 0.17297274141772553 -0.10728199881243633 a21.203541142137787,21.203541142137787 0 0,0 0.18970525719027456,0.31182556318198457 l -0.17479379689422403 0.10428866242337029" fill="#ff0100" stroke="none" /><path d="M 118.03404312379186 89.2402003453031 l 2.389072142814781 -1.425411785967799 a23.781989299610895,23.781989299610895 0 0,0 0.20672247945210312,0.3533557274599031 l -2.4132542967372115 1.3840766461540006" fill="#ff2603" stroke="none" /><path d="M 118.3937258080291 89.86733742301442 l 0.37897853351436367 -0.20877018849251489 a21.432677386129548,21.432677386129548 0 0,0 0.17522938663152415,0.32467344069658005 l -0.38251601936435264 0.20221576446347614" fill="#ff0400" stroke="none" /><path d="M 118.56541770881063 90.18545643968196 l 1.0182509083254172 -0.5382948044498082 a22.151779583428702,22.151779583428702 0 0,0 0.175305562165818,0.3386345474646185 l -1.0273659036513516 0.5206875347248447" fill="#ff0f01" stroke="none" /><path d="M 118.73160827565052 90.50648371742162 l 1.3730099514134473 -0.6958661604529552 a22.539281013962004,22.539281013962004 0 0,0 0.1724147528629691,0.34757762088091726 l -1.3847847172298244 0.6721289510730881" fill="#ff1402" stroke="none" /><path d="M 118.89224826269711 90.83032412892265 l 0.38375284673458177 -0.1862610087602654 a21.426567006179905,21.426567006179905 0 0,0 0.1581911261147032,0.3331908553644861 l -0.38690216669104116 0.1796277377552389" fill="#ff0400" stroke="none" /><path d="M 119.04729006885535 91.15688171328212 l 1.199223965799451 -0.5567657836624086 a22.322167257953765,22.322167257953765 0 0,0 0.1588038127949967,0.34990315125070004 l -1.2086300955577947 0.5360406235696458" fill="#ff1101" stroke="none" /><path d="M 119.196687751892 91.48605970444005 l 1.2010342443444557 -0.5326717807484174 a22.313857862211034,22.313857862211034 0 0,0 0.15270041304998405,0.35245360668896947 l -1.2100253672371204 0.5119190294728452" fill="#ff1101" stroke="none" /><path d="M 119.34039704204932 91.81776055985345 l 0.26929477650646977 -0.11392911616892064 a21.29240300984207,21.29240300984207 0 0,0 0.1398995166398696,0.33877777627356487 l -0.2712159800325368 0.10927676944205263" fill="#ff0200" stroke="none" /><path d="M 119.47837535516314 92.15188598940014 l 0.40354989545474634 -0.162595983019446 a21.435074673838407,21.435074673838407 0 0,0 0.1349454824118497,0.34342153353076676 l -0.40628892774829645 0.15562544459289485" fill="#ff0400" stroke="none" /><path d="M 119.61058180528143 92.48833698450437 l 0.20285551189343876 -0.07770204175018412 a21.217227912565804,21.217227912565804 0 0,0 0.1277028691839789,0.34218019954102163 l -0.20416296957904295 0.07419870517982924" fill="#ff0100" stroke="none" /><path d="M 119.7369772167798 92.82701384747503 l 0.40084382230862814 -0.14567819353312708 a21.426494907301443,21.426494907301443 0 0,0 0.12299514048188068,0.34772382484601844 l -0.40329204360031834 0.13875674226049411" fill="#ff0400" stroke="none" /><path d="M 119.85752413597 93.16781622104841 l 0.20338736167989938 -0.06997749688220582 a21.215088979171433,21.215088979171433 0 0,0 0.1158371197725949,0.3463382440931598 l -0.20456177522426433 0.06646614986673204" fill="#ff0100" stroke="none" /><path d="M 120.08093135843002 93.85539295169968 l 1.2895127033089802 -0.3945807444981296 a22.34853141451133,22.34853141451133 0 0,0 0.10939510655360149,0.36882591607817306 l -1.296113706974284 0.3723254416734267" fill="#ff1202" stroke="none" /><path d="M 120.18372546131832 94.20196356495316 l 0.4140862902422606 -0.11895164758752096 a21.430832856488898,21.430832856488898 0 0,0 0.0987994351566278,0.3554341353444199 l -0.41607249596525153 0.11180620882414914" fill="#ff0400" stroke="none" /><path d="M 120.28053869075195 94.5502522615342 l 1.0605853696642276 -0.2849984809532311 a22.09821011673152,22.09821011673152 0 0,0 0.09555231131904802,0.3682020337531864 l -1.0653340128535784 0.2667000216511943" fill="#ff0e01" stroke="none" /><path d="M 120.37134235888165 94.90015583598534 l 1.216947576821758 -0.30465557390528886 a22.25450246051728,22.25450246051728 0 0,0 0.08983104072222636,0.3724076584141836 l -1.2220114178048038 0.28366268383169907" fill="#ff1001" stroke="none" /><path d="M 120.45610955862082 95.25157060432595 l 1.3072256988684106 -0.30344327778941654 a22.34198243305104,22.34198243305104 0 0,0 0.08373521061823762,0.3753685303767438 l -1.3122552964886858 0.2808965778627089" fill="#ff1101" stroke="none" /><path d="M 120.53481517161879 95.60439243477599 l 0.4290620141861182 -0.09184344829718186 a21.438781757839322,21.438781757839322 0 0,0 0.07413806790376247,0.3615235486976508 l -0.4305793780048776 0.08444424343611924" fill="#ff0500" stroke="none" /><path d="M 120.6074358757038 95.95851677861258 l 0.21557269338617577 -0.04227762389093308 a21.21967927443351,21.21967927443351 0 0,0 0.06721007646685273,0.3590389159723584 l -0.2162684937628878 0.038560630456011935" fill="#ff0100" stroke="none" /><path d="M 120.67395015179393 96.31383870115 l 2.744077678622266 -0.4892685174196285 a23.787354657816433,23.787354657816433 0 0,0 0.06840352700684699,0.4037214884960584 l -2.7520930671493358 0.44196124060773223" fill="#ff2603" stroke="none" /><path d="M 120.73433829027371 96.67025291283417 l 0.43039531690201954 -0.0691175928896931 a21.43590981918059,21.43590981918059 0 0,0 0.05537008459319952,0.36481967600278215 l -0.4315212949345189 0.06169880449482882" fill="#ff0500" stroke="none" /><path d="M 120.78858239683441 97.02765380044208 l 0.21893079922324213 -0.03130266973550209 a21.221157301441977,21.221157301441977 0 0,0 0.04859038798458773,0.36205482958415164 l -0.21943718626566605 0.027529498086686078" fill="#ff0100" stroke="none" /><path d="M 120.83666639777658 97.38593545837742 l 1.287888644019588 -0.16157210436738717 a22.297984092469672,22.297984092469672 0 0,0 0.044500030573666374,0.3812490862444791 l -1.2904790275968434 0.13937927979805528" fill="#ff1101" stroke="none" /><path d="M 120.87857604477298 97.74499172005257 l 0.21784158594666334 -0.023528164898467173 a21.219108491645684,21.219108491645684 0 0,0 0.03609559741820062,0.36347774005153627 l -0.21821430904709263 0.019774894142495957" fill="#ff0100" stroke="none" /><path d="M 120.91429891909075 98.10471618934814 l 0.9851118275485665 -0.08927224888854364 a21.989148546578164,21.989148546578164 0 0,0 0.030916236247977482,0.3772563901801491 l -0.9865025476160387 0.07230194150062574" fill="#ff0c01" stroke="none" /><path d="M 120.94382443527127 98.46500227214037 l 0.21913357164049965 -0.01606055931215012 a21.219721332112613,21.219721332112613 0 0,0 0.023563398119802997,0.3645153395064825 l -0.21937756076471818 0.012286155552632332" fill="#ff0100" stroke="none" /><path d="M 120.96714384426684 98.82574320788733 l 1.4651445634687705 -0.08205485534218755 a22.467440489814603,22.467440489814603 0 0,0 0.018301754238541548,0.3863211058800363 l -1.4663399259408088 0.05682264283915145" fill="#ff1302" stroke="none" /><path d="M 120.98425023603335 99.18683210126433 l 0.18442869735657652 -0.007146859888206941 a21.184567120622567,21.184567120622567 0 0,0 0.010984001887344476,0.3645055483123697 l -0.18452439369956605 0.003971164150838146" fill="#ff0100" stroke="none" /><line stroke="#e1ed5e" stroke-width="0.3" x1="184.98032266829074" x2="189.97916517819016" y1="98.17113171792111" y2="98.06355123074" /><path d="M 185.9800911702706 98.14961562048488 a86.0,86.0 0 0,1 -9.607161424134198,41.387399972396054" fill="none" id="id124" stroke="none" /><text fill="#e1ed5e" style="font-size:6.75px; font-family:Arial;" text-anchor="middle"><textPath startOffset="21.466115282336823" xlink:href="#id124">April</textPath></text><path d="M 120.99513854157772 99.54816195383933 l 0.44972677599833344 -0.009678605710117551 a21.449830910963605,21.449830910963605 0 0,0 0.004766962294651052,0.3692064830974885 l -0.44982674541070006 0.0019358645521663307" fill="#ff0500" stroke="none" /><path d="M 120.99980553446 99.90962569577887 l 1.262457695787748 -0.005433085353014566 a22.26246938658732,22.26246938658732 0 0,0 -0.0016492278079557182,0.3832224607158069 l -1.2623641706902893 -0.01629885356647707" fill="#ff1001" stroke="none" /><path d="M 120.99824983174949 100.27111621757518 l 0.4044650296614522 0.005222198509965618 a21.404498741130695,21.404498741130695 0 0,0 -0.007927754736540542,0.3683716110929666 l -0.4043152122399042 -0.012183625393047098" fill="#ff0400" stroke="none" /><path d="M 120.9904718944345 100.63252640178507 l 0.928512491301935 0.027979774256119787 a21.928933966582743,21.928933966582743 0 0,0 -0.014617062113283954,0.3772014236884328 l -0.9278932963374479 -0.043958444958558725" fill="#ff0c01" stroke="none" /><path d="M 120.9764740272857 100.99374915477107 l 1.5883953636145551 0.07524937451265686 a22.590176813916226,22.590176813916226 0 0,0 -0.021744281309770186,0.3882587497679095 l -1.5868647314172557 -0.10257984061598964" fill="#ff1502" stroke="none" /><path d="M 120.95626037817324 101.35467743843564 l 1.8804634262554327 0.12155896764886817 a22.884388303959717,22.884388303959717 0 0,0 -0.02879449008819984,0.39287793992459963 l -1.8780923775028953 -0.15391004407023806" fill="#ff1902" stroke="none" /><path d="M 120.92983693683757 101.71520430193887 l 0.3949374958500933 0.032365206376108416 a21.396261444266422,21.396261444266422 0 0,0 -0.03324103179906853,0.36681201597221685 l -0.39432186777394945 -0.03915861089689581" fill="#ff0400" stroke="none" /><path d="M 120.89721153311464 102.0752229133903 l 1.2873380631906954 0.12784066629078347 a22.293670176241704,22.293670176241704 0 0,0 -0.04120899844458772,0.38154414571564754 l -1.284946763245056 -0.14998113389122245" fill="#ff1101" stroke="none" /><path d="M 120.8583938346157 102.4346265915055 l 0.5893725609712298 0.06879255040543704 a21.59337376974136,21.59337376974136 0 0,0 -0.04626996332890756,0.36881713315440434 l -0.5881010883954741 -0.07892743784723631" fill="#ff0701" stroke="none" /><path d="M 120.81339534386255 102.79330883721812 l 1.2410802788370099 0.16656198824353793 a22.252207312886245,22.252207312886245 0 0,0 -0.05421691924472134,0.37919300692128527 l -1.2380293085756873 -0.18790046714523254" fill="#ff1001" stroke="none" /><path d="M 120.76222939487914 103.15116336523771 l 0.9283719910757842 0.14090258574603445 a21.93900377660792,21.93900377660792 0 0,0 -0.059881200358868264,0.3728802917957421 l -0.9258090363556275 -0.1568621072349815" fill="#ff0c01" stroke="none" /><path d="M 120.5718875245553 104.21870165774334 l 0.4300955908014868 0.08820021885383876 a21.439046120393684,21.439046120393684 0 0,0 -0.07724790635859939,0.36087650135516963 l -0.4285136457184443 -0.09559053962517743" fill="#ff0500" stroke="none" /><path d="M 120.49622156327973 104.57218783832717 l 0.4339613997331744 0.09680579554810184 a21.444627775234608,21.444627775234608 0 0,0 -0.08347008277036308,0.35958693195969615 l -0.43223075103225844 -0.10426138485636294" fill="#ff0500" stroke="none" /><path d="M 120.41448212921028 104.9243191809786 l 0.4255256052653966 0.10264399002351676 a21.437730315861753,21.437730315861753 0 0,0 -0.0896185794726873,0.3579816765847232 l -0.4236957114976485 -0.10995350600563587" fill="#ff0500" stroke="none" /><path d="M 120.32669344350535 105.2749913415812 l 1.2936400405280555 0.33571323500668004 a22.336490901808194,22.336490901808194 0 0,0 -0.0997823418701437,0.37132721404110075 l -1.2876696223161346 -0.357931382223329" fill="#ff1101" stroke="none" /><path d="M 120.23288151984713 105.62410040840565 l 0.42045516234580294 0.11687322183672653 a21.436396486610207,21.436396486610207 0 0,0 -0.10188143847584037,0.3546626529234552 l -0.41838108698386317 -0.12409335026476372" fill="#ff0500" stroke="none" /><path d="M 120.13307415673323 105.97154293290107 l 0.868938688112703 0.2577303715135022 a21.906355001144426,21.906355001144426 0 0,0 -0.1103383748141651,0.3605921930283323 l -0.8643735407924051 -0.2726495370938916" fill="#ff0b01" stroke="none" /><path d="M 120.02730092923936 106.31721596034902 l 1.4436938180726235 0.4553846602499709 a22.513812085145343,22.513812085145343 0 0,0 -0.1197603461464191,0.3685844457412465 l -1.4356412209099576 -0.4801680059690126" fill="#ff1402" stroke="none" /><path d="M 119.9155931802556 106.66101706037122 l 0.39905829949050264 0.13346999594389444 a21.42078707942321,21.42078707942321 0 0,0 -0.11996576042633057,0.3486766545266131 l -0.39670170812094124 -0.14031935355980796" fill="#ff0400" stroke="none" /><path d="M 119.79798401119884 107.00284435728193 l 0.45642079298877924 0.1614428909993887 a21.484131952391852,21.484131952391852 0 0,0 -0.12632233664203832,0.34758481715410006 l -0.45357419534151416 -0.16927550515961987" fill="#ff0500" stroke="none" /><path d="M 119.67450827220406 107.3425965602758 l 1.0085099352176965 0.37637949975071255 a22.07645428015564,22.07645428015564 0 0,0 -0.13593389641507317,0.35488050918410075 l -1.0018817592091165 -0.39368357576795715" fill="#ff0e01" stroke="none" /><path d="M 119.54520255179757 107.68017299344265 l 0.20483542271467775 0.08048888096526749 a21.22008182650492,21.22008182650492 0 0,0 -0.13651321809547767,0.338814611945444 l -0.20341959036180762 -0.084002860753525" fill="#ff0100" stroke="none" /><path d="M 119.41010516605496 108.01547362559984 l 0.5134525931114423 0.2120321184698189 a21.555509842069124,21.555509842069124 0 0,0 -0.14457487672166497,0.34173230184183545 l -0.5097267351974684 -0.22083894597781784" fill="#ff0601" stroke="none" /><path d="M 119.26925614724726 108.34839909993367 l 1.6167055862841218 0.7004371812930732 a22.76191634241245,22.76191634241245 0 0,0 -0.15885532231340388,0.35817681523640343 l -1.604409179239445 -0.7281623330221643" fill="#ff1702" stroke="none" /><path d="M 119.12269723197855 108.67885076344098 l 0.39374635911851563 0.1787020862163317 a21.432401007095446,21.432401007095446 0 0,0 -0.15535978358797564,0.33463115239331326 l -0.39061195869070864 -0.18545330588847556" fill="#ff0400" stroke="none" /><path d="M 118.97047184881838 109.00673069616215 l 0.377732315266225 0.17933835625984282 a21.418143453879605,21.418143453879605 0 0,0 -0.16098972350256052,0.33168651399627086 l -0.3745893351489502 -0.18581382622138912" fill="#ff0400" stroke="none" /><path d="M 118.81262510543309 109.33194174019688 l 1.6048377029386711 0.7960745436834288 a22.791434824902723,22.791434824902723 0 0,0 -0.177362218884055,0.34995248421630587 l -1.590896814268347 -0.8235812396024289" fill="#ff1802" stroke="none" /><path d="M 118.64920377521936 109.65438752849418 l 0.19159293006425354 0.09918452373917667 a21.215743877317465,21.215743877317465 0 0,0 -0.17068317686742226,0.32286824699852096 l -0.1898572449719382 -0.10246778582383195" fill="#ff0100" stroke="none" /><line stroke="#e1ed5e" stroke-width="0.3" x1="174.80103733775053" x2="179.2010983576182" y1="140.37084112569926" y2="142.7455964860345" /><path d="M 175.68104954172406 140.8457921977663 a86.0,86.0 0 0,1 -30.038265399797805,32.042727171017184" fill="none" id="id125" stroke="none" /><text fill="#e1ed5e" style="font-size:6.75px; font-family:Arial;" text-anchor="middle"><textPath startOffset="22.206326154141568" xlink:href="#id125">May</textPath></text><path d="M 118.48025628344425 109.97397251340804 l 1.4268585150135613 0.7700892991412079 a22.62140764476997,22.62140764476997 0 0,0 -0.187890816412469,0.3410764083654974 l -1.4133912891495828 -0.7945362259045103" fill="#ff1502" stroke="none" /><path d="M 118.30583269289576 110.29060199501025 l 1.0892525618862987 0.6123220273266917 a22.24956368734264,22.24956368734264 0 0,0 -0.19054950550709882,0.3322391243172447 l -1.0785510602268205 -0.6309809975022516" fill="#ff1001" stroke="none" /><path d="M 117.94076556474637 110.91462005526583 l 0.8247711580765089 0.5017658689345874 a21.965409990844588,21.965409990844588 0 0,0 -0.19929463368792863,0.3213264062977777 l -0.8160118847206174 -0.5158886065976386" fill="#ff0c01" stroke="none" /><path d="M 117.55443506779139 111.5257021239791 l 1.044506967320452 0.6857911476652806 a22.24952162966354,22.24952162966354 0 0,0 -0.21295641684092212,0.318340948871112 l -1.0325474450688088 -0.7036690107421995" fill="#ff1001" stroke="none" /><path d="M 117.35343817320211 111.8261652097733 l 0.34872208656763315 0.2376500245590649 a21.422000743877316,21.422000743877316 0 0,0 -0.21028151429118636,0.30292620487288263 l -0.3445796651143106 -0.2436174916189671" fill="#ff0400" stroke="none" /><path d="M 117.14729908036423 112.12312394758627 l 1.136837670718838 0.8037431391274822 a22.392265392538338,22.392265392538338 0 0,0 -0.22522375930440722,0.31281610304716106 l -1.1228341190388278 -0.8231928476257745" fill="#ff1202" stroke="none" /><path d="M 116.93607887273984 112.41649034213515 l 0.17411424872229467 0.1276498476378876 a21.21589408331426,21.21589408331426 0 0,0 -0.21846181250033175,0.2926652983633652 l -0.17189116952687086 -0.1306280255105678" fill="#ff0100" stroke="none" /><path d="M 116.71984013943494 112.70617746262583 l 0.6705731262148065 0.5095994382899092 a21.84223506523232,21.84223506523232 0 0,0 -0.23006445205475465,0.29738931728100354 l -0.6617018569419834 -0.5210667496841653" fill="#ff0a01" stroke="none" /><path d="M 116.498646956653 112.99209946851258 l 1.0145544429618867 0.7989256497101385 a22.29135700389105,22.29135700389105 0 0,0 -0.2399845968843021,0.29941768393181867 l -1.0006519340227307 -0.8162711672202074" fill="#ff1101" stroke="none" /><path d="M 116.27256486870786 113.27417163493432 l 0.344674638053631 0.28116466830198406 a21.444808022430763,21.444808022430763 0 0,0 -0.23579485494734737,0.28403009260930584 l -0.3397837832127403 -0.28705601802506037" fill="#ff0500" stroke="none" /><path d="M 116.0416608686014 113.55231037782055 l 0.3338907034017754 0.28207742838065614 a21.43709344243534,21.43709344243534 0 0,0 -0.24056245917814417,0.2798284876183696 l -0.32898573465285247 -0.2877830151605537" fill="#ff0500" stroke="none" /><path d="M 115.80600337817218 113.82643327865902 l 0.1476906226618575 0.1291936039275934 a21.196223105973907,21.196223105973907 0 0,0 -0.24258688782858287,0.272548940121354 l -0.14544488518493634 -0.13171671378981387" fill="#ff0100" stroke="none" /><path d="M 115.56566222782051 114.09645910891815 l 1.2976432421441821 1.1751620093718746 a22.75068093385214,22.75068093385214 0 0,0 -0.265374334061444,0.28801142755618037 l -1.277222500087016 -1.1973246917293898" fill="#ff1702" stroke="none" /><path d="M 115.32070863581623 114.36230785411682 l 1.1230072416682437 1.0527565082424524 a22.53929903868162,22.53929903868162 0 0,0 -0.2677813069838794,0.28076762979704045 l -1.1047193833053999 -1.071931254622" fill="#ff1402" stroke="none" /><path d="M 115.07121518719521 114.62390073753431 l 0.9372638323227033 0.909445793091289 a22.305969043259328,22.305969043259328 0 0,0 -0.2697528550360339,0.27325821796911814 l -0.9214703522311338 -0.9254445050410718" fill="#ff1101" stroke="none" /><path d="M 114.81725581225074 114.88116024355365 l 0.12756524509225106 0.12811541339230142 a21.180793945983062,21.180793945983062 0 0,0 -0.2605742440315816,0.25502674139333464 l -0.12534104868487525 -0.13029225770820804" fill="#ff0100" stroke="none" /><path d="M 114.55890576462653 115.13401014063108 l 0.769970007920992 0.80038528281229 a22.110617132066835,22.110617132066835 0 0,0 -0.2765555619094595,0.26150054551322055 l -0.7560786116207249 -0.813520465071432" fill="#ff0e01" stroke="none" /><path d="M 114.29624159901734 115.38237550388516 l 0.8357362292508632 0.899229941764657 a22.22762760357061,22.22762760357061 0 0,0 -0.2825030391274175,0.25805982816048817 l -0.8201336406565818 -0.9134825365117281" fill="#ff1001" stroke="none" /><path d="M 114.0293411484842 115.62618273729858 l 0.2876432379785645 0.32038324196620926 a21.43056248569467,21.43056248569467 0 0,0 -0.27661513539336885,0.24408069549433806 l -0.28208574967860794 -0.3252870792328362" fill="#ff0400" stroke="none" /><path d="M 113.75828350139079 115.86535959552629 l 0.9261648809533745 1.0680066942644195 a22.413654726482033,22.413654726482033 0 0,0 -0.2936557243493927,0.25025977901543833 l -0.9076436800269345 -1.0837908635028046" fill="#ff1302" stroke="none" /><path d="M 113.48314897796784 116.09983520530334 l 0.23333964161687917 0.27862406497436065 a21.363426413366902,21.363426413366902 0 0,0 -0.28396049850514543,0.23368015833742192 l -0.22850901456704265 -0.28259934216896093" fill="#ff0300" stroke="none" /><path d="M 113.20401910651253 116.32954008644616 l 0.6104629959652625 0.7549655815773577 a21.970895513847562,21.970895513847562 0 0,0 -0.2961284454040246,0.2352623466667256 l -0.5973770578438868 -0.7653618422492093" fill="#ff0c01" stroke="none" /><path d="M 112.92097659922987 116.55440617244103 l 0.3972446161660119 0.5089513687548627 a21.645627431906615,21.645627431906615 0 0,0 -0.2956908887593887,0.22672316459436584 l -0.38842499891312954 -0.5157138751766" fill="#ff0801" stroke="none" /><path d="M 112.63410532772338 116.77436683061366 l 0.8394602457037761 1.1145556995043389 a22.395323586633097,22.395323586633097 0 0,0 -0.3099246488864382,0.22927484599427186 l -0.8201506263987737 -1.1288404942383796" fill="#ff1202" stroke="none" /><path d="M 112.34349029814194 116.9893568818739 l 0.25734086591190913 0.3541993152395482 a21.43781443121996,21.43781443121996 0 0,0 -0.30040775894070676,0.21433295968349692 l -0.25120577912231784 -0.35857653676726436" fill="#ff0500" stroke="none" /><path d="M 112.04921762599082 117.19931262002967 l 0.9396438541710609 1.3412678649373049 a22.637659933623254,22.637659933623254 0 0,0 -0.32107005521324206,0.22083491164873786 l -0.9164169143349356 -1.3572435659511368" fill="#ff1602" stroke="none" /><path d="M 111.7513745106137 117.40417183066458 l 0.24373208754804215 0.3609752313230613 a21.43555533302815,21.43555533302815 0 0,0 -0.3075750080190893,0.2038439437624888 l -0.23748238078898867 -0.3651171961768685" fill="#ff0500" stroke="none" /><path d="M 111.45004920935366 117.60387380957326 l 0.23986398578303875 0.3687787938707245 a21.43992332341497,21.43992332341497 0 0,0 -0.3111016571125236,0.19855979683467156 l -0.23348052662358468 -0.3728530195292049" fill="#ff0500" stroke="none" /><path d="M 111.1453310114006 117.79835938074945 l 0.9770531854770009 1.560289569815152 a22.84096074616617,22.84096074616617 0 0,0 -0.33502338111184926,0.20579872389975873 l -0.950050604432843 -1.5768767605432887" fill="#ff1902" stroke="none" /><line stroke="#e1ed5e" stroke-width="0.3" x1="143.8653032363475" x2="146.44561519142675" y1="172.8068346515853" y2="177.08958963109032" /><path d="M 144.38136562736335 173.6633856474863 a86.0,86.0 0 0,1 -40.68145358897372,12.25698825130547" fill="none" id="id126" stroke="none" /><text fill="#e1ed5e" style="font-size:6.75px; font-family:Arial;" text-anchor="middle"><textPath startOffset="21.466115282336833" xlink:href="#id126">June</textPath></text><path d="M 110.8373102113329 117.98757091392108 l 0.2294029621468518 0.3807588754970715 a21.444525635156786,21.444525635156786 0 0,0 -0.3178202556293468,0.187773809060758 l -0.2228148354891229 -0.384651256851579" fill="#ff0500" stroke="none" /><path d="M 110.5260780823613 118.17145234162733 l 0.7803247424366184 1.3470956378274124 a22.55678301670863,22.55678301670863 0 0,0 -0.33765488359968154,0.1917292551590467 l -0.7570210919157379 -1.3603280587810875" fill="#ff1502" stroke="none" /><path d="M 110.21172684928248 118.3499491758327 l 0.18626935376402085 0.3347164710761085 a21.383055333028153,21.383055333028153 0 0,0 -0.32316637977397955,0.1762160771104103 l -0.1804801621213926 -0.3378731999462893" fill="#ff0400" stroke="none" /><path d="M 109.89434966115114 118.52300852407294 l 0.057723644981842175 0.10806324868802201 a21.12251401922637,21.12251401922637 0 0,0 -0.32217778104142103,0.16854818797857754 l -0.05585496141392552 -0.10904085561131634" fill="#ff0000" stroke="none" /><path d="M 109.57404056367764 118.69057910512821 l 0.09890965630402791 0.19309284759300746 a21.216951533531702,21.216951533531702 0 0,0 -0.32648452280690626,0.16370611744289693 l -0.09557122581436114 -0.19476680594520648" fill="#ff0100" stroke="none" /><path d="M 109.2508944713604 118.85261126421891 l 0.5606965233436915 1.1426563803665564 a22.27280956740673,22.27280956740673 0 0,0 -0.34563935647909855,0.16592789557906984 l -0.5409444988643601 -1.1521385524451861" fill="#ff1001" stroke="none" /><path d="M 108.92500713936063 119.00905698771935 l 0.237424800817621 0.5056826844581541 a21.558646143282214,21.558646143282214 0 0,0 -0.33727167742826186,0.15482488497616187 l -0.2286851276219397 -0.5096946397683904" fill="#ff0601" stroke="none" /><path d="M 108.59647513512805 119.15986991738527 l 0.24668873199054261 0.5498211698082359 a21.60262645914397,21.60262645914397 0 0,0 -0.3405801425578068,0.14930032576956648 l -0.23718791477498202 -0.5539860488722569" fill="#ff0701" stroke="none" /><path d="M 108.2653958097858 119.30500536409082 l 0.08554845468494238 0.19981056135595907 a21.217354085603112,21.217354085603112 0 0,0 -0.33698062578556126,0.14085792890830257 l -0.08209636940191999 -0.20125353328423481" fill="#ff0100" stroke="none" /><path d="M 107.59598834532513 119.57807347666477 l 0.16100183239491864 0.4149697921068184 a21.445108434424352,21.445108434424352 0 0,0 -0.345296656223994,0.13056164952353347 l -0.1538349554106498 -0.41767969173698277" fill="#ff0500" stroke="none" /><path d="M 107.2578585660854 119.70592522655815 l 0.5628079762532595 1.528088732505998 a22.628437285420006,22.628437285420006 0 0,0 -0.3666673610354862,0.13147387026748308 l -0.5364210545880385 -1.5375501438134414" fill="#ff1602" stroke="none" /><path d="M 106.91757812671514 119.82793768551818 l 0.05286152271298744 0.15151762063472834 a21.160474078736552,21.160474078736552 0 0,0 -0.3449462258356557,0.11702448834876927 l -0.05024556394010475 -0.15240509588162066" fill="#ff0100" stroke="none" /><path d="M 106.57524785965236 119.94407469862006 l 0.7871259462842938 2.387514357633043 a23.513919661249712,23.513919661249712 0 0,0 -0.38549241107689247,0.12342249657771012 l -0.7459121901164609 -2.40070970087046" fill="#ff2203" stroke="none" /><path d="M 106.2309692047433 120.05430185196036 l 0.17511319610995843 0.5635997832210935 a21.59017738612955,21.59017738612955 0 0,0 -0.35585241426731984,0.10721541331687764 l -0.16538580740239273 -0.5665305656436966" fill="#ff0701" stroke="none" /><path d="M 105.88484417918355 120.15858648285463 l 0.1262635141580836 0.4325167994742039 a21.450569924467842,21.450569924467842 0 0,0 -0.35533260491024304,0.10042054346909077 l -0.11879974114323481 -0.4346261362818137" fill="#ff0500" stroke="none" /><path d="M 105.53697534728816 120.25689768951611 l 0.4716900379323333 1.7256672172540892 a22.788971446555276,22.788971446555276 0 0,0 -0.3792839675746173,0.1001723430947938 l -0.44191562754621855 -1.7335309096524671" fill="#ff1802" stroke="none" /><path d="M 105.18746579009965 120.34920634021253 l 0.10774618161016981 0.4226628898719422 a21.436180189974824,21.436180189974824 0 0,0 -0.35833812587349095,0.08807079301641649 l -0.10045477099346772 -0.42445494120238864" fill="#ff0500" stroke="none" /><path d="M 104.83641907484287 120.43548508189849 l 0.22149808610875504 0.9359033541756501 a21.961756981002516,21.961756981002516 0 0,0 -0.36862270570162076,0.08389732768519591 l -0.20535523101427225 -0.9395774154385304" fill="#ff0c01" stroke="none" /><path d="M 104.48393922423573 120.51570834832081 l 0.09373141781309668 0.4288564886282233 a21.438980029755093,21.438980029755093 0 0,0 -0.36120448537011424,0.0756939118347362 l -0.0863354710136044 -0.4304063811895007" fill="#ff0500" stroke="none" /><path d="M 104.13013068566511 120.58985236759428 l 0.24253528359829538 1.2091059734632408 a22.23319123369192,22.23319123369192 0 0,0 -0.3758810913991006,0.07203850577117507 l -0.2216865776274904 -1.213101677582884" fill="#ff1001" stroke="none" /><path d="M 103.41894727170886 120.7198165907248 l 0.03530068927140937 0.21393246198388663 a21.216825360494393,21.216825360494393 0 0,0 -0.36085186223094723,0.0563576395871062 l -0.03161296343194499 -0.2145084089180986" fill="#ff0100" stroke="none" /><path d="M 103.06178313531738 120.77559828337769 l 0.14244842669471428 0.966577696170434 a21.977017910276953,21.977017910276953 0 0,0 -0.37473056022119655,0.05193424109401663 l -0.12578927528668726 -0.9688865027570532" fill="#ff0c01" stroke="none" /><path d="M 102.70371172650421 120.8252237178851 l 0.05591373627122272 0.43067315769517456 a21.4342875944152,21.4342875944152 0 0,0 -0.366294191622172,0.04435312545543249 l -0.04849212159767037 -0.43157181187595794" fill="#ff0400" stroke="none" /><path d="M 102.34483914955558 120.86867818915974 l 0.08830917022586708 0.7859369180801279 a21.790882639047837,21.790882639047837 0 0,0 -0.37310909943783255,0.038674283707798233 l -0.07476747418243189 -0.7873405702436844" fill="#ff0a01" stroke="none" /><path d="M 101.98527174616119 120.90594882070398 l 0.04130435343016013 0.4349564237505074 a21.436913195239185,21.436913195239185 0 0,0 -0.36764886177841505,0.031722290779973544 l -0.03381117391020338 -0.43560296680914434" fill="#ff0500" stroke="none" /><path d="M 101.62511606390274 120.93702456842531 l 0.11604106103583797 1.495003710700442 a22.499500457770658,22.499500457770658 0 0,0 -0.3863884632830287,0.0266476106638741 l -0.0902898369738789 -1.496779665880601" fill="#ff1402" stroke="none" /><path d="M 101.26447882468166 120.96189622390904 l 0.06238896265564258 1.0342529547967376 a22.03613298237583,22.03613298237583 0 0,0 -0.3788241396507109,0.019580880936426154 l -0.0445767545914521 -1.0351736424953657" fill="#ff0d01" stroke="none" /><line stroke="#e1ed5e" stroke-width="0.3" x1="102.19456741930631" x2="102.32365962044197" y1="184.97166512339345" y2="189.96999836594603" /><path d="M 102.22038585953345 185.97133177190398 a86.0,86.0 0 0,1 -42.740103519485714,-10.115201625700543" fill="none" id="id127" stroke="none" /><text fill="#e1ed5e" style="font-size:6.75px; font-family:Arial;" text-anchor="middle"><textPath startOffset="22.20632615414155" xlink:href="#id127">July</textPath></text><path d="M 100.54218724476979 120.99299961872073 l 0.017531579263603738 0.6788068888501252 a21.679033245593956,21.679033245593956 0 0,0 -0.3731274523387924,0.006423727473169594 l -0.0058444370321433705 -0.6790080936024544" fill="#ff0801" stroke="none" /><path d="M 99.81925306533755 120.99922214144158 l -0.007894853591815063 0.917225980392385 a21.91725995651179,21.91725995651179 0 0,0 -0.37722767787545863,-0.006494316574188513 l 0.023682221359941667 -0.9169541865390369" fill="#ff0b01" stroke="none" /><path d="M 99.45781275523022 120.99299961872073 l -0.021940340903452798 0.8495101510850953 a21.849793430991074,21.849793430991074 0 0,0 -0.37589931841572144,-0.012946732571906372 l 0.03656001099381726 -0.8490066200870952" fill="#ff0a01" stroke="none" /><path d="M 99.09653310690486 120.98055641714683 l -0.05353904691160372 1.2432984571255217 a22.24445067521172,22.24445067521172 0 0,0 -0.38240533834947876,-0.019765988003243775 l 0.0749324536745714 -1.242192662360076" fill="#ff1001" stroke="none" /><path d="M 98.73552117531835 120.96189622390904 l -0.05470086483482776 0.9068035222451564 a21.908451876859694,21.908451876859694 0 0,0 -0.37623826668944516,-0.025947593679180956 l 0.07030189230320295 -0.9057275840496903" fill="#ff0b01" stroke="none" /><path d="M 98.37488393609728 120.93702456842531 l -0.024339079479605015 0.31357016052968595 a21.31451333257038,21.31451333257038 0 0,0 -0.36554967101423297,-0.031541163767905826 l 0.029733068235379644 -0.3131047444831167" fill="#ff0300" stroke="none" /><path d="M 98.01472825383883 120.90594882070398 l -0.02451258511024613 0.2581303293964027 a21.259291599908448,21.259291599908448 0 0,0 -0.3640070608849334,-0.0377308201957966 l 0.028952242600772886 -0.25767014074484534" fill="#ff0200" stroke="none" /><path d="M 97.65516085044442 120.86867818915974 l -0.025279206910735957 0.22498073439166047 a21.22639648661021,21.22639648661021 0 0,0 -0.3627415050706067,-0.04392294459008404 l 0.029148135032732024 -0.22451226107622782" fill="#ff0100" stroke="none" /><path d="M 97.2962882734958 120.8252237178851 l -0.18344117825779843 1.4129478149767403 a22.424806019684137,22.424806019684137 0 0,0 -0.3823658039919205,-0.05299241630813688 l 0.20773557343655 -1.4095808331759985" fill="#ff1302" stroke="none" /><path d="M 96.93821686468263 120.77559828337769 l -0.031047069661798612 0.21066856098634582 a21.212944037537195,21.212944037537195 0 0,0 -0.3607858494041823,-0.05634732974118786 l 0.03466878267449803 -0.21010292389805219" fill="#ff0100" stroke="none" /><path d="M 96.58105272829116 120.7198165907248 l -0.28940441773303616 1.7538750906143434 a22.777591840238042,22.777591840238042 0 0,0 -0.3862982267281248,-0.06716289831504144 l 0.31955161593321096 -1.7486336137782956" fill="#ff1802" stroke="none" /><path d="M 96.22490169976321 120.6578951692458 l -0.2203494376367329 1.2057846501682803 a22.2257530327306,22.2257530327306 0 0,0 -0.37575533891193946,-0.07201440500771529 l 0.2410723911203674 -1.2018130468120969" fill="#ff1001" stroke="none" /><path d="M 95.51606077576429 120.51570834832081 l -0.13765226448308188 0.6298108806553201 a21.644678130006866,21.644678130006866 0 0,0 -0.36330061493830446,-0.08268603715470275 l 0.14847302881424898 -0.6273481099229307" fill="#ff0801" stroke="none" /><path d="M 95.16358092515715 120.4354850818985 l -0.07835519184368564 0.33107684202551485 a21.340222590981917,21.340222590981917 0 0,0 -0.3567340496863302,-0.08767655011659196 l 0.0840425262732264 -0.3296790335948929" fill="#ff0300" stroke="none" /><path d="M 94.81253420990036 120.34920634021253 l -0.26308667912698613 1.0320270697753353 a22.065032616159304,22.065032616159304 0 0,0 -0.36723522757256594,-0.09699016135095845 l 0.28081234951104134 -1.0273455591207952" fill="#ff0e01" stroke="none" /><path d="M 94.46302465271185 120.25689768951611 l -0.29601241773524295 1.082954661126662 a22.122681677729457,22.122681677729457 0 0,0 -0.3664662587440574,-0.10356702525358892 l 0.31460984458391433 -1.0776988425345517" fill="#ff0e01" stroke="none" /><path d="M 94.11515582081647 120.15858648285463 l -0.3799455559518527 1.3015069074427623 a22.355831425955596,22.355831425955596 0 0,0 -0.36847203446278265,-0.11101760136144762 l 0.4022925648548812 -1.2947739369755893" fill="#ff1202" stroke="none" /><path d="M 93.76903079525671 120.05430185196036 l -0.26795556427596473 0.8624118644033566 a21.903080510414284,21.903080510414284 0 0,0 -0.3590839569757271,-0.11496734352601085 l 0.2827608663426322 -0.8576716742176392" fill="#ff0b01" stroke="none" /><path d="M 93.42475214034765 119.94407469862007 l -0.12605317523571383 0.3823451216684999 a21.402588120851455,21.402588120851455 0 0,0 -0.34889303367836366,-0.11836345985740007 l 0.1326159418513033 -0.38011867491297674" fill="#ff0400" stroke="none" /><path d="M 93.08242187328487 119.8279376855182 l -0.23077659713589038 0.661477746035843 a21.70057879377432,21.70057879377432 0 0,0 -0.3516324993587982,-0.12608290378497863 l 0.24212865712441523 -0.6574073012109065" fill="#ff0801" stroke="none" /><path d="M 92.7421414339146 119.70592522655815 l -0.29932021715735296 0.8126889997088077 a21.8660577363241,21.8660577363241 0 0,0 -0.35207453691553214,-0.13312446404087747 l 0.31326497483316806 -0.8074162855612971" fill="#ff0b01" stroke="none" /><path d="M 92.06813273071674 119.44442032107085 l -0.4086141636831474 1.0016891707916733 a22.081825646601054,22.081825646601054 0 0,0 -0.3507104323591598,-0.14659698916958755 l 0.4257960555397695 -0.9945071386021127" fill="#ff0e01" stroke="none" /><line stroke="#e1ed5e" stroke-width="0.3" x1="58.666819895761336" x2="56.23545636021788" y1="174.27360380694188" y2="178.64263932499728" /><path d="M 58.180547188652646 175.14741091055294 a86.0,86.0 0 0,1 -31.652253787137756,-30.449443065178592" fill="none" id="id128" stroke="none" /><text fill="#e1ed5e" style="font-size:6.75px; font-family:Arial;" text-anchor="middle"><textPath startOffset="22.20632615414155" xlink:href="#id128">August</textPath></text><line stroke="#e1ed5e" stroke-width="0.3" x1="26.63291911575756" x2="22.317208475507996" y1="142.92168965132927" y2="145.44649492493687" /><path d="M 25.769776987707644 143.4266507060508 a86.0,86.0 0 0,1 -11.730757126820373,-40.83630448921669" fill="none" id="id129" stroke="none" /><text fill="#e1ed5e" style="font-size:6.75px; font-family:Arial;" text-anchor="middle"><textPath startOffset="21.46611528233685" xlink:href="#id129">September</textPath></text><line stroke="#e1ed5e" stroke-width="0.3" x1="15.007084014347285" x2="10.007500721073583" y1="101.09737516637583" y2="101.16192664675087" /><path d="M 14.007167355692545 101.11028546245083 a86.0,86.0 0 0,1 10.666146001902534,-42.60595125391555" fill="none" id="id130" stroke="none" /><text fill="#e1ed5e" style="font-size:6.75px; font-family:Arial;" text-anchor="middle"><textPath startOffset="22.20632615414155" xlink:href="#id130">October</textPath></text><line stroke="#e1ed5e" stroke-width="0.3" x1="26.266209847984243" x2="21.928928074336255" y1="57.711370442889674" y2="55.22380399835377" /><path d="M 25.398753493254645 57.213857153982495 a86.0,86.0 0 0,1 29.58750427330803,-30.492523968695096" fill="none" id="id131" stroke="none" /><text fill="#e1ed5e" style="font-size:6.75px; font-family:Arial;" text-anchor="middle"><textPath startOffset="21.46611528233685" xlink:href="#id131">November</textPath></text><line stroke="#e1ed5e" stroke-width="0.3" x1="56.762969772571076" x2="54.21961505331055" y1="26.818313649435495" y2="22.513508569990535" /><path d="M 56.25429882871897 25.957352633546506 a86.0,86.0 0 0,1 42.265352541879196,-11.944610805530505" fill="none" id="id132" stroke="none" /><text fill="#e1ed5e" style="font-size:6.75px; font-family:Arial;" text-anchor="middle"><textPath startOffset="22.20632615414155" xlink:href="#id132">December</textPath></text></svg>