<?xml version="1.0" encoding="utf-8" ?>
<svg baseProfile="full" height="200mm" version="1.1" viewBox="0,0,200,200" width="200mm" xmlns="http://www.w3.org/2000/svg" xmlns:ev="http://www.w3.org/2001/xml-events" xmlns:xlink="http://www.w3.org/1999/xlink"><defs /><rect fill="#1a1a1a" height="200" width="200" x="0" y="0" /><text alignment-baseline="middle" fill="#e1ed5e" style="dominant-baseline: central; font-size:9.0px; font-family:Arial;" text-anchor="middle" x="100.0" y="100.0">2020</text><line stroke="#e1ed5e" stroke-width="0.3" x1="100.0" x2="100.0" y1="15.0" y2="10.0" /><path d="M 100.0 14.0 a86.0,86.0 0 0,1 42.35913384403234,11.155469271406648" fill="none" id="id61" stroke="none" /><text fill="#e1ed5e" style="font-size:6.75px; font-family:Arial;" text-anchor="middle"><textPath startOffset="22.145653131862478" xlink:href="#id61">January</textPath></text><path d="M 100.0 79.0 l 0.0 -1.2199255393670931 a22.219925539367093,22.219925539367093 0 0,0 0.38143456893381955,0.0032741570223569377 l -0.02094164408496477 1.2197457805391712" fill="#ff0000" stroke="none" /><path d="M 101.08105385017728 79.02784411241856 l 0.3788750104078908 -7.350073984640383 a28.359832460946304,28.359832460946304 0 0,0 0.4859736135070789,0.029234965809647264 l -0.5049929760474321 7.342487041006044" fill="#ff5808" stroke="none" /><path d="M 101.80034050326958 79.07731436759882 l 0.6418978590598255 -7.459826121130744 a28.487391977115273,28.487391977115273 0 0,0 0.4868636866004262,0.04610649731132677 l -0.7698611090452647 7.447707868314234" fill="#ff5908" stroke="none" /><path d="M 102.51750503828377 79.15144685158666 l 0.5963294564819325 -4.938463350962563 a25.974337050247843,25.974337050247843 0 0,0 0.4422095979593961,0.057252885800421933 l -0.6810168763321202 4.927498868961743" fill="#ff3605" stroke="none" /><path d="M 103.58742460773223 79.30868818359171 l 1.4557907786667696 -8.396614350005132 a29.521881208627782,29.521881208627782 0 0,0 0.49858980309200546,0.09085967102356698 l -1.5997153153098287 8.370386505050199" fill="#ff6809" stroke="none" /><path d="M 106.04205211174951 79.88797359093562 l 1.429442828149763 -4.758150273826637 a25.968229143997416,25.968229143997416 0 0,0 0.42582871207006856,0.1319228235095489 l -1.5109121730914619 4.732910862510441" fill="#ff3605" stroke="none" /><path d="M 108.4095320186766 80.7573450057729 l 0.5186827348367493 -1.1868476029057826 a22.295237048551705,22.295237048551705 0 0,0 0.349383985373092,0.15627501267249996 l -0.5389801230654729 1.17776883932343" fill="#ff0100" stroke="none" /><path d="M 109.06512990194946 81.05736502329252 l 2.235818031222197 -4.671999772521184 a26.179427009156157,26.179427009156157 0 0,0 0.4037113865289066,0.1974754693868547 l -2.3156896670131704 4.6329305530371085" fill="#ff3905" stroke="none" /><path d="M 109.3889696526874 81.21577127319529 l 3.30109827315933 -6.604407864385446 a28.383458068426464,28.383458068426464 0 0,0 0.43395979711456295,0.22158296449266968 l -3.413985291987472 6.546766948219942" fill="#ff5808" stroke="none" /><line stroke="#e1ed5e" stroke-width="0.3" x1="143.13028292997686" x2="145.6673583964461" y1="26.7553504044142" y2="22.446841604673864" /><path d="M 143.63769802327073 25.89364864446614 a86.0,86.0 0 0,1 29.32050498858742,28.57503671076993" fill="none" id="id62" stroke="none" /><text fill="#e1ed5e" style="font-size:6.75px; font-family:Arial;" text-anchor="middle"><textPath startOffset="20.669276256404974" xlink:href="#id62">February</textPath></text><path d="M 112.16784306229584 82.88440491214696 l 1.3901326341017721 -1.9553956409433855 a23.39917503592696,23.39917503592696 0 0,0 0.32538111676543163,0.2355508358619698 l -1.4234947612411717 1.931244033708341" fill="#ff1101" stroke="none" /><path d="M 113.03279911837588 83.53348406188908 l 0.9009569728035687 -1.1383297031950965 a22.45172930673029,22.45172930673029 0 0,0 0.30015741462175105,0.2417855661907426 l -0.9203651577805793 1.1226958432109457" fill="#ff0300" stroke="none" /><path d="M 116.35404254752997 86.82634096563983 l 1.1344037190235452 -0.9137953358194854 a22.456672136583897,22.456672136583897 0 0,0 0.23925292443000742,0.30228825424091516 l -1.1499230740951119 0.894187137663892" fill="#ff0300" stroke="none" /><path d="M 116.57777611688842 87.10902102172516 l 3.339179533844081 -2.596566202364006 a25.229926240787446,25.229926240787446 0 0,0 0.26292949853776293,0.3441831537362236 l -3.383261009736151 2.5388621353869008" fill="#ff2c04" stroke="none" /><line stroke="#e1ed5e" stroke-width="0.3" x1="172.87174338648825" x2="177.1583165268699" y1="56.24261187166439" y2="53.66864786411523" /><path d="M 173.72905801456457 55.72781907015455 a86.0,86.0 0 0,1 12.242430191666344,42.057860355516425" fill="none" id="id63" stroke="none" /><text fill="#e1ed5e" style="font-size:6.75px; font-family:Arial;" text-anchor="middle"><textPath startOffset="22.145653131862474" xlink:href="#id63">March</textPath></text><path d="M 118.00360718960297 89.18935116829356 l 2.2630943184543555 -1.3589231142506166 a23.639747700948895,23.639747700948895 0 0,0 0.2059205400191874,0.3496980954826123 l -2.2860885686033106 1.3198738504744478" fill="#ff1502" stroke="none" /><path d="M 119.0197475246899 91.09779779509293 l 5.120577759824997 -2.396688944726433 a26.653709799077795,26.653709799077795 0 0,0 0.19040335900508645,0.4160657017614351 l -5.160965583685134 2.3084342607503134" fill="#ff4006" stroke="none" /><path d="M 119.58574465831526 92.42381321644754 l 4.503076536955518 -1.7418867415961787 a25.828236501894647,25.828236501894647 0 0,0 0.1564075797249927,0.4148896875588644 l -4.532314800494952 1.6643287738431565" fill="#ff3404" stroke="none" /><path d="M 119.71291397450082 92.76114493625339 l 4.540208983315521 -1.6672276271206954 a25.836646107874078,25.836646107874078 0 0,0 0.1493109989660197,0.4176494379990614 l -4.5681601523254844 1.5890432327407171" fill="#ff3405" stroke="none" /><path d="M 120.05942366710727 93.78553927170692 l 3.8348256705841925 -1.1880387953903915 a25.01463872635187,25.01463872635187 0 0,0 0.12355287535604725,0.41126733866535903 l -3.8546548659438673 1.122033853134309" fill="#ff2803" stroke="none" /><path d="M 120.16314734710363 94.1308016681162 l 9.3902635050684 -2.7333688511587257 a30.77999764678419,30.77999764678419 0 0,0 0.14331974208777973,0.5085912040818102 l -9.435801739230763 2.5717697231739023" fill="#ff790b" stroke="none" /><path d="M 120.26092885502905 94.47779374421319 l 4.619025729109039 -1.2589360023637277 a25.787516949757865,25.787516949757865 0 0,0 0.11274120571019466,0.42809672154773787 l -4.639956415623964 1.1794587764431914" fill="#ff3404" stroke="none" /><path d="M 120.35273937422433 94.82641323984039 l 5.062124115124203 -1.286772154782205 a26.223110484686767,26.223110484686767 0 0,0 0.10715571300607378,0.4372318760414985 l -5.083467354646568 1.1996844541326117" fill="#ff3a05" stroke="none" /><path d="M 120.43855184770803 95.1765574152323 l 9.58499089590262 -2.262031752855913 a30.848291127168434,30.848291127168434 0 0,0 0.1172075510216692,0.5164380960459903 l -9.622409308481956 2.0971593228708962" fill="#ff7a0b" stroke="none" /><path d="M 120.51834098615036 95.52812308129327 l 9.48395281227873 -2.0669833739462664 a30.706584425723598,30.706584425723598 0 0,0 0.1078273251579859,0.5159927848120798 l -9.518037848261082 1.9038741378487825" fill="#ff780b" stroke="none" /><path d="M 120.65975698304385 96.23510406497455 l 6.915309169693242 -1.2601996917868132 a28.02919655263836,28.02919655263836 0 0,0 0.08219919929715572,0.4741031379588215 l -6.935923186482632 1.1413035209073992" fill="#ff5307" stroke="none" /><path d="M 120.7213421655516 96.59031103205396 l 4.845764145261779 -0.7973686460733053 a25.91092933254444,25.91092933254444 0 0,0 0.06845236650859152,0.43951329739960016 l -4.858738003908635 0.7140671667422638" fill="#ff3505" stroke="none" /><path d="M 120.77682067341334 96.94652285012252 l 4.775406501117023 -0.701820305509797 a25.826702703931183,25.826702703931183 0 0,0 0.06069949513034872,0.4391913093435375 l -4.786750512802584 0.619740687966174" fill="#ff3404" stroke="none" /><path d="M 120.99303781780057 99.45929381324524 l 6.408825489350267 -0.16506861093657382 a27.410950927846994,27.410950927846994 0 0,0 0.008077835464885238,0.4704934189601443 l -6.410714756413818 0.05502827600736312" fill="#ff4a06" stroke="none" /><line stroke="#e1ed5e" stroke-width="0.3" x1="184.99686870605535" x2="189.99668451229388" y1="99.2704041080226" y2="99.22748670261217" /><path d="M 185.99683186730306 99.26182062694052 a86.0,86.0 0 0,1 -10.086455211305974,41.156179273409016" fill="none" id="id64" stroke="none" /><text fill="#e1ed5e" style="font-size:6.75px; font-family:Arial;" text-anchor="middle"><textPath startOffset="21.40746469413373" xlink:href="#id64">April</textPath></text><path d="M 120.7213421655516 103.40968896794604 l 6.3570616349153815 1.0460520728796605 a27.442550548446544,27.442550548446544 0 0,0 -0.08047878495260312,0.4641802452017691 l -6.338168032470544 -1.1550253510020176" fill="#ff4b07" stroke="none" /><path d="M 120.51834098615036 104.47187691870673 l 4.78855799607394 1.0436439276930656 a25.900967285095287,25.900967285095287 0 0,0 -0.09841027926194675,0.43361384834325034 l -4.769936855254328 -1.125692109975333" fill="#ff3505" stroke="none" /><path d="M 120.16314734710363 105.8691983318838 l 3.332524759862529 0.9700493888597318 a24.47083809647237,24.47083809647237 0 0,0 -0.12086692285530896,0.40232667634911756 l -3.3153815170035905 -1.0271136687995728" fill="#ff2103" stroke="none" /><path d="M 120.05942366710727 106.21446072829308 l 6.101025991107728 1.8901134475864978 a27.38710004531942,27.38710004531942 0 0,0 -0.14298059511930244,0.4478846777597525 l -6.067680680211171 -1.994567159037634" fill="#ff4a06" stroke="none" /><path d="M 119.83427380445688 106.89939002012753 l 6.038003417094087 2.100331019330485 a27.392876946696354,27.392876946696354 0 0,0 -0.15830451848848842,0.4428059127410633 l -6.001058728561655 -2.2036718884524693" fill="#ff4a06" stroke="none" /><path d="M 119.71291397450082 107.23885506374661 l 3.491743659809409 1.2822166375712853 a24.719724894596887,24.719724894596887 0 0,0 -0.1496947862448112,0.3970832053248396 l -3.4692181897501575 -1.3419681230902838" fill="#ff2403" stroke="none" /><path d="M 119.4528033332814 107.91128576633889 l 3.451135522023774 1.4035467724274582 a24.725624770929816,24.725624770929816 0 0,0 -0.16327643492459265,0.39180400511994734 l -3.4265332425626958 -1.4625832869886832" fill="#ff2403" stroke="none" /><path d="M 119.31412917781788 108.2440532568976 l 10.749825666318909 4.588461352804852 a32.68814482466882,32.68814482466882 0 0,0 -0.22471717011450723,0.5141968621070729 l -10.669474614187434 -4.772320284687769" fill="#ff920d" stroke="none" /><path d="M 119.0197475246899 108.90220220490707 l 5.3014986150992565 2.481369040224306 a26.85346733822638,26.85346733822638 0 0,0 -0.19899792921543127,0.415829135933062 l -5.258121427923913 -2.572010678222471" fill="#ff4306" stroke="none" /><path d="M 118.70294669586154 109.54985784667822 l 5.718323305804428 2.9198166246104367 a27.420634746740976,27.420634746740976 0 0,0 -0.21765707408889795,0.41738613872642677 l -5.66735816274058 -3.017549006441366" fill="#ff4b06" stroke="none" /><path d="M 118.5362547648365 109.86951160357373 l 5.649612627262595 3.0081005083205996 a27.400530564436327,27.400530564436327 0 0,0 -0.2246251790321312,0.41328502935793365 l -5.597142098615125 -3.1046403711531365" fill="#ff4a06" stroke="none" /><line stroke="#e1ed5e" stroke-width="0.3" x1="174.33088141563837" x2="178.70328620479359" y1="141.23008692659167" y2="143.65538615756765" /><path d="M 175.20536237346943 141.71514677278685 a86.0,86.0 0 0,1 -30.301960400862466,31.631185727798858" fill="none" id="id65" stroke="none" /><text fill="#e1ed5e" style="font-size:6.75px; font-family:Arial;" text-anchor="middle"><textPath startOffset="22.145653131862474" xlink:href="#id65">May</textPath></text><path d="M 117.81537515405839 111.11811171558189 l 9.647775389130231 6.020925389199914 a32.372383765131175,32.372383765131175 0 0,0 -0.2982611208785783,0.46891602187652714 l -9.542996576625763 -6.185655085755113" fill="#ff8e0d" stroke="none" /><path d="M 117.01052211995028 112.31430620078461 l 5.287289775049971 3.8275900529755886 a27.527317885547298,27.527317885547298 0 0,0 -0.28038274771393024,0.38039304633980064 l -5.2208050077522135 -3.917789408584267" fill="#ff4c07" stroke="none" /><path d="M 116.79662413953412 112.60449989151573 l 5.190461747333747 3.895019260280918 a27.489381186869377,27.489381186869377 0 0,0 -0.28647603411905465,0.37500632466608325 l -5.122833735860388 -3.9835464981878785" fill="#ff4b07" stroke="none" /><path d="M 116.57777611688842 112.89097897827486 l 7.137959905767282 5.550520796289153 a30.042054673932228,30.042054673932228 0 0,0 -0.3200674344314387,0.40439474762596783 l -7.041626040694282 -5.672235487829805" fill="#ff6f0a" stroke="none" /><path d="M 116.1254893667686 113.45245675266167 l 2.437252207708991 2.033242475549417 a24.173999572835616,24.173999572835616 0 0,0 -0.2685678820056781,0.31637228969835496 l -2.401989762196198 -2.0747815476973286" fill="#ff1c02" stroke="none" /><path d="M 115.89218393027572 113.72728997021213 l 4.85327456321469 4.192142975855099 a27.413137821375585,27.413137821375585 0 0,0 -0.31066778588884925,0.35348291184263736 l -4.780595713367256 -4.2748381655090295" fill="#ff4a06" stroke="none" /><path d="M 115.6541949942343 113.99807769240083 l 3.0019713596784836 2.6843813008985062 a25.027124906548522,25.027124906548522 0 0,0 -0.2891256211260059,0.317799704971486 l -2.955448037710598 -2.735518581427664" fill="#ff2903" stroke="none" /><path d="M 115.16444852881244 114.52719865689866 l 8.480461694407401 8.12409046743776 a32.74389528535674,32.74389528535674 0 0,0 -0.3923236302634102,0.40255860647568154 l -8.339751262993184 -8.268471765981179" fill="#ff930d" stroke="none" /><path d="M 114.91283532996324 114.78537596483092 l 3.108689622739923 3.082119785620367 a25.37760363023463,25.37760363023463 0 0,0 -0.3093748370037715,0.3067306235165348 l -3.0553228656061866 -3.1350304193655636" fill="#ff2e04" stroke="none" /><path d="M 114.65682725009322 115.03919595460226 l 3.104164612356774 3.18514635425471 a25.447583078328066,25.447583078328066 0 0,0 -0.31546219254843305,0.30220564441790493 l -3.0490299339430287 -3.237964128978195" fill="#ff2f04" stroke="none" /><path d="M 114.13192950727249 115.5334660781643 l 4.309939961977782 4.737379008567376 a27.404556373915984,27.404556373915984 0 0,0 -0.35069346295531145,0.3135922570578443 l -4.227981472199092 -4.810666795508607" fill="#ff4a06" stroke="none" /><path d="M 113.86319453409587 115.77377054828091 l 4.207199355830154 4.787020562001238 a27.373075574690787,27.373075574690787 0 0,0 -0.35561603422751487,0.30717266055536213 l -4.124403841839784 -4.858537355021317" fill="#ff4a06" stroke="none" /><path d="M 113.59037401385872 116.0094264158162 l 2.4115822407814633 2.840837815803272 a24.72640421851286,24.72640421851286 0 0,0 -0.3259477767415215,0.2719172280921752 l -2.362460129878047 -2.8818172278073173" fill="#ff2403" stroke="none" /><path d="M 113.31354834802062 116.24036423190432 l 8.462736482696561 10.323162487185506 a34.34861762552203,34.34861762552203 0 0,0 -0.45920704465368123,0.36990468961189416 l -8.284278667687628 -10.466915470590804" fill="#ffa80f" stroke="none" /><path d="M 111.27062007382361 117.71928675628689 l 3.4459353499870105 5.417582724827931 a27.42064428360925,27.42064428360925 0 0,0 -0.39934364922023613,0.24921997244202143 l -3.3524275719770595 -5.4759384941115" fill="#ff4b06" stroke="none" /><line stroke="#e1ed5e" stroke-width="0.3" x1="143.1302829299769" x2="145.66735839644613" y1="173.24464959558577" y2="177.55315839532614" /><path d="M 143.63769802327073 174.10635135553383 a86.0,86.0 0 0,1 -40.68552437913181,11.842963189579606" fill="none" id="id66" stroke="none" /><text fill="#e1ed5e" style="font-size:6.75px; font-family:Arial;" text-anchor="middle"><textPath startOffset="21.407464694133747" xlink:href="#id66">June</textPath></text><path d="M 110.34350942703117 118.27599006163325 l 1.8437019795739014 3.257644737795497 a24.74319198374481,24.74319198374481 0 0,0 -0.3714492893545279,0.20603665928930784 l -1.7875085020632788 -3.2888143125179488" fill="#ff2503" stroke="none" /><path d="M 110.02825361518725 118.45085714620011 l 2.551589706289084 4.694637668033836 a26.343241793458592,26.343241793458592 0 0,0 -0.39917686510083855,0.21253919693985598 l -2.4706240254016913 -4.737747332696261" fill="#ff3b05" stroke="none" /><path d="M 103.94208987418118 120.62667999033965 l 0.5024536400344104 2.629049761358834 a23.676632643469173,23.676632643469173 0 0,0 -0.3998704392909396,0.07286971442398561 l -0.45724846719241363 -2.637287649714183" fill="#ff1502" stroke="none" /><path d="M 102.15924093988457 120.88869738790638 l 5.196767497633181 50.27401141216336 a71.54188971432299,71.54188971432299 0 0,0 -1.2226864502253145,0.1157896780586473 l -4.332981484022851 -50.355812845727186" fill="#3dffb1" stroke="none" /><line stroke="#e1ed5e" stroke-width="0.3" x1="101.45913802915013" x2="101.54496967792366" y1="184.9874750549273" y2="189.98673829345242" /><path d="M 101.47630435890484 185.9873277026323 a86.0,86.0 0 0,1 -42.54439059252881,-10.42667462771756" fill="none" id="id67" stroke="none" /><text fill="#e1ed5e" style="font-size:6.75px; font-family:Arial;" text-anchor="middle"><textPath startOffset="22.145653131862474" xlink:href="#id67">July</textPath></text><path d="M 98.91894614982273 120.97215588758144 l -0.14963363210921665 2.9028524879726607 a23.90670651954876,23.90670651954876 0 0,0 -0.40966492204627086,-0.02464442442256086 l 0.19944290628793382 -2.899856085725408" fill="#ff1902" stroke="none" /><path d="M 96.76829788921471 120.74984581791261 l -0.44694459363129113 2.869704907531019 a23.904301245753246,23.904301245753246 0 0,0 -0.40491893937671947,-0.06662925738471033 l 0.4961410360610741 -2.86160965165064" fill="#ff1902" stroke="none" /><path d="M 94.30408787586889 120.21278271476187 l -0.7232589393466039 2.566590823195348 a23.666550570879043,23.666550570879043 0 0,0 -0.39009235817019755,-0.1135502001964026 l 0.7672113098984082 -2.5537969286964297" fill="#ff1502" stroke="none" /><path d="M 93.61358852112213 120.00534299687104 l -1.1363292176118944 3.559535089600318 a24.736513635047302,24.736513635047302 0 0,0 -0.4034139747557268,-0.13261018632190266 l 1.1972659300153647 -3.539503981876394" fill="#ff2503" stroke="none" /><path d="M 92.93061703081489 119.77432235084164 l -1.8010725035211763 5.037920341436882 a26.35018724248073,26.35018724248073 0 0,0 -0.4246280580381294,-0.15592930462306426 l 1.8872897132134245 -5.006260187805098" fill="#ff3b05" stroke="none" /><path d="M 92.59220618246901 119.65005319985036 l -1.1241297131161208 2.981887618684643 a24.186741499145374,24.186741499145374 0 0,0 -0.3872501605672161,-0.14979668118834016 l 1.175152136176865 -2.9621510493582623" fill="#ff1d02" stroke="none" /><path d="M 91.92203290615298 119.3841803445677 l -1.241820354887868 2.9799167829040627 a24.228315633089046,24.228315633089046 0 0,0 -0.3825361738872494,-0.1632819456254985 l 1.2927916039455485 -2.9581601876191606" fill="#ff1d03" stroke="none" /><path d="M 91.59046798132341 119.24265499422711 l -3.2077717510898807 7.340009523641026 a29.010339531769624,29.010339531769624 0 0,0 -0.4546149485006054,-0.20334348399562113 l 3.333300102446121 -7.28386228873555" fill="#ff6108" stroke="none" /><path d="M 90.93487009805054 118.94263497670748 l -1.1540291755423975 2.4114771284269443 a23.6733883516858,23.6733883516858 0 0,0 -0.36506591347295997,-0.17857203196584168 l 1.195255338277427 -2.3913113463638815" fill="#ff1502" stroke="none" /><line stroke="#e1ed5e" stroke-width="0.3" x1="58.13341422392154" x2="55.67067388415222" y1="173.97424548756322" y2="178.32567169271397" /><path d="M 57.64086615596768 174.84453072859336 a86.0,86.0 0 0,1 -31.369924170532247,-30.572349798747897" fill="none" id="id68" stroke="none" /><text fill="#e1ed5e" style="font-size:6.75px; font-family:Arial;" text-anchor="middle"><textPath startOffset="22.145653131862474" xlink:href="#id68">August</textPath></text><path d="M 89.65649057296885 118.27599006163327 l -1.5790660290732437 2.790058370187861 a24.20591254297875,24.20591254297875 0 0,0 -0.3598699151538282,-0.20777099238731206 l 1.6267284120874714 -2.762540480524377" fill="#ff1d02" stroke="none" /><path d="M 87.83215693770417 117.11559508785305 l -2.164243329223745 3.0442792781707286 a24.73518212562509,24.73518212562509 0 0,0 -0.3439591853591083,-0.24899992482399452 l 2.216183524956807 -3.0066785819736688" fill="#ff2403" stroke="none" /><path d="M 87.54013794807813 116.9041958592261 l -3.151368968504605 4.275437243711086 a26.311354817799845,26.311354817799845 0 0,0 -0.3612762152105187,-0.2711084071179609 l 3.22429817262589 -4.22070980932911" fill="#ff3b05" stroke="none" /><path d="M 86.68645165197938 116.24036423190432 l -2.1215851263856873 2.5879888892743583 a24.346462302119733,24.346462302119733 0 0,0 -0.32093931607555587,-0.2677389920725482 l 2.165698776623136 -2.55118771328994" fill="#ff1f03" stroke="none" /><path d="M 85.60350026404147 115.28858382429668 l -4.380353733702814 4.6517838687215844 a27.389568999053264,27.389568999053264 0 0,0 -0.3395361147973326,-0.32526791735819777 l 4.459562334365461 -4.575903821057804" fill="#ff4a06" stroke="none" /><path d="M 85.08716467003676 114.78537596483092 l -3.6300123847886825 3.598986824340227 a26.111721439544,26.111721439544 0 0,0 -0.3128597028029836,-0.3210216165113627 l 3.6912588887424755 -3.536142515761127" fill="#ff3805" stroke="none" /><path d="M 84.83555147118756 114.52719865689866 l -4.216050789393261 4.038881285311517 a26.838462665426846,26.838462665426846 0 0,0 -0.31585568948798187,-0.3354277965953446 l 4.284762312617495 -3.965912028771682" fill="#ff4206" stroke="none" /><path d="M 83.64595745247003 113.17365903436017 l -2.2309072118626743 1.797060932241049 a23.86467711655746,23.86467711655746 0 0,0 -0.25425378061304976,-0.32124134598888104 l 2.2614274231172855 -1.7584996423374872" fill="#ff1802" stroke="none" /><path d="M 83.20337586046588 112.60449989151573 l -2.721245614467961 2.0420734409134926 a24.40224067819215,24.40224067819215 0 0,0 -0.24855190469974292,-0.3372083945006503 l 2.7558995387515344 -1.9950587371439628" fill="#ff2003" stroke="none" /><path d="M 82.98947788004972 112.3143062007846 l -2.151922348946452 1.5578258291178024 a23.656612713543655,23.656612713543655 0 0,0 -0.2353099626563546,-0.33099293115012396 l 2.1783474101327673 -1.5206556712581745" fill="#ff1502" stroke="none" /><path d="M 82.576782715395 111.72311816256416 l -2.7699316298178474 1.8637336186624236 a24.33856619452092,24.33856619452092 0 0,0 -0.23026087116959415,-0.34864430684231423 l 2.8015169399081685 -1.8159094334810482" fill="#ff1f03" stroke="none" /><line stroke="#e1ed5e" stroke-width="0.3" x1="26.387840678322732" x2="22.057713659400548" y1="142.50000000000003" y2="145.00000000000006" /><path d="M 25.521815274538298 143.00000000000003 a86.0,86.0 0 0,1 -11.493303480769221,-40.785679425670985" fill="none" id="id69" stroke="none" /><text fill="#e1ed5e" style="font-size:6.75px; font-family:Arial;" text-anchor="middle"><textPath startOffset="21.40746469413373" xlink:href="#id69">September</textPath></text><path d="M 80.9802524753101 108.90220220490708 l -9.303376431282107 4.354449924854637 a31.272003074873076,31.272003074873076 0 0,0 -0.22339458458721032,-0.4881574836266439 l 9.376755480724373 -4.194103459013305" fill="#ff7f0b" stroke="none" /><path d="M 80.5471966667186 107.91128576633889 l -2.973519925519469 1.209304667283606 a24.210021577151036,24.210021577151036 0 0,0 -0.15326249274119888,-0.3863216001781403 l 2.9938410932267923 -1.1580820498919004" fill="#ff1d02" stroke="none" /><path d="M 80.16572619554312 106.89939002012753 l -3.1457605138425575 1.0942588021568809 a24.33064731494477,24.33064731494477 0 0,0 -0.133835450831298,-0.39566072938158925 l 3.164081386246223 -1.04009639830113" fill="#ff1f03" stroke="none" /><path d="M 79.94057633289273 106.21446072829308 l -2.8765292347749565 0.8911561099638413 a24.011408250443782,24.011408250443782 0 0,0 -0.11859769645863034,-0.3947731597004616 l 2.8914032512372168 -0.8416453466726561" fill="#ff1a02" stroke="none" /><path d="M 79.64726062577567 105.17358676015961 l -3.1708419499178726 0.8060156241881309 a24.271681503110344,24.271681503110344 0 0,0 -0.0991815726376488,-0.40469466215625777 l 3.184211049071815 -0.7514651374237735" fill="#ff1e03" stroke="none" /><path d="M 79.17382384314188 102.69636545807758 l -3.270978114777958 0.4234936042212743 a24.298279045225357,24.298279045225357 0 0,0 -0.050005758467391824,-0.41411941476980113 l 3.277765959505011 -0.36728051252807387" fill="#ff1e03" stroke="none" /><path d="M 79.06263194458094 101.62068470465958 l -4.623088954497256 0.3578563235360943 a25.6369184411082,25.6369184411082 0 0,0 -0.03019789572225171,-0.439070776274445 l 4.628550811384574 -0.278442123107306" fill="#ff3104" stroke="none" /><path d="M 79.03789590574601 101.26102812881392 l -2.9860837245871905 0.17963538177114893 a23.991482054204667,23.991482054204667 0 0,0 -0.02120208445272378,-0.41131477420045964 l 2.988727398496487 -0.1283488141939585" fill="#ff1a02" stroke="none" /><line stroke="#e1ed5e" stroke-width="0.3" x1="15.003131293944662" x2="10.003315487706104" y1="100.72959589197737" y2="100.7725132973878" /><path d="M 14.003168132696942 100.73817937305945 a86.0,86.0 0 0,1 10.791469493833604,-42.45332614584628" fill="none" id="id70" stroke="none" /><text fill="#e1ed5e" style="font-size:6.75px; font-family:Arial;" text-anchor="middle"><textPath startOffset="22.145653131862435" xlink:href="#id70">October</textPath></text><path d="M 79.00077361379809 99.81974689727619 l -62.99767915860572 -0.540759308171441 a84.0,84.0 0 0,0 0.024754273605335886,-1.4418123361237905 l 62.97911345340172 1.6221185602642838" fill="#4dd2ff" stroke="none" /><path d="M 79.00696218219943 99.45929381324524 l -62.26999846790482 -1.6038542736419081 a83.29064984188196,83.29064984188196 0 0,0 0.049083231525191263,-1.4290047313529521 l 62.23329054938278 2.6725652695589988" fill="#4cd8ff" stroke="none" /><path d="M 79.01933749520258 99.09900007780938 l -7.085602442409044 -0.30428625634793205 a28.092133113364078,28.092133113364078 0 0,0 0.024825968540880258,-0.48161715738224536 l 7.079334884411593 0.4258752071068894" fill="#ff5407" stroke="none" /><path d="M 79.13060592940154 97.66154086499901 l -2.681421121531251 -0.3004588295768161 a23.69820213091321,23.69820213091321 0 0,0 0.04877080264260721,-0.4038922089619207 l 2.6758682326289756 0.34644471546217304" fill="#ff1602" stroke="none" /><path d="M 79.83685265289637 94.1308016681162 l -6.766940937166446 -1.9697578843552235 a28.047796518776536,28.047796518776536 0 0,0 0.1385343176531851,-0.4611356876225024 l 6.732130299509631 2.0856311755684493" fill="#ff5307" stroke="none" /><path d="M 79.94057633289273 93.78553927170692 l -3.0723717738934786 -0.9518286291986245 a24.216433748171955,24.216433748171955 0 0,0 0.1264274093734311,-0.39603205917538514 l 3.05557964874279 1.0044297220654013" fill="#ff1d02" stroke="none" /><path d="M 80.5471966667186 92.08871423366112 l -23.208664996247915 -9.438762007448467 a46.05458758673381,46.05458758673381 0 0,0 0.3041229066100519,-0.7297842638073777 l 23.043216245101384 9.835778780697108" fill="#c6ff1e" stroke="none" /><path d="M 80.83023694016515 91.42560881287825 l -2.47472300674982 -1.1069121237133266 a23.710997677933424,23.710997677933424 0 0,0 0.16938180978456793,-0.37012982292899615 l 2.4553567321102054 1.1492309288569942" fill="#ff1602" stroke="none" /><path d="M 80.9802524753101 91.09779779509293 l -2.3991773730673094 -1.122936152162786 a23.648969171068686,23.648969171068686 0 0,0 0.17525095861357332,-0.36620710064189116 l 2.379547156493831 1.1639557548697645" fill="#ff1502" stroke="none" /><path d="M 81.1358732173502 90.77261029715801 l -2.4779137317682443 -1.212071776048427 a23.758473210379034,23.758473210379034 0 0,0 0.18235203685739754,-0.36482622650160557 l 2.4567417816991024 1.2544298587138027" fill="#ff1602" stroke="none" /><path d="M 81.46374523516351 90.13048839642627 l -4.20220659894785 -2.2374383237117605 a25.760742647177533,25.760742647177533 0 0,0 0.21118245924160836,-0.38855193902846263 l 4.163178790090891 2.3092450962148425" fill="#ff3304" stroke="none" /><line stroke="#e1ed5e" stroke-width="0.3" x1="26.387840678322718" x2="22.05771365940052" y1="57.49999999999999" y2="54.99999999999999" /><path d="M 25.521815274538284 56.99999999999999 a86.0,86.0 0 0,1 29.574782752854787,-30.34633250058573" fill="none" id="id71" stroke="none" /><text fill="#e1ed5e" style="font-size:6.75px; font-family:Arial;" text-anchor="middle"><textPath startOffset="21.40746469413373" xlink:href="#id71">November</textPath></text><path d="M 82.98947788004972 87.6856937992154 l -2.106060406420305 -1.5246253195010266 a23.59999476929375,23.59999476929375 0 0,0 0.24038053423735117,-0.3261223611112797 l 2.079577852599135 1.5605539898811698" fill="#ff1402" stroke="none" /><path d="M 83.8745106332314 86.54754324733833 l -2.8606697454478685 -2.3864724448977617 a24.72541032945058,24.72541032945058 0 0,0 0.2746939356846746,-0.32358876552847 l 2.8192812462560792 2.4352279928757885" fill="#ff2403" stroke="none" /><path d="M 84.10781606972428 86.27271002978789 l -2.8184360041457945 -2.4344978928723013 a24.72429342290118,24.72429342290118 0 0,0 0.2801956326710391,-0.31881119517678397 l 2.776229307516163 2.4825213658603857" fill="#ff2403" stroke="none" /><path d="M 84.58840730492382 85.73525988315684 l -1.966778130280109 -1.8204204750946917 a23.67995278314602,23.67995278314602 0 0,0 0.27868391370262274,-0.2959526588594007 l 1.9352383828412145 1.8539145938986035" fill="#ff1502" stroke="none" /><path d="M 84.83555147118756 85.47280134310135 l -1.9185505626844808 -1.8379280396822166 a23.65684319082385,23.65684319082385 0 0,0 0.2834463804722403,-0.29084095662774984 l 1.8867173810614382 1.8705916883776967" fill="#ff1502" stroke="none" /><path d="M 86.68645165197937 83.75963576809568 l -3.616698950472467 -4.411784652552938 a26.70476600035885,26.70476600035885 0 0,0 0.357016308687818,-0.2875870664204373 l 3.5404318714294036 4.473220012766774" fill="#ff4006" stroke="none" /><path d="M 88.4268655584334 82.4767994020092 l -6.083732422400553 -9.211546289424648 a32.03922031801072,32.03922031801072 0 0,0 0.4615392608324219,-0.2991641727124224 l 5.924707529311106 9.314624303840978" fill="#ff8a0c" stroke="none" /><path d="M 89.03521579738668 82.08984904055464 l -3.2708370613476645 -5.342666526763308 a27.26438031237588,27.26438031237588 0 0,0 0.40126318415789397,-0.24094701285909387 l 3.1786411206323364 5.398027540158326" fill="#ff4806" stroke="none" /><line stroke="#e1ed5e" stroke-width="0.3" x1="56.869717070023135" x2="54.33264160355391" y1="26.7553504044142" y2="22.446841604673864" /><path d="M 56.362301976729285 25.89364864446614 a86.0,86.0 0 0,1 42.16139366436587,-11.88097634709845" fill="none" id="id72" stroke="none" /><text fill="#e1ed5e" style="font-size:6.75px; font-family:Arial;" text-anchor="middle"><textPath startOffset="22.145653131862474" xlink:href="#id72">December</textPath></text><path d="M 89.65649057296885 81.72400993836675 l -2.4674835715361265 -4.359807041195029 a26.009629987559403,26.009629987559403 0 0,0 0.39046128654701995,-0.21658229364700624 l 2.392278096833004 4.401522250275181" fill="#ff3705" stroke="none" /><path d="M 90.61103034731259 81.2157712731953 l -2.227502003481811 -4.456496151400561 a25.982180559048768,25.982180559048768 0 0,0 0.4006696607557468,-0.19598760888838015 l 2.1506720934640113 4.494077510386155" fill="#ff3605" stroke="none" /><path d="M 91.5904679813234 80.7573450057729 l -2.4078490924900766 -5.509629936844075 a27.012799621904403,27.012799621904403 0 0,0 0.42649985124156853,-0.1820474252462068 l 2.3129141660780768 5.550152011749685" fill="#ff4506" stroke="none" /><path d="M 92.592206182469 80.34994680014964 l -1.7165237930106303 -4.553283296255387 a25.86609111175797,25.86609111175797 0 0,0 0.4168269445962695,-0.15306462771053372 l 1.6381076967602337 4.582078772974643" fill="#ff3505" stroke="none" /><path d="M 95.35216902796891 79.52079915486377 l -1.885824518877822 -8.309290788151097 a29.520601358944887,29.520601358944887 0 0,0 0.4951554896488151,-0.10791683434962367 l 1.7429066126098884 8.340439080634436" fill="#ff6809" stroke="none" /><path d="M 96.41257539226777 79.30868818359171 l -0.9964690960664505 -5.747368944753704 a26.833112415043516,26.833112415043516 0 0,0 0.4545305594827081,-0.074792830593717 l 0.8976610335306696 5.76362777384309" fill="#ff4206" stroke="none" /><path d="M 97.12497278360702 79.19773525538626 l -0.6278153418743418 -4.542559067939999 a25.58573821638531,25.58573821638531 0 0,0 0.4355937550311441,-0.05639633247957316 l 0.5497437649524037 4.552666996619967" fill="#ff3104" stroke="none" /><path d="M 97.84075906011542 79.11130261209362 l -1.4734149300875226 -14.25395287432199 a35.32990314341297,35.32990314341297 0 0,0 0.6038056030350488,-0.057181018381738044 l 1.228509763667458 14.277145648208911" fill="#ffb510" stroke="none" /><path d="M 98.9189461498227 79.02784411241856 l -0.3340620365413603 -6.480714263511802 a27.489318516573483,27.489318516573483 0 0,0 0.4714735423004118,-0.020247102532176355 l 0.22276273364012844 6.485493934469806" fill="#ff4b07" stroke="none" /><path d="M 99.63950707515114 79.00309439819443 l -0.11609766026580981 -6.762106674392415 a27.763103233174963,27.763103233174963 0 0,0 0.4765905851146603,-0.004090956976983173 l 1.6564825453621668e-15 6.763103233174963" fill="#ff4f07" stroke="none" /></svg>