<?xml version="1.0" encoding="utf-8" ?>
<svg baseProfile="full" height="200mm" version="1.1" viewBox="0,0,200,200" width="200mm" xmlns="http://www.w3.org/2000/svg" xmlns:ev="http://www.w3.org/2001/xml-events" xmlns:xlink="http://www.w3.org/1999/xlink"><defs /><rect fill="#1a1a1a" height="200" width="200" x="0" y="0" /><rect fill="#1a1a1a" height="200" width="180" x="10" y="0" /><text alignment-baseline="middle" fill="#e1ed5e" style="dominant-baseline: central; font-size:9.0px; font-family:Arial;" text-anchor="middle" x="100.0" y="100.0">2022</text><line stroke="#e1ed5e" stroke-width="0.3" x1="100.0" x2="100.0" y1="15.0" y2="10.0" /><path d="M 100.0 14.0 a86.0,86.0 0 0,1 42.46469731375804,11.215312516191453" fill="none" id="id85" stroke="none" /><text fill="#e1ed5e" style="font-size:6.75px; font-family:Arial;" text-anchor="middle"><textPath startOffset="22.20632615414155" xlink:href="#id85">January</textPath></text><path d="M 100.72285384407766 79.0124445844662 l 1.1484421452397253 -33.34421385765464 a54.3639853306821,54.3639853306821 0 0,0 0.9349548423822732,0.040261122242734856 l -1.7222378200113302 33.31950500888771" fill="red" stroke="none" /><path d="M 101.80526077348638 79.07773832637324 l 2.439983199923092 -28.27844471990316 a49.38351552913285,49.38351552913285 0 0,0 0.8462803035658875,0.08036451205401696 l -2.9263886305792237 28.23225466333396" fill="red" stroke="none" /><path d="M 105.36241919743992 79.69619591428918 l 8.530386510191601 -32.29872378515426 a54.40621277790927,54.40621277790927 0 0,0 0.9034076778571846,0.24693544478110652 l -9.085092077272497 32.14710179954686" fill="red" stroke="none" /><path d="M 106.0581310904928 79.89281104454417 l 10.743239823865318 -35.65725962438136 a58.24053390908383,58.24053390908383 0 0,0 0.9574040098358643,0.29747008625991994 l -11.355429206411902 35.46704940323892" fill="red" stroke="none" /><path d="M 107.76421540070413 80.48803036053334 l 13.62331752099586 -34.23626781842998 a57.8472090450978,57.8472090450978 0 0,0 0.9220187603184175,0.3761146028462328 l -14.210620150902665 33.99669232940017" fill="red" stroke="none" /><path d="M 108.43124777332544 80.76684994638697 l 15.241253350374613 -34.76796324504988 a58.96191607255151,58.96191607255151 0 0,0 0.9260330595327829,0.4154840405965808 l -15.837468528374178 34.500458873936765" fill="red" stroke="none" /><path d="M 109.73455568895987 81.39251694778311 l 17.09503406737014 -32.67694662699584 a57.878490080642955,57.878490080642955 0 0,0 0.8788020600797626,0.4694256256519381 l -17.654981173978214 32.37784227484215" fill="red" stroke="none" /><line stroke="#e1ed5e" stroke-width="0.3" x1="143.23703022742887" x2="145.7803849466894" y1="26.81831364943548" y2="22.513508569990506" /><path d="M 143.74570117128098 25.957352633546492 a86.0,86.0 0 0,1 28.547481713284135,27.462654790039103" fill="none" id="id86" stroke="none" /><text fill="#e1ed5e" style="font-size:6.75px; font-family:Arial;" text-anchor="middle"><textPath startOffset="19.985693538727396" xlink:href="#id86">February</textPath></text><path d="M 111.2981086023043 82.29822771554956 l 11.746186512797347 -18.403816619165255 a42.83285056389306,42.83285056389306 0 0,0 0.6180841000244756,0.40201909178369 l -12.061237638606103 18.198898603222037" fill="red" stroke="none" /><path d="M 111.60114157652 82.49532879139004 l 32.250984863238244 -48.662701205840115 a79.37965838627095,79.37965838627095 0 0,0 1.132465381530436,0.7646456808258849 l -33.08385493917522 48.10034361271556" fill="red" stroke="none" /><path d="M 111.90073688211348 82.69761687909136 l 18.73633403114322 -27.24060139296066 a54.062071580237465,54.062071580237465 0 0,0 0.7621950440241904,0.5339663370153487 l -19.20246021475106 26.914050213181376" fill="red" stroke="none" /><path d="M 112.19680574252982 82.90503203632743 l 15.104916886392566 -21.170958668827588 a47.007076058296775,47.007076058296775 0 0,0 0.6546399789410751,0.475623785233222 l -15.46710218168743 20.907815648777692" fill="red" stroke="none" /><path d="M 112.77801427241765 83.33499621200491 l 10.792841470693709 -14.075954225578629 a38.737472040065654,38.737472040065654 0 0,0 0.5256627822305009,0.4102881394557963 l -11.03353680808364 13.888087696899609" fill="red" stroke="none" /><path d="M 113.06298171725822 83.55741782278167 l 13.084682552904829 -16.469897363073805 a42.03488618130551,42.03488618130551 0 0,0 0.5626601736806387,0.45496539672414454 l -13.366246125149958 16.24222586908553" fill="red" stroke="none" /><path d="M 113.89432698308785 84.25364557470407 l 21.509336215689103 -24.376397066036503 a53.50938754207203,53.50938754207203 0 0,0 0.6854017766326376,0.6153604824551525 l -21.92574897991773 24.002537574812052" fill="red" stroke="none" /><path d="M 114.16331599549186 84.49514656593476 l 20.71190601372771 -22.673720418664594 a51.70961817322478,51.70961817322478 0 0,0 0.6520142487737447,0.6059761851553355 l -21.0991281462963 22.31383964743462" fill="red" stroke="none" /><path d="M 114.42810811169701 84.74124197986012 l 17.975168807460264 -19.010028832667395 a47.16271946636164,47.16271946636164 0 0,0 0.5850799379901902,0.5628464367883357 l -18.299731989062874 18.69779930911676" fill="red" stroke="none" /><path d="M 114.94478906791727 85.2469230424477 l 23.665814777361618 -23.36222914133452 a54.25454163762609,54.25454163762609 0 0,0 0.6503717612665777,0.6702652692770164 l -24.064450802331304 22.95139967650739" fill="red" stroke="none" /><path d="M 115.9244219780498 86.31012108654704 l 24.968868774238867 -21.46519293424853 a53.927175942823794,53.927175942823794 0 0,0 0.5990779900987454,0.709119381351778 l -25.33465737782473 21.032214603267647" fill="red" stroke="none" /><path d="M 117.2510076193507 88.02491185347247 l 40.494043230436745 -28.10964714605048 a70.29421669753911,70.29421669753911 0 0,0 0.68143727259997,0.9999251125974898 l -40.97190496870545 27.408444010182585" fill="red" stroke="none" /><path d="M 117.45458315368197 88.32363383020206 l 15.902171155486826 -10.637869244508122 a40.132258348706486,40.132258348706486 0 0,0 0.3791607184318274,0.5774877868933468 l -16.082928509276577 10.362563393637101" fill="red" stroke="none" /><line stroke="#e1ed5e" stroke-width="0.3" x1="172.23445277983987" x2="176.4835382374775" y1="55.19839476539836" y2="52.563006222186495" /><path d="M 173.08426987136738 54.67131705675599 a86.0,86.0 0 0,1 12.851231095245387,41.99856678651699" fill="none" id="id87" stroke="none" /><text fill="#e1ed5e" style="font-size:6.75px; font-family:Arial;" text-anchor="middle"><textPath startOffset="22.20632615414155" xlink:href="#id87">March</textPath></text><path d="M 118.73160827565052 90.50648371742162 l 16.509766210564347 -8.367446726146742 a39.509093577006844,39.509093577006844 0 0,0 0.30222572763966504,0.6092686248576854 l -16.65135195115742 8.082018512790107" fill="red" stroke="none" /><path d="M 119.61058180528143 92.48833698450437 l 30.878893110492186 -11.827891780092875 a54.06667603026936,54.06667603026936 0 0,0 0.3254180840569148,0.8719586775801413 l -31.077915783050727 11.294609965483401" fill="red" stroke="none" /><path d="M 119.85752413597 93.16781622104841 l 30.570553961426015 -10.51811099201851 a53.32938954494626,53.32938954494626 0 0,0 0.29118533936776236,0.8706071019400531 l -30.74707659456555 9.990330787156143" fill="red" stroke="none" /><line stroke="#e1ed5e" stroke-width="0.3" x1="184.98032266829074" x2="189.97916517819016" y1="98.17113171792111" y2="98.06355123074" /><path d="M 185.9800911702706 98.14961562048488 a86.0,86.0 0 0,1 -9.607161424134198,41.387399972396054" fill="none" id="id88" stroke="none" /><text fill="#e1ed5e" style="font-size:6.75px; font-family:Arial;" text-anchor="middle"><textPath startOffset="21.466115282336823" xlink:href="#id88">April</textPath></text><path d="M 118.64920377521936 109.65438752849418 l 19.38005197527938 10.032735678523924 a42.822974127273696,42.822974127273696 0 0,0 -0.3445159080549138,0.6516942638300773 l -19.204483558999573 -10.364844957440136" fill="red" stroke="none" /><line stroke="#e1ed5e" stroke-width="0.3" x1="174.80103733775053" x2="179.2010983576182" y1="140.37084112569926" y2="142.7455964860345" /><path d="M 175.68104954172406 140.8457921977663 a86.0,86.0 0 0,1 -30.038265399797805,32.042727171017184" fill="none" id="id89" stroke="none" /><text fill="#e1ed5e" style="font-size:6.75px; font-family:Arial;" text-anchor="middle"><textPath startOffset="22.206326154141568" xlink:href="#id89">May</textPath></text><path d="M 116.498646956653 112.99209946851258 l 13.95197565161609 10.986686115794928 a38.75851616521744,38.75851616521744 0 0,0 -0.4172669647756217,0.5206046962864425 l -13.760790774785615 -11.22521864565962" fill="red" stroke="none" /><path d="M 115.07121518719521 114.62390073753431 l 13.49031851521533 13.0899251609017 a39.79720283339968,39.79720283339968 0 0,0 -0.48127965505277387,0.48753374961293783 l -13.262998235107021 -13.320199404495304" fill="red" stroke="none" /><path d="M 112.63410532772338 116.77436683061366 l 10.886472473725206 14.454025673264765 a39.09514136680268,39.09514136680268 0 0,0 -0.5410302697525605,0.40024125935594684 l -10.636057233554082 -14.63927688136048" fill="red" stroke="none" /><line stroke="#e1ed5e" stroke-width="0.3" x1="143.8653032363475" x2="146.44561519142675" y1="172.8068346515853" y2="177.08958963109032" /><path d="M 144.38136562736335 173.6633856474863 a86.0,86.0 0 0,1 -40.68145358897372,12.25698825130547" fill="none" id="id90" stroke="none" /><text fill="#e1ed5e" style="font-size:6.75px; font-family:Arial;" text-anchor="middle"><textPath startOffset="21.466115282336833" xlink:href="#id90">June</textPath></text><path d="M 109.89434966115114 118.52300852407294 l 17.31173626141929 32.408945440428745 a57.74283545054229,57.74283545054229 0 0,0 -0.8807407385106797,0.46076192801080845 l -16.75130462038212 -32.702136787384276" fill="red" stroke="none" /><path d="M 107.59598834532513 119.57807347666477 l 13.418603800825128 34.58541525126088 a58.09730281389292,58.09730281389292 0 0,0 -0.9354489607088132,0.3537067537543413 l -12.82128461935604 -34.811270255121855" fill="red" stroke="none" /><path d="M 106.91757812671514 119.82793768551818 l 12.656624196432045 36.277834710201375 a59.422277747556834,59.422277747556834 0 0,0 -0.9686687719428289,0.328625040443399 l -12.03028569155199 -36.4903227375429" fill="red" stroke="none" /><path d="M 106.57524785965236 119.94407469862006 l 11.812675446523574 35.83026625379215 a58.72727502779041,58.72727502779041 0 0,0 -0.9627879644305757,0.3082543023688495 l -11.194166137002057 -36.028293402820715" fill="red" stroke="none" /><path d="M 105.88484417918355 120.15858648285463 l 9.72845996864459 33.32492682076746 a55.715899541435284,55.715899541435284 0 0,0 -0.9229440424514392,0.26083320543563604 l -9.153384758088544 -33.48744881954161" fill="red" stroke="none" /><path d="M 104.83641907484287 120.43548508189849 l 12.767768790599405 53.948085269658 a76.43836058319631,76.43836058319631 0 0,0 -1.2829991390009323,0.2920064269500373 l -11.83724950220561 -54.15986843018572" fill="red" stroke="none" /><path d="M 103.7750983002368 120.6578951692458 l 6.032352671579645 33.009924299347404 a54.5565847636937,54.5565847636937 0 0,0 -0.9252563703124667,0.1608676799812919 l -5.463247329795128 -33.1088705578497" fill="red" stroke="none" /><path d="M 102.70371172650421 120.8252237178851 l 5.376664849188281 41.413530607868445 a62.76109484088454,62.76109484088454 0 0,0 -1.0725350398888074,0.12986905680613064 l -4.663002386248094 -41.499945193399924" fill="red" stroke="none" /><path d="M 102.34483914955558 120.86867818915974 l 3.7382871046208863 33.270133083458894 a54.47949440878164,54.47949440878164 0 0,0 -0.932811921085962,0.09668976965839383 l -3.1650425869293213 -33.329552221573046" fill="red" stroke="none" /><path d="M 101.62511606390274 120.93702456842531 l 2.8828086122420618 37.140384050866594 a58.25209675898368,58.25209675898368 0 0,0 -1.000375016857071,0.06899171818064113 l -2.24307083460606 -37.18450411356352" fill="red" stroke="none" /><path d="M 100.90346689309514 120.98055641714683 l 2.7104006792854274 62.94166925144049 a84.0,84.0 0 0,0 -1.4451185933013908,0.04977280629562486 l -1.626561734309384 -62.97899885616221" fill="red" stroke="none" /><line stroke="#e1ed5e" stroke-width="0.3" x1="102.19456741930631" x2="102.32365962044197" y1="184.97166512339345" y2="189.96999836594603" /><path d="M 102.22038585953345 185.97133177190398 a86.0,86.0 0 0,1 -42.740103519485714,-10.115201625700543" fill="none" id="id91" stroke="none" /><text fill="#e1ed5e" style="font-size:6.75px; font-family:Arial;" text-anchor="middle"><textPath startOffset="22.20632615414155" xlink:href="#id91">July</textPath></text><path d="M 99.09653310690486 120.98055641714683 l -2.3952172959937332 55.62239412864754 a76.67394179055074,76.67394179055074 0 0,0 -1.3181051346742112,-0.06813097952930289 l 3.3523104990814336 -55.57292334235604" fill="red" stroke="none" /><path d="M 98.37488393609728 120.93702456842531 l -2.7678104570924953 35.65881651660237 a56.76607289165396,56.76607289165396 0 0,0 -0.9735535100679528,-0.0840022933481925 l 3.3812082849019895 -35.60588997097551" fill="red" stroke="none" /><path d="M 97.65516085044442 120.86867818915974 l -6.203675793268584 55.211682107977154 a76.55911657451287,76.55911657451287 0 0,0 -1.308331783524025,-0.15842075866665992 l 7.153134999843998 -55.096715820585146" fill="red" stroke="none" /><path d="M 96.93821686468263 120.77559828337769 l -5.417742743797448 36.7618612662302 a58.15893405623372,58.15893405623372 0 0,0 -0.989156450268758,-0.15448589450213202 l 6.049735057674723 -36.66315706438096" fill="red" stroke="none" /><path d="M 96.22490169976321 120.6578951692458 l -5.418116804066385 29.648734960388136 a51.13973248809366,51.13973248809366 0 0,0 -0.8645838674006322,-0.16569955591427415 l 5.927668286038712 -29.551078206125393" fill="red" stroke="none" /><path d="M 94.46302465271185 120.25689768951611 l -9.959773376949927 36.43760314129886 a58.77427707320145,58.77427707320145 0 0,0 -0.9736066243309696,-0.2751509571296435 l 10.58551116938551 -36.2607633908307" fill="red" stroke="none" /><path d="M 93.76903079525671 120.05430185196036 l -9.921946030777576 31.93366780060521 a54.43955968964114,54.43955968964114 0 0,0 -0.892494208751958,-0.2857484616041967 l 10.470161584620476 -31.758146492341307" fill="red" stroke="none" /><path d="M 92.7421414339146 119.70592522655815 l -19.006266320752783 51.60421073826666 a75.9930243337718,75.9930243337718 0 0,0 -1.2235954543684144,-0.4626591019410442 l 19.89173199588148 -51.26940338621898" fill="red" stroke="none" /><path d="M 91.7346041902142 119.30500536409082 l -21.8501129292969 51.034040838874056 a76.51486971404051,76.51486971404051 0 0,0 -1.206309116360724,-0.5288104664554314 l 22.725342720315364 -50.650365819124175" fill="red" stroke="none" /><path d="M 91.07499286063937 119.00905698771935 l -18.84695461436646 40.141461929980856 a65.34574008979996,65.34574008979996 0 0,0 -1.0140642331149776,-0.48681245647715743 l 19.53513151548168 -39.811095197004136" fill="red" stroke="none" /><path d="M 90.42595943632237 118.69057910512821 l -12.45320750877384 24.3113300499644 a48.315254823173134,48.315254823173134 0 0,0 -0.736943603172046,-0.38553406307396176 l 12.86984201447238 -24.093366567945722" fill="red" stroke="none" /><line stroke="#e1ed5e" stroke-width="0.3" x1="58.666819895761336" x2="56.23545636021788" y1="174.27360380694188" y2="178.64263932499728" /><path d="M 58.180547188652646 175.14741091055294 a86.0,86.0 0 0,1 -31.652253787137756,-30.449443065178592" fill="none" id="id92" stroke="none" /><text fill="#e1ed5e" style="font-size:6.75px; font-family:Arial;" text-anchor="middle"><textPath startOffset="22.20632615414155" xlink:href="#id92">August</textPath></text><path d="M 89.7882731507175 118.34994917583269 l -17.072359510132593 30.67815404252502 a56.108611403758324,56.108611403758324 0 0,0 -0.8398957705290592,-0.47691473843952414 l 17.59790404758286 -30.379736138290863" fill="red" stroke="none" /><path d="M 89.1626897886671 117.98757091392108 l -18.072657001730033 29.99666827675025 a56.02029467048466,56.02029467048466 0 0,0 -0.8216864754490717,-0.504746944920402 l 18.586322677111415 -29.681132865001466" fill="red" stroke="none" /><path d="M 88.54995079064634 117.60387380957326 l -23.420692021113993 36.008134055507966 a63.95479639001103,63.95479639001103 0 0,0 -0.9176761090116419,-0.6081856857041432 l 24.037042828865594 -35.5996503487125" fill="red" stroke="none" /><path d="M 87.07902340077011 116.55440617244103 l -27.357044851638836 35.049953745656396 a65.46242414204642,65.46242414204642 0 0,0 -0.8823166029506936,-0.7009656712646677 l 27.956318947306887 -34.5738541603866" fill="red" stroke="none" /><path d="M 86.24171649860922 115.8653595955263 l -36.34000432689845 41.90546271930973 a76.46768176333364,76.46768176333364 0 0,0 -0.9870071379741452,-0.8709190419100279 l 37.055953817779184 -41.27372053562741" fill="red" stroke="none" /><line stroke="#e1ed5e" stroke-width="0.3" x1="26.63291911575756" x2="22.317208475507996" y1="142.92168965132927" y2="145.44649492493687" /><path d="M 25.769776987707644 143.4266507060508 a86.0,86.0 0 0,1 -11.730757126820373,-40.83630448921669" fill="none" id="id93" stroke="none" /><text fill="#e1ed5e" style="font-size:6.75px; font-family:Arial;" text-anchor="middle"><textPath startOffset="21.46611528233685" xlink:href="#id93">September</textPath></text><path d="M 81.02952815118164 109.00673069616217 l -30.21222974583814 14.344051071575926 a54.44444090367315,54.44444090367315 0 0,0 -0.3946583751191932,-0.8500590295494392 l 30.45466273779716 -13.82187197474766" fill="red" stroke="none" /><path d="M 80.58989483394504 108.01547362559985 l -30.725918893149732 12.688380119705347 a54.242699678133086,54.242699678133086 0 0,0 -0.34895461533987676,-0.8660767377138515 l 30.939776122746995 -12.15760401414869" fill="red" stroke="none" /><path d="M 79.50377843672027 104.57218783832718 l -36.180002997816395 8.070842188475384 a58.06927448107499,58.06927448107499 0 0,0 -0.20923178448499244,-0.9774612402661726 l 36.31356882102583 -7.4468671287930475" fill="red" stroke="none" /><path d="M 79.35854240842038 103.8639653848113 l -32.87255795300418 6.153558946943102 a54.44355474657444,54.44355474657444 0 0,0 -0.16450653525577608,-0.9226400132255042 l 32.97361093059914 -5.586800182984384" fill="red" stroke="none" /><path d="M 79.1416061653843 102.43462659150553 l -32.666635449593045 3.8129042893326788 a53.88840693490976,53.88840693490976 0 0,0 -0.09961066347561676,-0.9222710314369611 l 32.727428414569715 -3.2500369360109356" fill="red" stroke="none" /><path d="M 79.0235259727143 100.99374915477108 l -33.4095387515884 1.5827588970622941 a54.44700891440245,54.44700891440245 0 0,0 -0.036292476068251804,-0.9365475453292339 l 33.43183336050785 -1.0074341047190634" fill="red" stroke="none" /><line stroke="#e1ed5e" stroke-width="0.3" x1="15.007084014347285" x2="10.007500721073583" y1="101.09737516637583" y2="101.16192664675087" /><path d="M 14.007167355692545 101.11028546245083 a86.0,86.0 0 0,1 10.666146001902534,-42.60595125391555" fill="none" id="id94" stroke="none" /><text fill="#e1ed5e" style="font-size:6.75px; font-family:Arial;" text-anchor="middle"><textPath startOffset="22.20632615414155" xlink:href="#id94">October</textPath></text><path d="M 79.00175016825051 100.2711162175752 l -33.31549762227995 0.43014878736851897 a54.31827441209126,54.31827441209126 0 0,0 -0.004023956511067119,-0.935025779062039 l 33.317965876080514 0.14338646989719533" fill="red" stroke="none" /><path d="M 79.05617556472873 98.46500227214037 l -31.80253334439217 -2.330845379968442 a52.88783415828827,52.88783415828827 0 0,0 0.07435907634249025,-0.9073690760121111 l 31.757699784230184 2.8779283731883316" fill="red" stroke="none" /><path d="M 79.3925641242962 95.95851677861259 l -6.482060639648181 -1.2712469165579372 a27.6055415265468,27.6055415265468 0 0,0 0.09546351725265163,-0.46551401330201575 l 6.459217826480535 1.3826365860233554" fill="red" stroke="none" /><path d="M 79.62865764111835 94.90015583598534 l -32.15644107630194 -8.050173398954275 a54.14878571602449,54.14878571602449 0 0,0 0.23413849370398712,-0.902231127344076 l 32.01310625072764 8.602500951847214" fill="red" stroke="none" /><line stroke="#e1ed5e" stroke-width="0.3" x1="26.266209847984243" x2="21.928928074336255" y1="57.711370442889674" y2="55.22380399835377" /><path d="M 25.398753493254645 57.213857153982495 a86.0,86.0 0 0,1 29.58750427330803,-30.492523968695096" fill="none" id="id95" stroke="none" /><text fill="#e1ed5e" style="font-size:6.75px; font-family:Arial;" text-anchor="middle"><textPath startOffset="21.46611528233685" xlink:href="#id95">November</textPath></text><path d="M 82.54541684631803 88.32363383020206 l -36.793073782167916 -24.6129854955809 a65.2665712851778,65.2665712851778 0 0,0 0.6326989106356818,-0.9284075804128873 l 36.3639504058635 25.242671099264204" fill="red" stroke="none" /><path d="M 83.39014120810768 87.1503855733568 l -26.381486173969126 -20.409079305526195 a54.354359997556266,54.354359997556266 0 0,0 0.5788633721609406,-0.7350976981485802 l 26.026268721214215 20.86016939762782" fill="red" stroke="none" /><path d="M 84.07557802195018 86.31012108654704 l -34.58210402928054 -29.729482011080346 a66.60442982583086,66.60442982583086 0 0,0 0.7548760104907761,-0.8629537735038713 l 34.06523615521193 30.32035134078716" fill="red" stroke="none" /><path d="M 84.31358615837235 86.03803664274999 l -16.539497830188306 -14.721265483866908 a43.142056045482654,43.142056045482654 0 0,0 0.4985092503016842,-0.5504663651832227 l 16.283644939270577 15.003784636319686" fill="red" stroke="none" /><path d="M 84.80347519578584 85.50635884689758 l -24.41676744090614 -23.28742064166614 a54.741406200767514,54.741406200767514 0 0,0 0.656208009327471,-0.6762800359244557 l 24.01229516787555 23.70426487314072" fill="red" stroke="none" /><path d="M 85.31137513191541 84.99185889309783 l -12.668893278606395 -12.944475041141368 a39.11243470645098,39.11243470645098 0 0,0 0.48521164876882494,-0.4667732216829191 l 12.444198386225144 13.1606313495866" fill="red" stroke="none" /><path d="M 86.37877921826538 84.01681056812374 l -24.046870491727134 -28.216684280491123 a58.07334962248235,58.07334962248235 0 0,0 0.7664091024480703,-0.6418455825544113 l 23.557603852319954 28.626431020439345" fill="red" stroke="none" /><path d="M 86.93701828274178 83.55741782278169 l -20.730960819711214 -26.094389035273 a54.327014202184046,54.327014202184046 0 0,0 0.7372109725244753,-0.5754048575020325 l 20.278717292027316 26.447372281998252" fill="red" stroke="none" /><line stroke="#e1ed5e" stroke-width="0.3" x1="56.762969772571076" x2="54.21961505331055" y1="26.818313649435495" y2="22.513508569990535" /><path d="M 56.25429882871897 25.957352633546506 a86.0,86.0 0 0,1 42.265352541879196,-11.944610805530505" fill="none" id="id96" stroke="none" /><text fill="#e1ed5e" style="font-size:6.75px; font-family:Arial;" text-anchor="middle"><textPath startOffset="22.20632615414155" xlink:href="#id96">December</textPath></text><path d="M 90.26544431104013 81.39251694778311 l -15.451111766083283 -29.53460943793968 a54.33211678636136,54.33211678636136 0 0,0 0.83241851252925,-0.4263970934279172 l 14.94043276596527 29.796199056680102" fill="red" stroke="none" /><path d="M 90.91171255644093 81.06846463323043 l -12.560343996399292 -26.164070850900075 a50.022764251511305,50.022764251511305 0 0,0 0.779454209243692,-0.3659642025797975 l 12.10811157585599 26.37640003611988" fill="red" stroke="none" /><path d="M 91.90106846888425 80.62456947434976 l -18.401539691586596 -44.02281368715468 a68.71398943658946,68.71398943658946 0 0,0 1.0952228880647679,-0.446768915450618 l 17.641032933933445 44.33304348878888" fill="red" stroke="none" /><path d="M 92.57280143429618 80.3572730644239 l -11.688504526353876 -30.912611352091652 a54.04861084324212,54.04861084324212 0 0,0 0.8730592412127656,-0.3215550865886877 l 11.15466295936854 31.109229706486662" fill="red" stroke="none" /><path d="M 93.25333710446033 80.11325718540243 l -16.487566854173885 -48.59943452698804 a72.32002432885092,72.32002432885092 0 0,0 1.1823193641876855,-0.3897921054887731 l 15.64856466774379 48.87604035673605" fill="red" stroke="none" /><path d="M 93.94186890950719 79.89281104454417 l -9.91963930216666 -32.923695251765494 a55.38559222866774,55.38559222866774 0 0,0 0.9152067762156839,-0.26717395459959853 l 9.351442308227554 33.08956753528379" fill="red" stroke="none" /><path d="M 94.98787191387505 79.60689891045804 l -11.723953643428926 -47.701847939883145 a70.12145545393585,70.12145545393585 0 0,0 1.1746222411622127,-0.27799513396057035 l 10.90110771530418 47.896588985984586" fill="red" stroke="none" /><path d="M 96.04723909329186 79.375362276772 l -9.618987502578408 -50.189762848609796 a72.10320161569578,72.10320161569578 0 0,0 1.2209642989830078,-0.22312342143175287 l 8.753628082492508 50.347901751392286" fill="red" stroke="none" /></svg>