<?xml version="1.0" encoding="utf-8" ?>
<svg baseProfile="full" height="200mm" version="1.1" viewBox="0,0,200,200" width="200mm" xmlns="http://www.w3.org/2000/svg" xmlns:ev="http://www.w3.org/2001/xml-events" xmlns:xlink="http://www.w3.org/1999/xlink"><defs /><rect fill="#1a1a1a" height="200" width="200" x="0" y="0" /><text alignment-baseline="middle" fill="#e1ed5e" style="dominant-baseline: central; font-size:9.0px; font-family:Arial;" text-anchor="middle" x="100.0" y="100.0">2016</text><line stroke="#e1ed5e" stroke-width="0.3" x1="100.0" x2="100.0" y1="15.0" y2="10.0" /><path d="M 100.0 14.0 a86.0,86.0 0 0,1 42.35913384403234,11.155469271406648" fill="none" id="id13" stroke="none" /><text fill="#e1ed5e" style="font-size:6.75px; font-family:Arial;" text-anchor="middle"><textPath startOffset="22.145653131862478" xlink:href="#id13">January</textPath></text><line stroke="#e1ed5e" stroke-width="0.3" x1="143.13028292997686" x2="145.6673583964461" y1="26.7553504044142" y2="22.446841604673864" /><path d="M 143.63769802327073 25.89364864446614 a86.0,86.0 0 0,1 29.32050498858742,28.57503671076993" fill="none" id="id14" stroke="none" /><text fill="#e1ed5e" style="font-size:6.75px; font-family:Arial;" text-anchor="middle"><textPath startOffset="20.669276256404974" xlink:href="#id14">February</textPath></text><line stroke="#e1ed5e" stroke-width="0.3" x1="172.87174338648825" x2="177.1583165268699" y1="56.24261187166439" y2="53.66864786411523" /><path d="M 173.72905801456457 55.72781907015455 a86.0,86.0 0 0,1 12.242430191666344,42.057860355516425" fill="none" id="id15" stroke="none" /><text fill="#e1ed5e" style="font-size:6.75px; font-family:Arial;" text-anchor="middle"><textPath startOffset="22.145653131862474" xlink:href="#id15">March</textPath></text><line stroke="#e1ed5e" stroke-width="0.3" x1="184.99686870605535" x2="189.99668451229388" y1="99.2704041080226" y2="99.22748670261217" /><path d="M 185.99683186730306 99.26182062694052 a86.0,86.0 0 0,1 -10.086455211305974,41.156179273409016" fill="none" id="id16" stroke="none" /><text fill="#e1ed5e" style="font-size:6.75px; font-family:Arial;" text-anchor="middle"><textPath startOffset="21.40746469413373" xlink:href="#id16">April</textPath></text><path d="M 120.99922638620191 99.81974689727618 l 13.126239536369605 -0.11267297947135219 a34.12672310847058,34.12672310847058 0 0,0 0.0,0.5858521643903565 l -13.126239536369605 -0.11267297947135059" fill="#ff960d" stroke="none" /><path d="M 120.98066250479742 100.90099992219065 l 9.867990639137291 0.4237739773950264 a30.87708578670948,30.87708578670948 0 0,0 -0.027287125448303775,0.5293629438829455 l -9.859261924232415 -0.5931087146547025" fill="#ff6909" stroke="none" /><path d="M 120.82617615685814 102.69636545807757 l 8.86992696700508 1.1483896280031924 a29.94395903041317,29.94395903041317 0 0,0 -0.07037612258081052,0.5092065651684852 l -8.84890632786906 -1.3004845013717627" fill="#ff5c08" stroke="none" /><path d="M 120.77682067341334 103.0534771498775 l 8.12173016371998 1.19361464692834 a29.208971724743655,29.208971724743655 0 0,0 -0.07716524606972916,0.49545623438018055 l -8.100043425511982 -1.332859063239971" fill="#ff5107" stroke="none" /><path d="M 120.35273937422433 105.17358676015961 l 7.862549552751523 1.9986293500485812 a29.112595438473978,29.112595438473978 0 0,0 -0.12727821439657794,0.4832961113409251 l -7.8270818575502155 -2.1333059657623097" fill="#ff5007" stroke="none" /><line stroke="#e1ed5e" stroke-width="0.3" x1="174.33088141563837" x2="178.70328620479359" y1="141.23008692659167" y2="143.65538615756765" /><path d="M 175.20536237346943 141.71514677278685 a86.0,86.0 0 0,1 -30.301960400862466,31.631185727798858" fill="none" id="id17" stroke="none" /><text fill="#e1ed5e" style="font-size:6.75px; font-family:Arial;" text-anchor="middle"><textPath startOffset="22.145653131862474" xlink:href="#id17">May</textPath></text><path d="M 117.423217284605 111.72311816256416 l 10.58389401943643 7.1213162404593335 a33.75664366560782,33.75664366560782 0 0,0 -0.32761668712947517,0.4780025374652185 l -10.460087595491634 -7.301953512994596" fill="#ff910d" stroke="none" /><path d="M 117.21940702142032 112.02048342749411 l 9.465032860089126 6.607328027838442 a32.54312049274486,32.54312049274486 0 0,0 -0.3237031675073633,0.4553290435573842 l -9.350214594051803 -6.76883429810533" fill="#ff800b" stroke="none" /><path d="M 112.7482090630111 116.68781488649013 l 5.947790398591215 7.785848558392681 a30.797736901948287,30.797736901948287 0 0,0 -0.4228778754280659,0.3173354413766912 l -5.813259534252382 -7.886803027033387" fill="#ff6809" stroke="none" /><line stroke="#e1ed5e" stroke-width="0.3" x1="143.1302829299769" x2="145.66735839644613" y1="173.24464959558577" y2="177.55315839532614" /><path d="M 143.63769802327073 174.10635135553383 a86.0,86.0 0 0,1 -40.68552437913181,11.842963189579606" fill="none" id="id18" stroke="none" /><text fill="#e1ed5e" style="font-size:6.75px; font-family:Arial;" text-anchor="middle"><textPath startOffset="21.407464694133747" xlink:href="#id18">June</textPath></text><path d="M 105.3480935250658 120.30758222061773 l 0.68042517125548 2.5836852039865064 a23.671779864992033,23.671779864992033 0 0,0 -0.393847361179135,0.1001144590836091 l -0.6359725168509476 -2.5949848949053855" fill="#ff0000" stroke="none" /><path d="M 102.51750503828377 120.84855314841334 l 1.4063323901623228 11.64644961371056 a32.73105107807133,32.73105107807133 0 0,0 -0.5583981192449244,0.06256967396841263 l -1.2061983693165992 -11.668875048185944" fill="#ff820c" stroke="none" /><path d="M 101.08105385017728 120.97215588758144 l 0.6635444466334115 12.872584997364193 a33.889675548555275,33.889675548555275 0 0,0 -0.5812470530564553,0.024961249410384266 l -0.4424716329761267 -12.882078815200408" fill="#ff920d" stroke="none" /><line stroke="#e1ed5e" stroke-width="0.3" x1="101.45913802915013" x2="101.54496967792366" y1="184.9874750549273" y2="189.98673829345242" /><path d="M 101.47630435890484 185.9873277026323 a86.0,86.0 0 0,1 -42.54439059252881,-10.42667462771756" fill="none" id="id19" stroke="none" /><text fill="#e1ed5e" style="font-size:6.75px; font-family:Arial;" text-anchor="middle"><textPath startOffset="22.145653131862474" xlink:href="#id19">July</textPath></text><path d="M 97.48249496171623 120.84855314841334 l -1.228383943916195 10.172781206767006 a31.246677734486582,31.246677734486582 0 0,0 -0.531970489633813,-0.0688742303033323 l 1.402832255440802 -10.150195380263275" fill="#ff6e0a" stroke="none" /><line stroke="#e1ed5e" stroke-width="0.3" x1="58.13341422392154" x2="55.67067388415222" y1="173.97424548756322" y2="178.32567169271397" /><path d="M 57.64086615596768 174.84453072859336 a86.0,86.0 0 0,1 -31.369924170532247,-30.572349798747897" fill="none" id="id20" stroke="none" /><text fill="#e1ed5e" style="font-size:6.75px; font-family:Arial;" text-anchor="middle"><textPath startOffset="22.145653131862474" xlink:href="#id20">August</textPath></text><path d="M 86.40962598614128 116.0094264158162 l -10.169058184692782 11.979124971835002 a36.7133439933869,36.7133439933869 0 0,0 -0.4769596956152761,-0.4119864251848888 l 10.37319736007092 -11.80279441418539" fill="#ffb811" stroke="none" /><path d="M 84.58840730492382 114.26474011684316 l -13.127700554892895 12.150803648419354 a38.88794429668698,38.88794429668698 0 0,0 -0.4492526045671032,-0.493807309892032 l 13.334350860301878 -11.923658762969648" fill="#ffd513" stroke="none" /><path d="M 84.1078160697243 113.72728997021213 l -17.76889446513609 15.348347832064682 a44.479893349144255,44.479893349144255 0 0,0 -0.49416194918948564,-0.5821215335926659 l 18.029750977832688 -15.041059516022463" fill="#e3ff1b" stroke="none" /><path d="M 82.78059297857968 112.02048342749411 l -51.658221064260964 36.061450282482326 a84.0,84.0 0 0,0 -0.8152410527387,-1.1894610597197959 l 52.26965185381499 -35.16935448769248" fill="#4dd2ff" stroke="none" /><line stroke="#e1ed5e" stroke-width="0.3" x1="26.387840678322732" x2="22.057713659400548" y1="142.50000000000003" y2="145.00000000000006" /><path d="M 25.521815274538298 143.00000000000003 a86.0,86.0 0 0,1 -11.493303480769221,-40.785679425670985" fill="none" id="id21" stroke="none" /><text fill="#e1ed5e" style="font-size:6.75px; font-family:Arial;" text-anchor="middle"><textPath startOffset="21.40746469413373" xlink:href="#id21">September</textPath></text><path d="M 81.81346652052679 110.50000000000001 l -4.377872184722234 2.52756568432716 a26.055131368654315,26.055131368654315 0 0,0 -0.2203105714789465,-0.3892676700520619 l 4.420616121222559 -2.4520412441759762" fill="#ff2303" stroke="none" /><path d="M 81.63589988554817 110.18625677009913 l -48.876497093677514 27.11096902741235 a76.8920084605445,76.8920084605445 0 0,0 -0.6303484206619121,-1.1597700963956492 l 49.334690863954755 -26.267944097542113" fill="#44ffe7" stroke="none" /><line stroke="#e1ed5e" stroke-width="0.3" x1="15.003131293944662" x2="10.003315487706104" y1="100.72959589197737" y2="100.7725132973878" /><path d="M 14.003168132696942 100.73817937305945 a86.0,86.0 0 0,1 10.791469493833604,-42.45332614584628" fill="none" id="id22" stroke="none" /><text fill="#e1ed5e" style="font-size:6.75px; font-family:Arial;" text-anchor="middle"><textPath startOffset="22.145653131862435" xlink:href="#id22">October</textPath></text><line stroke="#e1ed5e" stroke-width="0.3" x1="26.387840678322718" x2="22.05771365940052" y1="57.49999999999999" y2="54.99999999999999" /><path d="M 25.521815274538284 56.99999999999999 a86.0,86.0 0 0,1 29.574782752854787,-30.34633250058573" fill="none" id="id23" stroke="none" /><text fill="#e1ed5e" style="font-size:6.75px; font-family:Arial;" text-anchor="middle"><textPath startOffset="21.40746469413373" xlink:href="#id23">November</textPath></text><line stroke="#e1ed5e" stroke-width="0.3" x1="56.869717070023135" x2="54.33264160355391" y1="26.7553504044142" y2="22.446841604673864" /><path d="M 56.362301976729285 25.89364864446614 a86.0,86.0 0 0,1 42.16139366436587,-11.88097634709845" fill="none" id="id24" stroke="none" /><text fill="#e1ed5e" style="font-size:6.75px; font-family:Arial;" text-anchor="middle"><textPath startOffset="22.145653131862474" xlink:href="#id24">December</textPath></text></svg>