<?xml version="1.0" encoding="utf-8" ?>
<svg baseProfile="full" height="200mm" version="1.1" viewBox="0,0,200,200" width="200mm" xmlns="http://www.w3.org/2000/svg" xmlns:ev="http://www.w3.org/2001/xml-events" xmlns:xlink="http://www.w3.org/1999/xlink"><defs /><rect fill="#1a1a1a" height="200" width="200" x="0" y="0" /><text alignment-baseline="middle" fill="#e1ed5e" style="dominant-baseline: central; font-size:9.0px; font-family:Arial;" text-anchor="middle" x="100.0" y="100.0">2024</text><line stroke="#e1ed5e" stroke-width="0.3" x1="100.0" x2="100.0" y1="15.0" y2="10.0" /><path d="M 100.0 14.0 a86.0,86.0 0 0,1 42.35913384403234,11.155469271406648" fill="none" id="id109" stroke="none" /><text fill="#e1ed5e" style="font-size:6.75px; font-family:Arial;" text-anchor="middle"><textPath startOffset="22.145653131862478" xlink:href="#id109">January</textPath></text><path d="M 100.0 79.0 l 0.0 -18.993985923900347 a39.99398592390035,39.99398592390035 0 0,0 0.6865499505747983,0.005893205611008213 l -0.3260570257259435 18.991187116483772" fill="#ffe015" stroke="none" /><path d="M 100.72087961077811 79.0123766808444 l 1.4592182784260224 -42.4835480295733 a63.508601143358675,63.508601143358675 0 0,0 1.0892458148625748,0.04677690202648078 l -2.1882898538894335 42.45223855912099" fill="#33ff50" stroke="none" /><path d="M 101.08105385017728 79.02784411241856 l 1.0857240423957248 -21.062756368967445 a42.09072076897124,42.09072076897124 0 0,0 0.7212658853109413,0.04338956459911415 l -1.4471342798391285 21.041014826543638" fill="#fffb17" stroke="none" /><path d="M 101.44090949804482 79.04949213459386 l 1.2519766616509422 -18.20346588929709 a39.246468588308296,39.246468588308296 0 0,0 0.6717332217246607,0.05199639969929625 l -1.5642788781508363 18.17929172260274" fill="#ffd614" stroke="none" /><path d="M 101.80034050326958 79.07731436759882 l 0.5536365943557596 -6.4340964374583445 a27.45787197497163,27.45787197497163 0 0,0 0.4692686781112255,0.04444023171393811 l -0.6640048358519981 6.423644450239222" fill="#ff3304" stroke="none" /><path d="M 102.87502721639298 79.19773525538626 l 5.784642481022172 -41.85479137624775 a63.252640743301114,63.252640743301114 0 0,0 1.0743156646262932,0.15788740660834405 l -6.502283251256148 41.74932289634052" fill="#32ff4d" stroke="none" /><path d="M 103.58742460773223 79.30868818359171 l 5.989880730596607 -34.54804030521967 a56.06345333959357,56.06345333959357 0 0,0 0.9468456960350011,0.17254682690721868 l -6.582061160182661 34.44012530438109" fill="#61ff29" stroke="none" /><path d="M 104.29559338865022 79.4440306129975 l 10.599207103194203 -50.72104294494737 a72.8166709528854,72.8166709528854 0 0,0 1.2213699145849546,0.26619188821951467 l -11.468339434398292 50.53161959859413" fill="#3fffbb" stroke="none" /><path d="M 105.3480935250658 79.69241777938227 l 15.828206184867055 -60.102277007229944 a83.15155518958849,83.15155518958849 0 0,0 1.3772217826735356,0.375367921100909 l -16.857609368475284 59.82170859198489" fill="#4cdaff" stroke="none" /><path d="M 107.06938296918511 80.22567764915836 l 1.010822071780855 -2.8274492376304607 a24.002703856889056,24.002703856889056 0 0,0 0.38679882737164945,0.1420378871328895 l -1.059210050806629 2.8096805014888493" fill="#ff0000" stroke="none" /><path d="M 109.06512990194946 81.05736502329252 l 3.3218569326123277 -6.941403377549895 a28.69531119127782,28.69531119127782 0 0,0 0.44250868683480127,0.2164531731239791 l -3.4405258687091957 6.883356454328695" fill="#ff4506" stroke="none" /><line stroke="#e1ed5e" stroke-width="0.3" x1="143.13028292997686" x2="145.6673583964461" y1="26.7553504044142" y2="22.446841604673864" /><path d="M 143.63769802327073 25.89364864446614 a86.0,86.0 0 0,1 29.32050498858742,28.57503671076993" fill="none" id="id110" stroke="none" /><text fill="#e1ed5e" style="font-size:6.75px; font-family:Arial;" text-anchor="middle"><textPath startOffset="20.669276256404974" xlink:href="#id110">February</textPath></text><path d="M 110.96478420261332 82.08984904055464 l 3.109464294774922 -5.079076240200958 a26.955315579736645,26.955315579736645 0 0,0 0.39256678209890433,0.24499070614338633 l -3.1961952056635385 5.024949737216027" fill="#ff2c04" stroke="none" /><path d="M 111.27062007382361 82.28071324371311 l 9.852641679158253 -15.489989199921766 a39.357949598786334,39.357949598786334 0 0,0 0.5669688208827343,0.36750233977322627 l -10.117096132297995 15.318573018444644" fill="#ffd814" stroke="none" /><path d="M 113.31354834802062 83.75963576809568 l 5.7796466154421875 -7.050229113445124 a30.116471112851812,30.116471112851812 0 0,0 0.39700057945282513,0.33119200319444025 l -5.899821529056905 6.949974926338814" fill="#ff5a08" stroke="none" /><path d="M 113.86319453409587 84.22622945171908 l 2.801101959732119 -3.1871398389805585 a25.243115900141326,25.243115900141326 0 0,0 0.3230337178247096,0.28885874240360526 l -2.8554007043802043 3.1385855666935663" fill="#ff1302" stroke="none" /><path d="M 115.6541949942343 86.00192230759917 l 14.609360700571155 -13.063780424239269 a40.598361642038604,40.598361642038604 0 0,0 0.46009337581967386,0.5235018035067054 l -14.83146514034942 12.811066342921265" fill="#ffe815" stroke="none" /><path d="M 116.7966241395341 87.39550010848427 l 7.673821203643614 -5.758578493232864 a30.594204403087023,30.594204403087023 0 0,0 0.31162088258380666,0.422773575748298 l -7.771544105811246 5.625998608215691" fill="#ff6108" stroke="none" /><path d="M 117.01052211995028 87.68569379921539 l 15.533094747104432 -11.244762718794314 a40.1760715743478,40.1760715743478 0 0,0 0.39962736915528047,0.5621259414234445 l -15.723837214789674 10.976459550661366" fill="#ffe215" stroke="none" /><path d="M 117.42321728460499 88.27688183743584 l 16.97337131303222 -11.420441716902152 a41.457805912150604,41.457805912150604 0 0,0 0.3922215643196301,0.5938734389661351 l -17.166917316272578 11.12738839959696" fill="#fff316" stroke="none" /><line stroke="#e1ed5e" stroke-width="0.3" x1="172.87174338648825" x2="177.1583165268699" y1="56.24261187166439" y2="53.66864786411523" /><path d="M 173.72905801456457 55.72781907015455 a86.0,86.0 0 0,1 12.242430191666344,42.057860355516425" fill="none" id="id111" stroke="none" /><text fill="#e1ed5e" style="font-size:6.75px; font-family:Arial;" text-anchor="middle"><textPath startOffset="22.145653131862474" xlink:href="#id111">March</textPath></text><path d="M 118.18653347947321 89.5 l 26.33603687837928 -15.205117981120193 a51.41023596224038,51.41023596224038 0 0,0 0.4347020287272413,0.768076832417132 l -26.593172272127898 14.750784378603942" fill="#94ff23" stroke="none" /><path d="M 118.36410011445183 89.81374322990088 l 45.52898546869391 -25.254160757992107 a73.06401015479935,73.06401015479935 0 0,0 0.5989671011381256,1.1020320030235806 l -45.95579791944738 24.46887392149392" fill="#3fffbe" stroke="none" /><path d="M 118.70294669586156 90.45014215332178 l 18.657054117397323 -9.52642476911682 a41.948470999601255,41.948470999601255 0 0,0 0.3219646760166983,0.6441450276195315 l -18.817838706625757 9.20474788533354" fill="#fff917" stroke="none" /><path d="M 119.0197475246899 91.09779779509293 l 16.851659920887823 -7.887427733166909 a39.60618064878409,39.60618064878409 0 0,0 0.28293058976546914,0.6182543994793805 l -16.984574975508345 7.596984351472845" fill="#ffdb14" stroke="none" /><path d="M 119.16976305983485 91.42560881287824 l 24.897276986866398 -11.136235315646923 a48.274349458166895,48.274349458166895 0 0,0 0.3318657347348441,0.7593737468061048 l -25.084776603618213 10.707199499064968" fill="#b8ff1f" stroke="none" /><path d="M 119.31412917781788 91.75594674310238 l 57.94238753345363 -24.732159770692828 a84.0,84.0 0 0,0 0.5546966218540672,1.3310699622348887 l -58.358409999844184 23.733857299016663" fill="#4dd2ff" stroke="none" /><path d="M 119.71291397450082 92.76114493625339 l 19.172277289251014 -7.040325784324494 a41.42406432631259,41.42406432631259 0 0,0 0.23939130489190727,0.6696200858767338 l -19.290308764186864 6.710170742066844" fill="#fff216" stroke="none" /><path d="M 120.05942366710727 93.78553927170692 l 32.59124498261228 -10.096851005880882 a55.11943214286557,55.11943214286557 0 0,0 0.27224715910325553,0.9062222490649653 l -32.75976846171917 9.535891153225194" fill="#6bff28" stroke="none" /><line stroke="#e1ed5e" stroke-width="0.3" x1="184.99686870605535" x2="189.99668451229388" y1="99.2704041080226" y2="99.22748670261217" /><path d="M 185.99683186730306 99.26182062694052 a86.0,86.0 0 0,1 -10.086455211305974,41.156179273409016" fill="none" id="id112" stroke="none" /><text fill="#e1ed5e" style="font-size:6.75px; font-family:Arial;" text-anchor="middle"><textPath startOffset="21.40746469413373" xlink:href="#id112">April</textPath></text><line stroke="#e1ed5e" stroke-width="0.3" x1="174.33088141563837" x2="178.70328620479359" y1="141.23008692659167" y2="143.65538615756765" /><path d="M 175.20536237346943 141.71514677278685 a86.0,86.0 0 0,1 -30.301960400862466,31.631185727798858" fill="none" id="id113" stroke="none" /><text fill="#e1ed5e" style="font-size:6.75px; font-family:Arial;" text-anchor="middle"><textPath startOffset="22.145653131862474" xlink:href="#id113">May</textPath></text><line stroke="#e1ed5e" stroke-width="0.3" x1="143.1302829299769" x2="145.66735839644613" y1="173.24464959558577" y2="177.55315839532614" /><path d="M 143.63769802327073 174.10635135553383 a86.0,86.0 0 0,1 -40.68552437913181,11.842963189579606" fill="none" id="id114" stroke="none" /><text fill="#e1ed5e" style="font-size:6.75px; font-family:Arial;" text-anchor="middle"><textPath startOffset="21.407464694133747" xlink:href="#id114">June</textPath></text><line stroke="#e1ed5e" stroke-width="0.3" x1="101.45913802915013" x2="101.54496967792366" y1="184.9874750549273" y2="189.98673829345242" /><path d="M 101.47630435890484 185.9873277026323 a86.0,86.0 0 0,1 -42.54439059252881,-10.42667462771756" fill="none" id="id115" stroke="none" /><text fill="#e1ed5e" style="font-size:6.75px; font-family:Arial;" text-anchor="middle"><textPath startOffset="22.145653131862474" xlink:href="#id115">July</textPath></text><line stroke="#e1ed5e" stroke-width="0.3" x1="58.13341422392154" x2="55.67067388415222" y1="173.97424548756322" y2="178.32567169271397" /><path d="M 57.64086615596768 174.84453072859336 a86.0,86.0 0 0,1 -31.369924170532247,-30.572349798747897" fill="none" id="id116" stroke="none" /><text fill="#e1ed5e" style="font-size:6.75px; font-family:Arial;" text-anchor="middle"><textPath startOffset="22.145653131862474" xlink:href="#id116">August</textPath></text><line stroke="#e1ed5e" stroke-width="0.3" x1="26.387840678322732" x2="22.057713659400548" y1="142.50000000000003" y2="145.00000000000006" /><path d="M 25.521815274538298 143.00000000000003 a86.0,86.0 0 0,1 -11.493303480769221,-40.785679425670985" fill="none" id="id117" stroke="none" /><text fill="#e1ed5e" style="font-size:6.75px; font-family:Arial;" text-anchor="middle"><textPath startOffset="21.40746469413373" xlink:href="#id117">September</textPath></text><line stroke="#e1ed5e" stroke-width="0.3" x1="15.003131293944662" x2="10.003315487706104" y1="100.72959589197737" y2="100.7725132973878" /><path d="M 14.003168132696942 100.73817937305945 a86.0,86.0 0 0,1 10.791469493833604,-42.45332614584628" fill="none" id="id118" stroke="none" /><text fill="#e1ed5e" style="font-size:6.75px; font-family:Arial;" text-anchor="middle"><textPath startOffset="22.145653131862435" xlink:href="#id118">October</textPath></text><line stroke="#e1ed5e" stroke-width="0.3" x1="26.387840678322718" x2="22.05771365940052" y1="57.49999999999999" y2="54.99999999999999" /><path d="M 25.521815274538284 56.99999999999999 a86.0,86.0 0 0,1 29.574782752854787,-30.34633250058573" fill="none" id="id119" stroke="none" /><text fill="#e1ed5e" style="font-size:6.75px; font-family:Arial;" text-anchor="middle"><textPath startOffset="21.40746469413373" xlink:href="#id119">November</textPath></text><line stroke="#e1ed5e" stroke-width="0.3" x1="56.869717070023135" x2="54.33264160355391" y1="26.7553504044142" y2="22.446841604673864" /><path d="M 56.362301976729285 25.89364864446614 a86.0,86.0 0 0,1 42.16139366436587,-11.88097634709845" fill="none" id="id120" stroke="none" /><text fill="#e1ed5e" style="font-size:6.75px; font-family:Arial;" text-anchor="middle"><textPath startOffset="22.145653131862474" xlink:href="#id120">December</textPath></text></svg>